<svg width="128" height="24" viewBox="0 0 128 24" fill="none" xmlns="http://www.w3.org/2000/svg">
<g clip-path="url(#clip0_217_50265)">
<path fill-rule="evenodd" clip-rule="evenodd" d="M68.9008 4.38379H66.2033H66.1958V17.9841H68.8934V13.5555H68.9308L71.8832 17.9841H75.2851L71.7258 13.1809L75.1952 9.23943H71.8832L68.9008 12.6938V4.38379ZM29.2243 5.24544H37.7666V7.83811H32.0268V10.4308H37.332V13.0235H32.0268V17.9915H29.2168V5.24544H29.2243ZM38.9127 9.23938H41.6103V10.6406H41.6477C41.9325 10.1011 42.2772 9.69647 42.6743 9.42671C43.0714 9.15696 43.566 9.02208 44.1655 9.02208C44.3228 9.02208 44.4802 9.02208 44.63 9.03707C44.7874 9.05205 44.9298 9.07453 45.0647 9.112V11.5773C44.8698 11.5173 44.6825 11.4724 44.4952 11.4424C44.3078 11.4124 44.113 11.3974 43.9107 11.3974C43.3937 11.3974 42.989 11.4724 42.6893 11.6147C42.3896 11.7571 42.1573 11.9594 41.9999 12.2142C41.8351 12.469 41.7301 12.7837 41.6852 13.1434C41.6402 13.5031 41.6103 13.9002 41.6103 14.3273V17.9765H38.9127V9.23938ZM51.5096 16.89H51.547V16.905V17.999H54.0273V13.5555C54.0273 12.8212 53.9673 12.1768 53.8475 11.6223C53.7276 11.0678 53.5178 10.5957 53.2105 10.2135C52.9033 9.83137 52.4987 9.53914 51.9891 9.34431C51.4721 9.14199 50.8277 9.04458 50.0334 9.04458C49.3065 9.04458 48.6172 9.16447 47.9428 9.39676C47.2759 9.62906 46.6839 9.98124 46.1818 10.4458L47.6206 11.922C47.9128 11.5998 48.235 11.345 48.6022 11.1577C48.9693 10.9704 49.374 10.8804 49.8161 10.8804C50.2807 10.8804 50.6853 11.0153 51.03 11.3001C51.3672 11.5773 51.5395 11.9595 51.5395 12.439C51.1649 12.439 50.7602 12.439 50.3256 12.454C49.891 12.4615 49.4489 12.499 49.0143 12.5589C48.5797 12.6189 48.1526 12.7088 47.7479 12.8362C47.3433 12.9636 46.9761 13.1434 46.6614 13.3682C46.3392 13.593 46.0919 13.8852 45.9046 14.2299C45.7173 14.5746 45.6273 15.0017 45.6273 15.5038C45.6273 15.9459 45.7173 16.3355 45.8821 16.6727C46.047 17.0099 46.2793 17.2947 46.564 17.5195C46.8487 17.7443 47.1859 17.9166 47.5606 18.029C47.9353 18.1414 48.3324 18.2014 48.7371 18.2014C49.2915 18.2014 49.8086 18.0964 50.3106 17.8941C50.8127 17.6918 51.2098 17.3546 51.5096 16.89ZM50.1158 14.185C50.423 14.1625 50.6778 14.155 50.8801 14.155H51.5395V14.732C51.5395 15.0092 51.4796 15.249 51.3672 15.4513C51.2548 15.6536 51.1049 15.8185 50.9101 15.9534C50.7153 16.0883 50.498 16.1857 50.2507 16.2606C50.0034 16.328 49.7486 16.3655 49.4864 16.3655C49.1866 16.3655 48.9019 16.2906 48.6246 16.1332C48.3474 15.9759 48.2125 15.7361 48.2125 15.4139C48.2125 15.1141 48.3174 14.8743 48.5122 14.7095C48.7071 14.5446 48.9469 14.4173 49.2316 14.3348C49.5163 14.2524 49.8086 14.2074 50.1158 14.185ZM55.8545 9.23938H58.4472V10.4233H58.4846C58.567 10.2585 58.6869 10.0861 58.8443 9.92127C59.0017 9.75642 59.189 9.60655 59.3988 9.47167C59.6161 9.3368 59.8634 9.23189 60.1331 9.14946C60.4104 9.06704 60.7101 9.02208 61.0323 9.02208C61.7142 9.02208 62.2687 9.12698 62.6883 9.3368C63.108 9.54661 63.4377 9.83884 63.67 10.206C63.9023 10.5732 64.0596 11.0153 64.1495 11.5173C64.232 12.0194 64.2769 12.5664 64.2769 13.1509V17.969H61.5793V13.6904C61.5793 13.4356 61.5718 13.1808 61.5494 12.9111C61.5344 12.6413 61.4744 12.394 61.3845 12.1618C61.2946 11.937 61.1597 11.7496 60.9724 11.6073C60.7851 11.4649 60.5228 11.39 60.1706 11.39C59.8184 11.39 59.5412 11.4499 59.3239 11.5773C59.1066 11.7047 58.9417 11.8695 58.8293 12.0793C58.7169 12.2891 58.642 12.5289 58.6045 12.7912C58.567 13.0535 58.5521 13.3307 58.5521 13.6155V17.969H55.8545V9.23938ZM83.9627 16.4704C83.5281 17.0249 82.9886 17.4445 82.3292 17.7442C81.6698 18.044 80.9879 18.1938 80.276 18.1938C79.5642 18.1938 78.9722 18.0889 78.3802 17.8716C77.7883 17.6543 77.2712 17.3471 76.8291 16.9425C76.387 16.5378 76.0498 16.0583 75.7951 15.4963C75.5403 14.9343 75.4204 14.3048 75.4204 13.608C75.4204 12.9111 75.5478 12.2817 75.7951 11.7197C76.0498 11.1577 76.3945 10.6706 76.8291 10.2735C77.2637 9.86882 77.7808 9.56159 78.3802 9.34429C78.9722 9.12698 79.6091 9.02208 80.276 9.02208C80.898 9.02208 81.4675 9.12698 81.977 9.34429C82.4866 9.56159 82.9212 9.86882 83.2733 10.2735C83.6255 10.6781 83.9028 11.1577 84.0901 11.7197C84.2849 12.2817 84.3749 12.9111 84.3749 13.608V14.4547H78.1105C78.2154 14.9717 78.4552 15.3839 78.8148 15.6836C79.1745 15.9908 79.6166 16.1407 80.1487 16.1407C80.5908 16.1407 80.9654 16.0433 81.2726 15.841C81.5799 15.6461 81.8421 15.3914 82.0744 15.0766L83.9627 16.4629V16.4704ZM81.6773 12.6263C81.6923 12.1693 81.5424 11.7796 81.2277 11.4574C80.913 11.1352 80.5158 10.9703 80.0213 10.9703C79.7215 10.9703 79.4593 11.0153 79.227 11.1127C79.0022 11.2101 78.8074 11.33 78.6425 11.4799C78.4777 11.6297 78.3578 11.8021 78.2678 12.0044C78.1779 12.1992 78.1255 12.409 78.118 12.6263H81.6773ZM88.4436 9.23938H85.851V17.969H88.5486V13.6155C88.5486 13.3307 88.5635 13.0535 88.601 12.7912C88.6385 12.5289 88.7134 12.2891 88.8258 12.0793C88.9382 11.8695 89.1031 11.7047 89.3204 11.5773C89.5377 11.4499 89.8149 11.39 90.1671 11.39C90.5193 11.39 90.7815 11.4649 90.9689 11.6073C91.1562 11.7496 91.2911 11.937 91.381 12.1618C91.4709 12.394 91.5309 12.6413 91.5459 12.9111C91.5683 13.1808 91.5758 13.4356 91.5758 13.6904V17.969H94.2734V13.1509C94.2734 12.5664 94.2284 12.0194 94.146 11.5173C94.0561 11.0153 93.8987 10.5807 93.6665 10.206C93.4342 9.83884 93.1045 9.54661 92.6848 9.3368C92.2652 9.12698 91.7107 9.02208 91.0288 9.02208C90.7066 9.02208 90.4069 9.06704 90.1296 9.14946C89.8599 9.23189 89.6126 9.3368 89.3953 9.47167C89.1855 9.60655 88.9981 9.75642 88.8408 9.92127C88.6834 10.0861 88.5635 10.2585 88.4811 10.4233H88.4436V9.23938ZM101.683 12.0644C101.549 11.8695 101.369 11.7122 101.129 11.5848C100.889 11.4574 100.634 11.3975 100.357 11.3975C99.6752 11.3975 99.1432 11.5998 98.7685 12.0119C98.3939 12.4166 98.1991 12.9561 98.1991 13.6155C98.1991 14.2749 98.3864 14.8069 98.7685 15.219C99.1432 15.6237 99.6752 15.8335 100.357 15.8335C100.657 15.8335 100.912 15.766 101.129 15.6387C101.346 15.5038 101.534 15.3539 101.683 15.1741L103.467 17.0474C103.047 17.482 102.553 17.7817 101.983 17.9541C101.414 18.1264 100.867 18.2163 100.357 18.2163C99.6827 18.2163 99.0533 18.1114 98.4613 17.8941C97.8694 17.6768 97.3523 17.3696 96.9102 16.965C96.4681 16.5603 96.1309 16.0808 95.8761 15.5188C95.6214 14.9568 95.5015 14.3273 95.5015 13.6305C95.5015 12.9336 95.6289 12.3042 95.8761 11.7422C96.1309 11.1802 96.4756 10.6931 96.9102 10.296C97.3448 9.89132 97.8619 9.5841 98.4613 9.36679C99.0533 9.14949 99.6902 9.04458 100.357 9.04458C100.874 9.04458 101.414 9.1345 101.983 9.30684C102.553 9.47919 103.047 9.78641 103.467 10.2135L101.683 12.0868V12.0644ZM104.171 11.7272C103.924 12.2892 103.797 12.9186 103.797 13.6155C103.797 14.3123 103.917 14.9418 104.171 15.5038C104.426 16.0658 104.771 16.5453 105.205 16.95C105.64 17.3546 106.157 17.6618 106.749 17.8791C107.341 18.0964 107.978 18.2013 108.645 18.2013C109.312 18.2013 109.949 18.0964 110.541 17.8791C111.14 17.6618 111.65 17.3546 112.092 16.95C112.526 16.5528 112.871 16.0658 113.126 15.5038C113.373 14.9418 113.501 14.3123 113.501 13.6155C113.501 12.9186 113.381 12.2892 113.126 11.7272C112.871 11.1652 112.526 10.6856 112.092 10.281C111.65 9.87632 111.133 9.56909 110.541 9.35179C109.949 9.13448 109.312 9.02958 108.645 9.02958C107.978 9.02958 107.341 9.13448 106.749 9.35179C106.157 9.56909 105.64 9.87632 105.205 10.281C104.771 10.6781 104.426 11.1652 104.171 11.7272ZM107.064 15.219C106.682 14.8069 106.494 14.2749 106.494 13.6155C106.494 12.9561 106.689 12.4165 107.064 12.0119C107.438 11.5998 107.971 11.3975 108.652 11.3975C109.334 11.3975 109.866 11.6073 110.241 12.0119C110.623 12.424 110.81 12.9561 110.81 13.6155C110.81 14.2749 110.616 14.8144 110.241 15.219C109.866 15.6311 109.334 15.8335 108.652 15.8335C107.971 15.8335 107.438 15.6237 107.064 15.219ZM114.677 6.48938C114.677 6.05477 114.826 5.6876 115.134 5.38037C115.441 5.07315 115.808 4.92328 116.243 4.92328C116.677 4.92328 117.045 5.07315 117.352 5.38037C117.659 5.6876 117.809 6.05477 117.809 6.48938C117.809 6.92398 117.659 7.29115 117.352 7.59838C117.045 7.9056 116.677 8.05547 116.243 8.05547C115.808 8.05547 115.441 7.9056 115.134 7.59838C114.826 7.29115 114.677 6.92398 114.677 6.48938ZM114.894 9.2394H117.592V17.984H114.894V9.2394ZM122.171 9.23938H119.578V17.969H122.276V13.6155C122.276 13.3307 122.291 13.0535 122.328 12.7912C122.365 12.5289 122.44 12.2891 122.553 12.0793C122.665 11.8695 122.83 11.7047 123.047 11.5773C123.265 11.4499 123.542 11.39 123.894 11.39C124.246 11.39 124.509 11.4649 124.696 11.6073C124.883 11.7496 125.018 11.937 125.108 12.1618C125.198 12.394 125.258 12.6413 125.273 12.9111C125.295 13.1808 125.303 13.4356 125.303 13.6904V17.969H128V13.1509C128 12.5664 127.955 12.0194 127.873 11.5173C127.783 11.0153 127.626 10.5732 127.393 10.206C127.161 9.83884 126.831 9.54661 126.412 9.3368C125.992 9.12698 125.438 9.02208 124.756 9.02208C124.434 9.02208 124.134 9.06704 123.857 9.14946C123.587 9.23189 123.34 9.3368 123.122 9.47167C122.912 9.60655 122.725 9.75642 122.568 9.92127C122.41 10.0861 122.291 10.2585 122.208 10.4233H122.171V9.23938Z" fill="white"/>
<path fill-rule="evenodd" clip-rule="evenodd" d="M14.2372 0H13.4879H12.7386H11.9892H11.2399H10.4906H9.74125V0.749327H8.99192H8.24259H7.49327V1.49865H6.74394H5.99461V2.24798H5.24529H4.49596V2.99731H3.74663V3.74663H2.99731V4.49596H2.24798V5.24529V5.99461H1.49865V6.74394V7.49327H0.749327V8.24259V8.99192V9.74125H0V10.4906V11.2399V11.9892V12.7386V13.4879V14.2372H0.749327V14.9865V15.7359V16.4852H1.49865V17.2345V17.9838H2.24798V18.7332V19.4825H2.99731V20.2318H3.74663V20.9812H4.49596V21.7305H5.24529H5.99461V22.4798H6.74394H7.49327V23.2291H8.24259H8.99192H9.74125V23.9785H10.4906H11.2399H11.9892H12.7386H13.4879H14.2372V23.2291H14.9865H15.7359H16.4852V22.4798H17.2345H17.9838V21.7305H18.7332H19.4825V20.9812H20.2318V20.2318H20.9811V19.4825H21.7305V18.7332V17.9838H22.4798V17.2345V16.4852H23.2291V15.7359V14.9865V14.2372H23.9785V13.4879V12.7386V11.9892V11.2399V10.4906V9.74125H23.2291V8.99192V8.24259V7.49327H22.4798V6.74394V5.99461H21.7305V5.24529V4.49596H20.9811V3.74663H20.2318V2.99731H19.4825V2.24798H18.7332H17.9838V1.49865H17.2345H16.4852V0.749327H15.7359H14.9865H14.2372V0ZM10.4906 0.749327H11.2399H11.9892H12.7386H13.4879H14.2372V1.49865H14.9865H15.7359H16.4852V2.24798H17.2345H17.9838V2.99731H18.7332H19.4825V3.74663H20.2318V4.49596H20.9811V5.24529V5.99461H21.7305V6.74394V7.49327H22.4798V8.24259V8.99192V9.74125H23.2291V10.4906V11.2399V11.9892V12.7386H22.4798H21.7305V11.9892H20.9811H20.2318V11.2399H19.4825H18.7332V10.4906H17.9838H17.2345V9.74125H16.4852V8.99192V8.24259H15.7359V7.49327H14.9865V6.74394H14.2372V5.99461H13.4879V5.24529H12.7386H11.9892V5.99461V6.74394H11.2399V7.49327V8.24259H10.4906V8.99192V9.74125H9.74125V10.4906V11.2399H8.99192V11.9892V12.7386H8.24259V11.9892H7.49327V11.2399H6.74394V10.4906H5.99461V11.2399H5.24529V11.9892H4.49596V12.7386H3.74663V13.4879H2.99731H2.24798V14.2372H1.49865H0.749327V13.4879V12.7386V11.9892V11.2399V10.4906V9.74125H1.49865V8.99192V8.24259V7.49327H2.24798V6.74394V5.99461H2.99731V5.24529V4.49596H3.74663V3.74663H4.49596V2.99731H5.24529H5.99461V2.24798H6.74394H7.49327V1.49865H8.24259H8.99192H9.74125V0.749327H10.4906ZM2.24798 14.2372H2.99731H3.74663V13.4879H4.49596V12.7386H5.24529V11.9892H5.99461V12.7386H6.74394V13.4879H7.49327H8.24259V14.2372H8.99192H9.74125V14.9865H10.4906V14.2372H9.74125V13.4879H8.99192V12.7386H9.74125V11.9892V11.2399H10.4906V10.4906V9.74125H11.2399V8.99192V8.24259H11.9892V7.49327V6.74394H12.7386V7.49327H13.4879V8.24259V8.99192H14.2372V9.74125V10.4906H14.9865V11.2399V11.9892H15.7359V12.7386H14.9865V13.4879H14.2372V14.2372H13.4879V14.9865V15.7359H12.7386V16.4852H11.9892V17.2345H11.2399V17.9838H11.9892V17.2345H12.7386V16.4852H13.4879V15.7359H14.2372V14.9865H14.9865V14.2372H15.7359V14.9865H16.4852V14.2372H15.7359V13.4879H16.4852H17.2345V14.2372H17.9838H18.7332V14.9865H19.4825H20.2318V15.7359H20.9811V14.9865H20.2318V14.2372H19.4825V13.4879H18.7332V12.7386H19.4825H20.2318V13.4879H20.9811V12.7386H21.7305V13.4879H22.4798H23.2291V14.2372H22.4798V14.9865V15.7359V16.4852H21.7305V17.2345V17.9838H20.9811V18.7332V19.4825H20.2318V20.2318H19.4825V20.9812H18.7332H17.9838V21.7305H17.2345H16.4852V22.4798H15.7359H14.9865H14.2372V23.2291H13.4879H12.7386H11.9892H11.2399H10.4906H9.74125V22.4798H8.99192H8.24259H7.49327V21.7305H6.74394H5.99461V20.9812H5.24529H4.49596V20.2318H3.74663V19.4825H2.99731V18.7332V17.9838H2.24798V17.2345V16.4852H1.49865V15.7359V14.9865H2.24798V14.2372ZM17.2345 13.4879H17.9838V12.7386H17.2345V13.4879ZM14.9865 17.2345H15.7359V17.9838H14.9865V17.2345ZM17.9838 14.9865H17.2345V15.7359H17.9838V14.9865Z" fill="white"/>
</g>
<defs>
<clipPath id="clip0_217_50265">
<rect width="128" height="23.9785" fill="white"/>
</clipPath>
</defs>
</svg>
