<svg width="98" height="90" viewBox="0 0 98 90" fill="none" xmlns="http://www.w3.org/2000/svg">
<path d="M92.0897 5.21228H5.91211V84.7875H92.0897V5.21228Z" fill="#2668FC"/>
<path d="M86.8739 0H11.1211V5.21235H86.8739V0Z" fill="black"/>
<path d="M5.91211 79.5751L5.91211 10.4246H0.699757L0.699757 79.5751H5.91211Z" fill="black"/>
<path d="M97.2988 79.5751V10.4246H92.0865V79.5751H97.2988Z" fill="black"/>
<path d="M11.1245 5.21228H5.91211V10.4246H11.1245V5.21228Z" fill="black"/>
<path d="M11.1245 79.5753H5.91211V84.7877H11.1245V79.5753Z" fill="black"/>
<path d="M29.1907 52.8186H23.6309V58.3784H29.1907V52.8186Z" fill="black"/>
<path d="M34.7512 47.2588H29.1914V52.8186H34.7512V47.2588Z" fill="black"/>
<path d="M40.3118 41.6987H34.752V47.2586H40.3118V41.6987Z" fill="black"/>
<path d="M45.8704 36.1389H40.3105V41.6988H45.8704V36.1389Z" fill="black"/>
<path d="M51.4329 30.5792H45.873V36.1391H51.4329V30.5792Z" fill="black"/>
<path d="M56.9915 36.1389H51.4316V41.6988H56.9915V36.1389Z" fill="black"/>
<path d="M62.552 30.5792H56.9922V36.1391H62.552V30.5792Z" fill="black"/>
<path d="M68.1067 25.0193H62.5469V30.5791H68.1067V25.0193Z" fill="black"/>
<path d="M73.6712 19.4595H68.1113V25.0193H73.6712V19.4595Z" fill="black"/>
<path d="M29.1907 47.2588H23.6309V52.8186H29.1907V47.2588Z" fill="#F46184"/>
<path d="M34.7512 41.6987H29.1914V47.2586H34.7512V41.6987Z" fill="#F46184"/>
<path d="M40.3118 36.1389H34.752V41.6988H40.3118V36.1389Z" fill="#F46184"/>
<path d="M45.8704 30.5792H40.3105V36.1391H45.8704V30.5792Z" fill="#F46184"/>
<path d="M51.4329 25.0193H45.873V30.5791H51.4329V25.0193Z" fill="#F46184"/>
<path d="M56.9915 30.5792H51.4316V36.1391H56.9915V30.5792Z" fill="#F46184"/>
<path d="M62.552 25.0193H56.9922V30.5791H62.552V25.0193Z" fill="#F46184"/>
<path d="M68.1067 19.4595H62.5469V25.0193H68.1067V19.4595Z" fill="#F46184"/>
<path d="M73.6712 13.8994H68.1113V19.4593H73.6712V13.8994Z" fill="#F46184"/>
<path d="M29.1907 41.6987H23.6309V47.2586H29.1907V41.6987Z" fill="black"/>
<path d="M34.7512 36.1389H29.1914V41.6988H34.7512V36.1389Z" fill="black"/>
<path d="M40.3118 30.5792H34.752V36.1391H40.3118V30.5792Z" fill="black"/>
<path d="M45.8704 25.0193H40.3105V30.5791H45.8704V25.0193Z" fill="black"/>
<path d="M51.4329 19.4595H45.873V25.0193H51.4329V19.4595Z" fill="black"/>
<path d="M56.9915 25.0193H51.4316V30.5791H56.9915V25.0193Z" fill="black"/>
<path d="M62.552 19.4595H56.9922V25.0193H62.552V19.4595Z" fill="black"/>
<path d="M68.1067 13.8994H62.5469V19.4593H68.1067V13.8994Z" fill="black"/>
<path d="M79.2317 13.8994H73.6719V19.4593H79.2317V13.8994Z" fill="black"/>
<path d="M73.6712 8.33984H68.1113V13.8997H73.6712V8.33984Z" fill="black"/>
<path d="M92.0874 5.21228H86.875V10.4246H92.0874V5.21228Z" fill="black"/>
<path d="M92.0874 79.5753H86.875V84.7877H92.0874V79.5753Z" fill="black"/>
<path d="M86.8739 84.7876H11.1211V90H86.8739V84.7876Z" fill="black"/>
<path d="M15.2911 61.1582H11.4688V76.7953H15.2911V61.1582Z" fill="white"/>
<path d="M22.9378 61.1582H15.293V64.9806H22.9378V61.1582Z" fill="white"/>
<path d="M19.4629 67.0657H15.293V70.1931H19.4629V67.0657Z" fill="white"/>
<path d="M29.5379 67.0657H22.9355V70.1931H29.5379V67.0657Z" fill="white"/>
<path d="M37.1834 67.0657H32.666V70.1931H37.1834V67.0657Z" fill="white"/>
<path d="M45.5232 67.0657H41.0059V70.1931H45.5232V67.0657Z" fill="white"/>
<path d="M45.1736 73.668H40.6562V76.7954H45.1736V73.668Z" fill="white"/>
<path d="M48.6543 70.1929H44.4844V73.6678H48.6543V70.1929Z" fill="white"/>
<path d="M55.5983 70.1929H52.8184V73.6678H55.5983V70.1929Z" fill="white"/>
<path d="M62.2015 70.1929H58.7266V73.3203H62.2015V70.1929Z" fill="white"/>
<path d="M73.6683 70.1929H70.1934V76.7952H73.6683V70.1929Z" fill="white"/>
<path d="M80.2718 70.1929H76.7969V76.7952H80.2718V70.1929Z" fill="white"/>
<path d="M86.8753 70.1929H83.4004V76.7952H86.8753V70.1929Z" fill="white"/>
<path d="M69.4961 70.1929H65.3262V73.3203H69.4961V70.1929Z" fill="white"/>
<path d="M58.727 67.0657H55.5996V70.1931H58.727V67.0657Z" fill="white"/>
<path d="M67.068 67.0657H62.2031V70.1931H67.068V67.0657Z" fill="white"/>
<path d="M86.8729 67.0657H70.1934V70.1931H86.8729V67.0657Z" fill="white"/>
<path d="M67.068 73.3203H62.2031V76.7952H67.068V73.3203Z" fill="white"/>
<path d="M58.727 73.3203H55.5996V76.7952H58.727V73.3203Z" fill="white"/>
<path d="M37.1834 73.668H32.666V76.7954H37.1834V73.668Z" fill="white"/>
<path d="M29.5379 73.668H22.9355V76.7954H29.5379V73.668Z" fill="white"/>
<path d="M25.7155 70.1929H22.9355V73.6678H25.7155V70.1929Z" fill="white"/>
<path d="M52.8183 61.1582H48.6484V76.7953H52.8183V61.1582Z" fill="white"/>
<path d="M32.6665 70.1929H29.5391V73.6678H32.6665V70.1929Z" fill="white"/>
<path d="M40.6564 70.1929H36.834V73.6678H40.6564V70.1929Z" fill="white"/>
</svg>
