<svg width="38" height="36" viewBox="0 0 38 36" fill="none" xmlns="http://www.w3.org/2000/svg">
<g clip-path="url(#clip0_8002_13368)">
<path d="M6.62104 7.09317C6.12708 7.54522 5.4954 7.77125 4.72601 7.77125C3.774 7.77125 3.02557 7.46589 2.48071 6.85517C1.93585 6.24145 1.66342 5.40021 1.66342 4.33145C1.66342 3.17587 1.97327 2.28523 2.59298 1.65954C3.13185 1.11468 3.81741 0.842255 4.64967 0.842255C5.76334 0.842255 6.57763 1.20749 7.09256 1.93796C7.37696 2.3481 7.52964 2.75974 7.5506 3.17288H6.16749C6.07768 2.85554 5.96242 2.61604 5.82172 2.45438C5.57024 2.16698 5.19752 2.02328 4.70356 2.02328C4.20061 2.02328 3.80394 2.22686 3.51355 2.634C3.22316 3.03816 3.07796 3.61146 3.07796 4.3539C3.07796 5.09635 3.23064 5.65318 3.536 6.02441C3.84436 6.39264 4.23504 6.57675 4.70805 6.57675C5.19303 6.57675 5.56276 6.41808 5.81723 6.10075C5.95793 5.9301 6.07469 5.67414 6.16749 5.33285H7.53712C7.41738 6.05434 7.11201 6.64111 6.62104 7.09317Z" fill="#FB7185"/>
<path d="M12.5441 7.58713V4.63232H9.95756V7.58713H8.58792V0.967991H9.95756V3.49171H12.5441V0.967991H13.9183V7.58713H12.5441Z" fill="#FB7185"/>
<path d="M19.9357 2.14004H16.6171V3.66235H19.5225V4.81194H16.6171V7.58713H15.243V0.976973H19.9357V2.14004Z" fill="#FB7185"/>
<path d="M18.8964 34.9736H13.7457V33.8061L17.163 29.5265H13.831V28.3545H18.8874V29.4636L15.4252 33.8061H18.8964V34.9736Z" fill="#FB7185"/>
<path d="M24.5052 34.4796C24.0112 34.9317 23.3795 35.1577 22.6101 35.1577C21.6581 35.1577 20.9097 34.8524 20.3648 34.2416C19.82 33.6279 19.5476 32.7867 19.5476 31.7179C19.5476 30.5623 19.8574 29.6717 20.4771 29.046C21.016 28.5012 21.7015 28.2287 22.5338 28.2287C23.6475 28.2287 24.4618 28.594 24.9767 29.3244C25.2611 29.7346 25.4138 30.1462 25.4347 30.5594H24.0516C23.9618 30.242 23.8466 30.0025 23.7058 29.8409C23.4544 29.5535 23.0817 29.4098 22.5877 29.4098C22.0847 29.4098 21.6881 29.6133 21.3977 30.0205C21.1073 30.4246 20.9621 30.9979 20.9621 31.7404C20.9621 32.4828 21.1148 33.0397 21.4201 33.4109C21.7285 33.7791 22.1192 33.9632 22.5922 33.9632C23.0772 33.9632 23.4469 33.8046 23.7014 33.4872C23.8421 33.3166 23.9588 33.0606 24.0516 32.7193H25.4213C25.3015 33.4408 24.9961 34.0276 24.5052 34.4796Z" fill="#FB7185"/>
<path d="M30.4283 34.9736V32.0188H27.8417V34.9736H26.4721V28.3545H27.8417V30.8782H30.4283V28.3545H31.8024V34.9736H30.4283Z" fill="#FB7185"/>
<path d="M37.8198 29.5265H34.5012V31.0488H37.4067V32.1984H34.5012V34.9736H33.1271V28.3634H37.8198V29.5265Z" fill="#FB7185"/>
<path fill-rule="evenodd" clip-rule="evenodd" d="M34.7695 20.7988L36.3791 19.1892L37.7933 20.6034L34.5408 23.8559L33.8337 24.563L33.1266 23.8559L29.8742 20.6034L31.2884 19.1892L32.7695 20.6703V5.03863L22.1952 5.03863V3.03863L33.7695 3.03863H34.7695V4.03863V20.7988Z" fill="#FB7185"/>
<path fill-rule="evenodd" clip-rule="evenodd" d="M3.87056 14.4109L2.26102 16.0205L0.846802 14.6063L4.09923 11.3538L4.80633 10.6467L5.51344 11.3538L8.76587 14.6063L7.35165 16.0205L5.87056 14.5394V30.1711H11.8202V32.1711H4.87056H3.87056V31.1711V14.4109Z" fill="#FB7185"/>
</g>
<defs>
<clipPath id="clip0_8002_13368">
<rect width="36.973" height="34.3155" fill="white" transform="translate(0.846802 0.842255)"/>
</clipPath>
</defs>
</svg>
