<svg width="36" height="36" viewBox="0 0 36 36" fill="none" xmlns="http://www.w3.org/2000/svg">
<path d="M24.1819 23.4091C24.1819 21.7013 19.3384 20.3182 13.3637 20.3182M24.1819 23.4091C24.1819 25.1168 19.3384 26.5 13.3637 26.5C7.38897 26.5 2.54552 25.1168 2.54552 23.4091M24.1819 23.4091V31.039C24.1819 32.7993 19.3384 34.2273 13.3637 34.2273C7.38897 34.2273 2.54552 32.8008 2.54552 31.039V23.4091M24.1819 23.4091C30.0917 23.4091 35.0001 21.8837 35.0001 20.3182V4.86361M13.3637 20.3182C7.38897 20.3182 2.54552 21.7013 2.54552 23.4091M13.3637 20.3182C6.53588 20.3182 1.00006 18.7928 1.00006 17.2273V9.49998M13.3637 6.40907C6.53588 6.40907 1.00006 7.79225 1.00006 9.49998M1.00006 9.49998C1.00006 11.2077 6.53588 12.5909 13.3637 12.5909C13.3637 14.1564 18.3911 15.6818 24.3009 15.6818C30.2092 15.6818 35.0001 14.1564 35.0001 12.5909M35.0001 4.86361C35.0001 3.15589 30.2092 1.77271 24.3009 1.77271C18.3911 1.77271 13.6017 3.15589 13.6017 4.86361M35.0001 4.86361C35.0001 6.57134 30.2092 7.95452 24.3009 7.95452C18.3926 7.95452 13.6017 6.57134 13.6017 4.86361M13.6017 4.86361V20.5747" stroke="#FB7185" stroke-width="2"/>
</svg>
