<svg width="20" height="20" viewBox="0 0 20 20" fill="none" xmlns="http://www.w3.org/2000/svg">
<g clip-path="url(#clip0_8007_12100)">
<path fill-rule="evenodd" clip-rule="evenodd" d="M10.75 1C10.75 0.447715 10.3023 0 9.75 0C9.19771 0 8.75 0.447715 8.75 1V8.75H1C0.447715 8.75 0 9.19771 0 9.75C0 10.3023 0.447715 10.75 1 10.75H8.75L8.75 18.5C8.75 19.0523 9.19771 19.5 9.75 19.5C10.3023 19.5 10.75 19.0523 10.75 18.5L10.75 10.75L18.5 10.75C19.0523 10.75 19.5 10.3023 19.5 9.75C19.5 9.19771 19.0523 8.75 18.5 8.75L10.75 8.75V1Z" fill="#FB7185"/>
</g>
<defs>
<clipPath id="clip0_8007_12100">
<rect width="19.5" height="19.5" fill="white"/>
</clipPath>
</defs>
</svg>
