<svg width="50" height="50" viewBox="0 0 50 50" fill="none" xmlns="http://www.w3.org/2000/svg">
<path d="M36.3684 13.6316L13.6316 36.3684M13.6316 17.4211H21.2105M27.8421 33.5263H35.4211M17.4211 13.6316V21.2105M7 9.84211C7 9.08833 7.29944 8.36543 7.83243 7.83243C8.36543 7.29944 9.08833 7 9.84211 7H40.1579C40.9117 7 41.6346 7.29944 42.1676 7.83243C42.7006 8.36543 43 9.08833 43 9.84211V40.1579C43 40.9117 42.7006 41.6346 42.1676 42.1676C41.6346 42.7006 40.9117 43 40.1579 43H9.84211C9.08833 43 8.36543 42.7006 7.83243 42.1676C7.29944 41.6346 7 40.9117 7 40.1579V9.84211Z" stroke="#FB7185" stroke-width="2" stroke-linecap="square" stroke-linejoin="round"/>
</svg>
