<svg width="100" height="100" viewBox="0 0 100 100" fill="none" xmlns="http://www.w3.org/2000/svg">
<circle cx="50" cy="50" r="43" fill="#283243"/>
<g clip-path="url(#clip0_6956_35592)">
<circle cx="50" cy="50" r="40" fill="white"/>
<path d="M75.2322 26.7919L73.0322 28.9919C83.8962 40.8719 83.8962 59.0799 73.0322 70.9599L75.2322 73.1599C87.3202 60.0479 87.3202 39.8559 75.2322 26.7439V26.7919Z" fill="#5A5564"/>
<path d="M29.04 26.976C40.92 16.112 59.128 16.112 71.008 26.976L73.208 24.776C60.096 12.688 39.904 12.688 26.792 24.776L29.04 26.976Z" fill="#5A5564"/>
<path d="M26.976 70.976C16.128 59.096 16.128 40.904 26.976 29.032L24.776 26.832C12.688 39.944 12.688 60.136 24.776 73.248L26.976 70.976Z" fill="#5A5564"/>
<path d="M70.9756 73.0081C59.0956 83.8721 40.8876 83.8721 29.0076 73.0081L26.8076 75.2081C39.9196 87.2961 60.1116 87.2961 73.2236 75.2081L70.9756 73.0081Z" fill="#5A5564"/>
<path d="M63.8638 42.6721C63.4238 38.0881 59.4718 36.5521 54.4718 36.0801V29.7681H50.6078V35.9601H47.5198V29.7681H43.6798V36.1201H35.8398V40.2561C35.8398 40.2561 38.6958 40.2081 38.6478 40.2561C39.7198 40.1361 40.6878 40.8881 40.8478 41.9521V59.3521C40.8238 59.7201 40.6558 60.0561 40.3758 60.2961C40.1038 60.5361 39.7438 60.6641 39.3838 60.6321C39.4318 60.6721 36.5758 60.6321 36.5758 60.6321L35.8398 65.2561H43.6078V71.7121H47.4718V65.3521H50.5598V71.6881H54.4318V65.3041C60.9598 64.9121 65.5198 63.2961 66.0878 57.1841C66.5518 52.2641 64.2318 50.0641 60.5358 49.1841C62.7838 48.0801 64.1758 46.0321 63.8638 42.6721ZM58.4478 56.4241C58.4478 61.2241 50.2158 60.6801 47.5998 60.6801V52.1601C50.2238 52.1601 58.4478 51.4161 58.4478 56.4321V56.4241ZM56.6558 44.4161C56.6558 48.8081 49.7838 48.2721 47.6078 48.2721V40.5281C49.7918 40.5281 56.6558 39.8401 56.6558 44.4161Z" fill="#F09242"/>
<path d="M49.992 90C27.904 89.992 10 72.088 10 49.992C10 27.904 27.912 10 50.008 10C72.096 10 90 27.904 90 49.992C90 72.08 72.096 89.992 50.008 90H49.992ZM49.992 13.12C29.64 13.136 13.144 29.648 13.16 50.008C13.176 70.368 29.688 86.856 50.048 86.84C70.384 86.824 86.872 70.336 86.88 49.992C86.888 29.632 70.392 13.128 50.032 13.12C50.016 13.12 50 13.12 49.992 13.12Z" fill="#282138"/>
</g>
<defs>
<clipPath id="clip0_6956_35592">
<rect width="80" height="80" fill="white" transform="translate(10 10)"/>
</clipPath>
</defs>
</svg>
