<svg width="50" height="51" viewBox="0 0 50 51" fill="none" xmlns="http://www.w3.org/2000/svg">
<path fill-rule="evenodd" clip-rule="evenodd" d="M40.6689 12.0798H9.66895C9.11666 12.0798 8.66895 12.5275 8.66895 13.0798V17.4879H41.6689V13.0798C41.6689 12.5275 41.2212 12.0798 40.6689 12.0798ZM8.66895 37.0798V19.4879H41.6689V37.0798C41.6689 37.6321 41.2212 38.0798 40.6689 38.0798H9.66895C9.11666 38.0798 8.66895 37.6321 8.66895 37.0798ZM9.66895 10.0798C8.01209 10.0798 6.66895 11.423 6.66895 13.0798V37.0798C6.66895 38.7367 8.01209 40.0798 9.66895 40.0798H40.6689C42.3258 40.0798 43.6689 38.7367 43.6689 37.0798V13.0798C43.6689 11.423 42.3258 10.0798 40.6689 10.0798H9.66895ZM12.583 15.9987C13.2755 15.9987 13.8369 15.4373 13.8369 14.7448C13.8369 14.0522 13.2755 13.4908 12.583 13.4908C11.8905 13.4908 11.3291 14.0522 11.3291 14.7448C11.3291 15.4373 11.8905 15.9987 12.583 15.9987ZM18.3809 14.7448C18.3809 15.4373 17.8195 15.9987 17.127 15.9987C16.4344 15.9987 15.873 15.4373 15.873 14.7448C15.873 14.0522 16.4344 13.4908 17.127 13.4908C17.8195 13.4908 18.3809 14.0522 18.3809 14.7448ZM21.6699 15.9987C22.3624 15.9987 22.9238 15.4373 22.9238 14.7448C22.9238 14.0522 22.3624 13.4908 21.6699 13.4908C20.9774 13.4908 20.416 14.0522 20.416 14.7448C20.416 15.4373 20.9774 15.9987 21.6699 15.9987Z" fill="#FB7185"/>
</svg>
