<svg width="50" height="50" viewBox="0 0 50 50" fill="none" xmlns="http://www.w3.org/2000/svg">
<path d="M24.886 24.9984L43.8329 13.9873L43.7711 35.9007L24.8242 46.9118L24.886 24.9984Z" fill="#101827"/>
<path d="M24.8876 24.9984L24.8258 46.9118L5.75391 35.9007L5.81574 13.9873L24.8876 24.9984Z" fill="#18202F"/>
<path d="M5.81445 13.9873L24.7613 2.9762L43.8332 13.9873L24.8863 24.9984L5.81445 13.9873Z" fill="#232B3A"/>
<path fill-rule="evenodd" clip-rule="evenodd" d="M25.0103 2.54318C24.8551 2.45361 24.6639 2.45389 24.5091 2.5439L5.5622 13.555C5.40797 13.6446 5.31318 13.8096 5.31343 13.988C5.31345 14.0034 5.31419 14.0187 5.3156 14.0339L5.25391 35.8993C5.2534 36.0784 5.34877 36.2441 5.50391 36.3337L24.5548 47.3327C24.5613 47.3369 24.568 47.3409 24.5747 47.3448C24.6523 47.3896 24.7388 47.4119 24.8254 47.4118C24.9116 47.4118 24.9978 47.3896 25.0752 47.3451C25.0825 47.3409 25.0898 47.3365 25.0969 47.3319L44.0228 36.333C44.1763 36.2437 44.271 36.0797 44.2715 35.9021L44.3334 13.9887C44.3339 13.8096 44.2385 13.6439 44.0834 13.5543C44.0762 13.5501 44.0689 13.5462 44.0615 13.5424L25.0103 2.54318ZM6.31329 14.8533L24.3857 25.2873L24.3271 46.0465L6.25472 35.6125L6.31329 14.8533ZM24.8856 24.4199L42.8346 13.9887L24.7611 3.55402L6.81212 13.9852L24.8856 24.4199ZM25.3868 25.286L25.3282 46.0408L43.2724 35.6125L43.3309 14.8576L25.3868 25.286Z" fill="#667788"/>
<mask id="mask0_6905_20910" style="mask-type:luminance" maskUnits="userSpaceOnUse" x="29" y="21" width="12" height="19">
<path d="M29.2996 39.8577L29.2646 27.8063L40.6387 21.2388L40.6723 33.2916L29.2996 39.8577Z" fill="white"/>
</mask>
<g mask="url(#mask0_6905_20910)">
<path d="M34.9818 31.0227C34.3891 31.3641 33.9697 31.5872 33.8218 31.6639C31.5314 32.8695 29.8217 33.3978 29.8204 32.8494C29.819 32.301 31.5261 30.856 33.8151 29.4165L33.8205 31.2082C33.9697 31.1343 34.3985 30.9152 34.9912 30.5738C35.7023 30.1625 36.0585 29.9232 36.1217 29.8788L36.1163 28.0885C38.4013 26.8855 40.107 26.3599 40.1097 26.9083C40.1124 27.4567 38.408 28.8976 36.123 30.3345H36.1257C36.0598 30.3775 35.7265 30.5926 34.9818 31.0227ZM39.2938 22.0143L30.6148 27.0253L30.6215 29.4689L33.8084 27.6288L33.8124 29.231C31.2223 30.8641 29.276 32.5792 29.2773 33.2862C29.2787 33.9932 31.229 33.4596 33.8205 32.1007L33.8353 37.238L36.1391 35.9073L36.1243 30.77C38.7091 29.1409 40.6527 27.4272 40.65 26.7201C40.6473 26.0131 38.7024 26.5454 36.1163 27.9003L36.1122 26.2981L39.2992 24.458L39.2925 22.0143" fill="#50AF95"/>
</g>
<mask id="mask1_6905_20910" style="mask-type:luminance" maskUnits="userSpaceOnUse" x="13" y="7" width="23" height="14">
<path d="M13.7441 12.8703L23.2176 7.36475L35.8376 14.6513L26.3642 20.1568L13.7441 12.8703Z" fill="white"/>
</mask>
<g mask="url(#mask1_6905_20910)">
<path d="M26.3838 15.9711L24.5733 14.2345C25.4322 13.9348 27.8583 12.9079 29.0492 13.5947C29.1366 13.6445 29.2172 13.7049 29.2898 13.7735C30.3114 14.7534 27.3059 15.6499 26.3838 15.9711ZM23.7453 13.4388L22.1041 11.8648C22.8152 11.6162 24.8072 10.7559 25.8677 11.3675C25.9524 11.4159 26.0317 11.475 26.1029 11.5436C27.0317 12.4347 24.5128 13.1713 23.7453 13.4388ZM27.9699 10.1067C26.8475 9.45883 25.2682 9.64298 23.5773 10.1215L22.2251 8.82574L20.8662 9.30022L22.1821 10.561C21.8245 10.686 21.4643 10.8177 21.1054 10.9481L19.7815 9.67792L18.4225 10.1524L19.7734 11.4481C19.4831 11.5543 19.1981 11.6578 18.9158 11.7573L18.9118 11.7533L17.0381 12.4065L17.9158 13.2479C17.9158 13.2479 18.8876 12.8944 18.9024 12.9038C19.4159 12.7237 19.7761 12.8192 19.9992 12.9482C20.0153 12.9576 20.0301 12.967 20.0449 12.9764L21.5839 14.4523C21.6229 14.4388 21.6726 14.4227 21.7345 14.4079L21.5907 14.4577L23.7466 16.5263C23.8273 16.6351 23.8931 16.8314 23.5074 16.9658C23.5208 16.9739 22.5194 17.3099 22.5194 17.3099L23.2318 18.3462L25.0007 17.7293C25.33 17.615 25.6566 17.5048 25.9766 17.3959L27.3435 18.7064L28.7024 18.2333L27.3503 16.9362C27.7266 16.8112 28.0909 16.6876 28.4417 16.5639L29.7872 17.8543L31.1461 17.3811L29.7818 16.0733C31.9875 15.1996 33.2375 14.3085 32.1367 12.9939C31.9055 12.717 31.6474 12.5019 31.3652 12.3393C30.5694 11.8796 29.5842 11.8433 28.4874 12.0436C29.0318 11.5355 29.0976 10.9535 28.2683 10.311C28.1729 10.2371 28.0734 10.1699 27.9699 10.1094" fill="#F7931A"/>
</g>
<mask id="mask2_6905_20910" style="mask-type:luminance" maskUnits="userSpaceOnUse" x="11" y="20" width="8" height="20">
<path d="M11.0098 34.9061L11.0514 20.6624L18.8003 25.137L18.76 39.3794L11.0098 34.9061Z" fill="white"/>
</mask>
<g mask="url(#mask2_6905_20910)">
<path d="M14.9263 22.8991L14.9102 28.1641L18.7786 32.3887L14.9263 22.8991Z" fill="#C1CCF7"/>
<path d="M14.9265 22.8991L11.0312 27.9167L14.9104 28.1641L14.9265 22.8991Z" fill="white"/>
<path d="M18.7783 33.2194L14.8952 33.5648L14.8857 37.1429L18.7783 33.2194Z" fill="#C1CCF7"/>
<path d="M11.0283 28.7448L14.886 37.1429L14.8954 33.5648V33.5635L11.0283 28.7448Z" fill="white"/>
<path d="M14.9096 28.1654L14.8975 32.7368L18.778 32.3887L14.9096 28.1654Z" fill="#8198EE"/>
<path d="M14.9114 28.1654L11.0322 27.9167L14.8993 32.7368L14.9114 28.1654Z" fill="#C1CCF7"/>
</g>
</svg>
