<svg width="16" height="17" viewBox="0 0 16 17" fill="none" xmlns="http://www.w3.org/2000/svg">
<path d="M13.6223 12.6908C13.5432 12.5326 13.4641 12.3743 13.4641 12.216C13.4641 11.8995 13.3058 11.6621 13.0684 11.4246C12.9893 11.3455 12.831 11.2664 12.7518 11.2664C13.2267 9.84191 12.5144 8.41744 11.7231 7.38866C11.09 6.43902 10.1403 5.72679 10.2195 4.4606C10.2195 2.95699 10.3777 0.187199 7.60794 0.42461C4.75901 0.582884 5.55038 3.51095 5.47124 4.53973C5.47124 5.41024 5.07555 6.28075 4.44246 6.99298C4.28418 7.15125 4.12591 7.38866 4.04677 7.54694C3.2554 8.49658 2.85972 9.76277 2.85972 10.9498C2.70144 11.1081 2.54317 11.2664 2.46403 11.4246C2.3849 11.5038 2.30576 11.5829 2.30576 11.6621C2.22662 11.7412 2.06835 11.8203 1.91008 11.8995C1.59353 11.9786 1.35612 12.1369 1.19784 12.4534C1.11871 12.6908 1.03957 13.0074 1.11871 13.3239C1.19784 13.4822 1.19784 13.6405 1.11871 13.8779C0.960432 14.1944 0.960432 14.5901 1.11871 14.9858C1.35612 15.3024 1.7518 15.3815 2.30576 15.4606C2.70144 15.4606 3.17627 15.6189 3.57195 15.7772C3.96764 16.0146 4.44246 16.1729 4.91728 16.1729C5.15469 16.1729 5.47124 16.0937 5.70865 16.0146C5.94606 15.8563 6.10434 15.698 6.18347 15.4606C6.50002 15.4606 6.97484 15.3024 7.5288 15.3024C8.00362 15.3024 8.47844 15.4606 9.11154 15.3815C9.11154 15.4606 9.11154 15.5398 9.19068 15.6189C9.34895 16.0146 9.74464 16.3311 10.2195 16.4103H10.3777C11.0108 16.3311 11.6439 16.0146 12.0396 15.5398C12.3562 15.2232 12.7518 14.9858 13.1475 14.8275C13.6223 14.5901 13.9389 14.4319 14.018 14.0362C14.0972 13.4822 13.9389 13.1657 13.6223 12.6908ZM8.1619 2.56131C8.63672 2.64045 9.0324 3.03613 8.95327 3.51095C8.95327 3.74836 8.87413 3.98577 8.71586 4.22319H8.63672C8.47844 4.14405 8.39931 4.14405 8.32017 4.06491C8.39931 3.98577 8.39931 3.8275 8.47844 3.66923C8.47844 3.35268 8.32017 3.11527 8.1619 3.11527C7.92449 3.11527 7.76621 3.35268 7.76621 3.66923V3.74836C7.68708 3.66923 7.5288 3.66923 7.44966 3.59009V3.51095C7.37053 3.11527 7.68708 2.64045 8.1619 2.56131ZM7.92449 4.14405C8.00362 4.22319 8.1619 4.30232 8.24103 4.30232C8.32017 4.30232 8.47844 4.38146 8.55758 4.4606C8.71586 4.53973 8.87413 4.61887 8.87413 4.85628C8.87413 5.09369 8.63672 5.3311 8.1619 5.48938C8.00362 5.56851 7.92449 5.56851 7.84535 5.64765C7.60794 5.80592 7.37053 5.88506 7.05398 5.88506C6.81657 5.88506 6.57916 5.72679 6.42088 5.56851C6.34175 5.48938 6.26261 5.41024 6.10433 5.3311C6.0252 5.25197 5.86692 5.09369 5.78779 4.85628C5.78779 4.77714 5.86692 4.69801 5.94606 4.61887C6.18347 4.4606 6.26261 4.38146 6.34175 4.30232L6.42088 4.22319C6.57916 3.98577 6.89571 3.8275 7.21225 3.8275C7.44966 3.90664 7.68707 3.98577 7.92449 4.14405ZM6.26261 2.71958C6.57916 2.71958 6.81657 3.03613 6.8957 3.59009V3.74836C6.81657 3.74836 6.65829 3.8275 6.57916 3.90664V3.74836C6.57916 3.51095 6.42088 3.27354 6.26261 3.35268C6.10433 3.35268 6.0252 3.59009 6.0252 3.8275C6.0252 3.98577 6.10434 4.06491 6.18347 4.14405C6.18347 4.14405 6.10434 4.22319 6.0252 4.22319C5.86692 4.06491 5.70865 3.8275 5.70865 3.59009C5.70865 3.11527 5.94606 2.71958 6.26261 2.71958ZM5.47124 15.4606C4.91728 15.698 4.20505 15.6189 3.73023 15.3024C3.2554 15.0649 2.85972 14.9858 2.30576 14.9858C1.91008 14.9067 1.51439 14.9067 1.43525 14.7484C1.35612 14.5901 1.35612 14.3527 1.51439 13.957C1.59353 13.7196 1.59353 13.4822 1.51439 13.2448C1.43525 13.0074 1.43525 12.8491 1.51439 12.6117C1.59353 12.3743 1.7518 12.2952 1.98921 12.216C2.22662 12.1369 2.3849 12.0577 2.54317 11.8995C2.62231 11.8203 2.70145 11.7412 2.78058 11.5829C3.01799 11.2664 3.17627 11.1081 3.41368 11.1081C3.8885 11.1872 4.28418 11.8995 4.60073 12.6117C4.75901 12.8491 4.91728 13.1657 5.15469 13.4031C5.47124 13.7988 5.86692 14.3527 5.86692 14.6693C5.86692 15.0649 5.70865 15.3024 5.47124 15.4606ZM9.34895 13.7196C9.34895 13.7988 9.34895 13.7988 9.26981 13.8779C8.32017 14.5901 7.05398 14.6693 6.0252 14.1153L5.55038 13.4031C6.26261 13.3239 6.10434 12.3743 4.60073 11.4246C3.01799 10.3959 4.12591 8.49658 4.67987 7.62607C4.75901 7.54694 4.75901 7.62607 4.44246 8.25917C4.20505 8.73399 3.73023 9.92105 4.36332 10.7916C4.36332 10.1585 4.5216 9.52536 4.75901 8.89227C5.31297 7.86349 5.70865 6.67643 5.94606 5.48938C6.0252 5.56851 6.0252 5.56851 6.10433 5.56851C6.18347 5.64765 6.26261 5.72679 6.34175 5.72679C6.50002 5.9642 6.81657 6.04334 7.05398 6.04334H7.13312C7.44966 6.04334 7.76621 5.9642 8.00362 5.72679C8.08276 5.64765 8.1619 5.56851 8.32017 5.56851C8.55758 5.48938 8.79499 5.3311 9.0324 5.09369C9.34895 6.12247 9.6655 7.07212 10.1403 7.94262C10.4569 8.57572 10.6943 9.20881 10.8526 9.92105C11.09 9.92105 11.4065 10.0002 11.6439 10.1585C12.277 10.475 12.5144 10.7124 12.4353 11.1081H12.277C12.277 10.8707 12.1187 10.6333 11.5648 10.3959C11.0108 10.1585 10.536 10.1585 10.3777 10.7124C10.2986 10.7124 10.2195 10.7916 10.1403 10.7916C9.50723 11.1081 9.50723 11.9786 9.42809 12.8491C9.50723 13.1657 9.42809 13.4031 9.34895 13.7196ZM12.9893 14.1944C12.5144 14.3527 12.1187 14.6693 11.8022 15.0649C11.4856 15.5398 10.9317 15.8563 10.2986 15.7772C9.98205 15.7772 9.6655 15.5398 9.58636 15.2232C9.50723 14.7484 9.50723 14.2736 9.74464 13.7988C9.82377 13.4822 9.90291 13.2448 9.98205 12.9283C10.0612 11.9786 10.0612 11.4246 10.4569 11.1872C10.4569 11.5829 10.6943 11.8203 11.0108 11.9786C11.4065 11.9786 11.8022 11.8995 12.1187 11.5829H12.277C12.5144 11.5829 12.6727 11.5829 12.831 11.7412C12.9893 11.8995 13.0684 12.1369 13.0684 12.2952C13.0684 12.5326 13.2267 12.77 13.3058 13.0074C13.7015 13.4031 13.7015 13.6405 13.7015 13.7196C13.6223 13.8779 13.3058 14.0362 12.9893 14.1944ZM5.86692 4.69801C5.78779 4.69801 5.78779 4.69801 5.78779 4.77714C5.78779 4.77714 5.78779 4.85628 5.86692 4.85628C5.94606 4.85628 5.94606 4.93542 5.94606 4.93542C6.18347 5.25197 6.57916 5.41024 7.05398 5.48938C7.44966 5.41024 7.84535 5.3311 8.24103 5.01455L8.71586 4.77714C8.79499 4.77714 8.79499 4.69801 8.79499 4.69801C8.79499 4.61887 8.79499 4.61887 8.71586 4.61887C8.55758 4.69801 8.32017 4.77714 8.1619 4.85628C7.84535 5.09369 7.44966 5.25197 7.05398 5.25197C6.65829 5.25197 6.34175 5.01455 6.10433 4.77714C6.0252 4.77714 5.94606 4.69801 5.86692 4.69801Z" fill="white"/>
</svg>
