<svg width="36" height="36" viewBox="0 0 36 36" fill="none" xmlns="http://www.w3.org/2000/svg">
<g clip-path="url(#clip0_8007_12050)">
<path fill-rule="evenodd" clip-rule="evenodd" d="M23.2517 0.652832C21.5949 0.652832 20.2517 1.99598 20.2517 3.65283V12.7481C20.2517 14.4049 21.5949 15.7481 23.2517 15.7481H32.3469C34.0038 15.7481 35.3469 14.4049 35.3469 12.7481V3.65283C35.3469 1.99598 34.0038 0.652832 32.3469 0.652832H23.2517ZM22.2517 3.65283C22.2517 3.10055 22.6994 2.65283 23.2517 2.65283H32.3469C32.8992 2.65283 33.3469 3.10055 33.3469 3.65283V12.7481C33.3469 13.3004 32.8992 13.7481 32.3469 13.7481H23.2517C22.6994 13.7481 22.2517 13.3004 22.2517 12.7481V3.65283ZM3.65308 20.2515C1.99622 20.2515 0.653076 21.5947 0.653076 23.2515V32.3468C0.653076 34.0036 1.99622 35.3468 3.65308 35.3468H12.7483C14.4052 35.3468 15.7483 34.0036 15.7483 32.3468V23.2515C15.7483 21.5947 14.4052 20.2515 12.7483 20.2515H3.65308ZM2.65308 23.2515C2.65308 22.6992 3.10079 22.2515 3.65308 22.2515H12.7483C13.3006 22.2515 13.7483 22.6992 13.7483 23.2515V32.3468C13.7483 32.899 13.3006 33.3468 12.7483 33.3468H3.65308C3.10079 33.3468 2.65308 32.899 2.65308 32.3468V23.2515ZM0.653076 3.65283C0.653076 1.99598 1.99622 0.652832 3.65308 0.652832H12.7483C14.4052 0.652832 15.7483 1.99598 15.7483 3.65283V12.7481C15.7483 14.4049 14.4052 15.7481 12.7483 15.7481H3.65308C1.99622 15.7481 0.653076 14.4049 0.653076 12.7481V3.65283ZM3.65308 2.65283C3.10079 2.65283 2.65308 3.10055 2.65308 3.65283V12.7481C2.65308 13.3004 3.10079 13.7481 3.65308 13.7481H12.7483C13.3006 13.7481 13.7483 13.3004 13.7483 12.7481V3.65283C13.7483 3.10055 13.3006 2.65283 12.7483 2.65283H3.65308ZM27.8 21.9719C28.3523 21.9719 28.8 22.4196 28.8 22.9719V26.7991H32.6266C33.1789 26.7991 33.6266 27.2468 33.6266 27.7991C33.6266 28.3514 33.1789 28.7991 32.6266 28.7991H28.8V32.6264C28.8 33.1787 28.3523 33.6264 27.8 33.6264C27.2477 33.6264 26.8 33.1787 26.8 32.6264V28.7991H22.9721C22.4198 28.7991 21.9721 28.3514 21.9721 27.7991C21.9721 27.2468 22.4198 26.7991 22.9721 26.7991H26.8V22.9719C26.8 22.4196 27.2477 21.9719 27.8 21.9719Z" fill="#FB7185"/>
</g>
<defs>
<clipPath id="clip0_8007_12050">
<rect width="34.6939" height="34.6939" fill="white" transform="translate(0.653076 0.652832)"/>
</clipPath>
</defs>
</svg>
