<svg width="50" height="51" viewBox="0 0 50 51" fill="none" xmlns="http://www.w3.org/2000/svg">
<g clip-path="url(#clip0_8003_10724)">
<path fill-rule="evenodd" clip-rule="evenodd" d="M13.6318 9.92932C13.6318 9.17555 13.9313 8.45265 14.4643 7.91965C14.9973 7.38665 15.7202 7.08722 16.4739 7.08722H33.5266C34.2803 7.08722 35.0032 7.38665 35.5362 7.91965C36.0692 8.45265 36.3687 9.17555 36.3687 9.92932V40.2451C36.3687 40.9989 36.0692 41.7218 35.5362 42.2548C35.0032 42.7878 34.2803 43.0872 33.5266 43.0872H16.4739C15.7202 43.0872 14.9973 42.7878 14.4643 42.2548C13.9313 41.7218 13.6318 40.9989 13.6318 40.2451V9.92932ZM16.4739 8.98196C16.2227 8.98196 15.9817 9.08177 15.8041 9.25943C15.6264 9.4371 15.5266 9.67807 15.5266 9.92932V40.2451C15.5266 40.4964 15.6264 40.7373 15.8041 40.915C15.9817 41.0927 16.2227 41.1925 16.4739 41.1925H33.5266C33.7778 41.1925 34.0188 41.0927 34.1965 40.915C34.3741 40.7373 34.4739 40.4964 34.4739 40.2451V9.92932C34.4739 9.67807 34.3741 9.4371 34.1965 9.25943C34.0188 9.08177 33.7778 8.98196 33.5266 8.98196H16.4739Z" fill="#FB7185"/>
<path fill-rule="evenodd" clip-rule="evenodd" d="M13.6318 9.92932C13.6318 9.17555 13.9313 8.45265 14.4643 7.91965C14.9973 7.38665 15.7202 7.08722 16.4739 7.08722H33.5266C34.2803 7.08722 35.0032 7.38665 35.5362 7.91965C36.0692 8.45265 36.3687 9.17555 36.3687 9.92932V40.2451C36.3687 40.9989 36.0692 41.7218 35.5362 42.2548C35.0032 42.7878 34.2803 43.0872 33.5266 43.0872H16.4739C15.7202 43.0872 14.9973 42.7878 14.4643 42.2548C13.9313 41.7218 13.6318 40.9989 13.6318 40.2451V9.92932ZM16.4739 8.98196C16.2227 8.98196 15.9817 9.08177 15.8041 9.25943C15.6264 9.4371 15.5266 9.67807 15.5266 9.92932V40.2451C15.5266 40.4964 15.6264 40.7373 15.8041 40.915C15.9817 41.0927 16.2227 41.1925 16.4739 41.1925H33.5266C33.7778 41.1925 34.0188 41.0927 34.1965 40.915C34.3741 40.7373 34.4739 40.4964 34.4739 40.2451V9.92932C34.4739 9.67807 34.3741 9.4371 34.1965 9.25943C34.0188 9.08177 33.7778 8.98196 33.5266 8.98196H16.4739Z" fill="#FB7185"/>
<path fill-rule="evenodd" clip-rule="evenodd" d="M21.3301 12.2154C21.3301 11.9213 21.4469 11.6392 21.6549 11.4312C21.8629 11.2233 22.1449 11.1064 22.4391 11.1064H27.5609C27.8551 11.1064 28.1371 11.2233 28.3451 11.4312C28.5531 11.6392 28.6699 11.9213 28.6699 12.2154C28.6699 12.5095 28.5531 12.7916 28.3451 12.9996C28.1371 13.2075 27.8551 13.3244 27.5609 13.3244H22.4391C22.1449 13.3244 21.8629 13.2075 21.6549 12.9996C21.4469 12.7916 21.3301 12.5095 21.3301 12.2154Z" fill="#FB7185"/>
</g>
<defs>
<clipPath id="clip0_8003_10724">
<rect width="50" height="50" fill="white" transform="translate(0 0.0872192)"/>
</clipPath>
</defs>
</svg>
