<svg width="46" height="42" viewBox="0 0 46 42" fill="none" xmlns="http://www.w3.org/2000/svg">
<g clip-path="url(#clip0_8014_11844)">
<path d="M43.0182 0.38916L25.6679 13.2754L28.8764 5.67269L43.0182 0.38916Z" fill="#E2761B" stroke="#E2761B" stroke-linecap="round" stroke-linejoin="round"/>
<path d="M2.96445 0.38916L20.1752 13.3975L17.1236 5.67269L2.96445 0.38916Z" fill="#E4761B" stroke="#E4761B" stroke-linecap="round" stroke-linejoin="round"/>
<path d="M36.7756 30.2593L32.1547 37.3389L42.0417 40.0591L44.884 30.4162L36.7756 30.2593Z" fill="#E4761B" stroke="#E4761B" stroke-linecap="round" stroke-linejoin="round"/>
<path d="M1.13351 30.4162L3.95837 40.0591L13.8454 37.3389L9.22447 30.2593L1.13351 30.4162Z" fill="#E4761B" stroke="#E4761B" stroke-linecap="round" stroke-linejoin="round"/>
<path d="M13.2874 18.2972L10.5323 22.4648L20.3495 22.9007L20.0008 12.3511L13.2874 18.2972Z" fill="#E4761B" stroke="#E4761B" stroke-linecap="round" stroke-linejoin="round"/>
<path d="M32.6952 18.2972L25.8946 12.229L25.6679 22.9007L35.4678 22.4648L32.6952 18.2972Z" fill="#E4761B" stroke="#E4761B" stroke-linecap="round" stroke-linejoin="round"/>
<path d="M13.8454 37.3392L19.7392 34.4621L14.6475 30.4863L13.8454 37.3392Z" fill="#E4761B" stroke="#E4761B" stroke-linecap="round" stroke-linejoin="round"/>
<path d="M26.2434 34.4621L32.1547 37.3392L31.3351 30.4863L26.2434 34.4621Z" fill="#E4761B" stroke="#E4761B" stroke-linecap="round" stroke-linejoin="round"/>
<path d="M32.1546 37.3391L26.2433 34.4619L26.7142 38.3156L26.6618 39.9373L32.1546 37.3391Z" fill="#D7C1B3" stroke="#D7C1B3" stroke-linecap="round" stroke-linejoin="round"/>
<path d="M13.8454 37.3391L19.3381 39.9373L19.3033 38.3156L19.7392 34.4619L13.8454 37.3391Z" fill="#D7C1B3" stroke="#D7C1B3" stroke-linecap="round" stroke-linejoin="round"/>
<path d="M19.4253 27.9404L14.508 26.4931L17.978 24.9062L19.4253 27.9404Z" fill="#233447" stroke="#233447" stroke-linecap="round" stroke-linejoin="round"/>
<path d="M26.5573 27.9404L28.0046 24.9062L31.492 26.4931L26.5573 27.9404Z" fill="#233447" stroke="#233447" stroke-linecap="round" stroke-linejoin="round"/>
<path d="M13.8454 37.3389L14.6824 30.2593L9.22446 30.4162L13.8454 37.3389Z" fill="#CD6116" stroke="#CD6116" stroke-linecap="round" stroke-linejoin="round"/>
<path d="M31.3176 30.2593L32.1546 37.3389L36.7755 30.4162L31.3176 30.2593Z" fill="#CD6116" stroke="#CD6116" stroke-linecap="round" stroke-linejoin="round"/>
<path d="M35.4678 22.4648L25.6679 22.9008L26.5747 27.9402L28.022 24.9061L31.5095 26.4929L35.4678 22.4648Z" fill="#CD6116" stroke="#CD6116" stroke-linecap="round" stroke-linejoin="round"/>
<path d="M14.508 26.4929L17.9955 24.9061L19.4253 27.9402L20.3495 22.9008L10.5323 22.4648L14.508 26.4929Z" fill="#CD6116" stroke="#CD6116" stroke-linecap="round" stroke-linejoin="round"/>
<path d="M10.5323 22.4648L14.6475 30.486L14.508 26.4929L10.5323 22.4648Z" fill="#E4751F" stroke="#E4751F" stroke-linecap="round" stroke-linejoin="round"/>
<path d="M31.5095 26.4929L31.3351 30.486L35.4678 22.4648L31.5095 26.4929Z" fill="#E4751F" stroke="#E4751F" stroke-linecap="round" stroke-linejoin="round"/>
<path d="M20.3495 22.9009L19.4254 27.9403L20.5762 33.8864L20.8378 26.057L20.3495 22.9009Z" fill="#E4751F" stroke="#E4751F" stroke-linecap="round" stroke-linejoin="round"/>
<path d="M25.668 22.9009L25.1971 26.0396L25.4064 33.8864L26.5747 27.9403L25.668 22.9009Z" fill="#E4751F" stroke="#E4751F" stroke-linecap="round" stroke-linejoin="round"/>
<path d="M26.5747 27.9405L25.4064 33.8866L26.2434 34.4621L31.3351 30.4863L31.5095 26.4932L26.5747 27.9405Z" fill="#F6851B" stroke="#F6851B" stroke-linecap="round" stroke-linejoin="round"/>
<path d="M14.508 26.4932L14.6475 30.4863L19.7392 34.4621L20.5762 33.8866L19.4253 27.9405L14.508 26.4932Z" fill="#F6851B" stroke="#F6851B" stroke-linecap="round" stroke-linejoin="round"/>
<path d="M26.6619 39.937L26.7142 38.3154L26.2782 37.9317H19.7043L19.3033 38.3154L19.3381 39.937L13.8454 37.3389L15.7635 38.9082L19.652 41.611H26.3305L30.2365 38.9082L32.1546 37.3389L26.6619 39.937Z" fill="#C0AD9E" stroke="#C0AD9E" stroke-linecap="round" stroke-linejoin="round"/>
<path d="M26.2434 34.4617L25.4064 33.8862H20.5762L19.7392 34.4617L19.3033 38.3153L19.7043 37.9317H26.2782L26.7142 38.3153L26.2434 34.4617Z" fill="#161616" stroke="#161616" stroke-linecap="round" stroke-linejoin="round"/>
<path d="M43.7505 14.1124L45.2327 6.99793L43.0182 0.38916L26.2434 12.8395L32.6952 18.2974L41.815 20.9653L43.8377 18.6112L42.9658 17.9835L44.3608 16.7106L43.2797 15.8736L44.6747 14.8099L43.7505 14.1124Z" fill="#763D16" stroke="#763D16" stroke-linecap="round" stroke-linejoin="round"/>
<path d="M0.767334 6.99793L2.24951 14.1124L1.30789 14.8099L2.70289 15.8736L1.6392 16.7106L3.0342 17.9835L2.16233 18.6112L4.16763 20.9653L13.2874 18.2974L19.7392 12.8395L2.96445 0.38916L0.767334 6.99793Z" fill="#763D16" stroke="#763D16" stroke-linecap="round" stroke-linejoin="round"/>
<path d="M41.815 20.9653L32.6952 18.2974L35.4677 22.4649L31.3351 30.4861L36.7756 30.4164H44.8839L41.815 20.9653Z" fill="#F6851B" stroke="#F6851B" stroke-linecap="round" stroke-linejoin="round"/>
<path d="M13.2874 18.2974L4.16762 20.9653L1.13351 30.4164H9.22447L14.6475 30.4861L10.5323 22.4649L13.2874 18.2974Z" fill="#F6851B" stroke="#F6851B" stroke-linecap="round" stroke-linejoin="round"/>
<path d="M25.6679 22.901L26.2434 12.8396L28.8938 5.67285H17.1236L19.7392 12.8396L20.3495 22.901L20.5588 26.0746L20.5762 33.8866H25.4064L25.4412 26.0746L25.6679 22.901Z" fill="#F6851B" stroke="#F6851B" stroke-linecap="round" stroke-linejoin="round"/>
</g>
<defs>
<clipPath id="clip0_8014_11844">
<rect width="44.4654" height="41.222" fill="white" transform="translate(0.767334 0.38916)"/>
</clipPath>
</defs>
</svg>
