<svg width="100" height="100" viewBox="0 0 100 100" fill="none" xmlns="http://www.w3.org/2000/svg">
<mask id="mask0_6956_36559" style="mask-type:luminance" maskUnits="userSpaceOnUse" x="7" y="7" width="86" height="86">
<path d="M92.8182 7H7.18164V93H92.8182V7Z" fill="white"/>
</mask>
<g mask="url(#mask0_6956_36559)">
<path d="M30.7148 92.9935C52.781 92.9935 52.781 92.6625 56.5258 91.5527C61.4128 90.0989 42.7214 77.1577 30.7148 77.1577C18.7081 77.1577 8.97949 80.7013 8.97949 85.0756C8.97949 89.4499 18.7081 92.9935 30.7148 92.9935Z" fill="black"/>
<path d="M80.8181 25.6786L81.8306 26.7689L80.9479 27.9695C52.1644 66.884 35.5888 84.5046 28.5535 82.1422C24.2701 80.7014 19.9737 76.3725 15.6772 70.0901C14.165 67.8835 12.7502 65.5536 11.4587 63.2366C10.602 61.692 9.8751 60.2901 9.49218 59.4983C9.09629 58.726 8.81722 57.9018 8.64847 57.0451L8.629 56.9477C8.5641 56.5973 8.53814 56.4934 8.48622 56.2987C2.93072 35.3553 15.4046 13.8731 36.3481 8.31111C46.1806 5.7021 56.6361 7.01309 65.521 11.965L65.6703 12.0559C70.4145 15.3593 75.4638 19.9024 80.8181 25.6721M63.6843 15.0543C46.4597 5.52038 24.7698 11.7573 15.2359 28.982C10.7837 37.0297 9.60901 46.4792 11.9649 55.3707C12.0428 55.6627 12.0817 55.8314 12.1596 56.2533L12.1791 56.3442C12.2894 56.9023 12.4776 57.441 12.7437 57.9407C13.0877 58.6611 13.7821 60.0046 14.5999 61.4778C15.8395 63.7039 17.2024 65.9365 18.6432 68.0523C22.5243 73.7311 26.3794 77.6121 29.6958 78.7219C34.1285 80.2082 50.8015 62.5552 77.1577 27.0285C73.0755 22.6023 68.5584 18.5914 63.6843 15.0608" fill="black"/>
<path d="M63.6844 15.0673C46.4597 5.53336 24.7699 11.7703 15.236 28.995C10.7838 37.0427 9.60907 46.4987 11.965 55.3836C12.0429 55.6757 12.0818 55.8444 12.1597 56.2663L12.1791 56.3571C12.2895 56.9153 12.4777 57.454 12.7438 57.9537C13.0878 58.6741 13.7822 60.0175 14.5999 61.4908C15.8395 63.7169 17.2025 65.9495 18.6433 68.0652C22.5243 73.744 26.3729 77.6251 29.6959 78.7349C34.1286 80.2276 50.8016 62.5746 77.1643 27.0415C73.082 22.6087 68.5649 18.5979 63.6909 15.0673" fill="#EC1C79"/>
<path d="M53.5926 92.6366C31.9287 92.6366 14.373 75.0744 14.373 53.417C14.373 31.7597 31.9352 14.1975 53.5926 14.1975C75.25 14.1975 92.8121 31.7597 92.8121 53.417C92.8121 75.0744 75.2565 92.6366 53.5926 92.6366ZM53.5926 89.0411C73.264 89.0411 89.2166 73.0949 89.2166 53.417C89.2166 33.7456 73.2705 17.793 53.5926 17.793C33.9212 17.793 17.9685 33.7391 17.9685 53.417C17.9685 73.0885 33.9147 89.0411 53.5926 89.0411Z" fill="black"/>
<path d="M53.5918 89.0347C73.2632 89.0347 89.2158 73.0886 89.2158 53.4107C89.2158 33.7327 73.2697 17.7866 53.5918 17.7866C33.9139 17.7866 17.9678 33.7327 17.9678 53.4107C17.9678 73.0821 33.9139 89.0347 53.5918 89.0347Z" fill="white"/>
<path fill-rule="evenodd" clip-rule="evenodd" d="M26.9507 60.7119L22.2324 46.5051H26.3666L28.8263 54.6632L31.5457 46.4597H34.9075L37.6269 54.6632L40.0866 46.5051H44.1364L39.4181 60.7119H36.0109L33.1682 52.5928L30.345 60.7119H26.9377H26.9507ZM45.6876 60.6146V46.5116H57.0322V49.8346H49.5556V51.9698H56.3248V55.0526H49.5556V57.2852H57.1296V60.6081H45.6876V60.6146ZM62.5747 60.6146V49.9319H58.3432V46.5051H70.7133V49.9319H66.4818V60.6081H62.5747V60.6146ZM72.4267 60.6146V46.5116H76.3337V51.7881H81.3505V46.5116H85.264V60.6146H81.3505V55.2538H76.3337V60.6146H72.4267Z" fill="black"/>
<path d="M9.51791 42.2672C8.52492 41.7675 8.11605 40.5603 8.61579 39.5609C9.11552 38.5679 10.3227 38.159 11.3221 38.6588L17.0788 41.5404C18.0718 42.0401 18.4807 43.2472 17.981 44.2402C17.4812 45.2332 16.2741 45.6421 15.2811 45.1423L9.5244 42.2607L9.51791 42.2672Z" fill="black"/>
<path d="M8.85652 51.8075C7.84407 51.3402 7.40274 50.1461 7.87003 49.1336C8.33731 48.1212 9.53148 47.6798 10.5439 48.1471L16.3006 50.8016C17.3066 51.2818 17.7349 52.4825 17.2547 53.4885C16.7874 54.4749 15.6127 54.9098 14.6132 54.462L8.85652 51.8075Z" fill="black"/>
</g>
</svg>
