<svg width="280" height="24" viewBox="0 0 280 24" fill="none" xmlns="http://www.w3.org/2000/svg">
<g clip-path="url(#clip0_6400_26008)">
<path d="M4.8413 23.3631H0L14.2683 0H19.11L4.8413 23.3631Z" fill="white"/>
<path d="M28.573 23.3631H33.4147L19.146 0L14.3047 1.04045e-07L28.573 23.3631Z" fill="white"/>
<path d="M64.7812 23.5654L64.7455 8.25735L56.5464 20.9261H54.4789L46.2798 8.45526V23.5654H41.8594V0.471313H45.6738L55.584 15.7794L65.3159 0.471313H69.1302L69.166 23.5654H64.7812Z" fill="white"/>
<path d="M102.035 23.5654L101.999 8.25735L93.8002 20.9261H91.7328L83.5337 8.45526V23.5654H79.1133V0.471313H82.9276L92.8379 15.7794L102.57 0.471313H106.384L106.42 23.5654H102.035Z" fill="white"/>
<path d="M135.085 19.9693V23.5654H116.369V0.471313H134.586V4.0674H121.003V10.0719H133.052V13.602H121.003V19.9693H135.085Z" fill="white"/>
<path d="M159.786 23.5654L154.688 16.8022C154.474 16.8242 154.153 16.8352 153.726 16.8352H148.093V23.5654H143.459V0.471313H153.726C155.889 0.471313 157.766 0.801232 159.358 1.46106C160.975 2.1209 162.21 3.06665 163.066 4.29834C163.921 5.53003 164.349 6.99266 164.349 8.68622C164.349 10.4238 163.886 11.9194 162.959 13.1731C162.056 14.4267 160.748 15.3615 159.037 15.9774L164.777 23.5654H159.786ZM159.679 8.68622C159.679 7.21262 159.156 6.07987 158.111 5.28809C157.065 4.49629 155.532 4.10039 153.512 4.10039H148.093V13.305H153.512C155.532 13.305 157.065 12.9092 158.111 12.1173C159.156 11.3036 159.679 10.1599 159.679 8.68622Z" fill="white"/>
<path d="M228.094 23.7995H223.582L236.881 0.436401H241.393L228.094 23.7995Z" fill="white"/>
<path d="M250.213 23.7995H254.725L241.427 0.436401H236.914L250.213 23.7995Z" fill="white"/>
<path d="M210.169 0.905884C212.184 0.905884 213.934 1.2358 215.418 1.89563C216.925 2.55547 218.077 3.50122 218.874 4.73291C219.671 5.96458 220.07 7.42724 220.07 9.1208C220.07 10.7924 219.671 12.255 218.874 13.5087C218.077 14.7404 216.925 15.6861 215.418 16.346C213.934 17.0058 212.184 17.3357 210.169 17.3357H204.919V24H200.6V0.905884H210.169ZM209.97 13.7066C211.852 13.7066 213.281 13.3108 214.256 12.5189C215.23 11.7271 215.717 10.5944 215.717 9.1208C215.717 7.64714 215.23 6.51445 214.256 5.72268C213.281 4.93086 211.852 4.53496 209.97 4.53496H204.919V13.7066H209.97Z" fill="white"/>
<path d="M269.967 15.8511V24H265.647V15.9171L256.51 0.905884H261.128L267.94 12.156L274.817 0.905884H279.07L269.967 15.8511Z" fill="white"/>
</g>
<defs>
<clipPath id="clip0_6400_26008">
<rect width="279.07" height="24" fill="white"/>
</clipPath>
</defs>
</svg>
