<svg width="24" height="24" viewBox="0 0 24 24" fill="none" xmlns="http://www.w3.org/2000/svg">
<g clip-path="url(#clip0_6590_4103)">
<path fill-rule="evenodd" clip-rule="evenodd" d="M12.7248 2.08704L19.9459 6.23931L19.9443 6.24093C20.4593 6.56482 20.788 7.12029 20.8123 7.72759V16.0386C20.7897 16.5844 20.5354 17.088 20.1046 17.4216L12.5985 21.7682C12.3847 21.8524 12.158 21.8945 11.9264 21.8945C11.6738 21.8945 11.3936 21.8395 11.1977 21.7439C11.1734 21.731 11.1037 21.6937 11.0001 21.6354L10.9861 21.6276C10.9224 21.5919 10.8464 21.5492 10.762 21.501L8.01382 19.9188L5.71744 18.5957L12.2843 7.75674L15.1896 7.7454L8.63568 18.8629L11.6932 20.6216C11.8325 20.6767 11.9944 20.6799 12.1337 20.6297L14.7183 19.1318L17.2674 17.6548L17.9799 17.2419L14.158 11.0604L15.6268 8.56808L19.5751 14.7171V7.77455C19.5654 7.57536 19.4601 7.39236 19.2917 7.28548L12.1645 3.18503C11.9977 3.10406 11.7871 3.10406 11.6203 3.18827C11.5977 3.19961 4.5158 7.29843 4.48342 7.3211C4.35224 7.41665 4.26479 7.55592 4.23726 7.71139C4.23655 7.71637 4.23576 7.72143 4.23496 7.72654C4.23212 7.74473 4.22916 7.76369 4.22916 7.78265L4.2405 14.4175L7.92799 8.7025C8.39277 7.94459 9.4033 7.70006 10.3426 7.71301L11.4454 7.74216L4.95144 18.1536L3 17.0297V16.322V7.72273C3.02915 7.16078 3.30931 6.64741 3.76924 6.31867C3.85669 6.25713 3.95062 6.20206 4.04616 6.1551C4.04616 6.1551 11.0082 2.11781 11.0681 2.08704C11.5782 1.82955 12.2147 1.83117 12.7248 2.08704ZM13.6463 11.9414L17.269 17.6516L14.72 19.1285L11.962 14.7997L13.6463 11.9414Z" fill="white"/>
</g>
<defs>
<clipPath id="clip0_6590_4103">
<rect width="24" height="24" fill="white"/>
</clipPath>
</defs>
</svg>
