<svg width="300" height="41" viewBox="0 0 300 41" fill="none" xmlns="http://www.w3.org/2000/svg">
<g clip-path="url(#clip0_8976_34687)">
<path d="M0 10.8916C0.406394 10.4445 0.596044 9.65883 1.04308 9.27953L17.1092 0.0272958C17.7865 0.0272958 18.5045 -0.0675295 19.1547 0.0814816L28.6779 5.26978C28.7185 5.45943 28.5966 5.3917 28.4882 5.45943C27.2013 6.20448 25.8331 6.82762 24.5326 7.54558L18.0303 4.13187L4.05039 12.2056L4.0233 28.4749L17.9626 36.4808L18.2606 36.4537L24.4649 32.8775L24.7629 32.9452L28.3663 35.0043C28.5966 35.2075 28.1766 35.2481 27.987 35.37C25.0068 37.1988 21.9317 38.9463 18.8838 40.599H17.2176L1.02953 31.3196L0 29.6941V10.9051V10.8916Z" fill="#0101FE"/>
<path d="M126.808 9.2251L137.307 24.9255H137.849V9.2251H142.035V31.4548H137.239C137.239 31.4548 137.049 31.3465 137.009 31.2923L126.714 15.8358C126.578 15.6055 126.348 15.6326 126.117 15.6461V31.4684H122.067L121.932 31.3329V9.2251H126.822H126.808Z" fill="#010101"/>
<path d="M226.7 9.2251H236.711C241.276 9.49603 244.446 12.5575 244.012 17.2717C243.809 19.4798 242.075 21.3492 240.03 22.0401C239.705 22.1484 238.309 22.3787 238.242 22.4464C238.187 22.5142 238.242 22.7851 238.242 22.907H240.937L245.218 31.4684H240.612L236.508 23.6521H230.967V31.4684H226.822L226.687 31.3329V9.2251H226.7ZM230.981 20.1029H236.332C239.759 20.1029 240.937 14.9553 238.025 13.289C237.74 13.1265 236.806 12.7472 236.521 12.7472H230.981V20.1029Z" fill="#010101"/>
<path d="M66.9601 9.2251V18.3419H76.3749V9.2251H80.6556V31.36H76.3749V21.9723H66.9601V31.36H62.6794V9.2251H66.9601Z" fill="#010101"/>
<path d="M104.972 31.455H100.461L98.5912 26.1447H88.9732L87.2935 31.455H82.918L90.9781 9.21167L96.925 9.30649L104.985 31.455H104.972ZM97.4262 22.8123L94.0261 12.5712C93.8771 12.4086 93.6197 12.4357 93.5249 12.6254L90.1653 22.7988H97.4262V22.8123Z" fill="#010101"/>
<path d="M27.9464 14.901L24.465 16.8382C22.2975 15.7545 20.252 14.3998 18.0304 13.4109L14.0613 15.6867L27.2013 23.2321C27.1065 23.7875 27.3639 26.3749 27.1065 26.6594L19.1954 31.2245C18.7754 31.4006 17.4885 31.4413 17.0686 31.2923L8.10083 25.7788L8.15502 25.5892L11.5958 23.4489L18.0168 27.1741L22.0672 24.8983L8.85943 17.2581V13.9799L16.8789 9.38762C17.1905 9.26571 18.8432 9.26571 19.1818 9.36053C22.0808 11.2299 25.1016 12.9503 27.9464 14.8875V14.901Z" fill="#0101FE"/>
<path d="M162.151 15.7409L158.114 16.0118C157.938 15.9577 157.898 15.2532 157.816 14.9959C156.516 10.8913 148.767 12.0156 149.973 16.1338C150.298 17.2717 151.422 17.7322 152.438 18.0438C155.717 19.0462 161.528 19.0327 162.463 23.205C163.33 27.1335 160.824 30.1814 157.166 31.1974C152.113 32.6063 145.083 30.5743 145.096 24.3971L149.282 24.3023C149.323 27.8785 153.576 28.9216 156.38 27.8108C159.185 26.7 158.887 23.6114 156.096 22.5548C152.506 21.1866 146.044 21.7555 145.557 16.5266C144.663 6.86797 161.921 6.42094 162.124 15.7409H162.151Z" fill="#010101"/>
<path d="M209.279 9.2251V22.1213C209.401 24.9796 209.957 27.7025 213.33 27.9328C216.459 28.1495 218.166 26.9032 218.586 23.774C218.816 18.9379 218.626 14.0747 218.694 9.2251H222.975V22.8528C222.636 29.1655 218.843 32.1186 212.585 31.5497C207.437 31.0755 205.242 27.5264 204.985 22.6632V9.2251H209.279Z" fill="#010101"/>
<path d="M180.222 9.2251V12.8555H169.886V18.5315H178.353V21.8775H169.886V27.7431H180.588V31.4548H165.605V9.2251H180.222Z" fill="#010101"/>
<path d="M59.8889 16.9467L55.5133 17.1228C54.9444 13.5194 51.463 11.6636 48.0628 12.9911C43.8363 14.6302 43.3622 21.3764 45.1639 24.912C47.5887 29.6804 54.7141 28.8947 55.5269 23.4625L59.8076 23.6386C59.496 28.0006 56.0417 31.1434 51.7474 31.5498C46.0579 32.0916 41.3167 29.152 40.111 23.4625C38.8106 17.2989 41.276 10.5663 47.9815 9.26584C53.7117 8.15503 59.0896 10.8914 59.9024 16.9467H59.8889Z" fill="#010101"/>
<path d="M202.289 16.9467L198.009 17.1228C197.386 13.533 193.972 11.6636 190.545 12.9911C184.882 15.1992 185.383 27.3504 191.899 28.0006C195.15 28.3257 197.358 26.6189 197.995 23.4625L202.276 23.6386C201.951 27.987 198.496 31.1434 194.216 31.5498C188.743 32.0645 183.961 29.3281 182.647 23.8418C181.333 18.3555 183.189 11.4468 189.258 9.56386C195.326 7.6809 201.68 10.4037 202.276 16.9331L202.289 16.9467Z" fill="#010101"/>
<path d="M284.53 9.22522L289.38 19.3986C289.515 19.6289 289.881 19.6289 290.016 19.3986L295.042 9.52324L295.299 9.21167H300L291.899 24.045V31.306L291.764 31.4414H287.619V24.2347L279.518 9.21167H284.544L284.53 9.22522Z" fill="#010101"/>
<path d="M118.748 9.22522V12.8557H114.739V27.7432H118.748V31.3195L118.613 31.455H106.462V27.7297H110.471V12.8421H106.462V9.21167H118.762L118.748 9.22522Z" fill="#010101"/>
<path d="M259.103 9.2251V12.8555H255.094V27.7431H258.954L259.09 27.8786V31.3736H246.79V27.7431H250.799V12.8555H246.79V9.2251H259.09H259.103Z" fill="#010101"/>
<path d="M278.393 9.2251V12.8555H271.877V31.3194L271.742 31.4548H267.637L267.502 31.3194V12.8555H260.986V9.2251H278.407H278.393Z" fill="#010101"/>
</g>
<defs>
<clipPath id="clip0_8976_34687">
<rect width="300" height="40.5852" fill="white"/>
</clipPath>
</defs>
</svg>
