<svg width="41" height="37" viewBox="0 0 41 37" fill="none" xmlns="http://www.w3.org/2000/svg">
<path fill-rule="evenodd" clip-rule="evenodd" d="M39.2772 10.9949L26.8076 10.9949L26.8076 12.9949L38.2772 12.9949L38.2772 30.0723L34.9546 30.0723L36.9518 28.0751L35.5376 26.6609L31.7678 30.4307L31.0607 31.1378L31.7678 31.8449L35.5376 35.6148L36.9518 34.2006L34.8235 32.0723L39.2772 32.0723L40.2772 32.0723L40.2772 31.0723L40.2772 11.9949L40.2772 10.9949L39.2772 10.9949ZM34.0109 31.2596L34.0109 31.016L33.8891 31.1378L34.0109 31.2596Z" fill="#FB7185"/>
<g clip-path="url(#clip0_8003_8926)">
<path d="M19.9646 11.2895C20.6612 10.9395 21.0689 10.3167 20.9855 9.29267C20.7993 7.86089 19.5922 7.37935 18.0481 7.28947V5.37615L16.8699 5.36652V7.27984C16.5649 7.2702 16.2696 7.30231 15.9197 7.30231V5.38899L14.7415 5.37936L14.7543 7.33441C14.4975 7.35367 14.2343 7.33441 14.0192 7.34404L12.4141 7.35688L12.4269 8.61531H13.2969C13.7784 8.62494 13.9325 8.89139 13.9935 9.13537L14.0192 14.4355C13.9678 14.58 13.8972 14.8143 13.5473 14.8143H12.6773L12.4237 16.2269L13.9486 16.2365L14.7768 16.2461L14.7897 18.2012L15.9678 18.2108L15.955 16.2557C16.2632 16.2654 16.5681 16.275 16.9181 16.275L16.9598 18.1787L18.138 18.1883L18.1251 16.2333C20.0994 16.1305 21.4895 15.6073 21.6725 13.7325C21.8137 12.2172 21.0882 11.5752 19.971 11.2895H19.9646ZM15.9839 8.59283C16.6388 8.60247 18.7158 8.38738 18.7158 9.77742C18.7062 11.1289 16.6195 10.9556 15.9646 10.946L15.9839 8.59283ZM15.9678 14.7726V12.1627C16.7543 12.1819 19.2583 11.9444 19.2904 13.4596C19.3129 14.9331 16.7832 14.7405 15.9678 14.7726Z" fill="#FB7185"/>
<path fill-rule="evenodd" clip-rule="evenodd" d="M7.50293 1.24002H6.50293V2.24002V4.69223L7.87425 3.95311L8.50293 3.61426V3.24002H25.6002V20.3373H8.50293V20.1762L8.3487 20.2593L6.50293 21.2542V21.3373V22.3373H7.50293H26.6002H27.6002V21.3373V2.24002V1.24002H26.6002H7.50293ZM6.50293 20.1182L7.61147 19.5207V5.23074L6.50293 5.82823V20.1182Z" fill="#FB7185"/>
<path d="M8.77349 19.1231L2.16016 22.505V7.86918L8.77349 4.4873V19.1231Z" fill="#FB7185"/>
</g>
<path d="M7.04945 34.8839H1.03516V33.5206L5.02546 28.5236H1.13478V27.155H7.03896V28.4502L2.99623 33.5206H7.04945V34.8839Z" fill="#FB7185"/>
<path d="M13.5986 34.3072C13.0218 34.835 12.2842 35.0989 11.3858 35.0989C10.2742 35.0989 9.40029 34.7424 8.76408 34.0293C8.12786 33.3126 7.80976 32.3304 7.80976 31.0824C7.80976 29.7331 8.17156 28.6931 8.89516 27.9625C9.52438 27.3263 10.3249 27.0082 11.2967 27.0082C12.5971 27.0082 13.5479 27.4347 14.1491 28.2876C14.4812 28.7665 14.6595 29.2472 14.684 29.7296H13.069C12.9641 29.359 12.8295 29.0794 12.6652 28.8906C12.3716 28.555 11.9364 28.3872 11.3596 28.3872C10.7723 28.3872 10.3092 28.625 9.97008 29.1004C9.631 29.5723 9.46146 30.2417 9.46146 31.1086C9.46146 31.9756 9.63974 32.6257 9.9963 33.0592C10.3564 33.4892 10.8125 33.7042 11.3649 33.7042C11.9312 33.7042 12.3629 33.5189 12.66 33.1483C12.8243 32.9491 12.9606 32.6502 13.069 32.2517H14.6683C14.5284 33.0942 14.1719 33.7793 13.5986 34.3072Z" fill="#FB7185"/>
<path d="M20.5148 34.8839V31.4337H17.4945V34.8839H15.8952V27.155H17.4945V30.1019H20.5148V27.155H22.1193V34.8839H20.5148Z" fill="#FB7185"/>
<path d="M29.1456 28.5236H25.2706V30.3011H28.6632V31.6435H25.2706V34.8839H23.6661V27.1655H29.1456V28.5236Z" fill="#FB7185"/>
<defs>
<clipPath id="clip0_8003_8926">
<rect width="26.1944" height="22.7778" fill="white" transform="translate(2.10254)"/>
</clipPath>
</defs>
</svg>
