<svg width="540" height="60" viewBox="0 0 540 60" fill="none" xmlns="http://www.w3.org/2000/svg">
<g clip-path="url(#clip0_6318_13815)">
<mask id="mask0_6318_13815" style="mask-type:luminance" maskUnits="userSpaceOnUse" x="0" y="0" width="540" height="60">
<path d="M0 0H540V60H0V0Z" fill="white"/>
</mask>
<g mask="url(#mask0_6318_13815)">
<path d="M25.2632 0H23.6843V1.89474H25.2632V0ZM27.158 0H25.2632V1.89474H27.158V0ZM29.0527 0H27.158V1.89474H29.0527V0ZM30.9474 0H29.0527V1.89474H30.9474V0ZM32.5264 0H30.9474V1.89474H32.8422V0H32.5264Z" fill="#060606"/>
<path d="M34.421 0H32.5263V1.89474H34.421V0ZM36.3158 0H34.421V1.89474H36.3158V0ZM38.2105 0H36.3158V1.89474H38.2105V0Z" fill="#060606"/>
<path d="M39.7894 0H37.8947V1.89474H39.7894V0ZM19.8947 1.89474H17.9999V3.78947H19.8947V1.89474ZM21.7894 1.89474H19.8947V3.78947H21.7894V1.89474Z" fill="#060606"/>
<path d="M23.6843 1.89471H21.7896V3.78945H23.6843V1.89471Z" fill="#1C2525"/>
<path d="M25.2632 1.89471H23.6843V3.78945H25.2632V1.89471ZM27.158 1.89471H25.2632V3.78945H27.158V1.89471Z" fill="#565E61"/>
<path d="M29.0526 1.89471H27.1578V3.78945H29.0526V1.89471Z" fill="#697878"/>
<path d="M30.9473 1.89471H29.0526V3.78945H30.9473V1.89471ZM32.5262 1.89471H30.9473V3.78945H32.842V1.89471H32.5262Z" fill="#818990"/>
<path d="M34.421 1.89471H32.5263V3.78945H34.421V1.89471ZM36.3158 1.89471H34.421V3.78945H36.3158V1.89471ZM38.2105 1.89471H36.3158V3.78945H38.2105V1.89471Z" fill="#818990"/>
<path d="M39.7896 1.89471H37.8948V3.78945H39.7896V1.89471Z" fill="#818990"/>
<path d="M41.6842 1.89471H39.7895V3.78945H41.6842V1.89471Z" fill="#060606"/>
<path d="M43.5789 1.89471H41.6842V3.78945H43.5789V1.89471Z" fill="black"/>
<path d="M16.4211 3.78943H14.5264V5.68417H16.4211V3.78943ZM18.0001 3.78943H16.4211V5.68417H18.3158L18.0001 3.78943Z" fill="#060606"/>
<path d="M19.8947 3.78943H17.9999V5.68417H19.8947V3.78943ZM21.7894 3.78943H19.8947V5.68417H21.7894V3.78943Z" fill="#565E61"/>
<path d="M23.6843 3.78943H21.7896V5.68417H23.6843V3.78943Z" fill="#424E51"/>
<path d="M25.2632 3.78943H23.6843V5.68417H25.2632V3.78943ZM27.158 3.78943H25.2632V5.68417H27.158V3.78943Z" fill="#B0B4B8"/>
<path d="M29.0526 3.78943H27.1578V5.68417H29.0526V3.78943ZM30.9473 3.78943H29.0526V5.68417H30.9473V3.78943ZM32.5263 3.78943H30.9473V5.68417H32.842V3.78943H32.5263Z" fill="#C7C9CE"/>
<path d="M34.421 3.78943H32.5263V5.68417H34.421V3.78943ZM36.3158 3.78943H34.421V5.68417H36.3158V3.78943ZM38.2105 3.78943H36.3158V5.68417H38.2105V3.78943Z" fill="#C7C9CE"/>
<path d="M39.7896 3.78943H37.8948V5.68417H39.7896V3.78943Z" fill="#C7C9CE"/>
<path d="M41.6842 3.78943H39.7895V5.68417H41.6842V3.78943ZM43.579 3.78943H41.6842V5.68417H43.579V3.78943Z" fill="#697878"/>
<path d="M45.4737 3.78943H43.5789V5.68417H45.4737V3.78943Z" fill="black"/>
<path d="M47.0526 3.78943H45.1578V5.68417H47.0526V3.78943Z" fill="black"/>
<path d="M16.4211 5.36847H14.5264V7.26321H16.4211V5.36847ZM18.0001 5.36847H16.4211V7.26321H18.3158L18.0001 5.36847Z" fill="#707980"/>
<path d="M19.8947 5.36847H17.9999V7.26321H19.8947V5.36847ZM21.7894 5.36847H19.8947V7.26321H21.7894V5.36847Z" fill="#435050"/>
<path d="M23.6843 5.36847H21.7896V7.26321H23.6843V5.36847ZM25.2632 5.36847H23.6843V7.26321H25.2632V5.36847ZM27.158 5.36847H25.2632V7.26321H27.158V5.36847Z" fill="#C7C9CE"/>
<path d="M29.0526 5.36847H27.1578V7.26321H29.0526V5.36847Z" fill="#060606"/>
<path d="M30.9473 5.36847H29.0526V7.26321H30.9473V5.36847ZM32.5262 5.36847H30.9473V7.26321H32.842V5.36847H32.5262Z" fill="black"/>
<path d="M34.421 5.36847H32.5263V7.26321H34.421V5.36847ZM36.3158 5.36847H34.421V7.26321H36.3158V5.36847ZM38.2105 5.36847H36.3158V7.26321H38.2105V5.36847Z" fill="black"/>
<path d="M39.7896 5.36847H37.8948V7.26321H39.7896V5.36847Z" fill="black"/>
<path d="M41.6842 5.36847H39.7895V7.26321H41.6842V5.36847ZM43.579 5.36847H41.6842V7.26321H43.579V5.36847ZM45.4737 5.36847H43.579V7.26321H45.4737V5.36847Z" fill="#C7C9CE"/>
<path d="M47.0526 5.36847H45.1578V7.26321H47.0526V5.36847Z" fill="#C7C9CE"/>
<path d="M48.9474 5.36847H47.0526V7.26321H48.9474V5.36847ZM50.8421 5.36847H48.9474V7.26321H50.8421V5.36847ZM10.7368 7.26321H9.1579V9.15794H11.0526L10.7368 7.26321Z" fill="#060606"/>
<path d="M12.6315 7.26318H10.7368V9.15792H12.6315V7.26318Z" fill="#1E292A"/>
<path d="M16.4211 7.26318H14.5264V9.15792H16.4211V7.26318ZM18.0001 7.26318H16.4211V9.15792H18.3158L18.0001 7.26318Z" fill="#4C5755"/>
<path d="M19.8947 7.26318H17.9999V9.15792H19.8947V7.26318ZM21.7894 7.26318H19.8947V9.15792H21.7894V7.26318Z" fill="#FAFAFA"/>
<path d="M23.6843 7.26318H21.7896V9.15792H23.6843V7.26318ZM25.2632 7.26318H23.6843V9.15792H25.2632V7.26318ZM27.158 7.26318H25.2632V9.15792H27.158V7.26318Z" fill="#070808"/>
<path d="M29.0526 7.26318H27.1578V9.15792H29.0526V7.26318ZM30.9473 7.26318H29.0526V9.15792H30.9473V7.26318ZM32.5263 7.26318H30.9473V9.15792H32.842V7.26318H32.5263Z" fill="#903547"/>
<path d="M34.421 7.26318H32.5263V9.15792H34.421V7.26318ZM36.3158 7.26318H34.421V9.15792H36.3158V7.26318ZM38.2105 7.26318H36.3158V9.15792H38.2105V7.26318Z" fill="#903547"/>
<path d="M39.7896 7.26318H37.8948V9.15792H39.7896V7.26318Z" fill="#903547"/>
<path d="M41.6842 7.26318H39.7895V9.15792H41.6842V7.26318ZM43.579 7.26318H41.6842V9.15792H43.579V7.26318ZM45.4737 7.26318H43.579V9.15792H45.4737V7.26318Z" fill="black"/>
<path d="M47.0526 7.26318H45.1578V9.15792H47.0526V7.26318ZM48.9473 7.26318H47.0526V9.15792H48.9473V7.26318ZM50.842 7.26318H48.9473V9.15792H50.842V7.26318Z" fill="#C7C9CE"/>
<path d="M52.7369 7.26318H50.8421V9.15792H52.7369V7.26318ZM9.15792 9.15792H7.26318V11.0527H9.15792V9.15792Z" fill="#060606"/>
<path d="M10.7368 9.1579H9.1579V11.0526H11.0526L10.7368 9.1579Z" fill="#818990"/>
<path d="M12.6315 9.1579H10.7368V11.0526H12.6315V9.1579Z" fill="#C6C7CA"/>
<path d="M16.4211 9.1579H14.5264V11.0526H16.4211V9.1579Z" fill="#D2D2D6"/>
<path d="M18 9.1579H16.4211V11.0526H18.3158L18 9.1579Z" fill="#FAFAFA"/>
<path d="M19.8947 9.1579H17.9999V11.0526H19.8947V9.1579ZM21.7894 9.1579H19.8947V11.0526H21.7894V9.1579Z" fill="#070808"/>
<path d="M23.6843 9.1579H21.7896V11.0526H23.6843V9.1579ZM25.2632 9.1579H23.6843V11.0526H25.2632V9.1579ZM27.158 9.1579H25.2632V11.0526H27.158V9.1579Z" fill="#903547"/>
<path d="M29.0526 9.1579H27.1578V11.0526H29.0526V9.1579ZM30.9473 9.1579H29.0526V11.0526H30.9473V9.1579ZM32.5263 9.1579H30.9473V11.0526H32.842V9.1579H32.5263Z" fill="#B65767"/>
<path d="M34.421 9.1579H32.5263V11.0526H34.421V9.1579ZM36.3158 9.1579H34.421V11.0526H36.3158V9.1579ZM38.2105 9.1579H36.3158V11.0526H38.2105V9.1579Z" fill="#B65767"/>
<path d="M39.7896 9.1579H37.8948V11.0526H39.7896V9.1579Z" fill="#B65767"/>
<path d="M41.6842 9.1579H39.7895V11.0526H41.6842V9.1579Z" fill="#903547"/>
<path d="M43.5789 9.1579H41.6842V11.0526H43.5789V9.1579ZM45.4737 9.1579H43.5789V11.0526H45.4737V9.1579Z" fill="#B65767"/>
<path d="M47.0526 9.1579H45.1578V11.0526H47.0526V9.1579Z" fill="#903547"/>
<path d="M48.9474 9.1579H47.0527V11.0526H48.9474V9.1579Z" fill="black"/>
<path d="M50.8421 9.1579H48.9474V11.0526H50.8421V9.1579Z" fill="#C7C9CE"/>
<path d="M52.7368 9.1579H50.8421V11.0526H52.7368V9.1579Z" fill="#C7C9CE"/>
<path d="M54.3158 9.1579H52.4211V11.0526H54.3158V9.1579ZM7.26321 11.0526H5.36847V12.6316H7.26321V11.0526Z" fill="#060606"/>
<path d="M9.15792 11.0526H7.26318V12.6316H9.15792V11.0526ZM10.7369 11.0526H9.15792V12.6316H11.0527L10.7369 11.0526Z" fill="#C6C7CA"/>
<path d="M12.6315 11.0526H10.7368V12.6316H12.6315V11.0526Z" fill="#435050"/>
<path d="M16.4211 11.0526H14.5264V12.6316H16.4211V11.0526Z" fill="#CDCDD1"/>
<path d="M18 11.0526H16.4211V12.6316H18.3158L18 11.0526Z" fill="#070808"/>
<path d="M19.8947 11.0526H17.9999V12.6316H19.8947V11.0526Z" fill="#903547"/>
<path d="M21.7894 11.0526H19.8947V12.6316H21.7894V11.0526ZM23.6841 11.0526H21.7894V12.6316H23.6841V11.0526ZM25.2631 11.0526H23.6841V12.6316H25.2631V11.0526ZM27.1578 11.0526H25.2631V12.6316H27.1578V11.0526ZM29.0525 11.0526H27.1578V12.6316H29.0525V11.0526ZM30.9473 11.0526H29.0525V12.6316H30.9473V11.0526ZM32.5262 11.0526H30.9473V12.6316H32.842V11.0526H32.5262Z" fill="#B65767"/>
<path d="M34.421 11.0526H32.5263V12.6316H34.421V11.0526ZM36.3158 11.0526H34.421V12.6316H36.3158V11.0526ZM38.2105 11.0526H36.3158V12.6316H38.2105V11.0526Z" fill="#B65767"/>
<path d="M39.7896 11.0526H37.8948V12.6316H39.7896V11.0526ZM41.6843 11.0526H39.7896V12.6316H41.6843V11.0526ZM43.579 11.0526H41.6843V12.6316H43.579V11.0526ZM45.4738 11.0526H43.579V12.6316H45.4738V11.0526Z" fill="#B65767"/>
<path d="M47.0526 11.0526H45.1578V12.6316H47.0526V11.0526Z" fill="#B65767"/>
<path d="M48.9474 11.0526H47.0527V12.6316H48.9474V11.0526Z" fill="#903547"/>
<path d="M50.8421 11.0526H48.9474V12.6316H50.8421V11.0526Z" fill="black"/>
<path d="M52.7368 11.0526H50.8421V12.6316H52.7368V11.0526Z" fill="#C7C9CE"/>
<path d="M54.3158 11.0526H52.421V12.6316H54.3158V11.0526Z" fill="#C7C9CE"/>
<path d="M56.2106 11.0526H54.3158V12.6316H56.2106V11.0526ZM7.26321 12.6316H5.36847V14.5263H7.26321V12.6316Z" fill="#060606"/>
<path d="M9.15792 12.6317H7.26318V14.5264H9.15792V12.6317Z" fill="#C6C7CA"/>
<path d="M10.7368 12.6317H9.1579V14.5264H11.0526L10.7368 12.6317Z" fill="#374443"/>
<path d="M12.6315 12.6317H10.7368V14.5264H12.6315V12.6317Z" fill="#D2D2D6"/>
<path d="M16.4211 12.6317H14.5264V14.5264H16.4211V12.6317Z" fill="#060606"/>
<path d="M18 12.6317H16.4211V14.5264H18.3158L18 12.6317Z" fill="#903547"/>
<path d="M19.8947 12.6317H17.9999V14.5264H19.8947V12.6317ZM21.7894 12.6317H19.8947V14.5264H21.7894V12.6317ZM23.6841 12.6317H21.7894V14.5264H23.6841V12.6317ZM25.2631 12.6317H23.6841V14.5264H25.2631V12.6317ZM27.1578 12.6317H25.2631V14.5264H27.1578V12.6317Z" fill="#B65767"/>
<path d="M29.0526 12.6317H27.1578V14.5264H29.0526V12.6317ZM30.9473 12.6317H29.0526V14.5264H30.9473V12.6317ZM32.5263 12.6317H30.9473V14.5264H32.842V12.6317H32.5263Z" fill="#E6E6F0"/>
<path d="M34.421 12.6317H32.5263V14.5264H34.421V12.6317ZM36.3158 12.6317H34.421V14.5264H36.3158V12.6317ZM38.2105 12.6317H36.3158V14.5264H38.2105V12.6317Z" fill="#E6E6F0"/>
<path d="M39.7896 12.6317H37.8948V14.5264H39.7896V12.6317Z" fill="#E6E6F0"/>
<path d="M41.6842 12.6317H39.7895V14.5264H41.6842V12.6317ZM43.579 12.6317H41.6842V14.5264H43.579V12.6317ZM45.4737 12.6317H43.579V14.5264H45.4737V12.6317Z" fill="#B65767"/>
<path d="M47.0526 12.6317H45.1578V14.5264H47.0526V12.6317ZM48.9473 12.6317H47.0526V14.5264H48.9473V12.6317Z" fill="#B65767"/>
<path d="M50.8421 12.6317H48.9474V14.5264H50.8421V12.6317Z" fill="#903547"/>
<path d="M52.7368 12.6317H50.8421V14.5264H52.7368V12.6317Z" fill="black"/>
<path d="M54.3158 12.6317H52.421V14.5264H54.3158V12.6317Z" fill="#C7C9CE"/>
<path d="M56.2104 12.6317H54.3157V14.5264H56.2104V12.6317Z" fill="#303A3B"/>
<path d="M5.36831 14.5264H3.47357V16.4211H5.36831V14.5264Z" fill="#060606"/>
<path d="M7.26321 14.5264H5.36847V16.4211H7.26321V14.5264Z" fill="#C6C7CA"/>
<path d="M9.15792 14.5264H7.26318V16.4211H9.15792V14.5264Z" fill="#4D625F"/>
<path d="M10.7368 14.5264H9.1579V16.4211H11.0526L10.7368 14.5264Z" fill="#DADADF"/>
<path d="M12.6315 14.5264H10.7368V16.4211H12.6315V14.5264Z" fill="#DADADF"/>
<path d="M16.4211 14.5264H14.5264V16.4211H16.4211V14.5264Z" fill="#903547"/>
<path d="M18 14.5264H16.4211V16.4211H18.3158L18 14.5264Z" fill="#B65767"/>
<path d="M19.8947 14.5264H17.9999V16.4211H19.8947V14.5264ZM21.7894 14.5264H19.8947V16.4211H21.7894V14.5264ZM23.6841 14.5264H21.7894V16.4211H23.6841V14.5264ZM25.2631 14.5264H23.6841V16.4211H25.2631V14.5264ZM27.1578 14.5264H25.2631V16.4211H27.1578V14.5264Z" fill="#B65767"/>
<path d="M29.0526 14.5264H27.1578V16.4211H29.0526V14.5264ZM30.9473 14.5264H29.0526V16.4211H30.9473V14.5264ZM32.5263 14.5264H30.9473V16.4211H32.842V14.5264H32.5263Z" fill="#E6E6F0"/>
<path d="M34.421 14.5264H32.5263V16.4211H34.421V14.5264ZM36.3158 14.5264H34.421V16.4211H36.3158V14.5264ZM38.2105 14.5264H36.3158V16.4211H38.2105V14.5264Z" fill="#E6E6F0"/>
<path d="M39.7896 14.5264H37.8948V16.4211H39.7896V14.5264Z" fill="#E6E6F0"/>
<path d="M41.6842 14.5264H39.7895V16.4211H41.6842V14.5264ZM43.579 14.5264H41.6842V16.4211H43.579V14.5264ZM45.4737 14.5264H43.579V16.4211H45.4737V14.5264Z" fill="#B65767"/>
<path d="M47.0526 14.5264H45.1578V16.4211H47.0526V14.5264ZM48.9473 14.5264H47.0526V16.4211H48.9473V14.5264ZM50.842 14.5264H48.9473V16.4211H50.842V14.5264Z" fill="#B65767"/>
<path d="M52.7368 14.5264H50.8421V16.4211H52.7368V14.5264Z" fill="#903547"/>
<path d="M54.3158 14.5264H52.421V16.4211H54.3158V14.5264Z" fill="#42514D"/>
<path d="M56.2104 14.5264H54.3157V16.4211H56.2104V14.5264Z" fill="#E3E2EB"/>
<path d="M58.1053 14.5264H56.2106V16.4211H58.1053V14.5264Z" fill="#060606"/>
<path d="M5.36831 16.4211H3.47357V18.3158H5.36831V16.4211Z" fill="#121919"/>
<path d="M7.26321 16.4211H5.36847V18.3158H7.26321V16.4211Z" fill="#C6C7CA"/>
<path d="M9.15792 16.4211H7.26318V18.3158H9.15792V16.4211Z" fill="#4D625F"/>
<path d="M10.7368 16.4211H9.1579V18.3158H11.0526L10.7368 16.4211Z" fill="#DADADF"/>
<path d="M12.6315 16.4211H10.7368V18.3158H12.6315V16.4211Z" fill="#DADADF"/>
<path d="M16.4211 16.4211H14.5264V18.3158H16.4211V16.4211ZM18.0001 16.4211H16.4211V18.3158H18.3158L18.0001 16.4211Z" fill="#B65767"/>
<path d="M19.8947 16.4211H17.9999V18.3158H19.8947V16.4211ZM21.7894 16.4211H19.8947V18.3158H21.7894V16.4211ZM23.6841 16.4211H21.7894V18.3158H23.6841V16.4211ZM25.2631 16.4211H23.6841V18.3158H25.2631V16.4211ZM27.1578 16.4211H25.2631V18.3158H27.1578V16.4211Z" fill="#B65767"/>
<path d="M29.0526 16.4211H27.1578V18.3158H29.0526V16.4211ZM30.9473 16.4211H29.0526V18.3158H30.9473V16.4211ZM32.5263 16.4211H30.9473V18.3158H32.842V16.4211H32.5263Z" fill="#E6E6F0"/>
<path d="M34.421 16.4211H32.5263V18.3158H34.421V16.4211ZM36.3158 16.4211H34.421V18.3158H36.3158V16.4211ZM38.2105 16.4211H36.3158V18.3158H38.2105V16.4211Z" fill="#E6E6F0"/>
<path d="M39.7896 16.4211H37.8948V18.3158H39.7896V16.4211Z" fill="#E6E6F0"/>
<path d="M41.6842 16.4211H39.7895V18.3158H41.6842V16.4211ZM43.579 16.4211H41.6842V18.3158H43.579V16.4211ZM45.4737 16.4211H43.579V18.3158H45.4737V16.4211Z" fill="#B65767"/>
<path d="M47.0526 16.4211H45.1578V18.3158H47.0526V16.4211ZM48.9473 16.4211H47.0526V18.3158H48.9473V16.4211ZM50.842 16.4211H48.9473V18.3158H50.842V16.4211Z" fill="#B65767"/>
<path d="M52.7368 16.4211H50.8421V18.3158H52.7368V16.4211Z" fill="#903547"/>
<path d="M54.3158 16.4211H52.421V18.3158H54.3158V16.4211Z" fill="#42514D"/>
<path d="M56.2104 16.4211H54.3157V18.3158H56.2104V16.4211Z" fill="#E3E2EB"/>
<path d="M58.1053 16.4211H56.2106V18.3158H58.1053V16.4211Z" fill="#060707"/>
<path d="M5.36831 18.3158H3.47357V20.2105H5.36831V18.3158Z" fill="#121919"/>
<path d="M7.26321 18.3158H5.36847V20.2105H7.26321V18.3158Z" fill="#C6C7CA"/>
<path d="M9.15792 18.3158H7.26318V20.2105H9.15792V18.3158Z" fill="#354A46"/>
<path d="M10.7368 18.3158H9.1579V20.2105H11.0526L10.7368 18.3158Z" fill="#DADADF"/>
<path d="M12.6315 18.3158H10.7368V20.2105H12.6315V18.3158Z" fill="#070808"/>
<path d="M16.4211 18.3158H14.5264V20.2105H16.4211V18.3158ZM18.0001 18.3158H16.4211V20.2105H18.3158L18.0001 18.3158Z" fill="#B65767"/>
<path d="M19.8947 18.3158H17.9999V20.2105H19.8947V18.3158ZM21.7894 18.3158H19.8947V20.2105H21.7894V18.3158ZM23.6841 18.3158H21.7894V20.2105H23.6841V18.3158ZM25.2631 18.3158H23.6841V20.2105H25.2631V18.3158ZM27.1578 18.3158H25.2631V20.2105H27.1578V18.3158Z" fill="#B65767"/>
<path d="M29.0526 18.3158H27.1578V20.2105H29.0526V18.3158ZM30.9473 18.3158H29.0526V20.2105H30.9473V18.3158ZM32.5263 18.3158H30.9473V20.2105H32.842V18.3158H32.5263Z" fill="#E6E6F0"/>
<path d="M34.421 18.3158H32.5263V20.2105H34.421V18.3158ZM36.3158 18.3158H34.421V20.2105H36.3158V18.3158ZM38.2105 18.3158H36.3158V20.2105H38.2105V18.3158Z" fill="#E6E6F0"/>
<path d="M39.7896 18.3158H37.8948V20.2105H39.7896V18.3158Z" fill="#E6E6F0"/>
<path d="M41.6842 18.3158H39.7895V20.2105H41.6842V18.3158ZM43.579 18.3158H41.6842V20.2105H43.579V18.3158ZM45.4737 18.3158H43.579V20.2105H45.4737V18.3158Z" fill="#B65767"/>
<path d="M47.0526 18.3158H45.1578V20.2105H47.0526V18.3158ZM48.9473 18.3158H47.0526V20.2105H48.9473V18.3158ZM50.842 18.3158H48.9473V20.2105H50.842V18.3158Z" fill="#B65767"/>
<path d="M52.7368 18.3158H50.8421V20.2105H52.7368V18.3158Z" fill="#B65767"/>
<path d="M54.3158 18.3158H52.421V20.2105H54.3158V18.3158Z" fill="#903547"/>
<path d="M56.2104 18.3158H54.3157V20.2105H56.2104V18.3158Z" fill="#424E51"/>
<path d="M58.1053 18.3158H56.2106V20.2105H58.1053V18.3158Z" fill="#CDCDD1"/>
<path d="M60 18.3158H58.1052V20.2105H60V18.3158ZM3.47366 19.8947H1.89471V21.7895H3.78945V19.8947H3.47366Z" fill="#060606"/>
<path d="M5.36831 19.8947H3.47357V21.7894H5.36831V19.8947Z" fill="#C6C7CA"/>
<path d="M7.26321 19.8947H5.36847V21.7894H7.26321V19.8947Z" fill="#4D625F"/>
<path d="M9.15792 19.8947H7.26318V21.7894H9.15792V19.8947Z" fill="#F3F3F5"/>
<path d="M10.7368 19.8947H9.1579V21.7894H11.0526L10.7368 19.8947Z" fill="#DADADF"/>
<path d="M12.6315 19.8947H10.7368V21.7894H12.6315V19.8947Z" fill="black"/>
<path d="M16.4211 19.8947H14.5264V21.7894H16.4211V19.8947ZM18.0001 19.8947H16.4211V21.7894H18.3158L18.0001 19.8947Z" fill="#B65767"/>
<path d="M19.8947 19.8947H17.9999V21.7894H19.8947V19.8947ZM21.7894 19.8947H19.8947V21.7894H21.7894V19.8947ZM23.6841 19.8947H21.7894V21.7894H23.6841V19.8947ZM25.2631 19.8947H23.6841V21.7894H25.2631V19.8947ZM27.1578 19.8947H25.2631V21.7894H27.1578V19.8947Z" fill="#B65767"/>
<path d="M29.0526 19.8947H27.1578V21.7894H29.0526V19.8947ZM30.9473 19.8947H29.0526V21.7894H30.9473V19.8947ZM32.5263 19.8947H30.9473V21.7894H32.842V19.8947H32.5263Z" fill="#E6E6F0"/>
<path d="M34.421 19.8947H32.5263V21.7894H34.421V19.8947ZM36.3158 19.8947H34.421V21.7894H36.3158V19.8947ZM38.2105 19.8947H36.3158V21.7894H38.2105V19.8947Z" fill="#E6E6F0"/>
<path d="M39.7896 19.8947H37.8948V21.7894H39.7896V19.8947Z" fill="#E6E6F0"/>
<path d="M41.6842 19.8947H39.7895V21.7894H41.6842V19.8947ZM43.579 19.8947H41.6842V21.7894H43.579V19.8947ZM45.4737 19.8947H43.579V21.7894H45.4737V19.8947Z" fill="#B65767"/>
<path d="M47.0526 19.8947H45.1578V21.7894H47.0526V19.8947ZM48.9473 19.8947H47.0526V21.7894H48.9473V19.8947ZM50.842 19.8947H48.9473V21.7894H50.842V19.8947Z" fill="#B65767"/>
<path d="M52.7368 19.8947H50.8421V21.7894H52.7368V19.8947Z" fill="#B65767"/>
<path d="M54.3158 19.8947H52.421V21.7894H54.3158V19.8947Z" fill="#B65767"/>
<path d="M56.2104 19.8947H54.3157V21.7894H56.2104V19.8947Z" fill="#424E51"/>
<path d="M58.1053 19.8947H56.2106V21.7894H58.1053V19.8947Z" fill="#CDCDD1"/>
<path d="M60 19.8947H58.1053V21.7894H60V19.8947Z" fill="#1E292A"/>
<path d="M3.47366 21.7896H1.89471V23.6843H3.78945V21.7896H3.47366Z" fill="#060606"/>
<path d="M5.36831 21.7896H3.47357V23.6843H5.36831V21.7896Z" fill="#B0B4B8"/>
<path d="M7.26321 21.7896H5.36847V23.6843H7.26321V21.7896Z" fill="#364B49"/>
<path d="M9.15792 21.7896H7.26318V23.6843H9.15792V21.7896ZM10.7369 21.7896H9.15792V23.6843H11.0527L10.7369 21.7896Z" fill="#DADADF"/>
<path d="M12.6315 21.7896H10.7368V23.6843H12.6315V21.7896Z" fill="black"/>
<path d="M16.4211 21.7896H14.5264V23.6843H16.4211V21.7896ZM18.0001 21.7896H16.4211V23.6843H18.3158L18.0001 21.7896Z" fill="#B65767"/>
<path d="M19.8947 21.7896H17.9999V23.6843H19.8947V21.7896ZM21.7894 21.7896H19.8947V23.6843H21.7894V21.7896ZM23.6841 21.7896H21.7894V23.6843H23.6841V21.7896ZM25.2631 21.7896H23.6841V23.6843H25.2631V21.7896ZM27.1578 21.7896H25.2631V23.6843H27.1578V21.7896Z" fill="#B65767"/>
<path d="M29.0526 21.7896H27.1578V23.6843H29.0526V21.7896Z" fill="white"/>
<path d="M30.9473 21.7896H29.0526V23.6843H30.9473V21.7896ZM32.5262 21.7896H30.9473V23.6843H32.842V21.7896H32.5262Z" fill="#E6E6F0"/>
<path d="M34.421 21.7896H32.5263V23.6843H34.421V21.7896ZM36.3158 21.7896H34.421V23.6843H36.3158V21.7896ZM38.2105 21.7896H36.3158V23.6843H38.2105V21.7896Z" fill="#E6E6F0"/>
<path d="M39.7896 21.7896H37.8948V23.6843H39.7896V21.7896Z" fill="#E6E6F0"/>
<path d="M41.6842 21.7896H39.7895V23.6843H41.6842V21.7896ZM43.579 21.7896H41.6842V23.6843H43.579V21.7896ZM45.4737 21.7896H43.579V23.6843H45.4737V21.7896Z" fill="#B65767"/>
<path d="M47.0526 21.7896H45.1578V23.6843H47.0526V21.7896ZM48.9473 21.7896H47.0526V23.6843H48.9473V21.7896ZM50.842 21.7896H48.9473V23.6843H50.842V21.7896Z" fill="#B65767"/>
<path d="M52.7368 21.7896H50.8421V23.6843H52.7368V21.7896Z" fill="#B65767"/>
<path d="M54.3158 21.7896H52.421V23.6843H54.3158V21.7896Z" fill="#B65767"/>
<path d="M56.2104 21.7896H54.3157V23.6843H56.2104V21.7896Z" fill="#313D3F"/>
<path d="M58.1053 21.7896H56.2106V23.6843H58.1053V21.7896Z" fill="#CDCDD1"/>
<path d="M60 21.7896H58.1053V23.6843H60V21.7896Z" fill="#1E292A"/>
<path d="M1.89474 23.6843H0V25.579H1.89474V23.6843Z" fill="black"/>
<path d="M3.47366 23.6843H1.89471V25.579H3.78945V23.6843H3.47366Z" fill="#747B83"/>
<path d="M5.36831 23.6843H3.47357V25.579H5.36831V23.6843Z" fill="#2D3F3A"/>
<path d="M7.26321 23.6843H5.36847V25.579H7.26321V23.6843ZM9.15794 23.6843H7.26321V25.579H9.15794V23.6843Z" fill="#F1F1F4"/>
<path d="M10.7368 23.6843H9.1579V25.579H11.0526L10.7368 23.6843Z" fill="black"/>
<path d="M12.6315 23.6843H10.7368V25.579H12.6315V23.6843ZM16.421 23.6843H14.5262V25.579H16.421V23.6843Z" fill="#B65767"/>
<path d="M18 23.6843H16.4211V25.579H18.3158L18 23.6843Z" fill="white"/>
<path d="M19.8947 23.6843H17.9999V25.579H19.8947V23.6843ZM21.7894 23.6843H19.8947V25.579H21.7894V23.6843ZM23.6841 23.6843H21.7894V25.579H23.6841V23.6843ZM25.2631 23.6843H23.6841V25.579H25.2631V23.6843ZM27.1578 23.6843H25.2631V25.579H27.1578V23.6843ZM29.0526 23.6843H27.1578V25.579H29.0526V23.6843Z" fill="white"/>
<path d="M30.9473 23.6843H29.0526V25.579H30.9473V23.6843ZM32.5262 23.6843H30.9473V25.579H32.842V23.6843H32.5262Z" fill="#E6E6F0"/>
<path d="M34.421 23.6843H32.5263V25.579H34.421V23.6843ZM36.3158 23.6843H34.421V25.579H36.3158V23.6843ZM38.2105 23.6843H36.3158V25.579H38.2105V23.6843Z" fill="#E6E6F0"/>
<path d="M39.7896 23.6843H37.8948V25.579H39.7896V23.6843Z" fill="#E6E6F0"/>
<path d="M41.6842 23.6843H39.7895V25.579H41.6842V23.6843ZM43.579 23.6843H41.6842V25.579H43.579V23.6843ZM45.4737 23.6843H43.579V25.579H45.4737V23.6843Z" fill="white"/>
<path d="M47.0526 23.6843H45.1578V25.579H47.0526V23.6843ZM48.9473 23.6843H47.0526V25.579H48.9473V23.6843Z" fill="white"/>
<path d="M50.8421 23.6843H48.9474V25.579H50.8421V23.6843Z" fill="#E6E6F0"/>
<path d="M52.7368 23.6843H50.8421V25.579H52.7368V23.6843Z" fill="#B65767"/>
<path d="M54.3158 23.6843H52.421V25.579H54.3158V23.6843Z" fill="#B65767"/>
<path d="M56.2104 23.6843H54.3157V25.579H56.2104V23.6843Z" fill="#8C3647"/>
<path d="M58.1053 23.6843H56.2106V25.579H58.1053V23.6843Z" fill="#1C252E"/>
<path d="M60 23.6843H58.1053V25.579H60V23.6843Z" fill="#DCDBE0"/>
<path d="M61.5789 23.6843H60V25.579H61.8947V23.6843H61.5789ZM1.89474 25.579H0V27.4737H1.89474V25.579Z" fill="black"/>
<path d="M3.47366 25.579H1.89471V27.4737H3.78945V25.579H3.47366Z" fill="#C2C5C9"/>
<path d="M5.36831 25.579H3.47357V27.4737H5.36831V25.579Z" fill="#364442"/>
<path d="M7.26321 25.579H5.36847V27.4737H7.26321V25.579ZM9.15794 25.579H7.26321V27.4737H9.15794V25.579Z" fill="#F1F1F4"/>
<path d="M10.7368 25.579H9.1579V27.4737H11.0526L10.7368 25.579Z" fill="black"/>
<path d="M12.6315 25.579H10.7368V27.4737H12.6315V25.579ZM16.421 25.579H14.5262V27.4737H16.421V25.579Z" fill="#B65767"/>
<path d="M18 25.579H16.4211V27.4737H18.3158L18 25.579Z" fill="white"/>
<path d="M19.8947 25.579H17.9999V27.4737H19.8947V25.579ZM21.7894 25.579H19.8947V27.4737H21.7894V25.579ZM23.6841 25.579H21.7894V27.4737H23.6841V25.579ZM25.2631 25.579H23.6841V27.4737H25.2631V25.579ZM27.1578 25.579H25.2631V27.4737H27.1578V25.579ZM29.0526 25.579H27.1578V27.4737H29.0526V25.579ZM30.9473 25.579H29.0526V27.4737H30.9473V25.579ZM32.5263 25.579H30.9473V27.4737H32.842V25.579H32.5263Z" fill="#E6E6F0"/>
<path d="M34.421 25.579H32.5263V27.4737H34.421V25.579ZM36.3158 25.579H34.421V27.4737H36.3158V25.579ZM38.2105 25.579H36.3158V27.4737H38.2105V25.579Z" fill="#E6E6F0"/>
<path d="M39.7896 25.579H37.8948V27.4737H39.7896V25.579ZM41.6843 25.579H39.7896V27.4737H41.6843V25.579ZM43.579 25.579H41.6843V27.4737H43.579V25.579ZM45.4738 25.579H43.579V27.4737H45.4738V25.579Z" fill="#E6E6F0"/>
<path d="M47.0526 25.579H45.1578V27.4737H47.0526V25.579ZM48.9473 25.579H47.0526V27.4737H48.9473V25.579ZM50.842 25.579H48.9473V27.4737H50.842V25.579Z" fill="#E6E6F0"/>
<path d="M52.7368 25.579H50.8421V27.4737H52.7368V25.579Z" fill="#B65767"/>
<path d="M54.3158 25.579H52.421V27.4737H54.3158V25.579Z" fill="#B65767"/>
<path d="M56.2104 25.579H54.3157V27.4737H56.2104V25.579Z" fill="#8C3647"/>
<path d="M58.1053 25.579H56.2106V27.4737H58.1053V25.579Z" fill="#1C252E"/>
<path d="M60 25.579H58.1053V27.4737H60V25.579Z" fill="#DCDBE0"/>
<path d="M61.5789 25.579H60V27.4737H61.8947V25.579H61.5789ZM1.89474 27.1579H0V29.0527H1.89474V27.1579Z" fill="black"/>
<path d="M3.47366 27.1578H1.89471V29.0526H3.78945V27.1578H3.47366Z" fill="#C2C5C9"/>
<path d="M5.36831 27.1578H3.47357V29.0526H5.36831V27.1578Z" fill="#364442"/>
<path d="M7.26321 27.1578H5.36847V29.0526H7.26321V27.1578ZM9.15794 27.1578H7.26321V29.0526H9.15794V27.1578Z" fill="#F1F1F4"/>
<path d="M10.7368 27.1578H9.1579V29.0526H11.0526L10.7368 27.1578Z" fill="black"/>
<path d="M12.6315 27.1578H10.7368V29.0526H12.6315V27.1578ZM16.421 27.1578H14.5262V29.0526H16.421V27.1578Z" fill="#B65767"/>
<path d="M18 27.1578H16.4211V29.0526H18.3158L18 27.1578Z" fill="white"/>
<path d="M19.8947 27.1578H17.9999V29.0526H19.8947V27.1578ZM21.7894 27.1578H19.8947V29.0526H21.7894V27.1578ZM23.6841 27.1578H21.7894V29.0526H23.6841V27.1578ZM25.2631 27.1578H23.6841V29.0526H25.2631V27.1578ZM27.1578 27.1578H25.2631V29.0526H27.1578V27.1578ZM29.0526 27.1578H27.1578V29.0526H29.0526V27.1578ZM30.9473 27.1578H29.0526V29.0526H30.9473V27.1578ZM32.5263 27.1578H30.9473V29.0526H32.842V27.1578H32.5263Z" fill="#E6E6F0"/>
<path d="M34.421 27.1578H32.5263V29.0526H34.421V27.1578ZM36.3158 27.1578H34.421V29.0526H36.3158V27.1578ZM38.2105 27.1578H36.3158V29.0526H38.2105V27.1578Z" fill="#E6E6F0"/>
<path d="M39.7896 27.1578H37.8948V29.0526H39.7896V27.1578ZM41.6843 27.1578H39.7896V29.0526H41.6843V27.1578ZM43.579 27.1578H41.6843V29.0526H43.579V27.1578ZM45.4738 27.1578H43.579V29.0526H45.4738V27.1578Z" fill="#E6E6F0"/>
<path d="M47.0526 27.1578H45.1578V29.0526H47.0526V27.1578ZM48.9473 27.1578H47.0526V29.0526H48.9473V27.1578ZM50.842 27.1578H48.9473V29.0526H50.842V27.1578Z" fill="#E6E6F0"/>
<path d="M52.7368 27.1578H50.8421V29.0526H52.7368V27.1578Z" fill="#B65767"/>
<path d="M54.3158 27.1578H52.421V29.0526H54.3158V27.1578Z" fill="#B65767"/>
<path d="M56.2104 27.1578H54.3157V29.0526H56.2104V27.1578Z" fill="#8C3647"/>
<path d="M58.1053 27.1578H56.2106V29.0526H58.1053V27.1578Z" fill="#1C252E"/>
<path d="M60 27.1578H58.1053V29.0526H60V27.1578Z" fill="#DCDBE0"/>
<path d="M61.5789 27.1578H60V29.0526H61.8947V27.1578H61.5789ZM1.89474 29.0526H0V30.9473H1.89474V29.0526Z" fill="black"/>
<path d="M3.47366 29.0526H1.89471V30.9473H3.78945V29.0526H3.47366Z" fill="#C2C5C9"/>
<path d="M5.36831 29.0526H3.47357V30.9473H5.36831V29.0526Z" fill="#364442"/>
<path d="M7.26321 29.0526H5.36847V30.9473H7.26321V29.0526ZM9.15794 29.0526H7.26321V30.9473H9.15794V29.0526Z" fill="#F1F1F4"/>
<path d="M10.7368 29.0526H9.1579V30.9473H11.0526L10.7368 29.0526Z" fill="black"/>
<path d="M12.6315 29.0526H10.7368V30.9473H12.6315V29.0526ZM16.421 29.0526H14.5262V30.9473H16.421V29.0526Z" fill="#B65767"/>
<path d="M18 29.0526H16.4211V30.9473H18.3158L18 29.0526Z" fill="white"/>
<path d="M19.8947 29.0526H17.9999V30.9473H19.8947V29.0526ZM21.7894 29.0526H19.8947V30.9473H21.7894V29.0526ZM23.6841 29.0526H21.7894V30.9473H23.6841V29.0526ZM25.2631 29.0526H23.6841V30.9473H25.2631V29.0526ZM27.1578 29.0526H25.2631V30.9473H27.1578V29.0526ZM29.0526 29.0526H27.1578V30.9473H29.0526V29.0526ZM30.9473 29.0526H29.0526V30.9473H30.9473V29.0526ZM32.5263 29.0526H30.9473V30.9473H32.842V29.0526H32.5263Z" fill="#E6E6F0"/>
<path d="M34.421 29.0526H32.5263V30.9473H34.421V29.0526ZM36.3158 29.0526H34.421V30.9473H36.3158V29.0526ZM38.2105 29.0526H36.3158V30.9473H38.2105V29.0526Z" fill="#E6E6F0"/>
<path d="M39.7896 29.0526H37.8948V30.9473H39.7896V29.0526ZM41.6843 29.0526H39.7896V30.9473H41.6843V29.0526ZM43.579 29.0526H41.6843V30.9473H43.579V29.0526ZM45.4738 29.0526H43.579V30.9473H45.4738V29.0526Z" fill="#E6E6F0"/>
<path d="M47.0526 29.0526H45.1578V30.9473H47.0526V29.0526ZM48.9473 29.0526H47.0526V30.9473H48.9473V29.0526ZM50.842 29.0526H48.9473V30.9473H50.842V29.0526Z" fill="#E6E6F0"/>
<path d="M52.7368 29.0526H50.8421V30.9473H52.7368V29.0526Z" fill="#B65767"/>
<path d="M54.3158 29.0526H52.421V30.9473H54.3158V29.0526ZM56.2105 29.0526H54.3158V30.9473H56.2105V29.0526Z" fill="#B65767"/>
<path d="M58.1053 29.0526H56.2106V30.9473H58.1053V29.0526Z" fill="#1C252E"/>
<path d="M60 29.0526H58.1053V30.9473H60V29.0526Z" fill="#DCDBE0"/>
<path d="M61.5789 29.0526H60V30.9473H61.8947V29.0526H61.5789ZM1.89474 30.9473H0V32.842H1.89474V30.9473Z" fill="black"/>
<path d="M3.47366 30.9474H1.89471V32.8422H3.78945V30.9474H3.47366Z" fill="#C2C5C9"/>
<path d="M5.36831 30.9474H3.47357V32.8422H5.36831V30.9474Z" fill="#364442"/>
<path d="M7.26321 30.9474H5.36847V32.8422H7.26321V30.9474ZM9.15794 30.9474H7.26321V32.8422H9.15794V30.9474Z" fill="#F1F1F4"/>
<path d="M10.7368 30.9474H9.1579V32.8422H11.0526L10.7368 30.9474Z" fill="black"/>
<path d="M12.6315 30.9474H10.7368V32.8422H12.6315V30.9474ZM16.421 30.9474H14.5262V32.8422H16.421V30.9474Z" fill="#B65767"/>
<path d="M18 30.9474H16.4211V32.8422H18.3158L18 30.9474Z" fill="white"/>
<path d="M19.8947 30.9474H17.9999V32.8422H19.8947V30.9474ZM21.7894 30.9474H19.8947V32.8422H21.7894V30.9474ZM23.6841 30.9474H21.7894V32.8422H23.6841V30.9474ZM25.2631 30.9474H23.6841V32.8422H25.2631V30.9474ZM27.1578 30.9474H25.2631V32.8422H27.1578V30.9474ZM29.0526 30.9474H27.1578V32.8422H29.0526V30.9474ZM30.9473 30.9474H29.0526V32.8422H30.9473V30.9474ZM32.5263 30.9474H30.9473V32.8422H32.842V30.9474H32.5263Z" fill="#E6E6F0"/>
<path d="M34.421 30.9474H32.5263V32.8422H34.421V30.9474ZM36.3158 30.9474H34.421V32.8422H36.3158V30.9474ZM38.2105 30.9474H36.3158V32.8422H38.2105V30.9474Z" fill="#E6E6F0"/>
<path d="M39.7896 30.9474H37.8948V32.8422H39.7896V30.9474ZM41.6843 30.9474H39.7896V32.8422H41.6843V30.9474ZM43.579 30.9474H41.6843V32.8422H43.579V30.9474ZM45.4738 30.9474H43.579V32.8422H45.4738V30.9474Z" fill="#E6E6F0"/>
<path d="M47.0526 30.9474H45.1578V32.8422H47.0526V30.9474ZM48.9473 30.9474H47.0526V32.8422H48.9473V30.9474ZM50.842 30.9474H48.9473V32.8422H50.842V30.9474Z" fill="#E6E6F0"/>
<path d="M52.7368 30.9474H50.8421V32.8422H52.7368V30.9474Z" fill="#B65767"/>
<path d="M54.3158 30.9474H52.421V32.8422H54.3158V30.9474ZM56.2105 30.9474H54.3158V32.8422H56.2105V30.9474Z" fill="#B65767"/>
<path d="M58.1053 30.9474H56.2106V32.8422H58.1053V30.9474Z" fill="#1C252E"/>
<path d="M60 30.9474H58.1053V32.8422H60V30.9474Z" fill="#DCDBE0"/>
<path d="M61.5789 30.9474H60V32.8422H61.8947V30.9474H61.5789ZM1.89474 32.8422H0V34.7369H1.89474V32.8422Z" fill="black"/>
<path d="M3.47366 32.8422H1.89471V34.7369H3.78945V32.8422H3.47366Z" fill="#C2C5C9"/>
<path d="M5.36831 32.8422H3.47357V34.7369H5.36831V32.8422Z" fill="#2D3F3A"/>
<path d="M7.26321 32.8422H5.36847V34.7369H7.26321V32.8422ZM9.15794 32.8422H7.26321V34.7369H9.15794V32.8422Z" fill="#F1F1F4"/>
<path d="M10.7368 32.8422H9.1579V34.7369H11.0526L10.7368 32.8422Z" fill="black"/>
<path d="M12.6315 32.8422H10.7368V34.7369H12.6315V32.8422ZM16.421 32.8422H14.5262V34.7369H16.421V32.8422Z" fill="#B65767"/>
<path d="M18 32.8422H16.4211V34.7369H18.3158L18 32.8422Z" fill="white"/>
<path d="M19.8947 32.8422H17.9999V34.7369H19.8947V32.8422ZM21.7894 32.8422H19.8947V34.7369H21.7894V32.8422ZM23.6841 32.8422H21.7894V34.7369H23.6841V32.8422ZM25.2631 32.8422H23.6841V34.7369H25.2631V32.8422ZM27.1578 32.8422H25.2631V34.7369H27.1578V32.8422ZM29.0526 32.8422H27.1578V34.7369H29.0526V32.8422ZM30.9473 32.8422H29.0526V34.7369H30.9473V32.8422ZM32.5263 32.8422H30.9473V34.7369H32.842V32.8422H32.5263Z" fill="#E6E6F0"/>
<path d="M34.421 32.8422H32.5263V34.7369H34.421V32.8422ZM36.3158 32.8422H34.421V34.7369H36.3158V32.8422ZM38.2105 32.8422H36.3158V34.7369H38.2105V32.8422Z" fill="#E6E6F0"/>
<path d="M39.7896 32.8422H37.8948V34.7369H39.7896V32.8422Z" fill="#E6E6F0"/>
<path d="M41.6842 32.8422H39.7895V34.7369H41.6842V32.8422ZM43.579 32.8422H41.6842V34.7369H43.579V32.8422ZM45.4737 32.8422H43.579V34.7369H45.4737V32.8422Z" fill="#B8B8D3"/>
<path d="M47.0526 32.8422H45.1578V34.7369H47.0526V32.8422ZM48.9473 32.8422H47.0526V34.7369H48.9473V32.8422ZM50.842 32.8422H48.9473V34.7369H50.842V32.8422Z" fill="#B8B8D3"/>
<path d="M52.7368 32.8422H50.8421V34.7369H52.7368V32.8422Z" fill="#903547"/>
<path d="M54.3158 32.8422H52.421V34.7369H54.3158V32.8422ZM56.2105 32.8422H54.3158V34.7369H56.2105V32.8422Z" fill="#B65767"/>
<path d="M58.1053 32.8422H56.2106V34.7369H58.1053V32.8422Z" fill="#1C252E"/>
<path d="M60 32.8422H58.1053V34.7369H60V32.8422Z" fill="#DCDBE0"/>
<path d="M61.5789 32.8422H60V34.7369H61.8947V32.8422H61.5789ZM1.89474 34.4211H0V36.3158H1.89474V34.4211Z" fill="black"/>
<path d="M3.47366 34.421H1.89471V36.3158H3.78945V34.421H3.47366Z" fill="#747B83"/>
<path d="M5.36831 34.421H3.47357V36.3158H5.36831V34.421Z" fill="#2D3F3A"/>
<path d="M7.26321 34.421H5.36847V36.3158H7.26321V34.421Z" fill="#BDBBD7"/>
<path d="M9.15792 34.421H7.26318V36.3158H9.15792V34.421Z" fill="#F1F1F4"/>
<path d="M10.7368 34.421H9.1579V36.3158H11.0526L10.7368 34.421Z" fill="black"/>
<path d="M12.6315 34.421H10.7368V36.3158H12.6315V34.421ZM16.421 34.421H14.5262V36.3158H16.421V34.421Z" fill="#B65767"/>
<path d="M18 34.421H16.4211V36.3158H18.3158L18 34.421Z" fill="#BABAD5"/>
<path d="M19.8947 34.421H17.9999V36.3158H19.8947V34.421ZM21.7894 34.421H19.8947V36.3158H21.7894V34.421ZM23.6841 34.421H21.7894V36.3158H23.6841V34.421ZM25.2631 34.421H23.6841V36.3158H25.2631V34.421ZM27.1578 34.421H25.2631V36.3158H27.1578V34.421ZM29.0526 34.421H27.1578V36.3158H29.0526V34.421Z" fill="#BABAD5"/>
<path d="M30.9473 34.421H29.0526V36.3158H30.9473V34.421ZM32.5262 34.421H30.9473V36.3158H32.842V34.421H32.5262Z" fill="#E6E6F0"/>
<path d="M34.421 34.421H32.5263V36.3158H34.421V34.421ZM36.3158 34.421H34.421V36.3158H36.3158V34.421ZM38.2105 34.421H36.3158V36.3158H38.2105V34.421Z" fill="#E6E6F0"/>
<path d="M39.7896 34.421H37.8948V36.3158H39.7896V34.421ZM41.6843 34.421H39.7896V36.3158H41.6843V34.421ZM43.579 34.421H41.6843V36.3158H43.579V34.421ZM45.4738 34.421H43.579V36.3158H45.4738V34.421Z" fill="#B8B8D3"/>
<path d="M47.0526 34.421H45.1578V36.3158H47.0526V34.421ZM48.9473 34.421H47.0526V36.3158H48.9473V34.421ZM50.842 34.421H48.9473V36.3158H50.842V34.421Z" fill="#B8B8D3"/>
<path d="M52.7368 34.421H50.8421V36.3158H52.7368V34.421Z" fill="#B65767"/>
<path d="M54.3158 34.421H52.421V36.3158H54.3158V34.421ZM56.2105 34.421H54.3158V36.3158H56.2105V34.421Z" fill="#B65767"/>
<path d="M58.1053 34.421H56.2106V36.3158H58.1053V34.421Z" fill="#1C252E"/>
<path d="M60 34.421H58.1053V36.3158H60V34.421Z" fill="#B8B8D4"/>
<path d="M61.5789 34.421H60V36.3158H61.8947V34.421H61.5789ZM3.47366 36.3158H1.89471V38.2105H3.78945V36.3158H3.47366Z" fill="black"/>
<path d="M5.36831 36.3157H3.47357V38.2105H5.36831V36.3157Z" fill="#6B747C"/>
<path d="M7.26321 36.3157H5.36847V38.2105H7.26321V36.3157Z" fill="#060707"/>
<path d="M9.15792 36.3157H7.26318V38.2105H9.15792V36.3157Z" fill="#F1F1F4"/>
<path d="M10.7368 36.3157H9.1579V38.2105H11.0526L10.7368 36.3157Z" fill="white"/>
<path d="M12.6315 36.3157H10.7368V38.2105H12.6315V36.3157Z" fill="black"/>
<path d="M16.4211 36.3157H14.5264V38.2105H16.4211V36.3157Z" fill="#B65767"/>
<path d="M18 36.3157H16.4211V38.2105H18.3158L18 36.3157Z" fill="#903547"/>
<path d="M19.8947 36.3157H17.9999V38.2105H19.8947V36.3157ZM21.7894 36.3157H19.8947V38.2105H21.7894V36.3157ZM23.6841 36.3157H21.7894V38.2105H23.6841V36.3157ZM25.2631 36.3157H23.6841V38.2105H25.2631V36.3157ZM27.1578 36.3157H25.2631V38.2105H27.1578V36.3157Z" fill="#903547"/>
<path d="M29.0526 36.3157H27.1578V38.2105H29.0526V36.3157Z" fill="#BABAD5"/>
<path d="M30.9473 36.3157H29.0526V38.2105H30.9473V36.3157ZM32.5262 36.3157H30.9473V38.2105H32.842V36.3157H32.5262Z" fill="#E6E6F0"/>
<path d="M34.421 36.3157H32.5263V38.2105H34.421V36.3157ZM36.3158 36.3157H34.421V38.2105H36.3158V36.3157ZM38.2105 36.3157H36.3158V38.2105H38.2105V36.3157Z" fill="#E6E6F0"/>
<path d="M39.7896 36.3157H37.8948V38.2105H39.7896V36.3157Z" fill="#B8B8D3"/>
<path d="M41.6842 36.3157H39.7895V38.2105H41.6842V36.3157ZM43.579 36.3157H41.6842V38.2105H43.579V36.3157ZM45.4737 36.3157H43.579V38.2105H45.4737V36.3157Z" fill="#903547"/>
<path d="M47.0526 36.3157H45.1578V38.2105H47.0526V36.3157ZM48.9473 36.3157H47.0526V38.2105H48.9473V36.3157ZM50.842 36.3157H48.9473V38.2105H50.842V36.3157Z" fill="#903547"/>
<path d="M52.7368 36.3157H50.8421V38.2105H52.7368V36.3157Z" fill="#B65767"/>
<path d="M54.3158 36.3157H52.421V38.2105H54.3158V36.3157Z" fill="#B65767"/>
<path d="M56.2104 36.3157H54.3157V38.2105H56.2104V36.3157Z" fill="#903547"/>
<path d="M58.1053 36.3157H56.2106V38.2105H58.1053V36.3157Z" fill="white"/>
<path d="M60 36.3157H58.1053V38.2105H60V36.3157Z" fill="#2F3B3C"/>
<path d="M3.47366 38.2104H1.89471V40.1052H3.78945V38.2104H3.47366Z" fill="black"/>
<path d="M5.36831 38.2104H3.47357V40.1052H5.36831V38.2104Z" fill="#818990"/>
<path d="M7.26321 38.2104H5.36847V40.1052H7.26321V38.2104Z" fill="#303B3C"/>
<path d="M9.15792 38.2104H7.26318V40.1052H9.15792V38.2104Z" fill="#F1F1F4"/>
<path d="M10.7368 38.2104H9.1579V40.1052H11.0526L10.7368 38.2104Z" fill="white"/>
<path d="M12.6315 38.2104H10.7368V40.1052H12.6315V38.2104Z" fill="black"/>
<path d="M16.4211 38.2104H14.5264V40.1052H16.4211V38.2104ZM18.0001 38.2104H16.4211V40.1052H18.3158L18.0001 38.2104Z" fill="#B65767"/>
<path d="M19.8947 38.2104H17.9999V40.1052H19.8947V38.2104ZM21.7894 38.2104H19.8947V40.1052H21.7894V38.2104ZM23.6841 38.2104H21.7894V40.1052H23.6841V38.2104ZM25.2631 38.2104H23.6841V40.1052H25.2631V38.2104ZM27.1578 38.2104H25.2631V40.1052H27.1578V38.2104Z" fill="#B65767"/>
<path d="M29.0526 38.2104H27.1578V40.1052H29.0526V38.2104Z" fill="white"/>
<path d="M30.9473 38.2104H29.0526V40.1052H30.9473V38.2104ZM32.5262 38.2104H30.9473V40.1052H32.842V38.2104H32.5262Z" fill="#E6E6F0"/>
<path d="M34.421 38.2104H32.5263V40.1052H34.421V38.2104ZM36.3158 38.2104H34.421V40.1052H36.3158V38.2104ZM38.2105 38.2104H36.3158V40.1052H38.2105V38.2104Z" fill="#E6E6F0"/>
<path d="M39.7896 38.2104H37.8948V40.1052H39.7896V38.2104Z" fill="#B8B8D3"/>
<path d="M41.6842 38.2104H39.7895V40.1052H41.6842V38.2104Z" fill="#903547"/>
<path d="M43.5789 38.2104H41.6842V40.1052H43.5789V38.2104ZM45.4737 38.2104H43.5789V40.1052H45.4737V38.2104Z" fill="#B65767"/>
<path d="M47.0526 38.2104H45.1578V40.1052H47.0526V38.2104ZM48.9473 38.2104H47.0526V40.1052H48.9473V38.2104ZM50.842 38.2104H48.9473V40.1052H50.842V38.2104Z" fill="#B65767"/>
<path d="M52.7368 38.2104H50.8421V40.1052H52.7368V38.2104Z" fill="#B65767"/>
<path d="M54.3158 38.2104H52.421V40.1052H54.3158V38.2104Z" fill="#B65767"/>
<path d="M56.2104 38.2104H54.3157V40.1052H56.2104V38.2104Z" fill="#903547"/>
<path d="M58.1053 38.2104H56.2106V40.1052H58.1053V38.2104Z" fill="white"/>
<path d="M60 38.2104H58.1053V40.1052H60V38.2104Z" fill="#2B3738"/>
<path d="M3.47366 40.1053H1.89471V42.0001H3.78945V40.1053H3.47366Z" fill="black"/>
<path d="M5.36831 40.1053H3.47357V42.0001H5.36831V40.1053Z" fill="#B2B5BD"/>
<path d="M7.26321 40.1053H5.36847V42.0001H7.26321V40.1053Z" fill="#303B3C"/>
<path d="M9.15792 40.1053H7.26318V42.0001H9.15792V40.1053ZM10.7369 40.1053H9.15792V42.0001H11.0527L10.7369 40.1053Z" fill="white"/>
<path d="M12.6315 40.1053H10.7368V42.0001H12.6315V40.1053Z" fill="black"/>
<path d="M16.4211 40.1053H14.5264V42.0001H16.4211V40.1053ZM18.0001 40.1053H16.4211V42.0001H18.3158L18.0001 40.1053Z" fill="#B65767"/>
<path d="M19.8947 40.1053H17.9999V42.0001H19.8947V40.1053ZM21.7894 40.1053H19.8947V42.0001H21.7894V40.1053ZM23.6841 40.1053H21.7894V42.0001H23.6841V40.1053ZM25.2631 40.1053H23.6841V42.0001H25.2631V40.1053ZM27.1578 40.1053H25.2631V42.0001H27.1578V40.1053Z" fill="#B65767"/>
<path d="M29.0526 40.1053H27.1578V42.0001H29.0526V40.1053ZM30.9473 40.1053H29.0526V42.0001H30.9473V40.1053ZM32.5263 40.1053H30.9473V42.0001H32.842V40.1053H32.5263Z" fill="#E6E6F0"/>
<path d="M34.421 40.1053H32.5263V42.0001H34.421V40.1053ZM36.3158 40.1053H34.421V42.0001H36.3158V40.1053ZM38.2105 40.1053H36.3158V42.0001H38.2105V40.1053Z" fill="#E6E6F0"/>
<path d="M39.7896 40.1053H37.8948V42.0001H39.7896V40.1053Z" fill="#B8B8D3"/>
<path d="M41.6842 40.1053H39.7895V42.0001H41.6842V40.1053Z" fill="#903547"/>
<path d="M43.5789 40.1053H41.6842V42.0001H43.5789V40.1053ZM45.4737 40.1053H43.5789V42.0001H45.4737V40.1053Z" fill="#B65767"/>
<path d="M47.0526 40.1053H45.1578V42.0001H47.0526V40.1053ZM48.9473 40.1053H47.0526V42.0001H48.9473V40.1053ZM50.842 40.1053H48.9473V42.0001H50.842V40.1053Z" fill="#B65767"/>
<path d="M52.7368 40.1053H50.8421V42.0001H52.7368V40.1053Z" fill="#B65767"/>
<path d="M54.3158 40.1053H52.421V42.0001H54.3158V40.1053Z" fill="#B65767"/>
<path d="M56.2104 40.1053H54.3157V42.0001H56.2104V40.1053Z" fill="#903547"/>
<path d="M58.1053 40.1053H56.2106V42.0001H58.1053V40.1053Z" fill="white"/>
<path d="M60 40.1053H58.1053V42.0001H60V40.1053Z" fill="#1F2C2C"/>
<path d="M5.36831 41.6842H3.47357V43.5789H5.36831V41.6842Z" fill="black"/>
<path d="M7.26321 41.6842H5.36847V43.5789H7.26321V41.6842Z" fill="#8D8F92"/>
<path d="M9.15792 41.6842H7.26318V43.5789H9.15792V41.6842Z" fill="#303B3C"/>
<path d="M10.7368 41.6842H9.1579V43.5789H11.0526L10.7368 41.6842Z" fill="#D8D8DB"/>
<path d="M12.6315 41.6842H10.7368V43.5789H12.6315V41.6842Z" fill="#F1F1F4"/>
<path d="M16.4211 41.6842H14.5264V43.5789H16.4211V41.6842ZM18.0001 41.6842H16.4211V43.5789H18.3158L18.0001 41.6842Z" fill="#B65767"/>
<path d="M19.8947 41.6842H17.9999V43.5789H19.8947V41.6842ZM21.7894 41.6842H19.8947V43.5789H21.7894V41.6842ZM23.6841 41.6842H21.7894V43.5789H23.6841V41.6842ZM25.2631 41.6842H23.6841V43.5789H25.2631V41.6842ZM27.1578 41.6842H25.2631V43.5789H27.1578V41.6842Z" fill="#B65767"/>
<path d="M29.0526 41.6842H27.1578V43.5789H29.0526V41.6842ZM30.9473 41.6842H29.0526V43.5789H30.9473V41.6842ZM32.5263 41.6842H30.9473V43.5789H32.842V41.6842H32.5263Z" fill="#E6E6F0"/>
<path d="M34.421 41.6842H32.5263V43.5789H34.421V41.6842Z" fill="#E6E6F0"/>
<path d="M36.3158 41.6842H34.421V43.5789H36.3158V41.6842ZM38.2105 41.6842H36.3158V43.5789H38.2105V41.6842Z" fill="#B8B8D3"/>
<path d="M39.7896 41.6842H37.8948V43.5789H39.7896V41.6842Z" fill="#B8B8D3"/>
<path d="M41.6842 41.6842H39.7895V43.5789H41.6842V41.6842Z" fill="#903547"/>
<path d="M43.5789 41.6842H41.6842V43.5789H43.5789V41.6842ZM45.4737 41.6842H43.5789V43.5789H45.4737V41.6842Z" fill="#B65767"/>
<path d="M47.0526 41.6842H45.1578V43.5789H47.0526V41.6842ZM48.9473 41.6842H47.0526V43.5789H48.9473V41.6842ZM50.842 41.6842H48.9473V43.5789H50.842V41.6842Z" fill="#B65767"/>
<path d="M52.7368 41.6842H50.8421V43.5789H52.7368V41.6842Z" fill="#B65767"/>
<path d="M54.3158 41.6842H52.421V43.5789H54.3158V41.6842Z" fill="#591E29"/>
<path d="M56.2104 41.6842H54.3157V43.5789H56.2104V41.6842Z" fill="#E8E9EB"/>
<path d="M58.1053 41.6842H56.2106V43.5789H58.1053V41.6842Z" fill="#252E2F"/>
<path d="M5.36831 43.5789H3.47357V45.4737H5.36831V43.5789Z" fill="black"/>
<path d="M7.26321 43.5789H5.36847V45.4737H7.26321V43.5789Z" fill="#707980"/>
<path d="M9.15792 43.5789H7.26318V45.4737H9.15792V43.5789Z" fill="#303B3C"/>
<path d="M10.7368 43.5789H9.1579V45.4737H11.0526L10.7368 43.5789Z" fill="#D8D8DB"/>
<path d="M12.6315 43.5789H10.7368V45.4737H12.6315V43.5789Z" fill="white"/>
<path d="M16.4211 43.5789H14.5264V45.4737H16.4211V43.5789Z" fill="#903547"/>
<path d="M18 43.5789H16.4211V45.4737H18.3158L18 43.5789Z" fill="#B65767"/>
<path d="M19.8947 43.5789H17.9999V45.4737H19.8947V43.5789ZM21.7894 43.5789H19.8947V45.4737H21.7894V43.5789ZM23.6841 43.5789H21.7894V45.4737H23.6841V43.5789ZM25.2631 43.5789H23.6841V45.4737H25.2631V43.5789ZM27.1578 43.5789H25.2631V45.4737H27.1578V43.5789Z" fill="#B65767"/>
<path d="M29.0526 43.5789H27.1578V45.4737H29.0526V43.5789Z" fill="#E6E6F0"/>
<path d="M30.9473 43.5789H29.0526V45.4737H30.9473V43.5789ZM32.5262 43.5789H30.9473V45.4737H32.842V43.5789H32.5262Z" fill="#B8B8D3"/>
<path d="M34.421 43.5789H32.5263V45.4737H34.421V43.5789ZM36.3158 43.5789H34.421V45.4737H36.3158V43.5789ZM38.2105 43.5789H36.3158V45.4737H38.2105V43.5789Z" fill="#B8B8D3"/>
<path d="M39.7896 43.5789H37.8948V45.4737H39.7896V43.5789Z" fill="#B8B8D3"/>
<path d="M41.6842 43.5789H39.7895V45.4737H41.6842V43.5789Z" fill="#903547"/>
<path d="M43.5789 43.5789H41.6842V45.4737H43.5789V43.5789ZM45.4737 43.5789H43.5789V45.4737H45.4737V43.5789Z" fill="#B65767"/>
<path d="M47.0526 43.5789H45.1578V45.4737H47.0526V43.5789ZM48.9473 43.5789H47.0526V45.4737H48.9473V43.5789ZM50.842 43.5789H48.9473V45.4737H50.842V43.5789Z" fill="#B65767"/>
<path d="M52.7368 43.5789H50.8421V45.4737H52.7368V43.5789Z" fill="#B65767"/>
<path d="M54.3158 43.5789H52.421V45.4737H54.3158V43.5789Z" fill="#591E29"/>
<path d="M56.2104 43.5789H54.3157V45.4737H56.2104V43.5789Z" fill="#E8E9EB"/>
<path d="M58.1053 43.5789H56.2106V45.4737H58.1053V43.5789Z" fill="#060606"/>
<path d="M7.26321 45.4736H5.36847V47.3684H7.26321V45.4736Z" fill="black"/>
<path d="M9.15792 45.4736H7.26318V47.3684H9.15792V45.4736Z" fill="#8D8F92"/>
<path d="M10.7368 45.4736H9.1579V47.3684H11.0526L10.7368 45.4736Z" fill="#303B3C"/>
<path d="M12.6315 45.4736H10.7368V47.3684H12.6315V45.4736Z" fill="#D8D8DB"/>
<path d="M16.4211 45.4736H14.5264V47.3684H16.4211V45.4736Z" fill="#903547"/>
<path d="M18 45.4736H16.4211V47.3684H18.3158L18 45.4736Z" fill="#B65767"/>
<path d="M19.8947 45.4736H17.9999V47.3684H19.8947V45.4736ZM21.7894 45.4736H19.8947V47.3684H21.7894V45.4736ZM23.6841 45.4736H21.7894V47.3684H23.6841V45.4736ZM25.2631 45.4736H23.6841V47.3684H25.2631V45.4736ZM27.1578 45.4736H25.2631V47.3684H27.1578V45.4736Z" fill="#B65767"/>
<path d="M29.0526 45.4736H27.1578V47.3684H29.0526V45.4736ZM30.9473 45.4736H29.0526V47.3684H30.9473V45.4736ZM32.5263 45.4736H30.9473V47.3684H32.842V45.4736H32.5263Z" fill="#B8B8D3"/>
<path d="M34.421 45.4736H32.5263V47.3684H34.421V45.4736ZM36.3158 45.4736H34.421V47.3684H36.3158V45.4736ZM38.2105 45.4736H36.3158V47.3684H38.2105V45.4736Z" fill="#B8B8D3"/>
<path d="M39.7896 45.4736H37.8948V47.3684H39.7896V45.4736Z" fill="#B8B8D3"/>
<path d="M41.6842 45.4736H39.7895V47.3684H41.6842V45.4736Z" fill="#903547"/>
<path d="M43.5789 45.4736H41.6842V47.3684H43.5789V45.4736ZM45.4737 45.4736H43.5789V47.3684H45.4737V45.4736Z" fill="#B65767"/>
<path d="M47.0526 45.4736H45.1578V47.3684H47.0526V45.4736ZM48.9473 45.4736H47.0526V47.3684H48.9473V45.4736ZM50.842 45.4736H48.9473V47.3684H50.842V45.4736Z" fill="#B65767"/>
<path d="M52.7368 45.4736H50.8421V47.3684H52.7368V45.4736Z" fill="#983B4C"/>
<path d="M54.3158 45.4736H52.421V47.3684H54.3158V45.4736Z" fill="#E8E9EB"/>
<path d="M56.2104 45.4736H54.3157V47.3684H56.2104V45.4736Z" fill="#263234"/>
<path d="M7.26321 47.3683H5.36847V49.2631H7.26321V47.3683Z" fill="black"/>
<path d="M9.15792 47.3683H7.26318V49.2631H9.15792V47.3683Z" fill="#707980"/>
<path d="M10.7368 47.3683H9.1579V49.2631H11.0526L10.7368 47.3683Z" fill="#8D8F92"/>
<path d="M12.6315 47.3683H10.7368V49.2631H12.6315V47.3683Z" fill="#303B3C"/>
<path d="M16.4211 47.3683H14.5264V49.2631H16.4211V47.3683Z" fill="black"/>
<path d="M18 47.3683H16.4211V49.2631H18.3158L18 47.3683Z" fill="#903547"/>
<path d="M19.8947 47.3683H17.9999V49.2631H19.8947V47.3683ZM21.7894 47.3683H19.8947V49.2631H21.7894V47.3683ZM23.6841 47.3683H21.7894V49.2631H23.6841V47.3683ZM25.2631 47.3683H23.6841V49.2631H25.2631V47.3683ZM27.1578 47.3683H25.2631V49.2631H27.1578V47.3683Z" fill="#B65767"/>
<path d="M29.0526 47.3683H27.1578V49.2631H29.0526V47.3683ZM30.9473 47.3683H29.0526V49.2631H30.9473V47.3683ZM32.5263 47.3683H30.9473V49.2631H32.842V47.3683H32.5263Z" fill="#903547"/>
<path d="M34.421 47.3683H32.5263V49.2631H34.421V47.3683ZM36.3158 47.3683H34.421V49.2631H36.3158V47.3683ZM38.2105 47.3683H36.3158V49.2631H38.2105V47.3683Z" fill="#903547"/>
<path d="M39.7896 47.3683H37.8948V49.2631H39.7896V47.3683Z" fill="#903547"/>
<path d="M41.6842 47.3683H39.7895V49.2631H41.6842V47.3683ZM43.579 47.3683H41.6842V49.2631H43.579V47.3683ZM45.4737 47.3683H43.579V49.2631H45.4737V47.3683Z" fill="#B65767"/>
<path d="M47.0526 47.3683H45.1578V49.2631H47.0526V47.3683ZM48.9473 47.3683H47.0526V49.2631H48.9473V47.3683Z" fill="#B65767"/>
<path d="M50.8421 47.3683H48.9474V49.2631H50.8421V47.3683Z" fill="#983B4C"/>
<path d="M52.7368 47.3683H50.8421V49.2631H52.7368V47.3683Z" fill="#E8E9EB"/>
<path d="M54.3158 47.3683H52.421V49.2631H54.3158V47.3683Z" fill="#D4D6D9"/>
<path d="M56.2104 47.3683H54.3157V49.2631H56.2104V47.3683Z" fill="#263234"/>
<path d="M9.15792 48.9474H7.26318V50.8421H9.15792V48.9474Z" fill="black"/>
<path d="M10.7368 48.9474H9.1579V50.8421H11.0526L10.7368 48.9474Z" fill="#707980"/>
<path d="M12.6315 48.9474H10.7368V50.8421H12.6315V48.9474Z" fill="#8D8F92"/>
<path d="M16.4211 48.9474H14.5264V50.8421H16.4211V48.9474ZM18.0001 48.9474H16.4211V50.8421H18.3158L18.0001 48.9474Z" fill="#D2D2D6"/>
<path d="M19.8947 48.9474H17.9999V50.8421H19.8947V48.9474Z" fill="black"/>
<path d="M21.7894 48.9474H19.8947V50.8421H21.7894V48.9474Z" fill="#903547"/>
<path d="M23.6843 48.9474H21.7896V50.8421H23.6843V48.9474ZM25.2632 48.9474H23.6843V50.8421H25.2632V48.9474ZM27.158 48.9474H25.2632V50.8421H27.158V48.9474ZM29.0527 48.9474H27.158V50.8421H29.0527V48.9474ZM30.9474 48.9474H29.0527V50.8421H30.9474V48.9474ZM32.5264 48.9474H30.9474V50.8421H32.8422V48.9474H32.5264Z" fill="#B65767"/>
<path d="M34.421 48.9474H32.5263V50.8421H34.421V48.9474ZM36.3158 48.9474H34.421V50.8421H36.3158V48.9474ZM38.2105 48.9474H36.3158V50.8421H38.2105V48.9474Z" fill="#B65767"/>
<path d="M39.7896 48.9474H37.8948V50.8421H39.7896V48.9474ZM41.6843 48.9474H39.7896V50.8421H41.6843V48.9474ZM43.579 48.9474H41.6843V50.8421H43.579V48.9474ZM45.4738 48.9474H43.579V50.8421H45.4738V48.9474Z" fill="#B65767"/>
<path d="M47.0526 48.9474H45.1578V50.8421H47.0526V48.9474Z" fill="#983B4C"/>
<path d="M48.9474 48.9474H47.0527V50.8421H48.9474V48.9474Z" fill="#A9495A"/>
<path d="M50.8421 48.9474H48.9474V50.8421H50.8421V48.9474Z" fill="#E8E9EB"/>
<path d="M52.7368 48.9474H50.8421V50.8421H52.7368V48.9474Z" fill="#D4D6D9"/>
<path d="M54.3158 48.9474H52.421V50.8421H54.3158V48.9474Z" fill="#263234"/>
<path d="M10.7368 50.8421H9.1579V52.7368H11.0526L10.7368 50.8421Z" fill="#162122"/>
<path d="M12.6315 50.8421H10.7368V52.7368H12.6315V50.8421Z" fill="#707980"/>
<path d="M16.4211 50.8421H14.5264V52.7368H16.4211V50.8421Z" fill="#303B3C"/>
<path d="M18 50.8421H16.4211V52.7368H18.3158L18 50.8421Z" fill="#D2D2D6"/>
<path d="M19.8947 50.8421H17.9999V52.7368H19.8947V50.8421ZM21.7894 50.8421H19.8947V52.7368H21.7894V50.8421Z" fill="#D2D2D6"/>
<path d="M23.6843 50.8421H21.7896V52.7368H23.6843V50.8421ZM25.2632 50.8421H23.6843V52.7368H25.2632V50.8421ZM27.158 50.8421H25.2632V52.7368H27.158V50.8421Z" fill="#903547"/>
<path d="M29.0526 50.8421H27.1578V52.7368H29.0526V50.8421ZM30.9473 50.8421H29.0526V52.7368H30.9473V50.8421ZM32.5263 50.8421H30.9473V52.7368H32.842V50.8421H32.5263Z" fill="#B65767"/>
<path d="M34.421 50.8421H32.5263V52.7368H34.421V50.8421ZM36.3158 50.8421H34.421V52.7368H36.3158V50.8421ZM38.2105 50.8421H36.3158V52.7368H38.2105V50.8421Z" fill="#B65767"/>
<path d="M39.7896 50.8421H37.8948V52.7368H39.7896V50.8421Z" fill="#B65767"/>
<path d="M41.6842 50.8421H39.7895V52.7368H41.6842V50.8421ZM43.579 50.8421H41.6842V52.7368H43.579V50.8421ZM45.4737 50.8421H43.579V52.7368H45.4737V50.8421Z" fill="#983B4C"/>
<path d="M47.0526 50.8421H45.1578V52.7368H47.0526V50.8421Z" fill="#F7F8F9"/>
<path d="M48.9474 50.8421H47.0527V52.7368H48.9474V50.8421ZM50.8421 50.8421H48.9474V52.7368H50.8421V50.8421Z" fill="#E8E9EB"/>
<path d="M52.7368 50.8421H50.8421V52.7368H52.7368V50.8421Z" fill="#263234"/>
<path d="M12.6315 52.7368H10.7368V54.6315H12.6315V52.7368ZM16.421 54.6315H14.5262V56.5263H16.421V54.6315ZM14.5262 54.6315H12.6315V56.5263H14.5262V54.6315Z" fill="#162122"/>
<path d="M16.4211 54.6315V52.7368H14.5264V54.6315H16.4211Z" fill="#8D8F92"/>
<path d="M18 52.7368H16.4211V54.6315H18.3158L18 52.7368Z" fill="#303B3C"/>
<path d="M19.8947 52.7368H17.9999V54.6315H19.8947V52.7368Z" fill="#303B3C"/>
<path d="M21.7894 52.7368H19.8947V54.6315H21.7894V52.7368Z" fill="#D8D8DB"/>
<path d="M23.6843 52.7368H21.7896V54.6315H23.6843V52.7368ZM25.2632 52.7368H23.6843V54.6315H25.2632V52.7368ZM27.158 52.7368H25.2632V54.6315H27.158V52.7368Z" fill="#D2D2D6"/>
<path d="M29.0526 52.7368H27.1578V54.6315H29.0526V52.7368ZM30.9473 52.7368H29.0526V54.6315H30.9473V52.7368ZM32.5263 52.7368H30.9473V54.6315H32.842V52.7368H32.5263Z" fill="#903547"/>
<path d="M34.421 52.7368H32.5263V54.6315H34.421V52.7368ZM36.3158 52.7368H34.421V54.6315H36.3158V52.7368ZM38.2105 52.7368H36.3158V54.6315H38.2105V52.7368Z" fill="#903547"/>
<path d="M39.7896 52.7368H37.8948V54.6315H39.7896V52.7368Z" fill="#903547"/>
<path d="M41.6842 52.7368H39.7895V54.6315H41.6842V52.7368ZM43.579 52.7368H41.6842V54.6315H43.579V52.7368ZM45.4737 52.7368H43.579V54.6315H45.4737V52.7368Z" fill="#F7F8F9"/>
<path d="M47.0526 52.7368H45.1578V54.6315H47.0526V52.7368Z" fill="#D4D6D9"/>
<path d="M48.9474 52.7368H47.0527V54.6315H48.9474V52.7368Z" fill="#283334"/>
<path d="M50.8421 52.7368H48.9474V54.6315H50.8421V52.7368Z" fill="#060606"/>
<path d="M18 54.6315H16.4211V56.5263H18.3158L18 54.6315Z" fill="#707980"/>
<path d="M19.8947 54.6315H17.9999V56.5263H19.8947V54.6315Z" fill="#707980"/>
<path d="M21.7894 54.6315H19.8947V56.5263H21.7894V54.6315Z" fill="#303B3C"/>
<path d="M23.6843 54.6315H21.7896V56.5263H23.6843V54.6315ZM25.2632 54.6315H23.6843V56.5263H25.2632V54.6315ZM27.158 54.6315H25.2632V56.5263H27.158V54.6315Z" fill="#D2D2D6"/>
<path d="M29.0526 54.6315H27.1578V56.5263H29.0526V54.6315ZM30.9473 54.6315H29.0526V56.5263H30.9473V54.6315ZM32.5263 54.6315H30.9473V56.5263H32.842V54.6315H32.5263Z" fill="#E8E9EB"/>
<path d="M34.421 54.6315H32.5263V56.5263H34.421V54.6315ZM36.3158 54.6315H34.421V56.5263H36.3158V54.6315ZM38.2105 54.6315H36.3158V56.5263H38.2105V54.6315Z" fill="#E8E9EB"/>
<path d="M39.7896 54.6315H37.8948V56.5263H39.7896V54.6315Z" fill="#E8E9EB"/>
<path d="M41.6842 54.6315H39.7895V56.5263H41.6842V54.6315ZM43.579 54.6315H41.6842V56.5263H43.579V54.6315Z" fill="#D4D6D9"/>
<path d="M45.4737 54.6315H43.5789V56.5263H45.4737V54.6315Z" fill="#060606"/>
<path d="M47.0526 54.6315H45.1578V56.5263H47.0526V54.6315Z" fill="#060606"/>
<path d="M18 56.2106H16.4211V58.1053H18.3158L18 56.2106Z" fill="#162122"/>
<path d="M19.8947 56.2106H17.9999V58.1053H19.8947V56.2106Z" fill="#162122"/>
<path d="M21.7894 56.2106H19.8947V58.1053H21.7894V56.2106ZM23.6841 56.2106H21.7894V58.1053H23.6841V56.2106ZM25.2631 56.2106H23.6841V58.1053H25.2631V56.2106Z" fill="#565E61"/>
<path d="M27.1579 56.2106H25.2631V58.1053H27.1579V56.2106Z" fill="#818990"/>
<path d="M29.0526 56.2106H27.1578V58.1053H29.0526V56.2106ZM30.9473 56.2106H29.0526V58.1053H30.9473V56.2106Z" fill="#A3A4A8"/>
<path d="M32.5264 56.2106H30.9474V58.1053H32.8422V56.2106H32.5264Z" fill="#BABBC1"/>
<path d="M34.421 56.2106H32.5263V58.1053H34.421V56.2106ZM36.3158 56.2106H34.421V58.1053H36.3158V56.2106ZM38.2105 56.2106H36.3158V58.1053H38.2105V56.2106Z" fill="#BABBC1"/>
<path d="M39.7896 56.2106H37.8948V58.1053H39.7896V56.2106Z" fill="#BABBC1"/>
<path d="M41.6842 56.2106H39.7895V58.1053H41.6842V56.2106ZM43.579 56.2106H41.6842V58.1053H43.579V56.2106Z" fill="#283334"/>
<path d="M21.7894 58.1053H19.8947V60H21.7894V58.1053ZM23.6841 58.1053H21.7894V60H23.6841V58.1053ZM25.2631 58.1053H23.6841V60H25.2631V58.1053ZM27.1578 58.1053H25.2631V60H27.1578V58.1053Z" fill="#162122"/>
<path d="M29.0526 58.1053H27.1578V60H29.0526V58.1053ZM30.9473 58.1053H29.0526V60H30.9473V58.1053ZM32.5263 58.1053H30.9473V60H32.842V58.1053H32.5263Z" fill="black"/>
<path d="M34.421 58.1053H32.5263V60H34.421V58.1053ZM36.3158 58.1053H34.421V60H36.3158V58.1053ZM38.2105 58.1053H36.3158V60H38.2105V58.1053Z" fill="black"/>
<path d="M39.7896 58.1053H37.8948V60H39.7896V58.1053Z" fill="black"/>
<path d="M14.5264 5.36847H12.6317V7.26321H14.5264V5.36847Z" fill="#060606"/>
<path d="M14.5264 7.26318H12.6317V9.15792H14.5264V7.26318Z" fill="#C6C7CA"/>
<path d="M14.5264 9.1579H12.6317V11.0526H14.5264V9.1579Z" fill="#4C5755"/>
<path d="M14.5264 11.0526H12.6317V12.6316H14.5264V11.0526Z" fill="#FAFAFA"/>
<path d="M14.5264 12.6317H12.6317V14.5264H14.5264V12.6317Z" fill="#CDCDD1"/>
<path d="M14.5264 14.5264H12.6317V16.4211H14.5264V14.5264ZM14.5264 16.4211H12.6317V18.3158H14.5264V16.4211Z" fill="#070808"/>
<path d="M14.5264 18.3158H12.6317V20.2105H14.5264V18.3158Z" fill="#B65767"/>
<path d="M14.5264 19.8947H12.6317V21.7894H14.5264V19.8947ZM14.5264 21.7894H12.6317V23.6841H14.5264V21.7894ZM14.5264 23.6841H12.6317V25.5789H14.5264V23.6841ZM14.5264 25.5789H12.6317V27.4736H14.5264V25.5789Z" fill="#B65767"/>
<path d="M14.5264 27.1578H12.6317V29.0526H14.5264V27.1578ZM14.5264 29.0526H12.6317V30.9473H14.5264V29.0526ZM14.5264 30.9473H12.6317V32.842H14.5264V30.9473ZM14.5264 32.842H12.6317V34.7368H14.5264V32.842Z" fill="#B65767"/>
<path d="M14.5264 34.421H12.6317V36.3158H14.5264V34.421ZM14.5264 36.3158H12.6317V38.2105H14.5264V36.3158ZM14.5264 38.2105H12.6317V40.1052H14.5264V38.2105Z" fill="#B65767"/>
<path d="M14.5264 40.1053H12.6317V42.0001H14.5264V40.1053Z" fill="#903547"/>
<path d="M14.5264 41.6842H12.6317V43.5789H14.5264V41.6842Z" fill="#212A29"/>
<path d="M14.5264 43.5789H12.6317V45.4737H14.5264V43.5789Z" fill="black"/>
<path d="M14.5264 45.4736H12.6317V47.3684H14.5264V45.4736Z" fill="#F1F2F4"/>
<path d="M14.5264 47.3683H12.6317V49.2631H14.5264V47.3683Z" fill="#E6E7EA"/>
<path d="M14.5264 48.9474H12.6317V50.8421H14.5264V48.9474Z" fill="#303B3C"/>
<path d="M14.5264 50.8421H12.6317V52.7368H14.5264V50.8421Z" fill="#8D8F92"/>
<path d="M14.5264 52.7368H12.6317V54.6315H14.5264V52.7368Z" fill="#707980"/>
<path d="M90.6316 54.6316H98.2106V34.1053H120.632V26.8421H98.2106V14.5263H123.79V7.26318H90.6316V54.6316ZM167.053 49.8948C166.737 48.9474 166.737 48 166.737 46.1053L166.421 40.1053C166.421 37.2632 165.79 35.3684 164.842 33.7895C164.211 32.8421 163.263 31.8948 162 31.2632C163.579 30.3158 164.842 29.0527 165.79 27.4737C166.737 25.8948 167.368 23.3684 167.368 20.5263C167.368 14.8421 165.158 11.0527 160.421 8.84213C158.211 7.89476 155.053 7.26318 151.579 7.26318H129.474V54.6316H137.368V35.0527H150.632C153.158 35.0527 154.737 35.3684 156 35.6842C157.895 36.6316 158.842 38.2106 158.842 41.0527L159.158 48.6316C159.158 50.5263 159.474 51.7895 159.474 52.4211C159.474 53.0527 159.79 53.6842 160.105 54.3158L160.421 54.6316H169.263V52.4211L168.947 52.1053C168 51.7895 167.368 51.1579 167.053 49.8948ZM157.263 26.8421C155.684 27.7895 153.474 28.4211 150.947 28.4211H137.368V14.2106H151.579C153.474 14.2106 155.053 14.5263 156.316 15.1579C158.526 16.1053 159.474 18 159.474 21.1579C159.474 24 158.842 25.8948 157.263 26.8421ZM188.211 7.26318L170.526 54.6316H178.421L183.474 41.0527H200.526L205.263 54.6316H213.79L196.737 7.26318H188.211ZM186 34.4211L192.316 17.3684L198.316 34.4211H186ZM247.579 42.6316L225.79 7.26318H217.263V54.6316H224.842V19.579L246.947 54.6316H255.158V7.26318H247.579V42.6316ZM302.842 7.26318H292.105L270.947 28.7369V7.26318H263.368V54.6316H270.947V38.2106L277.263 32.2105L293.053 54.6316H302.842L282.947 26.8421L302.842 7.26318ZM313.895 33.7895H339.158V26.8421H313.895V14.5263H341.368V7.26318H306.316V54.6316H341.684V47.6842H313.895V33.7895ZM378.632 42.6316L356.842 7.26318H348.316V54.6316H355.579V19.579L378 54.6316H386.211V7.26318H378.632V42.6316ZM426 7.26318H400.421V13.2632H394.421V48.3158H400.421V54.3158H426V48.3158H432V40.7369H424.421V46.7369H402V14.8421H424.421V20.8421H432V13.2632H426V7.26318ZM474 13.2632H468V7.26318H448.421V13.2632H442.421V19.2632H436.421V42.3158H442.421V48.3158H448.421V54.3158H468V48.3158H474V42.3158H480V19.2632H474V13.2632ZM472.421 40.7369H466.421V46.7369H450V40.7369H444V20.8421H450V14.8421H466.421V20.8421H472.421V40.7369ZM487.579 7.26318H495.158V54.3158H487.579V7.26318ZM533.368 7.26318V40.7369H528.947V25.2632H522.947V19.2632H516.947V13.2632H510.947V7.26318H503.368V54.3158H510.947V20.8421H515.368V26.8421H521.368V42.3158H527.368V48.3158H533.368V54.3158H540.632V7.26318H533.368Z" fill="white"/>
</g>
</g>
<defs>
<clipPath id="clip0_6318_13815">
<rect width="540" height="60" fill="white"/>
</clipPath>
</defs>
</svg>
