<svg xmlns="http://www.w3.org/2000/svg" width="350" height="230" fill="none"><g clip-path="url(#a)"><path fill="#F9F9FB" d="M-110-.306h570v230.611h-570z"/><path stroke="#ABB0BF" stroke-miterlimit="10" stroke-width=".254" d="M226.925 14.757h4.112m-2.06 2.053v-4.113m-2.052 17.477h4.112m-2.06 2.06v-4.112M226.925 45.6h4.112m-2.06 2.052V43.54m-2.052 17.483h4.112m-2.06 2.053v-4.112m-2.052 17.477h4.112m-2.06 2.06V74.39m-2.052 17.476h4.112m-2.06 2.052v-4.111m-2.052 17.476h4.112m-2.06 2.06v-4.112m-2.052 17.478h4.112m-2.06 2.059v-4.112m-2.052 17.478h4.112m-2.06 2.052v-4.112m-2.052 17.478h4.112m-2.06 2.059v-4.112m-2.052 17.477h4.112m-2.06 2.06v-4.112m-2.052 17.476h4.112m-2.06 2.053v-4.112m-2.052 17.477h4.112m-2.06 2.059v-4.111m-2.052 17.477h4.112m-2.06 2.059v-4.112M196.076 14.757h4.119m-2.06 2.053v-4.113m-2.059 17.477h4.119m-2.06 2.06v-4.112M211.5 14.757h4.112m-2.052 2.053v-4.113m-2.06 17.477h4.112m-2.052 2.06v-4.112M196.076 45.6h4.119m-2.06 2.052V43.54m-2.059 17.483h4.119m-2.06 2.053v-4.112M211.5 45.6h4.112m-2.052 2.052V43.54m-2.06 17.483h4.112m-2.052 2.054v-4.112m-17.484 17.476h4.119m-2.06 2.06V74.39m-2.059 17.476h4.119m-2.06 2.052v-4.111M211.5 76.441h4.112m-2.052 2.06V74.39m-2.06 17.476h4.112m-2.052 2.052v-4.111m-17.484 17.476h4.119m-2.06 2.06v-4.112m-2.059 17.478h4.119m-2.06 2.059v-4.112m13.365-13.373h4.112m-2.052 2.06v-4.112m-2.06 17.478h4.112m-2.052 2.059v-4.112m-17.484 17.478h4.119m-2.06 2.052v-4.112m-2.059 17.478h4.119m-2.06 2.059v-4.112m13.365-13.365h4.112m-2.052 2.052v-4.112m-2.06 17.478h4.112m-2.052 2.059v-4.112m-17.484 17.477h4.119m-2.06 2.06v-4.112m-2.059 17.476h4.119m-2.06 2.053v-4.112m13.365-13.365h4.112m-2.052 2.06v-4.112M211.5 184.4h4.112m-2.052 2.053v-4.112m-17.484 17.477h4.119m-2.06 2.059v-4.111m-2.059 17.477h4.119m-2.06 2.059v-4.112m13.365-13.372h4.112m-2.052 2.059v-4.111m-2.06 17.477h4.112m-2.052 2.059v-4.112M165.232 14.757h4.112m-2.052 2.053v-4.113m-2.06 17.477h4.112m-2.052 2.06v-4.112m13.366-13.365h4.112m-2.059 2.053v-4.113m-2.053 17.477h4.112m-2.059 2.06v-4.112M165.232 45.6h4.112m-2.052 2.052V43.54m-2.06 17.483h4.112m-2.052 2.053v-4.112M180.658 45.6h4.112m-2.059 2.052V43.54m-2.053 17.483h4.112m-2.059 2.053v-4.112m-17.479 17.477h4.112m-2.052 2.06V74.39m-2.06 17.476h4.112m-2.052 2.052v-4.111m13.366-13.366h4.112m-2.059 2.06V74.39m-2.053 17.476h4.112m-2.059 2.052v-4.111m-17.479 17.476h4.112m-2.052 2.06v-4.112m-2.06 17.478h4.112m-2.052 2.059v-4.112m13.366-13.373h4.112m-2.059 2.06v-4.112m-2.053 17.478h4.112m-2.059 2.059v-4.112m-17.479 17.478h4.112m-2.052 2.052v-4.112m-2.06 17.478h4.112m-2.052 2.059v-4.112m13.366-13.365h4.112m-2.059 2.052v-4.112m-2.053 17.478h4.112m-2.059 2.059v-4.112m-17.479 17.477h4.112m-2.052 2.06v-4.112m-2.06 17.476h4.112m-2.052 2.053v-4.112m13.366-13.365h4.112m-2.059 2.06v-4.112m-2.053 17.476h4.112m-2.059 2.053v-4.112m-17.479 17.477h4.112m-2.052 2.059v-4.111m-2.06 17.477h4.112m-2.052 2.059v-4.112m13.366-13.372h4.112m-2.059 2.059v-4.111m-2.053 17.477h4.112m-2.059 2.059v-4.112m-48.32-198.433h4.111m-2.06 2.053v-4.113m-2.051 17.477h4.111m-2.059 2.06v-4.112m13.365-13.365h4.119m-2.06 2.053v-4.113m-2.059 17.477h4.119m-2.06 2.06v-4.112M134.391 45.6h4.111m-2.059 2.052V43.54m-2.052 17.483h4.111m-2.06 2.054v-4.112M149.808 45.6h4.119m-2.06 2.052V43.54m-2.059 17.483h4.119m-2.06 2.053v-4.112m-17.476 17.477h4.111m-2.059 2.06V74.39m-2.052 17.476h4.111m-2.06 2.052v-4.111m13.366-13.366h4.119m-2.06 2.06V74.39m-2.059 17.476h4.119m-2.06 2.052v-4.111m-17.476 17.476h4.111m-2.059 2.06v-4.112m-2.052 17.478h4.111m-2.06 2.059v-4.112m13.366-13.373h4.119m-2.06 2.06v-4.112m-2.059 17.478h4.119m-2.06 2.059v-4.112m-17.476 17.478h4.111m-2.06 2.052v-4.112m-2.051 17.478h4.111m-2.059 2.059v-4.112m13.365-13.365h4.119m-2.06 2.052v-4.112m-2.059 17.478h4.119m-2.06 2.059v-4.112m-17.476 17.477h4.111m-2.06 2.06v-4.112m-2.051 17.476h4.111m-2.059 2.053v-4.112m13.365-13.365h4.119m-2.06 2.06v-4.112m-2.059 17.476h4.119m-2.06 2.053v-4.112m-17.476 17.477h4.111m-2.06 2.059v-4.111m-2.051 17.477h4.111m-2.059 2.059v-4.112m13.365-13.372h4.119m-2.06 2.059v-4.111m-2.059 17.477h4.119m-2.06 2.059v-4.112M103.549 14.757h4.112m-2.06 2.053v-4.113m-2.052 17.477h4.112m-2.06 2.06v-4.112m13.365-13.365h4.112m-2.053 2.053v-4.113m-2.059 17.477h4.112m-2.053 2.06v-4.112M103.549 45.6h4.112m-2.06 2.052V43.54m-2.052 17.483h4.112m-2.06 2.053v-4.112M118.966 45.6h4.112m-2.053 2.052V43.54m-2.059 17.483h4.112m-2.053 2.053v-4.112m-17.476 17.477h4.112m-2.06 2.06V74.39m-2.052 17.476h4.112m-2.06 2.052v-4.111m13.365-13.366h4.112m-2.053 2.06V74.39m-2.059 17.476h4.112m-2.053 2.052v-4.111m-17.476 17.476h4.112m-2.06 2.06v-4.112m-2.052 17.478h4.112m-2.06 2.059v-4.112m13.365-13.373h4.112m-2.053 2.06v-4.112m-2.059 17.478h4.112m-2.053 2.059v-4.112m-17.476 17.478h4.112m-2.06 2.052v-4.112m-2.052 17.478h4.112m-2.06 2.059v-4.112m13.365-13.365h4.112m-2.053 2.052v-4.112m-2.059 17.478h4.112m-2.053 2.059v-4.112m-17.476 17.477h4.112m-2.06 2.06v-4.112m-2.052 17.476h4.112m-2.06 2.053v-4.112m13.365-13.365h4.112m-2.053 2.06v-4.112m-2.059 17.476h4.112m-2.053 2.053v-4.112m-17.476 17.477h4.112m-2.06 2.059v-4.111m-2.052 17.477h4.112m-2.06 2.059v-4.112m13.365-13.372h4.112m-2.053 2.059v-4.111m-2.059 17.477h4.112m-2.053 2.059v-4.112M72.698 14.757h4.112m-2.052 2.053v-4.113m-2.06 17.477h4.112m-2.052 2.06v-4.112m13.365-13.365h4.112m-2.06 2.053v-4.113m-2.052 17.477h4.112m-2.06 2.06v-4.112M72.698 45.6h4.112m-2.052 2.052V43.54m-2.06 17.483h4.112m-2.052 2.053v-4.112M88.123 45.6h4.112m-2.06 2.052V43.54m-2.052 17.483h4.112m-2.06 2.053v-4.112M72.698 76.441h4.112m-2.052 2.06V74.39m-2.06 17.476h4.112m-2.052 2.052v-4.111m13.365-13.366h4.112m-2.06 2.06V74.39m-2.052 17.476h4.112m-2.06 2.052v-4.111m-17.477 17.476h4.112m-2.052 2.06v-4.112m-2.06 17.478h4.112m-2.052 2.059v-4.112m13.365-13.373h4.112m-2.06 2.06v-4.112m-2.052 17.478h4.112m-2.06 2.059v-4.112m-17.477 17.478h4.112m-2.052 2.052v-4.112m-2.06 17.478h4.112m-2.052 2.059v-4.112m13.365-13.365h4.112m-2.06 2.052v-4.112m-2.052 17.478h4.112m-2.06 2.059v-4.112m-17.477 17.477h4.112m-2.052 2.06v-4.112m-2.06 17.476h4.112m-2.052 2.053v-4.112m13.365-13.365h4.112m-2.06 2.06v-4.112M88.123 184.4h4.112m-2.06 2.053v-4.112m-17.477 17.477h4.112m-2.052 2.059v-4.111m-2.06 17.477h4.112m-2.052 2.059v-4.112m13.365-13.372h4.112m-2.06 2.059v-4.111m-2.052 17.477h4.112m-2.06 2.059v-4.112M41.856 14.757h4.112M43.91 16.81v-4.113m-2.054 17.477h4.112m-2.058 2.06v-4.112m13.371-13.365h4.112m-2.06 2.053v-4.113m-2.052 17.477h4.112m-2.06 2.06v-4.112M41.856 45.6h4.112m-2.058 2.052V43.54m-2.054 17.483h4.112m-2.058 2.053v-4.112M57.281 45.6h4.112m-2.06 2.052V43.54m-2.052 17.483h4.112m-2.06 2.054v-4.112M41.856 76.441h4.112m-2.058 2.06V74.39m-2.054 17.476h4.112m-2.058 2.052v-4.111m13.371-13.366h4.112m-2.06 2.06V74.39m-2.052 17.476h4.112m-2.06 2.052v-4.111m-17.477 17.476h4.112m-2.058 2.06v-4.112m-2.054 17.478h4.112m-2.058 2.059v-4.112m13.371-13.373h4.112m-2.06 2.06v-4.112m-2.052 17.478h4.112m-2.06 2.059v-4.112m-17.477 17.478h4.112m-2.058 2.052v-4.112m-2.054 17.478h4.112m-2.058 2.059v-4.112m13.371-13.365h4.112m-2.06 2.052v-4.112m-2.052 17.478h4.112m-2.06 2.059v-4.112m-17.477 17.477h4.112m-2.058 2.06v-4.112M41.856 184.4h4.112m-2.058 2.053v-4.112m13.371-13.365h4.112m-2.06 2.06v-4.112M57.281 184.4h4.112m-2.06 2.053v-4.112m-17.477 17.477h4.112m-2.058 2.059v-4.111m-2.054 17.477h4.112m-2.058 2.059v-4.112m13.371-13.372h4.112m-2.06 2.059v-4.111m-2.052 17.477h4.112m-2.06 2.059v-4.112M11.014 14.757h4.112m-2.061 2.053v-4.113m-2.051 17.477h4.112m-2.061 2.06v-4.112m13.367-13.365h4.112m-2.053 2.053v-4.113m-2.059 17.477h4.112m-2.053 2.06v-4.112M11.014 45.6h4.112m-2.061 2.052V43.54m-2.051 17.483h4.112m-2.061 2.053v-4.112M26.432 45.6h4.112m-2.053 2.052V43.54m-2.059 17.483h4.112m-2.053 2.053v-4.112M11.014 76.441h4.112m-2.061 2.06V74.39m-2.051 17.476h4.112m-2.061 2.052v-4.111m13.367-13.366h4.112m-2.053 2.06V74.39m-2.059 17.476h4.112m-2.053 2.052v-4.111m-17.477 17.476h4.112m-2.061 2.06v-4.112m-2.051 17.478h4.112m-2.061 2.059v-4.112m13.367-13.373h4.112m-2.053 2.06v-4.112m-2.059 17.478h4.112m-2.053 2.059v-4.112m-17.477 17.478h4.112m-2.061 2.052v-4.112m-2.051 17.478h4.112m-2.061 2.059v-4.112m13.367-13.365h4.112m-2.053 2.052v-4.112m-2.059 17.478h4.112m-2.053 2.059v-4.112m-17.477 17.477h4.112m-2.061 2.06v-4.112M11.014 184.4h4.112m-2.061 2.053v-4.112m13.367-13.365h4.112m-2.053 2.06v-4.112M26.432 184.4h4.112m-2.053 2.053v-4.112m-17.477 17.477h4.112m-2.061 2.059v-4.111m-2.051 17.477h4.112m-2.061 2.059v-4.112m13.367-13.372h4.112m-2.053 2.059v-4.111m-2.059 17.477h4.112m-2.053 2.059v-4.112M319.459 14.757h4.112m-2.06 2.053v-4.113m-2.052 17.477h4.112m-2.06 2.06v-4.112m13.367-13.365h4.112m-2.053 2.053v-4.113m-2.059 17.477h4.112m-2.053 2.06v-4.112M319.459 45.6h4.112m-2.06 2.052V43.54m-2.052 17.483h4.112m-2.06 2.053v-4.112M334.878 45.6h4.112m-2.053 2.052V43.54m-2.059 17.483h4.112m-2.053 2.053v-4.112m-17.478 17.477h4.112m-2.06 2.06V74.39m-2.052 17.476h4.112m-2.06 2.052v-4.111m13.367-13.366h4.112m-2.053 2.06V74.39m-2.059 17.476h4.112m-2.053 2.052v-4.111m-17.478 17.476h4.112m-2.06 2.06v-4.112m-2.052 17.478h4.112m-2.06 2.059v-4.112m13.367-13.373h4.112m-2.053 2.06v-4.112m-2.059 17.478h4.112m-2.053 2.059v-4.112m-17.478 17.478h4.112m-2.06 2.052v-4.112m-2.052 17.478h4.112m-2.06 2.059v-4.112m13.367-13.365h4.112m-2.053 2.052v-4.112m-2.059 17.478h4.112m-2.053 2.059v-4.112m-17.478 17.477h4.112m-2.06 2.06v-4.112m-2.052 17.476h4.112m-2.06 2.053v-4.112m13.367-13.365h4.112m-2.053 2.06v-4.112m-2.059 17.476h4.112m-2.053 2.053v-4.112m-17.478 17.477h4.112m-2.06 2.059v-4.111m-2.052 17.477h4.112m-2.06 2.059v-4.112m13.367-13.372h4.112m-2.053 2.059v-4.111m-2.059 17.477h4.112m-2.053 2.059v-4.112M288.609 14.757h4.112m-2.052 2.053v-4.113m-2.06 17.477h4.112m-2.052 2.06v-4.112m13.365-13.365h4.112m-2.052 2.053v-4.113m-2.06 17.477h4.112m-2.052 2.06v-4.112M288.609 45.6h4.112m-2.052 2.052V43.54m-2.06 17.483h4.112m-2.052 2.054v-4.112M304.034 45.6h4.112m-2.052 2.052V43.54m-2.06 17.483h4.112m-2.052 2.053v-4.112m-17.485 17.477h4.112m-2.052 2.06V74.39m-2.06 17.476h4.112m-2.052 2.052v-4.111m13.365-13.366h4.112m-2.052 2.06V74.39m-2.06 17.476h4.112m-2.052 2.052v-4.111m-17.485 17.476h4.112m-2.052 2.06v-4.112m-2.06 17.478h4.112m-2.052 2.059v-4.112m13.365-13.373h4.112m-2.052 2.06v-4.112m-2.06 17.478h4.112m-2.052 2.059v-4.112m-17.485 17.478h4.112m-2.052 2.052v-4.112m-2.06 17.478h4.112m-2.052 2.059v-4.112m13.365-13.365h4.112m-2.052 2.052v-4.112m-2.06 17.478h4.112m-2.052 2.059v-4.112m-17.485 17.477h4.112m-2.052 2.06v-4.112m-2.06 17.476h4.112m-2.052 2.053v-4.112m13.365-13.365h4.112m-2.052 2.06v-4.112m-2.06 17.476h4.112m-2.052 2.053v-4.112m-17.485 17.477h4.112m-2.052 2.059v-4.111m-2.06 17.477h4.112m-2.052 2.059v-4.112m13.365-13.372h4.112m-2.052 2.059v-4.111m-2.06 17.477h4.112m-2.052 2.059v-4.112M257.768 14.757h4.111m-2.052 2.053v-4.113m-2.059 17.477h4.111m-2.052 2.06v-4.112m13.365-13.365h4.112m-2.059 2.053v-4.113m-2.053 17.477h4.112m-2.059 2.06v-4.112M257.768 45.6h4.111m-2.052 2.052V43.54m-2.059 17.483h4.111m-2.052 2.053v-4.112M273.192 45.6h4.112m-2.059 2.052V43.54m-2.053 17.483h4.112m-2.059 2.053v-4.112m-17.477 17.477h4.111m-2.052 2.06V74.39m-2.059 17.476h4.111m-2.052 2.052v-4.111m13.365-13.366h4.112m-2.059 2.06V74.39m-2.053 17.476h4.112m-2.059 2.052v-4.111m-17.477 17.476h4.111m-2.052 2.06v-4.112m-2.059 17.478h4.111m-2.052 2.059v-4.112m13.365-13.373h4.112m-2.059 2.06v-4.112m-2.053 17.478h4.112m-2.059 2.059v-4.112m-17.477 17.478h4.111m-2.052 2.052v-4.112m-2.059 17.478h4.111m-2.052 2.059v-4.112m13.365-13.365h4.112m-2.059 2.052v-4.112m-2.053 17.478h4.112m-2.059 2.059v-4.112m-17.477 17.477h4.111m-2.052 2.06v-4.112m-2.059 17.476h4.111m-2.052 2.053v-4.112m13.365-13.365h4.112m-2.059 2.06v-4.112m-2.053 17.476h4.112m-2.059 2.053v-4.112m-17.477 17.477h4.111m-2.052 2.059v-4.111m-2.059 17.477h4.111m-2.052 2.059v-4.112m13.365-13.372h4.112m-2.059 2.059v-4.111m-2.053 17.477h4.112m-2.059 2.059v-4.112M242.342 14.757h4.112m-2.053 2.053v-4.113m-2.059 17.477h4.112m-2.053 2.06v-4.112M242.342 45.6h4.112m-2.053 2.052V43.54m-2.059 17.483h4.112m-2.053 2.053v-4.112m-2.059 17.477h4.112m-2.053 2.06V74.39m-2.059 17.476h4.112m-2.053 2.052v-4.111m-2.059 17.476h4.112m-2.053 2.06v-4.112m-2.059 17.478h4.112m-2.053 2.059v-4.112m-2.059 17.478h4.112m-2.053 2.052v-4.112m-2.059 17.478h4.112m-2.053 2.059v-4.112m-2.059 17.477h4.112m-2.053 2.06v-4.112m-2.059 17.476h4.112m-2.053 2.053v-4.112m-2.059 17.477h4.112m-2.053 2.059v-4.111m-2.059 17.477h4.112m-2.053 2.059v-4.112"/><path fill="#272B38" d="M105.6 153.552H59.333v46.267h92.534v-46.267H105.6Z"/><path fill="#fff" d="M79.9 175.807h-1.37v-2.741h1.37v2.741Zm0 4.112h-1.37v-1.371h1.37v1.371Zm4.112-6.853H79.9v-1.371h4.112v1.371Zm0 4.112H79.9v-1.371h4.112v1.371Zm0 4.112H79.9v-1.371h4.112v1.371Zm1.37-6.853h-1.37v-1.371h1.37v1.371Zm0 5.482h-1.37v-2.741h1.37v2.741Zm2.742-4.112h-1.371v-4.112h1.37v4.112Zm2.74 1.371v4.112h-1.37v-4.112h-1.37v-1.371h4.111v1.371h-1.37Zm2.742-1.371h-1.37v-4.112h1.37v4.112Zm2.741 0h-1.37v-2.741h1.37v2.741Zm0 4.112h-1.37v-1.371h1.37v1.371Zm4.112-6.853h-4.112v-1.371h4.112v1.371Zm0 4.112h-4.112v-1.371h4.112v1.371Zm0 4.112h-4.112v-1.371h4.112v1.371Zm1.371-6.853h-1.371v-1.371h1.371v1.371Zm0 5.482h-1.371v-2.741h1.371v2.741Zm4.111-6.853H103.2v-1.371h6.853v1.371h-2.741v8.224h-1.371v-8.224Zm6.86 6.853h5.483v1.371h-6.853v-9.595h6.853v1.371h-5.483v2.741h4.112v1.371h-4.112v2.741Zm8.224-5.482v6.853h-1.371v-9.595h1.371v1.371h1.371v1.371h-1.371Zm2.741 1.37h-1.37v-1.37h1.37v1.37Zm1.371 1.371h-1.371v-1.371h1.371v1.371Zm1.37-1.371h-1.37v-1.37h1.37v1.37Zm1.371-1.37h-1.371v-1.371h1.371v-1.371h1.371v9.595h-1.371v-6.853Z"/><path fill="#272B38" d="M244.402 153.552h-46.267v46.267h92.534v-46.267h-46.267Z"/><path fill="#fff" d="M216.983 174.437v6.853h-1.371v-9.595h1.371v1.371h1.371v1.371h-1.371Zm2.741 1.37h-1.37v-1.37h1.37v1.37Zm1.371 1.371h-1.371v-1.371h1.371v1.371Zm1.37-1.371h-1.37v-1.37h1.37v1.37Zm1.371-1.37h-1.371v-1.371h1.371v-1.371h1.371v9.595h-1.371v-6.853Zm6.861-2.742v1.371h-1.371v6.853h1.371v1.371h-4.112v-1.371h1.371v-6.853h-1.371v-1.371h4.112Zm2.74 1.371v8.224h-1.371v-9.595h2.742v1.371h-1.371Zm2.741 2.741h-1.37v-2.741h1.37v2.741Zm1.371 2.741h-1.371v-2.741h1.371v2.741Zm1.37 0v-6.853h1.371v9.595h-1.371v-1.371h-1.37v-1.371h1.37Zm5.483-5.482h-2.741v-1.371h6.853v1.371h-2.741v8.224h-1.371v-8.224Zm6.853 6.853h5.483v1.371h-6.853v-9.595h6.853v1.371h-5.483v2.741h4.112v1.371h-4.112v2.741Zm12.335-8.224v1.371h-4.112v2.741h4.112v1.371h-1.371v1.37h-1.37v-1.37h-1.371v4.112h-1.371v-9.595h5.483Zm0 8.224h-1.371v-1.371h1.371v1.371Zm1.37-4.112h-1.37v-2.741h1.37v2.741Zm0 5.483h-1.37v-1.371h1.37v1.371Zm2.742-5.483h-1.371v-2.741h1.371v2.741Zm0 4.112h-1.371v-1.371h1.371v1.371Zm4.119-6.853h-4.112v-1.371h4.112v1.371Zm0 4.112h-4.112v-1.371h4.112v1.371Zm0 4.112h-4.112v-1.371h4.112v1.371Zm1.37-6.853h-1.37v-1.371h1.37v1.371Zm0 5.482h-1.37v-2.741h1.37v2.741Z"/><path fill="#272B38" d="M176.285 196.396h2.741v1.37h-6.853v-1.37h2.741v-6.854h-2.741v-1.37h4.112v8.224Zm-3.204-37.848h-1.371v-1.371h1.371v1.371Zm1.377 5.482h4.112v1.371h-6.853v-1.371h1.371v-1.37h1.37v1.37Zm2.742-6.853h-4.112v-1.37h4.112v1.37Zm-1.371 5.483h-1.371v-1.371h1.371v1.371Zm1.371-1.371h-1.371v-1.371h1.371v1.371Zm1.37-1.371h-1.37v-2.741h1.37v2.741Z"/><path fill="#ABB0BF" d="M94.498 25.424h2.74v1.37h-6.852v-1.37h2.741V18.57h-2.741V17.2h4.112v8.223Zm5.482 0h-1.37v-6.853h1.37v6.853Zm4.112-6.86H99.98v-1.37h4.112v1.37Zm0 8.23H99.98v-1.37h4.112v1.37Zm-1.371-4.11h-1.37v-1.372h1.37v1.371Zm2.749 2.74h-1.371v-6.853h1.371v6.853Z"/><path fill="#fff" stroke="#ABB0BF" stroke-miterlimit="10" stroke-width="1.363" d="M244.402 61.023h-46.267v46.26h92.534v-46.26h-46.267Zm-138.802 0H59.333v46.26h92.534v-46.26H105.6Z"/><path fill="#A1A5B2" d="M219.723 81.924v6.853h-1.37v-9.594h1.37v1.37h1.371v1.37h-1.371Zm2.741 1.37h-1.37v-1.37h1.37v1.37Zm1.371 1.371h-1.371v-1.37h1.371v1.37Zm1.371-1.37h-1.371v-1.371h1.371v1.37Zm1.37-1.371h-1.37v-1.37h1.37v-1.371h1.371v9.594h-1.371v-6.853Zm4.12 4.112v2.74h-1.371v-5.482h1.371v1.371h4.112v-1.37h1.37v5.482h-1.37v-2.741h-4.112Zm1.37-2.742h-1.37v-2.74h1.37v2.74Zm1.371-2.74h-1.371v-1.371h1.371v1.37Zm1.371 2.74h-1.371v-2.74h1.371v2.74Zm8.223-4.111v1.37h-4.112v2.741h4.112v1.371h-1.37v1.37h-1.371v-1.37h-1.371v4.112h-1.37v-9.594h5.482Zm0 8.223h-1.37v-1.37h1.37v1.37Zm1.371-4.112h-1.371v-2.74h1.371v2.74Zm0 5.483h-1.371v-1.37h1.371v1.37Zm2.741-4.112v4.112h-1.371v-9.594h1.371v4.111h1.371v1.371h-1.371Zm2.741-1.37h-1.37v-1.371h1.37v1.37Zm0 2.74h-1.37v-1.37h1.37v1.37Zm1.371-4.111h-1.371v-1.37h1.371v1.37Zm0 5.482h-1.371v-1.37h1.371v1.37Zm1.371-6.853h-1.371v-1.37h1.371v1.37Zm0 8.224h-1.371v-1.37h1.371v1.37Zm2.741-1.371h5.482v1.37h-6.853v-9.593h6.853v1.37h-5.482v2.741h4.112v1.371h-4.112v2.741Zm9.594-6.853h-2.741v-1.37h6.853v1.37h-2.741v8.224h-1.371v-8.224Z"/><path fill="#fff" stroke="#ABB0BF" stroke-miterlimit="10" stroke-width="1.363" d="M383.204 61.023h-46.267v46.26h92.534v-46.26h-46.267Z"/><path fill="#A1A5B2" d="M82.293 83.294h-1.371v-2.74h1.37v2.74Zm0 4.112h-1.371v-1.37h1.37v1.37Zm4.111-6.853h-4.111v-1.37h4.111v1.37Zm0 4.112h-4.111v-1.37h4.111v1.37Zm0 4.12h-4.111v-1.371h4.111v1.37Zm1.378-6.861h-1.37v-1.37h1.37v1.37Zm0 5.482h-1.37v-2.74h1.37v2.74Zm2.741-1.37v2.74h-1.37v-5.482h1.37v1.371h4.112v-1.37h1.37v5.482h-1.37v-2.741h-4.112Zm1.37-2.742h-1.37v-2.74h1.37v2.74Zm1.371-2.74h-1.37v-1.371h1.37v1.37Zm1.37 2.74h-1.37v-2.74h1.37v2.74Zm4.115 0h-1.371v-4.111h1.37v4.111Zm1.37 2.742h-1.37v-2.742h1.37v2.742Zm1.371 2.748h-1.371v-2.741h1.371v2.741Zm1.37-2.748h-1.37v-2.742h1.37v2.742Zm1.371-2.742h-1.371v-4.111h1.371v4.111Zm2.74 4.112h5.483v1.37h-6.853v-9.593h6.853v1.37h-5.483v2.741h4.112v1.371h-4.112v2.741Zm12.336-8.223v1.37h-4.112v2.741h4.112v1.371h-1.371v1.37h-1.371v-1.37h-1.37v4.112h-1.371v-9.594h5.483Zm0 8.223h-1.371v-1.37h1.371v1.37Zm1.37-4.112h-1.37v-2.74h1.37v2.74Zm0 5.49h-1.37v-1.37h1.37v1.37Zm2.741-5.49h-1.37v-2.74h1.37v2.74Zm0 4.112h-1.37v-1.37h1.37v1.37Zm4.12-6.853h-4.112v-1.37h4.112v1.37Zm0 4.112h-4.112v-1.37h4.112v1.37Zm0 4.12h-4.112v-1.371h4.112v1.37Zm1.37-6.861h-1.37v-1.37h1.37v1.37Zm0 5.482h-1.37v-2.74h1.37v2.74Z"/><path fill="#fff" stroke="#ABB0BF" stroke-miterlimit="10" stroke-width="1.363" d="M-33.202 61.023h-46.267v46.26h92.535v-46.26h-46.268Z"/><path fill="#A1A5B2" d="M3.813 79.183v1.37h-4.11v2.741h4.111v1.371h-1.37v1.37h-1.37v-1.37H-.299v4.112h-1.37v-9.594h5.482Zm0 8.223h-1.37v-1.37h1.37v1.37Zm1.371-4.112h-1.37v-2.74h1.37v2.74Zm0 5.483h-1.37v-1.37h1.37v1.37Z"/><path fill="#ABB0BF" d="M-33.882 29.493v30.843h1.37v-1.378h-.007V30.857h276.24v30.16h1.364V29.493H-33.882Zm211.509 51.75h-5.482v-1.37h6.853v4.11h-1.371v-2.74Zm-4.119 8.223h-1.37v-1.37h1.37v1.37Zm1.378-1.37h-1.37v-1.37h1.37v1.37Zm1.371-1.37h-1.371v-1.371h1.371v1.37Zm1.37-1.371h-1.37v-1.371h1.37v1.37Zm20.508-8.232V75.76h-45.593v1.37h1.371v-.007h44.222Zm-42.851-2.733h-1.371v1.37h1.371v-1.37Zm1.371-1.371h-1.371v1.37h1.371v-1.37Zm1.369-1.371h-1.371v1.371h1.371v-1.37Z"/><path fill="#ABB0BF" d="M155.284 77.13h-1.371v1.37h1.371v-1.37Zm1.371 1.371h-1.371v1.37h1.371v-1.37Zm1.369 1.371h-1.371v1.37h1.371v-1.37Zm96.741 54.02h-4.112v1.37h4.112v-1.37Zm1.371-2.743h-1.37v2.742h1.37v-2.742Zm-5.483 1.372h-1.371v1.37h1.371v-1.37Zm0-5.49h-1.371v1.371h1.371v-1.371Zm4.113 2.741h-2.742v1.371h2.742v-1.371Zm1.37-2.741h-1.37v2.741h1.37v-2.741Zm-1.371-1.371h-4.112v1.371h4.112v-1.371Zm-8.304-16.331h-1.37v1.371h1.37v-1.371Zm1.371 1.37h-1.371v1.371h1.371v-1.371Zm1.371 1.378h-1.371v1.371h1.371v-1.371Zm-5.483-4.118v45.593h1.363V109.33h.007v-1.371h-1.37Zm-.008 1.37h-1.37v1.371h1.37v-1.371Z"/><path fill="#ABB0BF" d="M242.343 110.699h-1.37v1.371h1.37v-1.371Zm-1.371 1.378h-1.37v1.371h1.37v-1.371Zm74.716-41.828v2.74h-1.371v-2.74h-4.112v-2.742h1.371v1.37h2.741v-2.74h-1.371v-1.37h1.371v-1.371h1.371v5.482h1.37v1.37h-1.37Zm-2.742-2.742h-1.37v-1.37h1.37v1.37Zm-.833 33.613v2.741h-1.371v-6.853h1.371v2.742h4.112v1.37h-4.112Zm4.112-4.112h-4.112v-1.37h4.112v1.37Zm0 8.224h-4.112v-1.371h4.112v1.371Zm1.37-6.853h-1.37v-1.37h1.37v1.37Zm0 5.482h-1.37v-2.741h1.37v2.741Zm19.342-11.314v-1.363h-44.193v-.007h-1.378v1.37h45.571Zm-2.039-15.417h-1.371v1.37h1.371v-1.37Zm-1.369 1.371h-1.371v1.37h1.371v-1.37Zm-1.371 1.371h-1.371v1.37h1.371v-1.37Zm2.74-2.742h1.371v-1.37h-45.6v1.363h44.229v.007Z"/><path fill="#ABB0BF" d="M334.898 74.39h-1.371v1.37h1.371v-1.37Zm-1.369-1.371h-1.371v1.37h1.371v-1.37Zm-1.371-1.371h-1.371v1.371h1.371v-1.37Zm-38.044 18.159h-1.371v1.37h1.371v-1.37Zm1.371-1.371h-1.371v1.371h1.371v-1.37Zm1.371-1.371h-1.371v1.371h1.371v-1.37Zm-2.742 5.483h-1.371v1.37h1.371v-1.37Zm1.371 1.371h-1.371v1.37h1.371v-1.37Zm1.371 1.371h-1.371v1.37h1.371v-1.37Z"/><path fill="#272B38" d="M153.993 168.294h-1.371v1.363h45.513v-1.363h-44.142Zm1.37-1.378h-1.371v1.371h1.371v-1.371Zm1.371-1.371h-1.371v1.371h1.371v-1.371Zm1.371-1.37h-1.371v1.37h1.371v-1.37Zm-2.742 5.483h-1.371v1.371h1.371v-1.371Zm1.371 1.377h-1.371v1.371h1.371v-1.371Zm1.371 1.371h-1.371v1.371h1.371v-1.371Zm37.905 12.676h-1.37v1.371h1.37v-1.371Zm-1.371 1.371h-1.37v1.371h1.37v-1.371Zm-1.37 1.371h-1.371v1.371h1.371v-1.371Z"/><path fill="#272B38" d="M196.01 183.712h-44.143v1.371h45.513v-1.371h-1.37Zm0-1.371h-1.37v1.37h1.37v-1.37Zm-1.371-1.37h-1.37v1.37h1.37v-1.37Zm-1.37-1.37h-1.371v1.37h1.371v-1.37Z"/><path fill="#ABB0BF" d="M128.349 129.772h-1.37v-2.741h1.37v2.741Zm0 4.119h-1.37v-2.741h1.37v2.741Zm4.112-6.86h-4.112v-1.371h4.112v1.371Zm0 4.119h-4.112v-1.371h4.112v1.371Zm0 4.112h-4.112v-1.371h4.112v1.371Zm1.371-5.49h-1.371v-2.741h1.371v2.741Zm0 4.119h-1.371v-2.741h1.371v2.741Zm-36.854-4.119h-1.37v-2.741h1.37v2.741Zm0 4.119h-1.37v-1.371h1.37v1.371Zm4.112-6.86h-4.112v-1.371h4.112v1.371Zm0 4.119h-4.112v-1.371h4.112v-2.741h1.37v6.853h-1.37v-2.741Zm0 4.112h-4.112v-1.371h4.112v1.371Zm-8.854-25.933h-1.37v1.371h1.37v-1.371Z"/><path fill="#ABB0BF" d="M93.605 110.699h-1.37v1.371h1.37v-1.371Zm1.371 1.371h-1.37v1.371h1.37v-1.371Zm-5.482-4.111v45.593h1.37v-45.593h-1.37Zm0 1.37h-1.371v1.371h1.37v-1.371Z"/><path fill="#ABB0BF" d="M88.124 110.699h-1.371v1.371h1.37v-1.371Zm-1.372 1.371h-1.37v1.371h1.37v-1.371Zm34.962-4.111h-1.378v42.619h-1.37v1.371h1.37v1.371h1.371v-1.371h1.371v-1.371h-1.364v-42.619Zm-2.749 41.248h-1.37v1.371h1.37v-1.371Zm-1.371-1.371h-1.37v1.371h1.37v-1.371Zm6.855 1.371h-1.371v1.371h1.371v-1.371Z"/><path fill="#ABB0BF" d="M125.818 147.836h-1.371v1.371h1.371v-1.371ZM1.949 164.32H4.69v1.371h-6.853v-1.371H.578v-6.853h-2.741v-1.37h4.112v8.223Zm8.223 0h2.742v1.371H6.06v-1.371H8.8v-6.853H6.06v-1.37h4.111v8.223Zm-8.223 32.366H4.69v1.37h-6.853v-1.37H.578v-6.853h-2.741v-1.371h4.112v8.224Zm5.482-5.49h-1.37v-1.37h1.37v1.37Zm1.37 5.49h4.113v1.371H6.06v-1.371h1.37v-1.371H8.8v1.371Zm2.742-6.86H7.431v-1.371h4.112v1.371Zm-1.37 5.489H8.801v-1.37h1.37v1.37Zm1.37-1.377h-1.37v-1.371h1.37v1.371Zm1.37-1.371h-1.37v-2.741h1.37v2.741Z"/><path fill="#ABB0BF" d="M-47.937 109.322v-1.371h-1.37v77.131H58.281v-1.363H-47.937v-74.397Zm105.146 60.343h-1.371v1.371h1.37v-1.371Zm-1.372 1.37h-1.37v1.371h1.37v-1.371Zm-1.37 1.371h-1.37v1.371h1.37v-1.371Z"/><path fill="#ABB0BF" d="M57.21 168.295h-89.728v-61.032h-1.364v62.395H57.21v.007h1.371v-1.37h-1.37Z"/><path fill="#ABB0BF" d="M57.209 166.924h-1.371v1.37h1.37v-1.37Zm-1.372-1.371h-1.37v1.37h1.37v-1.37Zm-1.37-1.378h-1.37v1.37h1.37v-1.37Z"/></g><defs><clipPath id="a"><path fill="#fff" d="M0 12C0 5.373 5.373 0 12 0h326c6.627 0 12 5.373 12 12v206c0 6.627-5.373 12-12 12H12c-6.627 0-12-5.373-12-12V12Z"/></clipPath></defs></svg>