<svg xmlns="http://www.w3.org/2000/svg" width="350" height="230" fill="none"><g clip-path="url(#a)"><path fill="#F9F9FB" d="M-220-.306h570v230.611h-570z"/><path stroke="#ABB0BF" stroke-miterlimit="10" stroke-width=".254" d="M116.924 14.808h4.112m-2.06 2.052v-4.112m-2.052 17.477h4.112m-2.06 2.06v-4.112m-2.052 17.477h4.112m-2.06 2.053V43.59m-2.052 17.484h4.112m-2.06 2.053v-4.112m-2.052 17.477h4.112m-2.06 2.06V74.44m-2.052 17.477h4.112m-2.06 2.053v-4.113m-2.052 17.477h4.112m-2.06 2.06v-4.112m-2.052 17.478h4.112m-2.06 2.059v-4.112m-2.052 17.478h4.112m-2.06 2.052v-4.112m-2.052 17.478h4.112m-2.06 2.059v-4.112m-2.052 17.476h4.112m-2.06 2.06v-4.111m-2.052 17.476h4.112m-2.06 2.052v-4.111m-2.052 17.477h4.112m-2.06 2.059v-4.112m-2.052 17.478h4.112m-2.06 2.059v-4.112M86.074 14.808h4.12m-2.06 2.052v-4.112m-2.06 17.477h4.12m-2.06 2.06v-4.112m13.365-13.365h4.112m-2.052 2.052v-4.112m-2.06 17.477h4.112m-2.052 2.06v-4.112M86.074 45.65h4.12m-2.06 2.053V43.59m-2.06 17.484h4.12m-2.06 2.053v-4.112m13.365-13.365h4.112m-2.052 2.053V43.59m-2.06 17.484h4.112m-2.052 2.053v-4.111M86.074 76.492h4.12m-2.06 2.06V74.44m-2.06 17.477h4.12m-2.06 2.053v-4.113m13.365-13.365h4.112m-2.052 2.06V74.44m-2.06 17.477h4.112m-2.052 2.053v-4.113m-17.485 17.477h4.12m-2.06 2.06v-4.112m-2.06 17.478h4.12m-2.06 2.059v-4.112m13.365-13.373h4.112m-2.052 2.06v-4.112m-2.06 17.478h4.112m-2.052 2.059v-4.112m-17.485 17.478h4.12m-2.06 2.052v-4.112m-2.06 17.478h4.12m-2.06 2.059v-4.112m13.365-13.365h4.112m-2.052 2.052v-4.112m-2.06 17.478h4.112m-2.052 2.059v-4.112m-17.485 17.476h4.12m-2.06 2.06v-4.111m-2.06 17.476h4.12m-2.06 2.052v-4.111m13.365-13.366h4.112m-2.052 2.06v-4.111m-2.06 17.476h4.112m-2.052 2.052v-4.111m-17.485 17.477h4.12m-2.06 2.059v-4.112m-2.06 17.478h4.12m-2.06 2.059v-4.112m13.365-13.372h4.112m-2.052 2.059v-4.112m-2.06 17.478h4.112m-2.052 2.059v-4.112M55.232 14.808h4.112m-2.053 2.052v-4.112m-2.059 17.477h4.112m-2.052 2.06v-4.112m13.365-13.365h4.112m-2.06 2.052v-4.112m-2.053 17.477h4.112m-2.059 2.06v-4.112M55.232 45.65h4.112m-2.052 2.053V43.59m-2.06 17.484h4.112m-2.053 2.053v-4.111M70.657 45.65h4.112m-2.06 2.053V43.59m-2.053 17.484h4.112m-2.059 2.053v-4.111M55.232 76.492h4.112m-2.052 2.06V74.44m-2.06 17.477h4.112m-2.053 2.053v-4.113m13.365-13.365h4.112m-2.059 2.06V74.44m-2.052 17.477h4.112m-2.06 2.053v-4.113m-17.477 17.477h4.112m-2.052 2.06v-4.112m-2.06 17.478h4.112m-2.053 2.059v-4.112m13.365-13.373h4.112m-2.059 2.06v-4.112m-2.052 17.478h4.112m-2.06 2.059v-4.112m-17.477 17.478h4.112m-2.053 2.052v-4.112m-2.059 17.478h4.112m-2.052 2.059v-4.112m13.364-13.365h4.112m-2.059 2.052v-4.112m-2.053 17.478h4.112m-2.059 2.059v-4.112m-17.477 17.476h4.112m-2.053 2.06v-4.111m-2.059 17.476h4.112m-2.052 2.052v-4.111m13.365-13.366h4.112m-2.06 2.06v-4.111m-2.053 17.476h4.112m-2.059 2.052v-4.111m-17.477 17.477h4.112m-2.053 2.059v-4.112m-2.059 17.478h4.112m-2.052 2.059v-4.112m13.364-13.372h4.112m-2.059 2.059v-4.112m-2.052 17.478h4.112m-2.06 2.059v-4.112M24.39 14.808h4.11m-2.059 2.052v-4.112M24.39 30.225h4.11m-2.058 2.06v-4.112m13.365-13.365h4.119m-2.06 2.052v-4.112m-2.059 17.477h4.119m-2.06 2.06v-4.112M24.39 45.65h4.11m-2.058 2.053V43.59M24.39 61.074h4.11m-2.059 2.053v-4.111M39.807 45.65h4.119m-2.06 2.053V43.59m-2.059 17.484h4.119m-2.06 2.053v-4.112M24.39 76.492h4.11m-2.058 2.06V74.44M24.39 91.917h4.11m-2.059 2.053v-4.113m13.366-13.365h4.119m-2.06 2.06V74.44m-2.059 17.477h4.119m-2.06 2.053v-4.113M24.39 107.334h4.11m-2.058 2.06v-4.112M24.39 122.76h4.11m-2.059 2.059v-4.112m13.366-13.373h4.119m-2.06 2.06v-4.112m-2.059 17.478h4.119m-2.06 2.059v-4.112M24.39 138.185h4.11m-2.059 2.052v-4.112m-2.051 17.478h4.11m-2.058 2.059v-4.112m13.365-13.365h4.119m-2.06 2.052v-4.112m-2.059 17.478h4.119m-2.06 2.059v-4.112M24.39 169.026h4.11m-2.059 2.06v-4.111m-2.051 17.476h4.11m-2.058 2.052v-4.111m13.365-13.366h4.119m-2.06 2.06v-4.111m-2.059 17.476h4.119m-2.06 2.052v-4.111M24.39 199.869h4.11m-2.059 2.059v-4.112m-2.051 17.478h4.11m-2.058 2.059v-4.112m13.365-13.372h4.119m-2.06 2.059v-4.112m-2.059 17.478h4.119m-2.06 2.059v-4.112M8.965 14.808h4.112m-2.053 2.052v-4.112M8.965 30.225h4.112m-2.053 2.06v-4.112M8.965 45.65h4.112m-2.053 2.053V43.59M8.965 61.074h4.112m-2.053 2.053v-4.112M8.965 76.492h4.112m-2.053 2.06V74.44M8.965 91.917h4.112m-2.053 2.053v-4.113m-2.059 17.477h4.112m-2.053 2.06v-4.112M8.965 122.76h4.112m-2.053 2.059v-4.112m-2.059 17.478h4.112m-2.053 2.052v-4.112m-2.059 17.478h4.112m-2.053 2.059v-4.112m-2.059 17.476h4.112m-2.053 2.06v-4.111m-2.059 17.476h4.112m-2.053 2.052v-4.111m-2.059 17.477h4.112m-2.053 2.059v-4.112m-2.059 17.478h4.112m-2.053 2.059v-4.112M332.835 14.808h4.112m-2.06 2.052v-4.112m-2.052 17.477h4.112m-2.059 2.06v-4.112m-2.053 17.477h4.112m-2.059 2.053V43.59m-2.053 17.484h4.112m-2.06 2.053v-4.111m-2.052 17.476h4.112m-2.059 2.06V74.44m-2.053 17.477h4.112m-2.06 2.053v-4.113m-2.052 17.477h4.112m-2.059 2.06v-4.112m-2.053 17.478h4.112m-2.06 2.059v-4.112m-2.052 17.478h4.112m-2.06 2.052v-4.112m-2.052 17.478h4.112m-2.059 2.059v-4.112m-2.053 17.476h4.112m-2.06 2.06v-4.111m-2.052 17.476h4.112m-2.059 2.052v-4.111m-2.053 17.477h4.112m-2.06 2.059v-4.112m-2.052 17.478h4.112m-2.059 2.059v-4.112M301.992 14.808h4.112m-2.059 2.052v-4.112m-2.053 17.477h4.112m-2.059 2.06v-4.112m13.365-13.365h4.112m-2.052 2.052v-4.112m-2.06 17.477h4.112m-2.052 2.06v-4.112M301.992 45.65h4.112m-2.059 2.053V43.59m-2.053 17.484h4.112m-2.059 2.053v-4.111M317.41 45.65h4.112m-2.052 2.053V43.59m-2.06 17.484h4.112m-2.052 2.053v-4.112m-17.478 17.477h4.112m-2.059 2.06V74.44m-2.053 17.477h4.112m-2.059 2.053v-4.113m13.365-13.365h4.112m-2.052 2.06V74.44m-2.06 17.477h4.112m-2.052 2.053v-4.113m-17.478 17.477h4.112m-2.059 2.06v-4.112m-2.053 17.478h4.112m-2.059 2.059v-4.112m13.365-13.373h4.112m-2.052 2.06v-4.112m-2.06 17.478h4.112m-2.052 2.059v-4.112m-17.478 17.478h4.112m-2.059 2.052v-4.112m-2.053 17.478h4.112m-2.059 2.059v-4.112m13.365-13.365h4.112m-2.052 2.052v-4.112m-2.06 17.478h4.112m-2.052 2.059v-4.112m-17.478 17.476h4.112m-2.059 2.06v-4.111m-2.053 17.476h4.112m-2.059 2.052v-4.111m13.365-13.366h4.112m-2.052 2.06v-4.111m-2.06 17.476h4.112m-2.052 2.052v-4.111m-17.478 17.477h4.112m-2.059 2.059v-4.112m-2.053 17.478h4.112m-2.059 2.059v-4.112m13.365-13.372h4.112m-2.052 2.059v-4.112m-2.06 17.478h4.112m-2.052 2.059v-4.112M271.143 14.808h4.111m-2.052 2.052v-4.112m-2.059 17.477h4.111m-2.052 2.06v-4.112m13.366-13.365h4.112m-2.06 2.052v-4.112m-2.052 17.477h4.112m-2.06 2.06v-4.112M271.143 45.65h4.111m-2.052 2.053V43.59m-2.059 17.484h4.111m-2.052 2.053v-4.112m13.366-13.365h4.112m-2.06 2.053V43.59m-2.052 17.484h4.112m-2.06 2.053v-4.112m-17.477 17.477h4.111m-2.052 2.06V74.44m-2.059 17.477h4.111m-2.052 2.053v-4.113m13.366-13.365h4.112m-2.06 2.06V74.44m-2.052 17.477h4.112m-2.06 2.053v-4.113m-17.477 17.477h4.111m-2.052 2.06v-4.112m-2.059 17.478h4.111m-2.052 2.059v-4.112m13.366-13.373h4.112m-2.06 2.06v-4.112m-2.052 17.478h4.112m-2.06 2.059v-4.112m-17.477 17.478h4.111m-2.052 2.052v-4.112m-2.059 17.478h4.111m-2.052 2.059v-4.112m13.366-13.365h4.112m-2.06 2.052v-4.112m-2.052 17.478h4.112m-2.06 2.059v-4.112m-17.477 17.476h4.111m-2.052 2.06v-4.111m-2.059 17.476h4.111m-2.052 2.052v-4.111m13.366-13.366h4.112m-2.06 2.06v-4.111m-2.052 17.476h4.112m-2.06 2.052v-4.111m-17.477 17.477h4.111m-2.052 2.059v-4.112m-2.059 17.478h4.111m-2.052 2.059v-4.112m13.366-13.372h4.112m-2.06 2.059v-4.112m-2.052 17.478h4.112m-2.06 2.059v-4.112M240.301 14.808h4.112m-2.053 2.052v-4.112m-2.059 17.477h4.112m-2.053 2.06v-4.112m13.366-13.365h4.111m-2.06 2.052v-4.112m-2.051 17.477h4.111m-2.06 2.06v-4.112M240.301 45.65h4.112m-2.053 2.053V43.59m-2.059 17.484h4.112m-2.053 2.053v-4.112m13.366-13.365h4.111m-2.06 2.053V43.59m-2.051 17.484h4.111m-2.06 2.053v-4.111m-17.476 17.476h4.112m-2.053 2.06V74.44m-2.059 17.477h4.112m-2.053 2.053v-4.113m13.366-13.365h4.111m-2.06 2.06V74.44m-2.051 17.477h4.111m-2.06 2.053v-4.113m-17.476 17.477h4.112m-2.053 2.06v-4.112m-2.059 17.478h4.112m-2.053 2.059v-4.112m13.366-13.373h4.111m-2.06 2.06v-4.112m-2.051 17.478h4.111m-2.06 2.059v-4.112m-17.476 17.478h4.112m-2.053 2.052v-4.112m-2.059 17.478h4.112m-2.053 2.059v-4.112m13.366-13.365h4.111m-2.06 2.052v-4.112m-2.051 17.478h4.111m-2.06 2.059v-4.112m-17.476 17.476h4.112m-2.053 2.06v-4.111m-2.059 17.476h4.112m-2.053 2.052v-4.111m13.366-13.366h4.111m-2.06 2.06v-4.111m-2.051 17.476h4.111m-2.06 2.052v-4.111m-17.476 17.477h4.112m-2.053 2.059v-4.112m-2.059 17.478h4.112m-2.053 2.059v-4.112m13.366-13.372h4.111m-2.06 2.059v-4.112m-2.051 17.478h4.111m-2.06 2.059v-4.112M209.458 14.808h4.112m-2.059 2.052v-4.112m-2.053 17.477h4.112m-2.059 2.06v-4.112m13.365-13.365h4.112m-2.052 2.052v-4.112m-2.06 17.477h4.112m-2.052 2.06v-4.112M209.458 45.65h4.112m-2.059 2.053V43.59m-2.053 17.484h4.112m-2.059 2.053v-4.112m13.365-13.365h4.112m-2.052 2.053V43.59m-2.06 17.484h4.112m-2.052 2.053v-4.111m-17.478 17.476h4.112m-2.059 2.06V74.44m-2.053 17.477h4.112m-2.059 2.053v-4.113m13.365-13.365h4.112m-2.052 2.06V74.44m-2.06 17.477h4.112m-2.052 2.053v-4.113m-17.478 17.477h4.112m-2.059 2.06v-4.112m-2.053 17.478h4.112m-2.059 2.059v-4.112m13.365-13.373h4.112m-2.052 2.06v-4.112m-2.06 17.478h4.112m-2.052 2.059v-4.112m-17.478 17.478h4.112m-2.059 2.052v-4.112m-2.053 17.478h4.112m-2.059 2.059v-4.112m13.365-13.365h4.112m-2.052 2.052v-4.112m-2.06 17.478h4.112m-2.052 2.059v-4.112m-17.478 17.476h4.112m-2.059 2.06v-4.111m-2.053 17.476h4.112m-2.059 2.052v-4.111m13.365-13.366h4.112m-2.052 2.06v-4.111m-2.06 17.476h4.112m-2.052 2.052v-4.111m-17.478 17.477h4.112m-2.059 2.059v-4.112m-2.053 17.478h4.112m-2.059 2.059v-4.112m13.365-13.372h4.112m-2.052 2.059v-4.112m-2.06 17.478h4.112m-2.052 2.059v-4.112M178.608 14.808h4.112m-2.052 2.052v-4.112m-2.06 17.477h4.112m-2.052 2.06v-4.112m13.365-13.365h4.112m-2.052 2.052v-4.112m-2.06 17.477h4.112m-2.052 2.06v-4.112M178.608 45.65h4.112m-2.052 2.053V43.59m-2.06 17.484h4.112m-2.052 2.053v-4.111m13.365-13.366h4.112m-2.052 2.053V43.59m-2.06 17.484h4.112m-2.052 2.053v-4.112m-17.485 17.477h4.112m-2.052 2.06V74.44m-2.06 17.477h4.112m-2.052 2.053v-4.113m13.365-13.365h4.112m-2.052 2.06V74.44m-2.06 17.477h4.112m-2.052 2.053v-4.113m-17.485 17.477h4.112m-2.052 2.06v-4.112m-2.06 17.478h4.112m-2.052 2.059v-4.112m13.365-13.373h4.112m-2.052 2.06v-4.112m-2.06 17.478h4.112m-2.052 2.059v-4.112m-17.485 17.478h4.112m-2.052 2.052v-4.112m-2.06 17.478h4.112m-2.052 2.059v-4.112m13.365-13.365h4.112m-2.052 2.052v-4.112m-2.06 17.478h4.112m-2.052 2.059v-4.112m-17.485 17.476h4.112m-2.052 2.06v-4.111m-2.06 17.476h4.112m-2.052 2.052v-4.111m13.365-13.366h4.112m-2.052 2.06v-4.111m-2.06 17.476h4.112m-2.052 2.052v-4.111m-17.485 17.477h4.112m-2.052 2.059v-4.112m-2.06 17.478h4.112m-2.052 2.059v-4.112m13.365-13.372h4.112m-2.052 2.059v-4.112m-2.06 17.478h4.112m-2.052 2.059v-4.112M147.767 14.808h4.111m-2.053 2.052v-4.112m-2.058 17.477h4.111m-2.053 2.06v-4.112m13.366-13.365h4.112m-2.059 2.052v-4.112m-2.053 17.477h4.112m-2.059 2.06v-4.112M147.767 45.65h4.111m-2.053 2.053V43.59m-2.058 17.484h4.111m-2.053 2.053v-4.112m13.366-13.365h4.112m-2.059 2.053V43.59m-2.053 17.484h4.112m-2.059 2.053v-4.112m-17.477 17.477h4.111m-2.053 2.06V74.44m-2.058 17.477h4.111m-2.053 2.053v-4.113m13.366-13.365h4.112m-2.059 2.06V74.44m-2.053 17.477h4.112m-2.059 2.053v-4.113m-17.477 17.477h4.111m-2.053 2.06v-4.112m-2.058 17.478h4.111m-2.053 2.059v-4.112m13.366-13.373h4.112m-2.059 2.06v-4.112m-2.053 17.478h4.112m-2.059 2.059v-4.112m-17.477 17.478h4.111m-2.053 2.052v-4.112m-2.058 17.478h4.111m-2.053 2.059v-4.112m13.366-13.365h4.112m-2.059 2.052v-4.112m-2.053 17.478h4.112m-2.059 2.059v-4.112m-17.477 17.476h4.111m-2.053 2.06v-4.111m-2.058 17.476h4.111m-2.053 2.052v-4.111m13.366-13.366h4.112m-2.059 2.06v-4.111m-2.053 17.476h4.112m-2.059 2.052v-4.111m-17.477 17.477h4.111m-2.053 2.059v-4.112m-2.058 17.478h4.111m-2.053 2.059v-4.112m13.366-13.372h4.112m-2.059 2.059v-4.112m-2.053 17.478h4.112m-2.059 2.059v-4.112M132.342 14.808h4.112m-2.053 2.052v-4.112m-2.059 17.477h4.112m-2.053 2.06v-4.112m-2.059 17.477h4.112m-2.053 2.053V43.59m-2.059 17.484h4.112m-2.053 2.053v-4.111m-2.059 17.476h4.112m-2.053 2.06V74.44m-2.059 17.477h4.112m-2.053 2.053v-4.113m-2.059 17.477h4.112m-2.053 2.06v-4.112m-2.059 17.478h4.112m-2.053 2.059v-4.112m-2.059 17.478h4.112m-2.053 2.052v-4.112m-2.059 17.478h4.112m-2.053 2.059v-4.112m-2.059 17.476h4.112m-2.053 2.06v-4.111m-2.059 17.476h4.112m-2.053 2.052v-4.111m-2.059 17.477h4.112m-2.053 2.059v-4.112m-2.059 17.478h4.112m-2.053 2.059v-4.112"/><path fill="#fff" stroke="#ABB0BF" stroke-miterlimit="10" stroke-width="1.363" d="M-4.4 153.603h-46.268v46.267h92.534v-46.267H-4.4Z"/><path fill="#A1A5B2" d="M-4.06 173.117H-6.8v-1.371H.051v1.371h-2.74v8.223H-4.06v-8.223Zm6.86 6.853h5.483v1.37H1.43v-9.594h6.853v1.371H2.8v2.741h4.112v1.371H2.8v2.741Zm8.224-5.483v6.853h-1.37v-9.594h1.37v1.371h1.37v1.37h-1.37Zm2.741 1.371h-1.37v-1.371h1.37v1.371Zm1.37 1.371h-1.37v-1.371h1.37v1.371Zm1.371-1.371h-1.37v-1.371h1.37v1.371Zm1.371-1.371h-1.37v-1.37h1.37v-1.371h1.37v9.594h-1.37v-6.853Z"/><path fill="#272B38" d="M134.401 153.603H88.134v46.267h92.534v-46.267h-46.267Z"/><path fill="#fff" d="M106.982 174.487v6.853h-1.371v-9.594h1.371v1.371h1.371v1.37h-1.371Zm2.741 1.371h-1.37v-1.371h1.37v1.371Zm1.371 1.371h-1.371v-1.371h1.371v1.371Zm1.37-1.371h-1.37v-1.371h1.37v1.371Zm1.371-1.371h-1.371v-1.37h1.371v-1.371h1.371v9.594h-1.371v-6.853Zm6.86-2.741v1.371h-1.371v6.853h1.371v1.37h-4.112v-1.37h1.371v-6.853h-1.371v-1.371h4.112Zm2.741 1.371v8.223h-1.371v-9.594h2.742v1.371h-1.371Zm2.741 2.741h-1.37v-2.741h1.37v2.741Zm1.371 2.741h-1.371v-2.741h1.371v2.741Zm1.37 0v-6.853h1.371v9.594h-1.371v-1.37h-1.37v-1.371h1.37Zm5.483-5.482h-2.741v-1.371h6.853v1.371h-2.741v8.223h-1.371v-8.223Zm6.852 6.853h5.483v1.37h-6.853v-9.594h6.853v1.371h-5.483v2.741h4.112v1.371h-4.112v2.741Zm12.336-8.224v1.371h-4.112v2.741h4.112v1.371h-1.371v1.37h-1.37v-1.37h-1.371v4.111h-1.371v-9.594h5.483Zm0 8.224h-1.371v-1.371h1.371v1.371Zm1.37-4.112h-1.37v-2.741h1.37v2.741Zm0 5.482h-1.37v-1.37h1.37v1.37Zm2.743-5.482h-1.371v-2.741h1.371v2.741Zm0 4.112h-1.371v-1.371h1.371v1.371Zm4.119-6.853h-4.112v-1.371h4.112v1.371Zm0 4.112h-4.112v-1.371h4.112v1.371Zm0 4.111h-4.112v-1.37h4.112v1.37Zm1.37-6.853h-1.37v-1.37h1.37v1.37Zm0 5.483h-1.37v-2.741h1.37v2.741Z"/><path fill="#272B38" d="M134.401 61.074H88.134v46.26h92.534v-46.26h-46.267Z"/><path fill="#fff" stroke="#ABB0BF" stroke-miterlimit="10" stroke-width="1.363" d="M-4.4 61.074h-46.268v46.26h92.534v-46.26H-4.4Z"/><path fill="#fff" d="M109.723 81.975v6.853h-1.37v-9.595h1.37v1.371h1.371v1.37h-1.371Zm2.741 1.37h-1.37v-1.37h1.37v1.37Zm1.371 1.37h-1.371v-1.37h1.371v1.37Zm1.371-1.37h-1.371v-1.37h1.371v1.37Zm1.37-1.37h-1.37v-1.371h1.37v-1.37h1.371v9.594h-1.371v-6.853Zm4.119 4.112v2.74h-1.371v-5.482h1.371v1.37h4.112v-1.37h1.37v5.483h-1.37v-2.742h-4.112Zm1.37-2.742h-1.37v-2.741h1.37v2.741Zm1.371-2.741h-1.371v-1.37h1.371v1.37Zm1.371 2.741h-1.371v-2.741h1.371v2.741Zm8.223-4.112v1.371h-4.112v2.741h4.112v1.37h-1.37v1.371h-1.371v-1.37h-1.371v4.112h-1.37v-9.595h5.482Zm0 8.224h-1.37v-1.37h1.37v1.37Zm1.371-4.112h-1.371v-2.741h1.371v2.741Zm0 5.483h-1.371v-1.37h1.371v1.37Zm2.741-4.112v4.112h-1.371v-9.595h1.371v4.112h1.371v1.37h-1.371Zm2.741-1.37h-1.37v-1.371h1.37v1.37Zm0 2.74h-1.37v-1.37h1.37v1.37Zm1.371-4.111h-1.371v-1.371h1.371v1.37Zm0 5.482h-1.371v-1.37h1.371v1.37Zm1.371-6.853h-1.371v-1.37h1.371v1.37Zm0 8.224h-1.371v-1.37h1.371v1.37Zm2.741-1.371h5.482v1.37h-6.853v-9.594h6.853v1.371h-5.482v2.741h4.112v1.37h-4.112v2.742Zm9.594-6.853h-2.741v-1.37h6.853v1.37h-2.741v8.224h-1.371v-8.224Z"/><path fill="#fff" stroke="#ABB0BF" stroke-miterlimit="10" stroke-width="1.363" d="M273.203 61.074h-46.267v46.26h92.534v-46.26h-46.267Z"/><path fill="#A1A5B2" d="M-3.03 87.457h5.483v1.37H-4.4v-9.594h6.853v1.371H-3.03v2.741h4.112v1.37H-3.03v2.742Zm12.336-8.224v1.371H5.194v2.741h4.112v1.37h-1.37v1.371H6.563v-1.37h-1.37v4.112h-1.37v-9.595h5.482Zm0 8.224h-1.37v-1.37h1.37v1.37Zm1.37-4.112h-1.37v-2.741h1.37v2.741Zm0 5.49h-1.37v-1.37h1.37v1.37Zm2.742-5.49h-1.371v-2.741h1.37v2.741Zm0 4.112h-1.371v-1.37h1.37v1.37Zm4.119-6.853h-4.112v-1.37h4.112v1.37Zm0 4.112h-4.112v-1.37h4.112v1.37Zm0 4.119h-4.112v-1.37h4.112v1.37Zm1.37-6.86h-1.37v-1.371h1.37v1.37Zm0 5.482h-1.37v-2.741h1.37v2.741Z"/><path fill="#fff" d="M297.286 187.055a.548.548 0 0 0-.166.065c-.116.065-.211.203-.298.334-.087.13-.174.246-.283.311-.014 0-.029.015-.043.015-.08.014-.16.007-.356-.073-.043-.014-.079-.036-.123-.05a1.518 1.518 0 0 0-.268-.102c-.181-.036-.355.094-.435.239-.051.08-.094.16-.131.225-.123.218-.232.406-.464.414-.094.014-.217-.015-.399-.051-.109-.022-.217-.051-.312-.058a.9.9 0 0 0-.776.297c-.13.145-.181.283-.232.413-.079.204-.159.421-.493.552-.246.101-.449.043-.616 0-.087-.022-.167-.044-.232-.037h-.007c-.051 0-.116.029-.182.058 0 .435-.021 2.306-.036 3.576 0 .333-.007.652-.007.942 1.566-.681 5.033-2.661 5.867-3.227v-.007c.007-.189.007-1.146.007-2.683v-1.153h-.015Zm-15.555 7.142h9.384c0-.311 0-.652.015-1.015v-.732c.007-.82.022-1.734.029-2.698a.769.769 0 0 0-.123.094 1.404 1.404 0 0 1-.319.196c-.131.058-.378.051-.61-.094a3.449 3.449 0 0 1-.268-.167c-.138-.094-.275-.189-.421-.239-.348-.124-.746 0-1.095.108-.159.066-.297.145-.427.218-.218.123-.421.247-.689.283-.348.058-.827-.145-1.291-.341a7.692 7.692 0 0 0-.573-.225c-.37-.101-.805-.043-1.218.152a2.807 2.807 0 0 0-.436.276c-.253.189-.5.363-.761.312a.246.246 0 0 1-.102-.029h-.029a.92.92 0 0 0-.094-.044l-.058-.036c-.065-.043-.072-.043-.152-.116a4.23 4.23 0 0 1-.203-.196c-.109-.109-.21-.217-.334-.29a.747.747 0 0 0-.181-.094v.935c0 .349-.007.675-.015.979v.421c-.007.95-.021 1.697-.021 2.06v.275l-.008.007Z"/><path fill="#fff" stroke="#ABB0BF" stroke-miterlimit="10" stroke-width="1.363" d="M257.778 199.876h46.267v-46.267h-46.267v46.267Z"/><path fill="#A1A5B2" d="M266.139 170.688c1.066.079 2.125.116 3.191-.008a10.972 10.972 0 0 0 2.052-.442c2.669-.66 5.12-2.117 6.36-4.576-.986 1.538-2.379 2.763-4.38 3.604-2.081.885-4.272 1.204-6.52 1.182-.529 0-1.058-.021-1.581-.007-.522.015-1.131 0-1.493.442.435-.174.747-.282 1.211-.268.391.015.776.051 1.167.08"/><path fill="#A1A5B2" d="M275.683 166.003c-5.555 3.518-10.864 1.219-12.155 1.596.406-.037.878.094 1.545.261 3.677.856 7.687.5 10.61-1.864m-3.866 7.622c4.228-1.313 7.012-4.177 7.984-7.499a.823.823 0 0 0-.058.109c0-.015.015-.036.015-.051-.218.566-1.429 2.422-1.473 2.48l-.188.269c-.232.261-.529 1.037-2.219 2.284a13.444 13.444 0 0 1-2.292 1.378c-2.4 1.327-5.91 1.508-6.969 2.204.725-.094.834-.224 2.604-.543.877-.16 1.74-.37 2.596-.639"/><path fill="#A1A5B2" d="M266.625 175.829a3.921 3.921 0 0 1-.145-.218 2.308 2.308 0 0 1-.21-.449 2.66 2.66 0 0 1-.123-.501c-.066.167-.08.363-.051.544.021.174.087.341.167.493-.109-.043-.218-.079-.327-.123-.014-.188-.116-.254-.116-.776.45-1.465 5.055-.399 10.457-5.489 1.248-.987 2.176-2.227 2.582-3.554.16-.261.355-.616.558-.558.189.058.211.377.233.5.21-.486-.051-.798-.363-.769.319-.681.551-2.132.297-3.444a.901.901 0 0 0 .109-.073c.239 1.066.326 1.451.363 3.351 0 .043.072-.291.072-.334.196-3.147-.261-2.603-.072-3.263a.865.865 0 0 1 .558-.327c-.014 0-.014 0 0 0-.08 1.277.036 2.705.609 3.858-.507-.377-1.066-.065-1.066.319.152-.464.907-.544 1.269.334 2.683 6.092-6.265 13.416-14.815 10.486l.014-.007Zm-2.132-3.553c-.283-.16-.457-.182-.769-.617-.34-.471-.304-.964-.268-1.53-.297.479-.326 1.16.094 1.603-.29-.189-.529-.392-.522-.544.015-.725.232-.943.269-1.052 1.058-.471 2.61 0 5.547-.391 1.146-.124 4.801-.849 8.13-4.069.906-.877.935-.964 1.145-.95.225.015.399.24.472.435.007-.304-.189-.587-.472-.66.29-.964.704-1.907.784-2.966a.938.938 0 0 0 .471.008c.087.623.029 1.363 0 1.769a5.278 5.278 0 0 1-.341 1.291c-.239.587-.435 1.197-.703 1.769-.312.66-.9 1.393-1.443 1.937-.936.935-1.763 1.668-2.843 2.444-2.72 1.972-6.411 3.256-9.551 1.508v.015Zm-1.088-3.409c-.261-.536-.326-1.095-.413-1.487-.123.312-.131.755.036 1.146-.138-.123-.304-.268-.362-.406-.051-.13-.051-.58.079-.841a.887.887 0 0 1 .182-.109c1.9-.783 6.287 2.161 13.126-2.306.239-.159.427-.384.674-.529.116-.066.247-.124.384-.102.283.051.305.29.305.392 0-.022.014-.051.022-.073 0-.029.007-.058.007-.08.014-.275-.16-.377-.196-.398.341-.414.769-1.132 1.03-1.85.152-.34.246-.667.268-.718 0 .842.037 1.465-.913 3.162l-.029.051c-.798.551-3.808 4.083-8.848 4.736-1.755.224-3.916.471-5.366-.588h.014Zm15.338-8.543c.109.051.261-.014.566.225.116.189.188.399.225.617-.675.13-.697-.073-.885-.189 0-.007 0 0-.029-.065.022-.203.043-.406.13-.588h-.007Zm1.537-.674s0 .014.008.022c-.051 0-.798.689-.805.703a.752.752 0 0 0-.559-.297c.312-.297.914-.406 1.356-.421v-.007Zm.066.138c.304.5.261.391.326.645-.399-.007-.66.45-.943.704-.108-.341-.036-.523.015-.784.232-.224.544-.478.602-.565Zm1.08 5.076c-.225-.761-.507-1.537-.58-2.335-.116-1.32.239-1.98-.022-2.509-.058-.109-.239-.428-.355-.479-.152-.058-.718.051-.87.08-.515.101-.907.254-1.059.725-.247.334-.189.617-.225.994-.587 2.349-1.349 2.596-1.385 2.61-1.646 1.204-2.125 1.69-4.663 2.502-1.958.624-3.952.747-5.983.58-2.857-.239-3.212-.072-3.22-.072-.456.159-.703.399-.768.856-.015.094-.124.333.391.71.015.015.037.029.058.044.334.341.863.986 1.581 1.167-.42.116-1.015.189-1.233.341-.014.058-.159.138-.174.203-.369.675-.174.863.044 1.204.362.399 2.233 2.081 4.619 2.132-.362.131-1.994.428-2.095 1.11-.037.261-.131.246.029.667.014.029.021.058.036.087.116.29.624.5 1.131.711.783.326 1.719.587 2.35.63 10.377.74 15.207-7.636 12.393-11.965m10.718 16.693c.015.305.029.617.022.929 0 .34 0 .921.522 1.022.109.022.218.029.326.029.131 0 .261-.014.377-.029a4.52 4.52 0 0 0 1.023-.203c.073-.022.203-.058.355-.094.74-.189 1.422-.385 1.668-.704.29-.37.283-.718.283-1.022v-.254c0-.624 0-1.16-.014-1.653v-.247c0-.181 0-.377-.029-.566a.487.487 0 0 0-.232-.341c-.378-.224-1.088.008-1.552.167-.066.022-.124.044-.174.058l-.066.015c-.5.109-1.015.217-1.515.391-.029.008-.058.022-.087.029-.247.087-.523.189-.675.45-.283.428-.268.957-.261 1.385 0 .21.015.428.022.638h.007Zm.479-1.863v-.008c.101-.174.304-.246.522-.326.029-.015.058-.022.087-.036.479-.167.986-.276 1.479-.385l.073-.014h.014l.189-.058c.275-.094.74-.247 1.059-.247.101 0 .188.015.254.051.05.029.079.073.094.145.029.16.029.334.029.508v.254c.007.485.014 1.022.014 1.638v.269c0 .297 0 .558-.217.841-.203.261-1.059.479-1.516.595-.159.043-.29.072-.37.101-.283.094-.602.16-.964.196-.189.022-.406.044-.609 0-.276-.058-.298-.355-.298-.74 0-.319-.007-.631-.029-.942-.007-.203-.021-.421-.021-.631-.008-.406-.022-.871.21-1.219v.008Z"/><path fill="#A1A5B2" d="M297.642 175.503a.353.353 0 0 0-.036-.073c-.653-.914-1.32-1.566-1.908-2.139h-.007c-.087-.095-.167-.174-.246-.254l-.116-.116-.029-.029-.095-.094a1.24 1.24 0 0 0-.036-.037.904.904 0 0 1-.08-.087c-.014-.014-.021-.029-.036-.036-.022-.029-.051-.051-.072-.08a.202.202 0 0 1-.037-.043.65.65 0 0 0-.072-.08.202.202 0 0 1-.037-.043c-.014-.022-.036-.044-.05-.058l.123-1.9a.284.284 0 0 0-.261-.305c-.239-.022-.471-.044-.711-.058-3.017-.239-5.954-.203-8.738.109-.015 0-.037 0-.051.007a.294.294 0 0 0-.196.196c0 .014 0 .029-.007.051-.08.797-.094 1.073-.123 1.733v.355l-.022.029c-.406.529-.82 1.066-1.226 1.603-.681.899-1.356 1.805-2.001 2.697-.015.015-.022.037-.029.051v.189c0 .355.014.725.014 1.124.058 4.278-.007 9.971-.043 13.148v.362a92.12 92.12 0 0 0-.022 2.415v.051c0 .159.13.29.29.29h9.623c.022-.007.051-.022.073-.029.058-.022.116-.051.174-.08.043-.022.094-.043.138-.065.058-.029.116-.051.174-.08.036-.022.079-.036.123-.058.065-.029.138-.065.21-.102.066-.029.131-.065.196-.101.116-.058.239-.123.363-.181h.014c.138-.073.276-.145.421-.218.043-.022.087-.043.13-.072.283-.153.58-.312.871-.472.021-.007.036-.022.058-.029 1.225-.674 2.429-1.378 2.987-1.74 0 0 .008 0 .015-.008a.976.976 0 0 0 .13-.087c.008 0 .015-.014.022-.014l.015-.015.014-.014v-.007l.007-.008s.008-.014.008-.021l.007-.015v-.007s0-.007.007-.015c0 0 0-.014.007-.021 0-.008 0-.015.008-.029v-4.083c0-2.277 0-5.345.036-8.267l.022-1.385c.007-.559.014-1.103.029-1.632 0-.029 0-.065-.015-.102l-.007-.021Zm-3.01-2.901c.058.065.124.13.182.196l.029.029c.058.065.123.123.181.188l.036.036.189.189a.162.162 0 0 0 .036.029l.196.196.014.014s.073.073.109.102l.029.029.08.08c.014.014.029.021.036.036l.066.065.043.044.065.065.044.043.065.066c.015.014.029.036.051.05l.065.066.051.05.065.066s.036.036.051.058l.065.065c.015.022.036.036.051.058a.684.684 0 0 1 .065.073c.015.021.036.036.051.058.022.021.043.05.065.072a.376.376 0 0 0 .051.058c.022.022.043.051.065.073a.555.555 0 0 0 .058.065c.022.022.044.051.066.072a.428.428 0 0 0 .058.066c.021.029.043.05.065.079.014.015.029.037.043.051-.515-.275-1.131-.609-1.733-.943-.464-.253-.906-.493-1.298-.703.225-.305.442-.595.645-.863v.022Zm2.473 2.893c-1.472.385-3.995.994-5.352 1.219-.043 0-.087.014-.123.021.007-.014.022-.029.029-.043l.087-.131c.073-.101.145-.195.218-.297.058-.08.109-.16.167-.232.029-.044.065-.087.094-.138.022-.029.043-.065.065-.094.029-.036.051-.073.08-.109.036-.043.065-.094.101-.138.022-.029.044-.065.066-.094l.101-.145a1.15 1.15 0 0 0 .08-.116c.029-.044.065-.087.094-.131.029-.036.058-.079.08-.116.029-.043.058-.087.094-.13.029-.036.058-.08.087-.116.029-.044.066-.087.095-.131a.916.916 0 0 0 .079-.116c.029-.043.066-.087.095-.13.029-.036.058-.08.087-.116.029-.044.058-.08.087-.124.029-.043.058-.079.087-.116.029-.043.058-.079.087-.123.029-.036.058-.072.087-.116.014-.014.021-.036.036-.051.392.211.848.464 1.327.726l1.965 1.066v.021Zm-12.016-3.089c0-.087 0-.167.007-.239.029-.653.044-.921.123-1.712 2.981-.333 6.136-.355 9.392-.051l-.124 1.828h-.892c-.123 0-.239 0-.362.007h-.109c-.16 0-.312.007-.471.015h-.095c-1.566.043-3.19.087-4.837.087-.297 0-.71.007-1.145.022h-.595c-.189 0-.377.007-.558.007h-.341l.007.036Zm6.041 20.044v.733c0 .362-.008.703-.015 1.015h-9.384s0-.014.008-.029v-.247c0-.362.007-1.109.021-2.059v-.413c0-.305.008-.631.015-.979v-.936a.747.747 0 0 1 .181.094c.123.08.225.182.334.29.065.066.13.131.203.196.079.065.087.073.152.116l.058.036s.051.029.094.044h.029c.029.007.066.022.102.029.261.051.507-.131.761-.312.138-.101.283-.203.435-.275.421-.203.849-.254 1.219-.153.174.058.37.138.573.225.464.196.942.392 1.29.341.269-.036.472-.152.689-.283.131-.08.269-.159.428-.217.348-.116.747-.232 1.095-.109.145.051.283.145.421.239.087.058.174.123.268.167.232.145.479.152.609.094.124-.051.225-.123.319-.196.044-.029.087-.065.124-.094-.008.972-.022 1.886-.029 2.698v-.015Zm.036-3.038s-.022.007-.029.014a1.283 1.283 0 0 0-.276.182c-.087.065-.159.123-.253.159-.044.022-.189.029-.356-.072-.087-.044-.167-.102-.254-.16-.152-.101-.304-.203-.485-.276-.436-.152-.892-.021-1.291.109-.182.073-.327.16-.472.24-.203.116-.377.217-.587.246-.268.044-.733-.152-1.131-.319a6.403 6.403 0 0 0-.602-.232c-.435-.123-.943-.058-1.429.174-.174.087-.333.203-.478.305-.204.145-.399.29-.544.261a.136.136 0 0 1-.051-.015h-.007a.152.152 0 0 1-.051-.029l-.058-.036a.657.657 0 0 1-.116-.087 4.515 4.515 0 0 1-.189-.181 2.387 2.387 0 0 0-.377-.327.948.948 0 0 0-.341-.152c.022-2.234.051-5.504.044-8.557 0-.965-.015-1.857-.022-2.662v-.319c0-.188 0-.37-.007-.551 1.196.073 2.763.094 3.887.094 2.016 0 4.329-.058 5.497-.137v.087c.051 2.937.051 6.94 0 12.241h-.022Zm.16-12.756s-.022.029-.029.043c-.022.029-.044.065-.066.094-.979.073-3.22.138-5.562.138-1.088 0-2.589-.014-3.771-.087.051-.065.102-.138.152-.203l.174-.239c.073-.102.145-.196.218-.298.058-.079.116-.152.174-.232.073-.101.152-.203.225-.304.058-.073.116-.152.167-.225.079-.101.159-.21.232-.312.058-.072.108-.145.159-.217.08-.109.16-.218.247-.327.051-.065.101-.137.159-.203l.261-.348c.044-.058.087-.116.138-.181l.305-.392c.036-.043.065-.087.101-.13.131-.174.269-.348.399-.522 0 0 .022-.008.029-.008h.29c.218 0 .45 0 .696-.007h.559c.167 0 .326-.007.471-.014.254 0 .479-.008.667-.008 1.654 0 3.271-.043 4.845-.087h.094c.145 0 .283-.007.428-.014h.174c.101 0 .196 0 .297-.007h.769c-.029.043-.065.087-.094.13-.015.022-.037.044-.051.065-.051.073-.109.145-.16.218 0 .007-.014.014-.014.022-.051.065-.102.13-.145.195-.022.022-.037.051-.058.073-.037.051-.073.102-.116.152l-.066.087c-.036.051-.072.095-.108.145-.022.029-.051.066-.073.102-.036.043-.065.094-.101.138-.022.036-.051.065-.073.101-.036.044-.065.094-.101.138-.022.036-.051.072-.073.101-.029.044-.065.088-.094.138-.029.037-.051.073-.08.109-.029.044-.065.087-.094.131-.029.036-.051.072-.08.108a1.398 1.398 0 0 1-.102.138c-.021.036-.05.065-.072.102-.036.043-.065.094-.102.137-.021.037-.05.073-.072.102a1.526 1.526 0 0 1-.102.138.788.788 0 0 1-.072.101 2.281 2.281 0 0 1-.109.145.977.977 0 0 0-.065.095l-.116.159c-.015.022-.037.051-.051.073l-.167.232c-.065.094-.138.188-.203.283l-.058.079a.367.367 0 0 1-.051.066c-.029.043-.058.079-.087.123l.008-.036Zm5.953 14.235v.007c-.834.559-4.3 2.546-5.866 3.227 0-.29 0-.601.007-.942.014-1.269.029-3.14.036-3.575a.642.642 0 0 1 .181-.058h.008c.065 0 .145.014.232.036.166.043.377.101.616 0 .334-.138.413-.348.493-.551.051-.131.102-.269.232-.414a.928.928 0 0 1 .776-.297c.095.007.203.036.312.058.181.043.305.065.399.051.232 0 .341-.196.464-.414.036-.065.08-.145.131-.224.079-.138.253-.276.435-.24.087.022.181.058.268.102.044.022.087.036.123.051.189.079.276.087.356.072a.104.104 0 0 0 .043-.014c.116-.058.196-.182.283-.312.087-.131.181-.269.297-.334a.651.651 0 0 1 .167-.065v1.153c0 1.537 0 2.495-.007 2.683h.014Zm.08-14.968-.022 1.204v.116l-.021 1.378v.101a809.728 809.728 0 0 0-.037 8.043 1.05 1.05 0 0 0-.311.109c-.182.101-.298.268-.399.42-.058.08-.116.167-.167.203a.442.442 0 0 1-.167-.058c-.036-.014-.08-.036-.116-.051-.101-.043-.21-.094-.334-.116-.275-.058-.58.095-.746.378a2.954 2.954 0 0 0-.138.232c-.116.195-.16.268-.225.268h-.029c-.044.007-.196-.029-.297-.051a2.994 2.994 0 0 0-.341-.065 1.233 1.233 0 0 0-1.03.391c-.16.189-.232.363-.283.501-.072.188-.116.297-.326.384-.152.065-.29.029-.435-.007-.109-.029-.211-.058-.327-.044-.058 0-.108.015-.159.029.029-3.379.036-6.149.029-8.477 0-1.407-.015-2.669-.036-3.756 1.348-.182 4.46-.951 5.91-1.328v.196h.007Z"/><path fill="#A1A5B2" d="M289.374 183.131a1.232 1.232 0 0 1-.253-.051c-.066-.021-.109-.043-.131-.072a.66.66 0 0 1-.043-.203 4.47 4.47 0 0 1-.029-.37 32.479 32.479 0 0 0-.022-.355v-.515c0-.102-.051-.189-.145-.276-.138-.217-.319-.304-.537-.239-.217.058-.479.203-.776.435-.051.044-.13.116-.239.203-.109.087-.247.21-.421.363.066-.211.124-.377.16-.501.036-.116.058-.195.065-.224.015-.073.022-.16.015-.24a.288.288 0 0 0-.095-.203c-.123-.123-.21-.203-.254-.254-.05-.043-.137-.065-.268-.065a2.16 2.16 0 0 0-.42.196 5.946 5.946 0 0 0-.581.362 4.32 4.32 0 0 0-.544.443 2.892 2.892 0 0 0-.224.188 8.928 8.928 0 0 1-.174.153c-.044.036-.073.036-.08.014 0-.022.022-.101.065-.232.044-.13.102-.283.16-.442.058-.16.108-.283.145-.363l.123-.312c.022-.058.044-.13.065-.203a.663.663 0 0 0 .022-.246.418.418 0 0 0-.109-.283.407.407 0 0 0-.225-.123.245.245 0 0 0-.174.014.298.298 0 0 0-.152.116.293.293 0 0 0-.065.196c0 .029 0 .08-.015.152a2.39 2.39 0 0 1-.094.327c-.109.246-.181.427-.232.551a2.51 2.51 0 0 0-.102.268c-.021.058-.029.109-.043.167-.007.051-.029.138-.058.254-.08.377-.145.674-.203.906-.058.232-.058.413 0 .544a.44.44 0 0 0 .174.261c.08.051.167.08.268.08.022 0 .066-.044.131-.138.065-.094.145-.196.239-.319s.196-.225.29-.312a9.15 9.15 0 0 1 .464-.442c.16-.145.261-.261.312-.356.094-.058.167-.123.232-.195.058-.066.109-.102.138-.102a.627.627 0 0 1 .239-.188.858.858 0 0 1 .276-.109c.022-.007.036 0 .036.036a.838.838 0 0 1-.072.239 9.721 9.721 0 0 1-.254.602l-.261.754c-.015.051-.022.102-.015.145.007.044.029.08.065.124l.124.101c.094.066.174.095.239.073a.493.493 0 0 0 .21-.138c.073-.072.145-.152.225-.232.225-.247.457-.464.675-.66.217-.196.42-.355.587-.471.174-.116.29-.174.348-.174.058 0 .087.065.087.195 0 .131-.007.312-.014.537 0 .268.029.471.079.624.051.145.116.254.196.312a.742.742 0 0 0 .174.116c.109.036.225.058.363.065a.63.63 0 0 0 .377-.094c.123-.073.174-.153.145-.24-.022-.087-.094-.13-.203-.145l.014-.029Z"/><path fill="#ABB0BF" d="M-143.883 29.544v30.842h1.371v-1.378h-.007v-28.1H133.72v30.16h1.364V29.544h-278.967ZM67.625 81.293h-5.482v-1.37h6.853v4.112h-1.37v-2.742Zm-4.119 8.224h-1.37v-1.37h1.37v1.37Zm1.378-1.37h-1.37v-1.371h1.37v1.37Zm1.37-1.371h-1.37v-1.37h1.37v1.37Zm1.371-1.37h-1.37v-1.371h1.37v1.37Zm20.509-8.232V75.81H42.54v1.371h1.37v-.007h44.223Z"/><path fill="#ABB0BF" d="M45.283 74.44h-1.37v1.371h1.37v-1.37Zm1.37-1.37h-1.37v1.37h1.37v-1.37Zm1.371-1.37h-1.37v1.37h1.37V71.7Zm-2.741 5.48h-1.37v1.371h1.37v-1.37Zm1.37 1.372h-1.37v1.37h1.37v-1.37Zm1.371 1.371h-1.37v1.37h1.37v-1.37Z"/><path fill="#272B38" d="M144.764 133.942h-4.112v1.371h4.112v-1.371Zm1.371-2.742h-1.37v2.741h1.37V131.2Zm-5.483 1.371h-1.371v1.371h1.371v-1.371Zm0-5.489h-1.371v1.371h1.371v-1.371Zm4.112 2.741h-2.742v1.371h2.742v-1.371Zm1.371-2.741h-1.37v2.741h1.37v-2.741Zm-1.371-1.371h-4.112v1.371h4.112v-1.371Zm-8.304-16.331h-1.37v1.37h1.37v-1.37Zm1.372 1.37h-1.371v1.371h1.371v-1.371Zm1.37 1.378h-1.371v1.371h1.371v-1.371Zm-5.483-4.118v45.593h1.363V109.38h.007v-1.37h-1.37Zm-.007 1.37h-1.37v1.37h1.37v-1.37Zm-1.371 1.37h-1.37v1.371h1.37v-1.371Zm-1.37 1.378h-1.37v1.371h1.37v-1.371Z"/><path fill="#ABB0BF" d="M279.316 129.823h4.112v1.37h-5.483v-5.482h6.853v1.371h-5.482v2.741Zm0 4.119h-1.371v-1.371h1.371v1.371Zm4.112 1.363h-4.112v-1.37h4.112v1.37Zm1.37-1.363h-1.37v-2.741h1.37v2.741Zm-10.899-26.608h-1.363v44.229h-.008v1.371h.008v.667h1.363v-46.267Z"/><path fill="#ABB0BF" d="M272.529 150.193h-1.371v1.371h1.371v-1.371Zm-1.371-1.371h-1.371v1.371h1.371v-1.371Zm-1.371-1.37h-1.371v1.371h1.371v-1.371Zm5.482 2.741h-1.371v1.371h1.371v-1.371Zm1.371-1.371h-1.37v1.371h1.37v-1.371Zm1.37-1.37h-1.37v1.371h1.37v-1.371ZM205.688 70.3v2.74h-1.371V70.3h-4.112v-2.742h1.371v1.37h2.741v-2.74h-1.371v-1.371h1.371v-1.37h1.371v5.482h1.37v1.37h-1.37Zm-2.742-2.742h-1.37v-1.37h1.37v1.37Zm-.834 33.613v2.741h-1.371v-6.853h1.371V99.8h4.112v1.371h-4.112Zm4.112-4.112h-4.112v-1.37h4.112v1.37Zm0 8.224h-4.112v-1.371h4.112v1.371Zm1.37-6.853h-1.37v-1.37h1.37v1.37Zm0 5.482h-1.37v-2.741h1.37v2.741Zm19.341-11.314v-1.363h-44.193v-.007h-1.378v1.37h45.571Zm-2.038-15.418h-1.371v1.371h1.371v-1.37Zm-1.37 1.372h-1.371v1.37h1.371v-1.37Zm-1.37 1.371h-1.371v1.37h1.371v-1.37Z"/><path fill="#ABB0BF" d="M224.897 77.181h1.371v-1.37h-45.6v1.363h44.229v.007Zm0-2.741h-1.371v1.371h1.371v-1.37Zm-1.37-1.37h-1.371v1.37h1.371v-1.37Z"/><path fill="#ABB0BF" d="M222.157 71.7h-1.371v1.37h1.371V71.7Zm-38.044 18.157h-1.371v1.371h1.371v-1.37Zm1.371-1.37h-1.371v1.37h1.371v-1.37Zm1.37-1.371h-1.371v1.37h1.371v-1.37Zm-2.741 5.483h-1.371v1.37h1.371V92.6Zm1.371 1.371h-1.371v1.37h1.371v-1.37Zm1.37 1.37h-1.371v1.37h1.371v-1.37ZM66.284 196.446h2.74v1.371h-6.852v-1.371h2.741v-6.853h-2.741v-1.37h4.112v8.223Zm-3.205-37.847h-1.371v-1.371h1.37v1.371Zm1.378 5.482h4.111v1.371h-6.853v-1.371h1.37v-1.371h1.372v1.371Zm2.74-6.853h-4.111v-1.371h4.112v1.371Zm-1.37 5.482h-1.37v-1.37h1.37v1.37Zm1.37-1.37h-1.37v-1.371h1.37v1.371Zm1.371-1.371h-1.37v-2.741h1.37v2.741Zm-24.576 8.376h-1.37v1.363h45.512v-1.363H43.992Zm1.371-1.378h-1.37v1.37h1.37v-1.37Zm1.37-1.371h-1.37v1.37h1.37v-1.37Zm1.37-1.37h-1.37v1.37h1.37v-1.37Zm-2.74 5.483h-1.37v1.371h1.37v-1.371Zm1.37 1.377h-1.37v1.371h1.37v-1.371Zm1.37 1.371h-1.37v1.371h1.37v-1.371Zm37.907 12.676h-1.371v1.37h1.37v-1.37Zm-1.37 1.371h-1.371v1.371h1.37v-1.371Zm-1.372 1.37h-1.37v1.371h1.37v-1.371Zm2.741-4.111H41.866v1.37H87.38v-1.37h-1.37Zm.001-1.371h-1.371v1.37h1.37v-1.37Zm-1.37-1.371h-1.371v1.371h1.37v-1.371Zm-1.372-1.37h-1.37v1.371h1.37v-1.371ZM18.35 129.823h-1.372v-2.741h1.371v2.741Zm0 4.119h-1.372v-2.741h1.371v2.741Zm4.111-6.86h-4.112v-1.371h4.112v1.371Zm0 4.119h-4.112v-1.371h4.112v1.371Zm0 4.111h-4.112v-1.37h4.112v1.37Zm1.37-5.489h-1.37v-2.741h1.37v2.741Zm0 4.119h-1.37v-2.741h1.37v2.741ZM11.713 108.01h-1.378v42.619h-1.37V152h1.37v1.37h1.371V152h1.371v-1.371h-1.364V108.01Zm-2.749 41.248h-1.37v1.37h1.37v-1.37Zm-1.37-1.371h-1.37v1.37h1.37v-1.37Zm6.854 1.371h-1.37v1.37h1.37v-1.37Zm1.37-1.371h-1.37v1.37h1.37v-1.37Zm238.878-60.43h-1.371v-8.224h1.371v8.224Zm4.112 1.37h-4.112v-1.37h4.112v1.37Zm1.37-1.37h-1.37v-8.224h1.37v8.224Zm2.741-4.112h-1.37v-2.741h1.37v2.741Zm0 4.112h-1.37v-1.37h1.37v1.37Zm4.112-6.853h-4.112v-1.37h4.112v1.37Zm0 4.112h-4.112v-1.37h4.112v1.37Zm0 4.112h-4.112v-1.37h4.112v1.37Zm1.371-6.853h-1.371v-1.371h1.371v1.37Zm0 5.482h-1.371v-2.741h1.371v2.741Zm2.741 0h5.483v1.37h-6.854v-9.594h6.854v1.371h-5.483v2.741h4.112v1.37h-4.112v2.742Zm12.336-8.224v1.371h-4.112v2.741h4.112v1.37h-1.371v1.371h-1.371v-1.37h-1.37v4.112h-1.371v-9.595h5.483Zm0 8.224h-1.371v-1.37h1.371v1.37Zm1.37-4.112h-1.37v-2.741h1.37v2.741Zm0 5.483h-1.37v-1.37h1.37v1.37Zm2.748-5.483h-1.37v-2.741h1.37v2.741Zm0 4.112h-1.37v-1.37h1.37v1.37Zm4.112-6.853h-4.112v-1.37h4.112v1.37Zm0 4.112h-4.112v-1.37h4.112v1.37Zm0 4.112h-4.112v-1.37h4.112v1.37Zm1.371-6.853h-1.371v-1.371h1.371v1.37Zm0 5.482h-1.371v-2.741h1.371v2.741Z"/></g><defs><clipPath id="a"><path fill="#fff" d="M0 12C0 5.373 5.373 0 12 0h326c6.627 0 12 5.373 12 12v206c0 6.627-5.373 12-12 12H12c-6.627 0-12-5.373-12-12V12Z"/></clipPath></defs></svg>