<svg xmlns="http://www.w3.org/2000/svg" width="350" height="230" fill="none"><g clip-path="url(#a)"><path fill="#F9F9FB" d="M-220-.306h570v230.611h-570z"/><path stroke="#ABB0BF" stroke-miterlimit="10" stroke-width=".254" d="M116.924 14.807h4.112m-2.059 2.052v-4.112m-2.053 17.478h4.112m-2.059 2.059v-4.112m-2.053 17.476h4.112m-2.059 2.054V43.59m-2.053 17.483h4.112m-2.059 2.054v-4.112m-2.053 17.477h4.112m-2.059 2.059V74.44m-2.053 17.476h4.112m-2.059 2.052v-4.112m-2.053 17.478h4.112m-2.059 2.059v-4.112m-2.053 17.477h4.112m-2.059 2.06v-4.112m-2.053 17.477h4.112m-2.059 2.053v-4.112m-2.053 17.478h4.112m-2.059 2.059v-4.112m-2.053 17.476h4.112m-2.059 2.059v-4.111m-2.053 17.477h4.112m-2.059 2.052v-4.111m-2.053 17.477h4.112m-2.059 2.06v-4.112m-2.053 17.477h4.112m-2.059 2.059v-4.112M86.075 14.807h4.12m-2.06 2.052v-4.112m-2.06 17.478h4.12m-2.06 2.059v-4.112M101.5 14.807h4.112m-2.052 2.052v-4.112m-2.06 17.478h4.112m-2.052 2.059v-4.112M86.075 45.648h4.12m-2.06 2.054V43.59m-2.06 17.483h4.12m-2.06 2.054v-4.112M101.5 45.648h4.112m-2.052 2.054V43.59m-2.06 17.483h4.112m-2.052 2.054v-4.112M86.075 76.492h4.12m-2.06 2.059V74.44m-2.06 17.476h4.12m-2.06 2.052v-4.112M101.5 76.492h4.112m-2.052 2.059V74.44m-2.06 17.476h4.112m-2.052 2.052v-4.112m-17.485 17.478h4.12m-2.06 2.059v-4.112m-2.06 17.477h4.12m-2.06 2.061v-4.112m13.365-13.373h4.112m-2.052 2.059v-4.112m-2.06 17.477h4.112m-2.052 2.061v-4.112m-17.485 17.476h4.12m-2.06 2.053v-4.112m-2.06 17.478h4.12m-2.06 2.059v-4.112m13.365-13.366h4.112m-2.052 2.053v-4.112m-2.06 17.478h4.112m-2.052 2.059v-4.112m-17.485 17.476h4.12m-2.06 2.059v-4.111m-2.06 17.477h4.12m-2.06 2.052v-4.111m13.365-13.366h4.112m-2.052 2.059v-4.111m-2.06 17.477h4.112m-2.052 2.052v-4.111m-17.485 17.477h4.12m-2.06 2.06v-4.112m-2.06 17.477h4.12m-2.06 2.059v-4.112m13.365-13.372h4.112m-2.052 2.06v-4.112m-2.06 17.477h4.112m-2.052 2.059v-4.112M55.233 14.807h4.112m-2.052 2.052v-4.112m-2.06 17.478h4.112m-2.052 2.059v-4.112m13.364-13.365h4.112m-2.059 2.052v-4.112m-2.052 17.478h4.112m-2.06 2.059v-4.112M55.233 45.648h4.112m-2.052 2.054V43.59m-2.06 17.483h4.112m-2.052 2.054v-4.112m13.365-13.367h4.112m-2.06 2.054V43.59m-2.052 17.483h4.112m-2.06 2.054v-4.112M55.233 76.491h4.112m-2.052 2.06V74.44m-2.06 17.476h4.112m-2.052 2.052v-4.112m13.364-13.365h4.112m-2.059 2.06V74.44m-2.053 17.476h4.112m-2.059 2.052v-4.112m-17.477 17.478h4.112m-2.052 2.059v-4.112m-2.06 17.477h4.112m-2.052 2.061v-4.112m13.365-13.373h4.112m-2.06 2.059v-4.112m-2.052 17.477h4.112m-2.06 2.061v-4.112m-17.477 17.476h4.112m-2.052 2.053v-4.112m-2.06 17.478h4.112m-2.052 2.059v-4.112m13.365-13.366h4.112m-2.06 2.053v-4.112m-2.053 17.478h4.112m-2.059 2.059v-4.112m-17.477 17.476h4.112m-2.052 2.059v-4.111m-2.06 17.477h4.112m-2.052 2.052v-4.111m13.364-13.366h4.112m-2.059 2.059v-4.111m-2.053 17.477h4.112m-2.059 2.052v-4.111m-17.477 17.477h4.112m-2.052 2.06v-4.112m-2.06 17.477h4.112m-2.052 2.059v-4.112m13.365-13.372h4.112m-2.06 2.06v-4.112m-2.052 17.477h4.112m-2.06 2.059v-4.112M24.39 14.807h4.113m-2.061 2.052v-4.112M24.39 30.225h4.113m-2.06 2.059v-4.112m13.365-13.365h4.119m-2.06 2.052v-4.112m-2.059 17.478h4.119m-2.06 2.059v-4.112M24.39 45.648h4.113m-2.06 2.054V43.59M24.39 61.073h4.113m-2.06 2.054v-4.112m13.365-13.367h4.119m-2.06 2.054V43.59m-2.059 17.483h4.119m-2.06 2.054v-4.112M24.39 76.492h4.113m-2.06 2.059V74.44M24.39 91.916h4.113m-2.061 2.052v-4.112m13.366-13.365h4.119m-2.06 2.06V74.44m-2.059 17.476h4.119m-2.06 2.052v-4.112M24.39 107.334h4.113m-2.06 2.059v-4.112m-2.053 17.477h4.113m-2.06 2.061v-4.112m13.365-13.373h4.119m-2.06 2.059v-4.112m-2.059 17.477h4.119m-2.06 2.06v-4.112M24.39 138.183h4.113m-2.06 2.053v-4.112m-2.053 17.478h4.113m-2.06 2.059v-4.112m13.365-13.366h4.119m-2.06 2.053v-4.112m-2.059 17.478h4.119m-2.06 2.059v-4.112M24.39 169.025h4.113m-2.06 2.059v-4.111M24.39 184.45h4.113m-2.06 2.052v-4.111m13.365-13.366h4.119m-2.06 2.059v-4.111m-2.059 17.477h4.119m-2.06 2.052v-4.111M24.39 199.868h4.113m-2.06 2.06v-4.112m-2.053 17.477h4.113m-2.06 2.059v-4.112m13.365-13.372h4.119m-2.06 2.06v-4.112m-2.059 17.477h4.119m-2.06 2.059v-4.112M8.966 14.807h4.112m-2.053 2.052v-4.112M8.966 30.225h4.112m-2.053 2.059v-4.112M8.966 45.648h4.112m-2.053 2.054V43.59M8.966 61.073h4.112m-2.053 2.054v-4.112M8.966 76.492h4.112m-2.053 2.059V74.44M8.966 91.916h4.112m-2.053 2.052v-4.112m-2.059 17.478h4.112m-2.053 2.059v-4.112m-2.059 17.477h4.112m-2.053 2.06v-4.112m-2.059 17.477h4.112m-2.053 2.053v-4.112m-2.059 17.478h4.112m-2.053 2.059v-4.112m-2.059 17.476h4.112m-2.053 2.059v-4.111M8.966 184.45h4.112m-2.053 2.052v-4.111m-2.059 17.477h4.112m-2.053 2.06v-4.112m-2.059 17.477h4.112m-2.053 2.059v-4.112M332.836 14.807h4.112m-2.06 2.052v-4.112m-2.052 17.478h4.112m-2.06 2.059v-4.112m-2.052 17.476h4.112m-2.06 2.054V43.59m-2.052 17.483h4.112m-2.06 2.054v-4.112m-2.052 17.477h4.112m-2.06 2.059V74.44m-2.052 17.476h4.112m-2.06 2.052v-4.112m-2.052 17.478h4.112m-2.06 2.059v-4.112m-2.052 17.477h4.112m-2.06 2.061v-4.112m-2.052 17.476h4.112m-2.06 2.053v-4.112m-2.052 17.478h4.112m-2.06 2.059v-4.112m-2.052 17.476h4.112m-2.06 2.059v-4.111m-2.052 17.477h4.112m-2.06 2.052v-4.111m-2.052 17.477h4.112m-2.06 2.06v-4.112m-2.052 17.477h4.112m-2.06 2.059v-4.112M301.993 14.807h4.112m-2.059 2.052v-4.112m-2.053 17.478h4.112m-2.059 2.059v-4.112m13.365-13.365h4.112m-2.051 2.052v-4.112m-2.061 17.478h4.112m-2.051 2.059v-4.112m-17.479 17.476h4.112m-2.059 2.054V43.59m-2.053 17.483h4.112m-2.059 2.054v-4.112m13.365-13.367h4.112m-2.051 2.054V43.59m-2.061 17.483h4.112m-2.051 2.054v-4.112m-17.479 17.476h4.112m-2.059 2.06V74.44m-2.053 17.476h4.112m-2.059 2.052v-4.112m13.365-13.365h4.112m-2.051 2.06V74.44m-2.061 17.476h4.112m-2.051 2.052v-4.112m-17.479 17.478h4.112m-2.059 2.059v-4.112m-2.053 17.477h4.112m-2.059 2.061v-4.112m13.365-13.373h4.112m-2.051 2.059v-4.112m-2.061 17.477h4.112m-2.051 2.061v-4.112m-17.479 17.476h4.112m-2.059 2.053v-4.112m-2.053 17.478h4.112m-2.059 2.059v-4.112m13.365-13.366h4.112m-2.051 2.053v-4.112m-2.061 17.478h4.112m-2.051 2.059v-4.112m-17.479 17.476h4.112m-2.059 2.059v-4.111m-2.053 17.477h4.112m-2.059 2.052v-4.111m13.365-13.366h4.112m-2.051 2.059v-4.111m-2.061 17.477h4.112m-2.051 2.052v-4.111m-17.479 17.477h4.112m-2.059 2.06v-4.112m-2.053 17.477h4.112m-2.059 2.059v-4.112m13.365-13.372h4.112m-2.051 2.06v-4.112m-2.061 17.477h4.112m-2.051 2.059v-4.112M271.144 14.807h4.111m-2.052 2.052v-4.112m-2.059 17.478h4.111m-2.052 2.059v-4.112m13.366-13.365h4.112m-2.06 2.052v-4.112m-2.053 17.478h4.112m-2.059 2.059v-4.112m-17.477 17.476h4.111m-2.052 2.054V43.59m-2.059 17.483h4.111m-2.052 2.054v-4.112m13.365-13.367h4.112m-2.059 2.054V43.59m-2.053 17.483h4.112m-2.059 2.054v-4.112m-17.477 17.477h4.111m-2.052 2.059V74.44m-2.059 17.476h4.111m-2.052 2.052v-4.112m13.366-13.365h4.112m-2.06 2.06V74.44m-2.052 17.476h4.112m-2.06 2.052v-4.112m-17.477 17.478h4.111m-2.052 2.059v-4.112m-2.059 17.477h4.111m-2.052 2.061v-4.112m13.365-13.373h4.112m-2.059 2.059v-4.112m-2.053 17.477h4.112m-2.059 2.06v-4.112m-17.477 17.477h4.111m-2.052 2.053v-4.112m-2.059 17.478h4.111m-2.052 2.059v-4.112m13.365-13.366h4.112m-2.059 2.053v-4.112m-2.052 17.478h4.112m-2.06 2.059v-4.112m-17.477 17.476h4.111m-2.052 2.059v-4.111m-2.059 17.477h4.111m-2.052 2.052v-4.111m13.366-13.366h4.112m-2.06 2.059v-4.111m-2.052 17.477h4.112m-2.06 2.052v-4.111m-17.477 17.477h4.111m-2.052 2.06v-4.112m-2.059 17.477h4.111m-2.052 2.059v-4.112m13.365-13.372h4.112m-2.059 2.06v-4.112m-2.053 17.477h4.112m-2.059 2.059v-4.112M240.303 14.807h4.112m-2.053 2.052v-4.112m-2.059 17.478h4.112m-2.053 2.059v-4.112m13.365-13.365h4.111m-2.06 2.052v-4.112m-2.051 17.478h4.111m-2.06 2.059v-4.112m-17.475 17.476h4.112m-2.053 2.054V43.59m-2.059 17.483h4.112m-2.053 2.054v-4.112m13.365-13.367h4.111m-2.06 2.054V43.59m-2.051 17.483h4.111m-2.06 2.054v-4.112m-17.475 17.477h4.112m-2.053 2.059V74.44m-2.059 17.476h4.112m-2.053 2.052v-4.112m13.365-13.364h4.111m-2.06 2.059V74.44m-2.051 17.476h4.111m-2.06 2.052v-4.112m-17.475 17.478h4.112m-2.053 2.059v-4.112m-2.059 17.477h4.112m-2.053 2.061v-4.112m13.365-13.373h4.111m-2.06 2.059v-4.112m-2.051 17.477h4.111m-2.06 2.061v-4.112m-17.475 17.476h4.112m-2.053 2.053v-4.112m-2.059 17.478h4.112m-2.053 2.059v-4.112m13.365-13.366h4.111m-2.06 2.053v-4.112m-2.051 17.478h4.111m-2.06 2.059v-4.112m-17.475 17.476h4.112m-2.053 2.059v-4.111m-2.059 17.477h4.112m-2.053 2.052v-4.111m13.365-13.366h4.111m-2.06 2.059v-4.111m-2.051 17.477h4.111m-2.06 2.052v-4.111m-17.475 17.477h4.112m-2.053 2.06v-4.112m-2.059 17.477h4.112m-2.053 2.059v-4.112m13.365-13.372h4.111m-2.06 2.06v-4.112m-2.051 17.477h4.111m-2.06 2.059v-4.112M209.459 14.807h4.112m-2.059 2.052v-4.112m-2.053 17.478h4.112m-2.059 2.059v-4.112m13.365-13.365h4.112m-2.052 2.052v-4.112m-2.06 17.478h4.112m-2.052 2.059v-4.112m-17.478 17.476h4.112m-2.059 2.054V43.59m-2.053 17.483h4.112m-2.059 2.054v-4.112m13.365-13.367h4.112m-2.052 2.054V43.59m-2.06 17.483h4.112m-2.052 2.054v-4.112m-17.478 17.476h4.112m-2.059 2.06V74.44m-2.053 17.476h4.112m-2.059 2.052v-4.112m13.365-13.365h4.112m-2.052 2.06V74.44m-2.06 17.476h4.112m-2.052 2.052v-4.112m-17.478 17.478h4.112m-2.059 2.059v-4.112m-2.053 17.477h4.112m-2.059 2.06v-4.112m13.365-13.372h4.112m-2.052 2.059v-4.112m-2.06 17.477h4.112m-2.052 2.061v-4.112m-17.478 17.476h4.112m-2.059 2.053v-4.112m-2.053 17.478h4.112m-2.059 2.059v-4.112m13.365-13.366h4.112m-2.052 2.053v-4.112m-2.06 17.478h4.112m-2.052 2.059v-4.112m-17.478 17.476h4.112m-2.059 2.059v-4.111m-2.053 17.477h4.112m-2.059 2.052v-4.111m13.365-13.366h4.112m-2.052 2.059v-4.111m-2.06 17.477h4.112m-2.052 2.052v-4.111m-17.478 17.477h4.112m-2.059 2.06v-4.112m-2.053 17.477h4.112m-2.059 2.059v-4.112m13.365-13.372h4.112m-2.052 2.06v-4.112m-2.06 17.477h4.112m-2.052 2.059v-4.112M178.609 14.807h4.112m-2.052 2.052v-4.112m-2.06 17.478h4.112m-2.052 2.059v-4.112m13.365-13.365h4.112m-2.052 2.052v-4.112m-2.06 17.478h4.112m-2.052 2.059v-4.112m-17.485 17.476h4.112m-2.052 2.054V43.59m-2.06 17.483h4.112m-2.052 2.054v-4.112m13.365-13.367h4.112m-2.052 2.054V43.59m-2.06 17.483h4.112m-2.052 2.054v-4.112m-17.485 17.477h4.112m-2.052 2.059V74.44m-2.06 17.476h4.112m-2.052 2.052v-4.112m13.365-13.364h4.112m-2.052 2.059V74.44m-2.06 17.476h4.112m-2.052 2.052v-4.112m-17.485 17.478h4.112m-2.052 2.059v-4.112m-2.06 17.477h4.112m-2.052 2.061v-4.112m13.365-13.373h4.112m-2.052 2.059v-4.112m-2.06 17.477h4.112m-2.052 2.061v-4.112m-17.485 17.476h4.112m-2.052 2.053v-4.112m-2.06 17.478h4.112m-2.052 2.059v-4.112m13.365-13.366h4.112m-2.052 2.053v-4.112m-2.06 17.478h4.112m-2.052 2.059v-4.112m-17.485 17.476h4.112m-2.052 2.059v-4.111m-2.06 17.477h4.112m-2.052 2.052v-4.111m13.365-13.366h4.112m-2.052 2.059v-4.111m-2.06 17.477h4.112m-2.052 2.052v-4.111m-17.485 17.477h4.112m-2.052 2.06v-4.112m-2.06 17.477h4.112m-2.052 2.059v-4.112m13.365-13.372h4.112m-2.052 2.06v-4.112m-2.06 17.477h4.112m-2.052 2.059v-4.112M147.768 14.807h4.111m-2.053 2.052v-4.112m-2.058 17.478h4.111m-2.053 2.059v-4.112m13.366-13.365h4.112m-2.06 2.052v-4.112m-2.052 17.478h4.112m-2.06 2.059v-4.112m-17.476 17.476h4.111m-2.052 2.054V43.59m-2.059 17.483h4.111m-2.052 2.054v-4.112m13.365-13.367h4.112m-2.06 2.054V43.59m-2.052 17.483h4.112m-2.06 2.054v-4.112m-17.476 17.476h4.111m-2.052 2.06V74.44m-2.059 17.476h4.111m-2.053 2.052v-4.112m13.366-13.364h4.112m-2.06 2.059V74.44m-2.052 17.476h4.112m-2.06 2.052v-4.112m-17.476 17.478h4.111m-2.053 2.059v-4.112m-2.058 17.477h4.111m-2.053 2.06v-4.112m13.366-13.372h4.112m-2.06 2.059v-4.112m-2.052 17.477h4.112m-2.06 2.061v-4.112m-17.476 17.476h4.111m-2.052 2.053v-4.112m-2.059 17.478h4.111m-2.052 2.059v-4.112m13.365-13.366h4.112m-2.06 2.053v-4.112m-2.052 17.478h4.112m-2.06 2.059v-4.112m-17.476 17.476h4.111m-2.052 2.059v-4.111m-2.059 17.477h4.111m-2.053 2.052v-4.111m13.366-13.366h4.112m-2.06 2.059v-4.111m-2.052 17.477h4.112m-2.06 2.052v-4.111m-17.476 17.477h4.111m-2.053 2.06v-4.112m-2.058 17.477h4.111m-2.053 2.059v-4.112m13.366-13.372h4.112m-2.06 2.06v-4.112m-2.052 17.477h4.112m-2.06 2.059v-4.112M132.343 14.807h4.112m-2.053 2.052v-4.112m-2.059 17.478h4.112m-2.053 2.059v-4.112m-2.059 17.476h4.112m-2.053 2.054V43.59m-2.059 17.483h4.112m-2.053 2.054v-4.112m-2.059 17.476h4.112m-2.053 2.06V74.44m-2.059 17.476h4.112m-2.053 2.052v-4.112m-2.059 17.478h4.112m-2.053 2.059v-4.112m-2.059 17.477h4.112m-2.053 2.061v-4.112m-2.059 17.476h4.112m-2.053 2.053v-4.112m-2.059 17.478h4.112m-2.053 2.059v-4.112m-2.059 17.476h4.112m-2.053 2.059v-4.111m-2.059 17.477h4.112m-2.053 2.052v-4.111m-2.059 17.477h4.112m-2.053 2.06v-4.112m-2.059 17.477h4.112m-2.053 2.059v-4.112"/><path fill="#fff" stroke="#ABB0BF" stroke-miterlimit="10" stroke-width="1.363" d="M-4.4 153.602h-46.267v46.267h92.534v-46.267H-4.4Z"/><path fill="#A1A5B2" d="M-4.059 173.116h-2.74v-1.371H.052v1.371h-2.741v8.223h-1.37v-8.223Zm6.86 6.853h5.483v1.37H1.43v-9.594h6.853v1.371H2.8v2.741h4.112v1.371H2.801v2.741Zm8.224-5.483v6.853h-1.37v-9.594h1.37v1.371h1.37v1.37h-1.37Zm2.741 1.371h-1.37v-1.371h1.37v1.371Zm1.37 1.371h-1.37v-1.371h1.37v1.371Zm1.371-1.371h-1.37v-1.371h1.37v1.371Zm1.371-1.371h-1.37v-1.37h1.37v-1.371h1.37v9.594h-1.37v-6.853Z"/><path fill="#fff" stroke="#ABB0BF" stroke-miterlimit="10" stroke-width="1.363" d="M134.402 153.602H88.135v46.267h92.534v-46.267h-46.267Z"/><path fill="#A1A5B2" d="M106.983 174.486v6.853h-1.371v-9.594h1.371v1.371h1.371v1.37h-1.371Zm2.741 1.371h-1.37v-1.371h1.37v1.371Zm1.371 1.371h-1.371v-1.371h1.371v1.371Zm1.37-1.371h-1.37v-1.371h1.37v1.371Zm1.371-1.371h-1.371v-1.37h1.371v-1.371h1.371v9.594h-1.371v-6.853Zm6.86-2.741v1.371h-1.371v6.853h1.371v1.37h-4.112v-1.37h1.371v-6.853h-1.371v-1.371h4.112Zm2.741 1.371v8.223h-1.371v-9.594h2.742v1.371h-1.371Zm2.741 2.741h-1.37v-2.741h1.37v2.741Zm1.371 2.741h-1.371v-2.741h1.371v2.741Zm1.37 0v-6.853h1.371v9.594h-1.371v-1.37h-1.37v-1.371h1.37Zm5.483-5.482h-2.741v-1.371h6.853v1.371h-2.741v8.223h-1.371v-8.223Zm6.853 6.853h5.483v1.37h-6.853v-9.594h6.853v1.371h-5.483v2.741h4.112v1.371h-4.112v2.741Zm12.335-8.224v1.371h-4.112v2.741h4.112v1.371h-1.371v1.37h-1.37v-1.37h-1.371v4.111h-1.371v-9.594h5.483Zm0 8.224h-1.371v-1.371h1.371v1.371Zm1.37-4.112h-1.37v-2.741h1.37v2.741Zm0 5.482h-1.37v-1.37h1.37v1.37Zm2.743-5.482h-1.371v-2.741h1.371v2.741Zm0 4.112h-1.371v-1.371h1.371v1.371Zm4.119-6.853h-4.112v-1.371h4.112v1.371Zm0 4.112h-4.112v-1.371h4.112v1.371Zm0 4.111h-4.112v-1.37h4.112v1.37Zm1.37-6.853h-1.37v-1.37h1.37v1.37Zm0 5.483h-1.37v-2.741h1.37v2.741Z"/><path fill="#272B38" d="M134.402 61.073H88.135v46.26h92.534v-46.26h-46.267Z"/><path fill="#fff" stroke="#ABB0BF" stroke-miterlimit="10" stroke-width="1.363" d="M-4.4 61.073h-46.267v46.26h92.534v-46.26H-4.4Z"/><path fill="#fff" d="M109.724 81.974v6.853h-1.37v-9.595h1.37v1.371h1.371v1.37h-1.371Zm2.741 1.37h-1.37v-1.37h1.37v1.37Zm1.371 1.37h-1.371v-1.37h1.371v1.37Zm1.371-1.37h-1.371v-1.37h1.371v1.37Zm1.37-1.37h-1.37v-1.371h1.37v-1.37h1.371v9.594h-1.371v-6.853Zm4.119 4.111v2.742h-1.371v-5.483h1.371v1.37h4.112v-1.37h1.37v5.483h-1.37v-2.742h-4.112Zm1.37-2.74h-1.37v-2.742h1.37v2.741Zm1.371-2.742h-1.371v-1.37h1.371v1.37Zm1.371 2.741h-1.371v-2.741h1.371v2.741Zm8.223-4.112v1.371h-4.112v2.741h4.112v1.37h-1.37v1.371h-1.371v-1.37h-1.371v4.112h-1.37v-9.595h5.482Zm0 8.224h-1.37v-1.37h1.37v1.37Zm1.371-4.112h-1.371v-2.741h1.371v2.741Zm0 5.483h-1.371v-1.37h1.371v1.37Zm2.741-4.112v4.112h-1.371v-9.595h1.371v4.112h1.371v1.37h-1.371Zm2.741-1.37h-1.37v-1.371h1.37v1.37Zm0 2.74h-1.37v-1.37h1.37v1.37Zm1.371-4.111h-1.371v-1.371h1.371v1.37Zm0 5.482h-1.371v-1.37h1.371v1.37Zm1.371-6.853h-1.371v-1.37h1.371v1.37Zm0 8.224h-1.371v-1.37h1.371v1.37Zm2.741-1.371h5.482v1.37h-6.853v-9.594h6.853v1.371h-5.482v2.741h4.112v1.37h-4.112v2.742Zm9.594-6.853h-2.741v-1.37h6.853v1.37h-2.741v8.224h-1.371v-8.224Z"/><path fill="#272B38" d="M273.204 61.073h-46.267v46.26h92.534v-46.26h-46.267Z"/><path fill="#A1A5B2" d="M-3.03 87.456h5.483v1.37H-4.4v-9.594h6.853v1.371H-3.03v2.741h4.112v1.37H-3.03v2.742Zm12.337-8.224v1.371H5.195v2.741h4.112v1.37H7.936v1.371h-1.37v-1.37H5.194v4.112h-1.37v-9.595h5.482Zm0 8.224H7.936v-1.37h1.37v1.37Zm1.37-4.112h-1.37v-2.741h1.37v2.741Zm0 5.49h-1.37v-1.37h1.37v1.37Zm2.741-5.49h-1.37v-2.741h1.37v2.741Zm0 4.112h-1.37v-1.37h1.37v1.37Zm4.12-6.853h-4.112v-1.37h4.112v1.37Zm0 4.112h-4.112v-1.37h4.112v1.37Zm0 4.119h-4.112v-1.37h4.112v1.37Zm1.37-6.86h-1.37v-1.371h1.37v1.37Zm0 5.482h-1.37v-2.741h1.37v2.741Z"/><path fill="#fff" d="M297.287 187.054a.548.548 0 0 0-.166.065c-.117.065-.211.203-.298.334-.087.13-.174.246-.283.311-.014 0-.029.015-.043.015-.08.014-.16.007-.356-.073-.043-.014-.079-.036-.123-.05a1.518 1.518 0 0 0-.268-.102c-.181-.036-.355.094-.435.239-.051.08-.095.16-.131.225-.123.218-.232.406-.464.414-.094.014-.217-.015-.399-.051-.109-.022-.217-.051-.312-.058a.9.9 0 0 0-.776.297c-.13.145-.181.283-.232.413-.079.204-.159.421-.493.552-.246.101-.449.043-.616 0-.087-.022-.167-.044-.232-.037h-.007c-.051 0-.116.029-.182.058 0 .436-.022 2.306-.036 3.576 0 .333-.007.652-.007.942 1.566-.681 5.033-2.661 5.867-3.227v-.007c.007-.189.007-1.146.007-2.683v-1.153h-.015Zm-15.555 7.142h9.384c0-.311 0-.652.015-1.015v-.732c.007-.82.022-1.733.029-2.698a.769.769 0 0 0-.123.094 1.404 1.404 0 0 1-.319.196c-.131.058-.378.051-.61-.094a3.449 3.449 0 0 1-.268-.167c-.138-.094-.275-.189-.421-.239-.348-.124-.746 0-1.095.108-.159.066-.297.146-.427.218-.218.123-.421.247-.689.283-.348.058-.827-.145-1.291-.341a7.692 7.692 0 0 0-.573-.225c-.37-.101-.805-.043-1.218.152a2.807 2.807 0 0 0-.436.276c-.253.189-.5.363-.761.312a.246.246 0 0 1-.102-.029h-.029a.92.92 0 0 0-.094-.044l-.058-.036c-.065-.043-.072-.043-.152-.116a4.23 4.23 0 0 1-.203-.196c-.109-.108-.21-.217-.334-.29a.747.747 0 0 0-.181-.094v.935c0 .349-.007.675-.015.979v.421c-.007.95-.021 1.697-.021 2.06v.275l-.008.007Z"/><path fill="#fff" stroke="#272B38" stroke-miterlimit="10" stroke-width="1.363" d="M257.779 199.876h46.267v-46.267h-46.267v46.267Z"/><path fill="#ABB0BF" d="M-143.883 29.542v30.842h1.371v-1.377h-.007V30.905H133.72v30.161h1.364V29.542h-278.967ZM67.626 81.293h-5.482v-1.371h6.853v4.112h-1.37v-2.742Zm-4.119 8.223h-1.37v-1.37h1.37v1.37Zm1.378-1.37h-1.37v-1.371h1.37v1.37Zm1.37-1.371h-1.37v-1.37h1.37v1.37Zm1.371-1.37h-1.37v-1.371h1.37v1.37Zm20.509-8.232V75.81H42.542v1.37h1.37v-.007h44.223ZM45.283 74.44h-1.37v1.37h1.37v-1.37Zm1.371-1.372h-1.37v1.371h1.37v-1.37Zm1.37-1.371h-1.37v1.37h1.37v-1.37Zm-2.741 5.483h-1.37v1.37h1.37v-1.37Zm1.371 1.37h-1.37v1.371h1.37v-1.37Zm1.37 1.372h-1.37v1.37h1.37v-1.37Z"/><path fill="#A1A5B2" d="M144.766 133.94h-4.112v1.371h4.112v-1.371Z"/><path fill="#A1A5B2" d="M146.135 131.2h-1.37v2.741h1.37V131.2Zm-5.482 1.37h-1.371v1.371h1.371v-1.371Zm0-5.489h-1.371v1.371h1.371v-1.371Zm4.112 2.741h-2.742v1.371h2.742v-1.371Zm1.37-2.741h-1.37v2.741h1.37v-2.741Zm-1.369-1.372h-4.112v1.371h4.112v-1.371Zm-8.305-16.33h-1.37v1.371h1.37v-1.371Zm1.372 1.37h-1.371v1.371h1.371v-1.371Zm1.37 1.378h-1.371v1.371h1.371v-1.371Zm-5.482-4.118v45.593h1.363v-44.223h.007v-1.37h-1.37Zm-.008 1.37h-1.37v1.371h1.37v-1.371Zm-1.371 1.37h-1.37v1.371h1.37v-1.371Zm-1.37 1.378h-1.37v1.371h1.37v-1.371Z"/><path fill="#272B38" d="M279.317 129.821h4.112v1.37h-5.483v-5.482h6.853v1.371h-5.482v2.741Zm0 4.119h-1.371v-1.371h1.371v1.371Zm4.112 1.363h-4.112v-1.37h4.112v1.37Zm1.37-1.363h-1.37v-2.741h1.37v2.741ZM273.9 107.334h-1.363v44.229h-.008v1.371h.008v.667h1.363v-46.267Z"/><path fill="#272B38" d="M272.53 150.192h-1.371v1.371h1.371v-1.371Zm-1.372-1.37h-1.371v1.371h1.371v-1.371Zm-1.369-1.371h-1.371v1.371h1.371v-1.371Zm5.481 2.741h-1.371v1.371h1.371v-1.371Zm1.371-1.37h-1.37v1.371h1.37v-1.371Zm1.37-1.371h-1.37v1.371h1.37v-1.371Zm-72.322-77.153v2.742h-1.37v-2.742h-4.112v-2.74h1.371v1.37h2.741v-2.742h-1.371v-1.37h1.371v-1.37h1.37v5.482h1.371v1.37h-1.371Zm-2.741-2.74h-1.37v-1.372h1.37v1.371Zm-.835 33.611v2.741h-1.371v-6.853h1.371v2.741h4.112v1.371h-4.112Zm4.112-4.112h-4.112v-1.37h4.112v1.37Zm0 8.224h-4.112v-1.371h4.112v1.371Zm1.37-6.853h-1.37v-1.37h1.37v1.37Zm0 5.482h-1.37v-2.741h1.37v2.741Zm19.341-11.312v-1.363h-44.193v-.007h-1.378v1.37h45.571Zm-2.038-15.418h-1.371v1.37h1.371v-1.37Z"/><path fill="#272B38" d="M223.528 78.55h-1.371v1.371h1.371v-1.37Z"/><path fill="#272B38" d="M222.158 79.92h-1.371v1.371h1.371v-1.37Zm2.74-2.74h1.371v-1.37h-45.6v1.363h44.229v.007Zm0-2.74h-1.371v1.37h1.371v-1.37Zm-1.37-1.372h-1.371v1.371h1.371v-1.37Zm-1.37-1.371h-1.371v1.37h1.371v-1.37Zm-38.044 18.159h-1.371v1.371h1.371v-1.37Zm1.371-1.37h-1.371v1.37h1.371v-1.37Zm1.37-1.371h-1.371v1.37h1.371v-1.37Zm-2.741 5.483h-1.371v1.37h1.371v-1.37Zm1.371 1.371h-1.371v1.37h1.371v-1.37Zm1.37 1.37h-1.371v1.37h1.371v-1.37Z"/><path fill="#ABB0BF" d="M66.285 196.444h2.74v1.371h-6.852v-1.371h2.741v-6.853h-2.741v-1.37h4.112v8.223Zm-3.205-37.846h-1.371v-1.371h1.37v1.371Zm1.377 5.482h4.112v1.371h-6.853v-1.371h1.37v-1.371h1.371v1.371Zm2.742-6.853h-4.112v-1.371h4.112v1.371Zm-1.37 5.482h-1.371v-1.37h1.37v1.37Zm1.37-1.37h-1.37v-1.371h1.37v1.371Zm1.37-1.371H67.2v-2.741h1.37v2.741Zm-24.577 8.376h-1.37v1.363h45.512v-1.363H43.992Zm1.371-1.378h-1.37v1.37h1.37v-1.37Zm1.37-1.37h-1.37v1.37h1.37v-1.37Zm1.371-1.371h-1.37v1.37h1.37v-1.37Zm-2.741 5.483h-1.37v1.371h1.37v-1.371Zm1.37 1.377h-1.37v1.371h1.37v-1.371Zm1.371 1.371h-1.37v1.371h1.37v-1.371Zm37.906 12.676h-1.37v1.37h1.37v-1.37Zm-1.37 1.371h-1.371v1.371h1.37v-1.371Z"/><path fill="#ABB0BF" d="M83.27 187.873h-1.372v1.371h1.371v-1.371Zm2.74-4.111H41.867v1.37H87.38v-1.37h-1.37Zm0-1.371h-1.37v1.37h1.37v-1.37Zm-1.37-1.371h-1.371v1.37h1.37v-1.37Z"/><path fill="#ABB0BF" d="M83.27 179.65h-1.372v1.371h1.371v-1.371Zm-64.92-49.829h-1.37v-2.741h1.37v2.741Zm0 4.119h-1.37v-2.741h1.37v2.741Zm4.112-6.86H18.35v-1.371h4.112v1.371Zm0 4.119H18.35v-1.371h4.112v1.371Zm0 4.112H18.35v-1.371h4.112v1.371Zm1.37-5.49h-1.37v-2.741h1.37v2.741Zm0 4.119h-1.37v-2.741h1.37v2.741Zm-12.118-25.931h-1.378v42.619h-1.37v1.371h1.37v1.37h1.371v-1.37h1.371v-1.371h-1.364v-42.619Zm-2.749 41.248h-1.37v1.37h1.37v-1.37Zm-1.37-1.371h-1.37v1.37h1.37v-1.37Zm6.854 1.371h-1.37v1.37h1.37v-1.37Zm1.37-1.371h-1.37v1.37h1.37v-1.37Z"/><path fill="#fff" d="M254.698 87.456h-1.371v-8.224h1.371v8.224Zm4.112 1.37h-4.112v-1.37h4.112v1.37Zm1.37-1.37h-1.37v-8.224h1.37v8.224Zm2.74-4.112h-1.37v-2.741h1.37v2.741Zm0 4.112h-1.37v-1.37h1.37v1.37Zm4.112-6.853h-4.112v-1.37h4.112v1.37Zm0 4.112h-4.112v-1.37h4.112v1.37Zm0 4.112h-4.112v-1.37h4.112v1.37Zm1.371-6.853h-1.371v-1.371h1.371v1.37Zm0 5.482h-1.371v-2.741h1.371v2.741Zm2.741 0h5.482v1.37h-6.853v-9.594h6.853v1.371h-5.482v2.741h4.112v1.37h-4.112v2.742Zm12.336-8.224v1.371h-4.112v2.741h4.112v1.37h-1.371v1.371h-1.371v-1.37h-1.37v4.112h-1.371v-9.595h5.483Zm0 8.224h-1.371v-1.37h1.371v1.37Zm1.37-4.112h-1.37v-2.741h1.37v2.741Zm0 5.483h-1.37v-1.37h1.37v1.37Zm2.748-5.483h-1.37v-2.741h1.37v2.741Zm0 4.112h-1.37v-1.37h1.37v1.37Zm4.112-6.853h-4.112v-1.37h4.112v1.37Zm0 4.112h-4.112v-1.37h4.112v1.37Zm0 4.112h-4.112v-1.37h4.112v1.37Zm1.371-6.853h-1.371v-1.371h1.371v1.37Zm0 5.482h-1.371v-2.741h1.371v2.741Z"/><path fill="#FCE729" d="M281.427 164.863c-.225-.761-.507-1.537-.58-2.335-.116-1.32.239-1.98-.022-2.509-.058-.109-.239-.428-.355-.479-.152-.058-.718.051-.87.08-.515.102-.907.254-1.059.725-.247.334-.189.617-.225.994-.587 2.349-1.349 2.596-1.385 2.61-1.646 1.204-2.125 1.69-4.663 2.502-1.958.624-3.952.747-5.983.58-2.857-.239-3.212-.072-3.22-.072-.456.159-.703.399-.768.856-.015.094-.124.333.391.71.015.015.037.029.058.044.334.341.863.986 1.581 1.167-.42.116-1.015.189-1.233.341-.014.058-.159.138-.174.203-.369.675-.174.863.044 1.204.362.399 2.233 2.081 4.619 2.132-.362.131-1.994.428-2.095 1.11-.037.261-.131.246.029.667.014.029.021.058.036.087.116.29.623.5 1.131.711.783.326 1.719.587 2.35.631 10.377.739 15.207-7.637 12.393-11.966"/><path fill="#231F20" d="M266.141 170.687c1.066.079 2.125.116 3.191-.008a10.972 10.972 0 0 0 2.052-.442c2.669-.66 5.12-2.117 6.36-4.576-.986 1.538-2.379 2.763-4.38 3.604-2.082.885-4.272 1.204-6.52 1.182-.529 0-1.058-.021-1.581-.007-.522.015-1.131 0-1.493.443.435-.175.746-.283 1.211-.269.391.015.776.051 1.167.08"/><path fill="#231F20" d="M275.684 166.002c-5.555 3.518-10.864 1.219-12.155 1.596.406-.036.878.094 1.545.261 3.677.856 7.687.5 10.61-1.864m-3.865 7.622c4.228-1.313 7.012-4.177 7.984-7.499a.823.823 0 0 0-.058.109c0-.015.015-.036.015-.051-.218.566-1.429 2.422-1.473 2.48l-.188.269c-.232.261-.53 1.037-2.219 2.284a13.444 13.444 0 0 1-2.292 1.378c-2.4 1.327-5.91 1.508-6.969 2.204.725-.094.834-.224 2.604-.543.877-.16 1.74-.37 2.596-.639"/><path fill="#231F20" d="M266.626 175.828a3.921 3.921 0 0 1-.145-.218 2.66 2.66 0 0 1-.334-.95 1.066 1.066 0 0 0-.05.544c.021.174.087.341.167.493-.109-.043-.218-.079-.327-.123-.014-.188-.116-.254-.116-.776.45-1.465 5.055-.399 10.457-5.489 1.248-.987 2.176-2.227 2.582-3.554.16-.261.355-.616.558-.558.189.058.211.377.233.5.21-.486-.051-.798-.363-.769.319-.681.551-2.132.297-3.444a.901.901 0 0 0 .109-.073c.239 1.066.326 1.451.363 3.351 0 .043.072-.29.072-.334.196-3.147-.261-2.603-.072-3.263a.865.865 0 0 1 .558-.327c-.014 0-.014 0 0 0-.08 1.277.036 2.705.609 3.858-.507-.377-1.066-.065-1.066.319.152-.464.907-.543 1.269.334 2.683 6.092-6.265 13.416-14.815 10.486l.014-.007Zm-2.132-3.553c-.283-.16-.457-.182-.769-.617-.34-.471-.304-.964-.268-1.53-.297.479-.326 1.16.094 1.603-.29-.189-.529-.392-.522-.544.015-.725.232-.943.268-1.052 1.059-.471 2.611 0 5.548-.391 1.146-.124 4.801-.849 8.13-4.069.906-.877.935-.964 1.145-.95.225.015.399.24.472.435.007-.304-.189-.587-.472-.659.29-.965.704-1.908.784-2.967a.938.938 0 0 0 .471.008c.087.623.029 1.363 0 1.769a5.278 5.278 0 0 1-.341 1.291c-.239.587-.435 1.197-.703 1.77-.312.659-.9 1.392-1.443 1.936-.936.935-1.763 1.668-2.843 2.444-2.72 1.972-6.411 3.256-9.551 1.508v.015Zm-1.088-3.409c-.261-.536-.326-1.095-.413-1.486-.123.311-.131.754.036 1.145-.138-.123-.304-.268-.362-.406-.051-.13-.051-.58.079-.841a.887.887 0 0 1 .182-.109c1.9-.783 6.287 2.161 13.126-2.306.239-.159.427-.384.674-.529.116-.066.247-.124.384-.102.283.051.305.29.305.392 0-.022.014-.051.022-.073 0-.029.007-.058.007-.079.014-.276-.16-.378-.196-.399.341-.414.769-1.132 1.03-1.85.152-.34.246-.667.268-.718 0 .842.037 1.465-.913 3.162l-.03.051c-.797.551-3.807 4.083-8.847 4.736-1.755.224-3.916.471-5.366-.588h.014Zm15.338-8.543c.109.051.261-.014.566.225.116.189.188.399.225.617-.675.13-.697-.073-.885-.189 0-.007 0 0-.029-.065.022-.203.043-.406.13-.588h-.007Zm1.537-.674s0 .015.008.022c-.051 0-.798.689-.805.703a.752.752 0 0 0-.559-.297c.312-.297.914-.406 1.356-.421v-.007Zm.066.138c.304.5.261.391.326.645-.399-.007-.66.45-.943.704-.108-.341-.036-.523.015-.784.232-.224.544-.478.602-.565Zm1.08 5.076c-.225-.761-.507-1.537-.58-2.335-.116-1.32.239-1.98-.022-2.509-.058-.109-.239-.428-.355-.479-.152-.058-.718.051-.87.08-.515.102-.907.254-1.059.725-.247.334-.189.617-.225.994-.587 2.349-1.349 2.596-1.385 2.61-1.646 1.204-2.125 1.69-4.663 2.502-1.958.624-3.952.747-5.983.58-2.857-.239-3.212-.072-3.22-.072-.456.159-.703.399-.768.856-.015.094-.124.333.391.71.015.015.037.029.058.044.334.341.863.986 1.581 1.167-.42.116-1.015.189-1.233.341-.014.058-.159.138-.174.203-.369.675-.174.863.044 1.204.362.399 2.233 2.081 4.619 2.132-.362.131-1.994.428-2.095 1.11-.037.261-.131.246.029.667.014.029.021.058.036.087.116.29.623.5 1.131.711.783.326 1.719.587 2.35.631 10.377.739 15.207-7.637 12.393-11.966"/><path fill="#AFD4FA" d="M297.613 178.613c-.029 2.922-.036 5.99-.036 8.267v4.162s0 .015-.007.015c0 0 0 .007-.007.014v.022s0 .007-.015.015l-.014.014s-.015.015-.022.015a.991.991 0 0 1-.131.087s-.007 0-.014.007a62.178 62.178 0 0 1-2.988 1.74c-.022.008-.036.022-.058.029-.29.16-.587.319-.87.472a1.063 1.063 0 0 0-.131.072c-.145.073-.282.145-.42.218h-.015c-.123.065-.246.123-.362.181-.066.036-.131.065-.196.102-.073.036-.138.072-.21.101-.044.022-.08.036-.124.058a1.923 1.923 0 0 1-.174.08 2.598 2.598 0 0 0-.138.065c-.065.029-.123.051-.174.08-.021.007-.05.022-.072.029h-9.623a.292.292 0 0 1-.291-.29v-.051c0-.196 0-1.044.015-2.415v-.362c.044-3.177.101-8.877.051-13.148 0-.399-.015-.769-.015-1.124v-.181c0-.015.015-.037.029-.051.638-.892 1.32-1.799 2.002-2.698.406-.537.819-1.073 1.225-1.603l.022-.029v-.355c.029-.66.044-.928.123-1.733 0-.015 0-.036.008-.051a.281.281 0 0 1 .195-.196c.015 0 .029 0 .051-.007 2.785-.312 5.715-.348 8.739-.109.239.022.471.037.71.058a.29.29 0 0 1 .262.305l-.124 1.9s.036.043.051.058a.196.196 0 0 1 .036.043.756.756 0 0 0 .073.08c.014.015.029.029.036.044l.073.079s.021.029.036.037c.029.029.051.058.08.087l.036.036c.029.029.058.065.094.094l.029.029.116.116c.08.08.167.16.247.247h.007c.587.587 1.247 1.233 1.907 2.146a.217.217 0 0 1 .036.073.39.39 0 0 1 .015.101c-.015.53-.022 1.074-.029 1.632l-.022 1.385-.022.008Z"/><path fill="#000" d="M297.613 178.613c-.029 2.922-.036 5.99-.036 8.267v4.162s0 .015-.007.015c0 0 0 .007-.007.014v.022s0 .007-.015.015l-.014.014s-.015.015-.022.015a.991.991 0 0 1-.131.087s-.007 0-.014.007a62.178 62.178 0 0 1-2.988 1.74c-.022.008-.036.022-.058.029-.29.16-.587.319-.87.472a1.063 1.063 0 0 0-.131.072c-.145.073-.282.145-.42.218h-.015c-.123.065-.246.123-.362.181-.066.036-.131.065-.196.102-.073.036-.138.072-.21.101-.044.022-.08.036-.124.058a1.923 1.923 0 0 1-.174.08 2.598 2.598 0 0 0-.138.065c-.065.029-.123.051-.174.08-.021.007-.05.022-.072.029h-9.623a.292.292 0 0 1-.291-.29v-.051c0-.196 0-1.044.015-2.415v-.362c.044-3.177.101-8.877.051-13.148 0-.399-.015-.769-.015-1.124v-.181c0-.015.015-.037.029-.051.638-.892 1.32-1.799 2.002-2.698.406-.537.819-1.073 1.225-1.603l.022-.029v-.355c.029-.66.044-.928.123-1.733 0-.015 0-.036.008-.051a.281.281 0 0 1 .195-.196c.015 0 .029 0 .051-.007 2.785-.312 5.715-.348 8.739-.109.239.022.471.037.71.058a.29.29 0 0 1 .262.305l-.124 1.9s.036.043.051.058a.196.196 0 0 1 .036.043.756.756 0 0 0 .073.08c.014.015.029.029.036.044l.073.079s.021.029.036.037c.029.029.051.058.08.087l.036.036c.029.029.058.065.094.094l.029.029.116.116c.08.08.167.16.247.247h.007c.587.587 1.247 1.233 1.907 2.146a.217.217 0 0 1 .036.073.39.39 0 0 1 .015.101c-.015.53-.022 1.074-.029 1.632l-.022 1.385-.022.008Zm-15.569-1.98a5.112 5.112 0 0 1-.153.203c1.182.072 2.684.087 3.771.087 2.343 0 4.584-.073 5.563-.138.021-.029.043-.065.065-.094.007-.015.022-.029.029-.044.029-.036.058-.08.087-.123a.33.33 0 0 1 .051-.065l.058-.08c.065-.094.13-.189.203-.283.05-.08.108-.152.166-.232l.051-.072c.036-.051.073-.109.116-.16.022-.029.044-.058.066-.094a2.28 2.28 0 0 1 .108-.145c.022-.037.051-.066.073-.102.036-.043.065-.094.101-.138.022-.036.051-.065.073-.101.036-.051.065-.094.101-.138.022-.036.051-.065.073-.101.036-.044.065-.095.101-.138.029-.037.051-.073.08-.109.029-.044.065-.087.094-.131.029-.036.051-.072.08-.108a.888.888 0 0 0 .095-.138c.021-.036.05-.065.072-.102.036-.043.065-.094.102-.137.021-.037.05-.066.072-.102.036-.043.065-.094.102-.138.021-.029.05-.065.072-.101.036-.051.073-.095.109-.145l.065-.087c.036-.051.073-.102.116-.153.022-.021.036-.05.058-.072.051-.065.102-.131.145-.196 0-.007.015-.014.022-.022.058-.072.109-.145.16-.217.014-.022.036-.044.05-.066.037-.043.066-.087.102-.13h-.769c-.101 0-.196 0-.297.007h-.174c-.145 0-.29 0-.428.015h-.094c-1.567.043-3.191.087-4.845.087-.181 0-.413 0-.667.007-.152 0-.312 0-.471.014h-.559c-.246 0-.478.008-.696.008h-.326a14.93 14.93 0 0 1-.399.529c-.036.044-.065.087-.101.131l-.305.391-.138.182-.261.348c-.051.065-.101.137-.159.203-.08.108-.16.217-.247.326a4.32 4.32 0 0 0-.16.218c-.079.101-.159.21-.232.311a4.46 4.46 0 0 0-.166.225c-.073.102-.153.203-.225.305-.058.08-.116.152-.174.232l-.218.297-.174.24-.014.036Zm-.269 12.582a.842.842 0 0 1 .341.152c.145.094.261.21.377.326.065.066.124.124.189.182a.774.774 0 0 0 .116.087l.058.036s.036.015.051.029h.007c.014 0 .036.015.051.015.145.029.34-.116.544-.262.145-.101.304-.224.478-.304.479-.232.986-.297 1.429-.174.188.058.399.145.602.232.406.167.863.363 1.131.319.21-.029.384-.131.587-.247.145-.079.29-.166.472-.239.399-.138.855-.268 1.291-.109.181.066.34.174.485.276.087.058.167.116.254.159.167.102.312.095.356.073a1.18 1.18 0 0 0 .253-.16c.087-.065.174-.13.276-.181.007 0 .014-.007.029-.014.051-5.294.051-9.305 0-12.242v-.087c-1.168.08-3.474.138-5.497.138-1.124 0-2.683-.014-3.887-.094 0 .181 0 .37.007.558v.319c.015.805.022 1.697.022 2.662.007 3.053-.022 6.316-.043 8.557l.021-.007Zm9.877-12.517s-.021.029-.029.044c.044 0 .08-.015.124-.022 1.356-.225 3.879-.834 5.352-1.219-.559-.297-1.269-.688-1.966-1.066-.478-.261-.935-.507-1.327-.725-.014.015-.022.037-.036.051a1.668 1.668 0 0 0-.087.116c-.029.044-.058.08-.087.123-.029.037-.058.08-.087.116-.029.037-.058.08-.087.124-.029.036-.058.079-.087.116-.029.043-.065.087-.094.13a.682.682 0 0 0-.08.116c-.029.044-.065.087-.094.131-.029.036-.059.08-.088.116-.029.043-.065.087-.094.13-.029.037-.058.08-.08.116-.029.044-.065.087-.094.131a1.15 1.15 0 0 0-.08.116c-.036.051-.072.094-.101.145-.022.029-.044.065-.065.094-.037.044-.066.095-.102.138-.029.036-.051.073-.08.109-.021.029-.043.065-.065.094-.029.044-.065.087-.094.138-.058.08-.116.159-.167.232-.073.101-.145.203-.218.297a1.524 1.524 0 0 1-.094.131l.007-.022Zm2.981-4.09c-.203.268-.421.551-.645.863.384.21.826.45 1.298.703.602.327 1.218.668 1.733.943-.015-.014-.029-.036-.044-.051-.021-.029-.043-.05-.065-.079-.022-.022-.036-.044-.058-.066-.022-.021-.044-.05-.065-.072-.022-.022-.037-.044-.058-.065-.022-.022-.044-.051-.066-.073-.021-.022-.036-.044-.05-.058-.022-.022-.044-.051-.066-.073-.014-.021-.036-.043-.05-.058a.588.588 0 0 1-.066-.072c-.014-.022-.036-.036-.05-.058a4.015 4.015 0 0 0-.066-.065c-.014-.022-.036-.037-.05-.051l-.066-.065a2.429 2.429 0 0 0-.116-.116l-.05-.051-.066-.065-.043-.044-.065-.065-.044-.044a1.992 1.992 0 0 1-.065-.065c-.015-.014-.029-.022-.037-.036l-.079-.08-.029-.029c-.037-.036-.073-.073-.109-.102l-.015-.014-.195-.196c-.015-.007-.022-.022-.037-.029l-.188-.188-.036-.037a3.97 3.97 0 0 1-.182-.188l-.029-.029c-.058-.066-.123-.131-.181-.196v-.029Zm2.727 3.126c-1.451.384-4.562 1.145-5.911 1.327.022 1.095.029 2.356.037 3.763.007 2.321 0 5.098-.029 8.478a.54.54 0 0 1 .159-.029.964.964 0 0 1 .326.043c.146.037.283.073.436.008.217-.087.261-.203.326-.385.051-.145.123-.319.283-.5a1.214 1.214 0 0 1 1.03-.392c.108.015.232.037.34.066.102.021.254.058.298.05h.029c.065 0 .108-.072.225-.268.043-.073.087-.145.137-.232.16-.276.464-.428.747-.377.124.022.225.072.334.116.036.014.08.036.116.051.109.043.152.05.167.058.05-.037.108-.124.166-.203.102-.153.218-.32.399-.421.095-.051.196-.087.312-.109 0-2.284 0-5.221.036-8.042v-.102c0-.464.015-.921.022-1.378v-.116c0-.406.015-.805.022-1.203v-.196l-.007-.007Zm-.073 11.32a.565.565 0 0 0-.167.065c-.116.065-.21.203-.297.334-.087.13-.174.246-.283.311-.014 0-.029.015-.043.015-.08.014-.16.007-.356-.073-.043-.014-.079-.036-.123-.05a1.518 1.518 0 0 0-.268-.102c-.182-.036-.356.094-.435.239-.051.08-.095.16-.131.225-.123.218-.232.406-.464.414-.094.014-.218-.015-.399-.051-.109-.022-.217-.051-.312-.058a.9.9 0 0 0-.776.297c-.13.145-.181.283-.232.414-.08.203-.159.42-.493.551-.246.101-.45.043-.616 0-.087-.022-.167-.044-.232-.037h-.008a.523.523 0 0 0-.181.058c0 .436-.022 2.307-.036 3.576 0 .333-.007.652-.007.942 1.566-.681 5.032-2.661 5.866-3.227v-.007c.008-.189.008-1.146.008-2.683v-1.153h-.015Zm-15.555 7.143h9.384c0-.312 0-.653.014-1.015v-.733c.008-.819.022-1.733.029-2.698-.043.029-.087.058-.123.095a1.418 1.418 0 0 1-.319.196c-.131.058-.377.05-.609-.095-.095-.05-.182-.109-.269-.167a1.89 1.89 0 0 0-.42-.239c-.348-.123-.747 0-1.095.109-.16.065-.298.145-.428.217-.218.124-.421.247-.689.283-.348.058-.827-.145-1.291-.341a7.656 7.656 0 0 0-.573-.224c-.37-.102-.805-.044-1.218.152a2.7 2.7 0 0 0-.435.276c-.254.188-.501.362-.762.311a.228.228 0 0 1-.101-.029h-.029c-.044-.021-.073-.036-.094-.043l-.058-.036c-.066-.044-.073-.044-.153-.116a6.406 6.406 0 0 1-.203-.196c-.109-.109-.21-.218-.333-.29a.723.723 0 0 0-.182-.095v.936c0 .348-.007.674-.014.979v.421c-.007.95-.022 1.696-.022 2.059v.276l-.007.007Zm3.365-22.031c0 .072 0 .152-.008.239h.341c.174 0 .363 0 .559-.007h.594c.435-.015.849-.029 1.146-.029 1.646 0 3.271-.044 4.837-.087h.094c.153 0 .312-.008.472-.015h.109c.123 0 .239 0 .362-.007h.892l.123-1.82c-3.248-.312-6.41-.29-9.391.043-.08.791-.087 1.059-.123 1.712l-.007-.029Z"/><path fill="#83B2E5" d="M297.359 175.733c-1.45.385-4.561 1.146-5.91 1.327.022 1.096.029 2.357.036 3.764.008 2.321 0 5.098-.029 8.478a.553.553 0 0 1 .16-.029.94.94 0 0 1 .326.043c.145.036.283.073.435.007.218-.087.262-.203.327-.384.051-.145.123-.319.283-.5a1.213 1.213 0 0 1 1.029-.392c.109.015.232.036.341.065.102.022.254.058.298.051h.029c.065 0 .108-.072.224-.268l.138-.232c.16-.276.464-.428.747-.377.123.021.225.072.334.116.036.014.079.036.116.05.108.044.152.051.166.059.051-.037.109-.124.167-.204.102-.152.218-.319.399-.42.094-.051.196-.087.312-.109 0-2.284 0-5.221.036-8.042v-.102c0-.464.015-.921.022-1.378v-.116c0-.406.015-.805.022-1.204v-.195l-.008-.008Z"/><path fill="#fff" d="M297.287 187.054a.548.548 0 0 0-.166.065c-.117.065-.211.203-.298.334-.087.13-.174.246-.283.311-.014 0-.029.015-.043.015-.08.014-.16.007-.356-.073-.043-.014-.079-.036-.123-.05a1.518 1.518 0 0 0-.268-.102c-.181-.036-.355.094-.435.239-.051.08-.095.16-.131.225-.123.218-.232.406-.464.414-.094.014-.217-.015-.399-.051-.109-.022-.217-.051-.312-.058a.9.9 0 0 0-.776.297c-.13.145-.181.283-.232.413-.079.204-.159.421-.493.552-.246.101-.449.043-.616 0-.087-.022-.167-.044-.232-.037h-.007c-.051 0-.116.029-.182.058 0 .436-.022 2.306-.036 3.576 0 .333-.007.652-.007.942 1.566-.681 5.033-2.661 5.867-3.227v-.007c.007-.189.007-1.146.007-2.683v-1.153h-.015Zm-15.555 7.142h9.384c0-.311 0-.652.015-1.015v-.732c.007-.82.022-1.733.029-2.698a.769.769 0 0 0-.123.094 1.404 1.404 0 0 1-.319.196c-.131.058-.378.051-.61-.094a3.449 3.449 0 0 1-.268-.167c-.138-.094-.275-.189-.421-.239-.348-.124-.746 0-1.095.108-.159.066-.297.146-.427.218-.218.123-.421.247-.689.283-.348.058-.827-.145-1.291-.341a7.692 7.692 0 0 0-.573-.225c-.37-.101-.805-.043-1.218.152a2.807 2.807 0 0 0-.436.276c-.253.189-.5.363-.761.312a.246.246 0 0 1-.102-.029h-.029a.92.92 0 0 0-.094-.044l-.058-.036c-.065-.043-.072-.043-.152-.116a4.23 4.23 0 0 1-.203-.196c-.109-.108-.21-.217-.334-.29a.747.747 0 0 0-.181-.094v.935c0 .349-.007.675-.015.979v.421c-.007.95-.021 1.697-.021 2.06v.275l-.008.007Z"/><path fill="#000" d="M296.715 179.57v-.247c0-.181 0-.377-.029-.566a.48.48 0 0 0-.232-.34c-.377-.225-1.087.007-1.552.166-.065.022-.123.044-.174.058l-.065.015c-.5.109-1.015.217-1.516.391-.029.008-.058.022-.087.029-.246.087-.522.189-.674.45-.283.428-.268.957-.261 1.385 0 .21.014.428.022.638.014.305.029.617.021.929 0 .34 0 .921.523 1.022.108.022.217.029.326.029.13 0 .261-.014.377-.029a4.51 4.51 0 0 0 1.022-.203c.073-.022.204-.058.356-.094.74-.189 1.421-.385 1.668-.704.29-.37.283-.718.283-1.022v-.254c0-.624 0-1.16-.015-1.653h.007Zm-.275 1.914c0 .297 0 .558-.218.841-.203.261-1.059.479-1.515.595-.16.043-.29.072-.37.101-.283.095-.602.16-.965.196-.188.022-.406.044-.609 0-.275-.058-.297-.355-.297-.739 0-.319-.008-.631-.029-.943-.008-.203-.022-.421-.022-.631-.007-.406-.022-.87.21-1.218v-.008c.102-.174.305-.246.522-.326.029-.014.058-.022.087-.036.479-.167.987-.276 1.48-.385l.072-.014h.015l.188-.058c.276-.094.74-.247 1.059-.247a.53.53 0 0 1 .254.051c.051.029.08.073.094.145.029.16.029.334.029.508v.254c.008.485.015 1.022.015 1.639v.275Z"/><path fill="#AFD4FA" d="M291.653 176.699s-.022.029-.029.043c.044 0 .08-.014.123-.022 1.356-.224 3.88-.834 5.352-1.218-.558-.297-1.269-.689-1.965-1.066-.479-.261-.936-.508-1.327-.725-.015.014-.022.036-.036.051-.029.036-.058.072-.087.116-.029.043-.058.079-.087.123-.029.036-.058.08-.087.116-.03.036-.059.08-.088.123-.029.037-.058.08-.087.116-.029.044-.065.087-.094.131a.644.644 0 0 0-.08.116c-.029.043-.065.087-.094.13-.029.037-.058.08-.087.116-.029.044-.065.088-.094.131a1.15 1.15 0 0 0-.08.116c-.029.044-.065.087-.094.131a1.046 1.046 0 0 0-.08.116c-.036.05-.072.094-.101.145-.022.029-.044.065-.066.094-.036.043-.065.094-.101.138-.029.036-.051.072-.08.108-.022.03-.044.066-.065.095-.029.043-.066.087-.095.138a8.993 8.993 0 0 0-.166.232c-.073.101-.145.203-.218.297-.029.043-.058.087-.094.13l.007-.021Z"/><path fill="#6386B3" d="M294.633 172.608c-.203.269-.421.552-.646.863.385.211.827.45 1.298.704.602.326 1.219.667 1.734.943-.015-.015-.029-.037-.044-.051-.022-.029-.043-.051-.065-.08-.022-.022-.036-.043-.058-.065-.022-.022-.044-.051-.065-.073-.022-.022-.037-.043-.058-.065-.022-.022-.044-.051-.066-.073-.021-.021-.036-.043-.051-.058-.021-.021-.043-.05-.065-.072a.33.33 0 0 0-.051-.058c-.021-.022-.043-.044-.065-.073-.014-.021-.036-.036-.051-.058l-.065-.065c-.014-.022-.036-.036-.051-.051l-.065-.065-.051-.051-.065-.065-.051-.051-.065-.065a1.805 1.805 0 0 1-.043-.044l-.066-.065-.043-.043a4.015 4.015 0 0 1-.065-.066c-.015-.014-.029-.021-.037-.036l-.079-.08-.03-.029c-.036-.036-.072-.072-.108-.101l-.015-.015-.196-.195c-.014-.008-.021-.022-.036-.029l-.188-.189-.037-.036c-.065-.066-.123-.124-.181-.189l-.029-.029c-.058-.065-.123-.13-.181-.196v-.029Z"/><path fill="#000" d="M288.686 183.544a.714.714 0 0 1-.175-.116c-.079-.058-.137-.167-.195-.312a1.991 1.991 0 0 1-.08-.623c.007-.232.014-.406.014-.537 0-.13-.021-.196-.087-.196-.065 0-.174.058-.348.174-.174.116-.37.276-.587.472-.218.196-.443.42-.675.66-.079.087-.152.159-.224.232a.543.543 0 0 1-.211.137c-.065.022-.145 0-.239-.072l-.123-.102a.227.227 0 0 1-.066-.123.35.35 0 0 1 .015-.145l.261-.754c.123-.276.203-.471.254-.602.043-.123.065-.203.065-.239 0-.037-.014-.051-.036-.037a.982.982 0 0 0-.276.109.628.628 0 0 0-.239.189c-.029 0-.08.036-.138.101a1.28 1.28 0 0 1-.232.196c-.051.094-.159.21-.312.355-.159.145-.312.291-.464.443a1.998 1.998 0 0 0-.29.312c-.094.123-.174.232-.239.319-.065.094-.109.138-.131.138a.485.485 0 0 1-.268-.08.44.44 0 0 1-.174-.261c-.058-.131-.058-.312 0-.544.058-.232.13-.537.203-.907.029-.116.051-.196.058-.254.007-.05.022-.108.036-.166.022-.058.051-.145.102-.269.051-.123.13-.304.232-.551.051-.145.087-.254.094-.326.015-.073.015-.123.015-.152 0-.073.021-.138.065-.196a.385.385 0 0 1 .152-.116.29.29 0 0 1 .174-.015c.087.015.16.058.225.124a.437.437 0 0 1 .109.282.668.668 0 0 1-.022.247c-.022.072-.044.138-.065.203l-.124.312c-.036.087-.087.203-.145.362-.058.16-.116.305-.159.443-.044.13-.065.21-.065.232.007.022.036.014.079-.015.044-.036.102-.087.174-.152.073-.065.145-.13.225-.189.16-.152.341-.297.544-.442.203-.138.392-.261.58-.362.182-.102.327-.167.421-.196.13 0 .217.021.268.065.051.044.138.131.254.254a.33.33 0 0 1 .094.203.84.84 0 0 1-.014.239c-.007.029-.029.102-.065.225-.037.116-.095.283-.16.5.174-.152.319-.275.421-.362.108-.087.188-.153.239-.203.297-.232.558-.37.776-.435.217-.058.399.021.537.239a.404.404 0 0 1 .145.275v.515c.007.102.014.218.021.356.008.138.015.261.029.37.015.108.022.174.037.203a.215.215 0 0 0 .13.072c.065.022.152.036.254.051.116.014.181.065.203.145.022.087-.029.167-.145.239a.676.676 0 0 1-.377.095 1.3 1.3 0 0 1-.363-.066l.008.029Z"/></g><defs><clipPath id="a"><path fill="#fff" d="M0 12C0 5.373 5.373 0 12 0h326c6.627 0 12 5.373 12 12v206c0 6.627-5.373 12-12 12H12c-6.627 0-12-5.373-12-12V12Z"/></clipPath></defs></svg>