<svg xmlns="http://www.w3.org/2000/svg" width="350" height="204" fill="none"><g clip-path="url(#a)"><path fill="#F9F9FB" d="M-16-.358h506v204.717H-16z"/><g clip-path="url(#b)"><path stroke="#ABB0BF" stroke-miterlimit="10" stroke-width=".227" d="M283.094 13.059h3.65m-1.831 1.821v-3.65m-1.819 15.515h3.65m-1.831 1.827v-3.65m-1.819 15.516h3.65m-1.831 1.822v-3.65m-1.819 15.52h3.65m-1.831 1.82V52.3m-1.819 15.515h3.65m-1.831 1.831v-3.65m-1.819 15.512h3.65m-1.831 1.822v-3.65m-1.819 15.514h3.65m-1.832 1.831v-3.65m-1.818 15.514h3.65m-1.832 1.829v-3.651m-1.818 15.515h3.65m-1.832 1.823v-3.65m-1.818 15.514h3.65m-1.832 1.828v-3.65m-1.818 15.516h3.65m-1.832 1.827v-3.65m-1.818 15.513h3.65m-1.832 1.823v-3.65m-1.818 15.514h3.65m-1.832 1.83v-3.65m-1.818 15.513h3.65m-1.831 1.83v-3.65m-29.21-176.154h3.657m-1.829 1.82v-3.65m-1.828 15.516h3.657m-1.829 1.827v-3.65m11.864-11.863h3.65m-1.815 1.82v-3.65m-1.834 15.516h3.65m-1.816 1.827v-3.65m-15.525 15.516h3.657m-1.831 1.822v-3.65m-1.826 15.52h3.657m-1.831 1.82V52.3m11.865-11.862h3.65m-1.816 1.822v-3.65m-1.834 15.52h3.65m-1.816 1.82V52.3m-15.527 15.515h3.657m-1.829 1.831v-3.65m-1.828 15.512h3.657m-1.829 1.822v-3.65m11.864-11.865h3.65m-1.815 1.831v-3.65m-1.834 15.512h3.65m-1.816 1.822v-3.65m-15.527 15.514h3.657m-1.829 1.829v-3.65m-1.827 15.516h3.657m-1.83 1.829v-3.651m11.864-11.873h3.65m-1.816 1.829v-3.65m-1.834 15.516h3.65m-1.816 1.828v-3.651m-15.525 15.516h3.657m-1.83 1.822v-3.65m-1.828 15.515h3.657m-1.829 1.828v-3.65m11.864-11.865h3.65m-1.816 1.822v-3.65m-1.835 15.515h3.65m-1.815 1.828v-3.65m-15.526 15.516h3.657m-1.829 1.827v-3.65m-1.828 15.516h3.657m-1.829 1.82v-3.65m11.864-11.863h3.65m-1.816 1.827v-3.65m-1.835 15.513h3.65m-1.815 1.824v-3.65m-15.524 15.513h3.657m-1.831 1.829v-3.65m-1.826 15.514h3.657m-1.831 1.829v-3.65m11.864-11.872h3.65m-1.816 1.828v-3.65m-1.835 15.515h3.65m-1.814 1.829v-3.65M228.331 13.059h3.65m-1.825 1.82v-3.65m-1.825 15.516h3.65m-1.825 1.827v-3.65m11.865-11.863h3.65m-1.832 1.82v-3.65m-1.818 15.516h3.65m-1.832 1.827v-3.65m-15.508 15.516h3.65m-1.825 1.822v-3.65m-1.825 15.52h3.65m-1.825 1.822v-3.65m11.865-11.864h3.65m-1.832 1.822v-3.65m-1.818 15.519h3.65m-1.832 1.823v-3.65m-15.508 15.514h3.65m-1.825 1.829v-3.65m-1.825 15.513h3.65m-1.825 1.822v-3.65m11.865-11.865h3.65m-1.832 1.83v-3.65m-1.818 15.513h3.65m-1.832 1.822v-3.65m-15.508 15.515h3.65m-1.825 1.827v-3.65m-1.825 15.517h3.65m-1.825 1.828v-3.651m11.865-11.872h3.65m-1.832 1.828v-3.65m-1.818 15.517h3.65m-1.832 1.828v-3.651m-15.509 15.516h3.65m-1.824 1.822v-3.65m-1.826 15.515h3.65m-1.824 1.828v-3.65m11.865-11.865h3.65m-1.832 1.822v-3.65m-1.818 15.515h3.65m-1.832 1.828v-3.65m-15.508 15.516h3.65m-1.825 1.827v-3.65m-1.825 15.513h3.65m-1.825 1.823v-3.65m11.865-11.863h3.65m-1.832 1.827v-3.65m-1.818 15.516h3.65m-1.832 1.82v-3.65m-15.508 15.512h3.65m-1.825 1.833v-3.65m-1.825 15.512h3.65m-1.825 1.83v-3.65m11.865-11.875h3.65m-1.832 1.833v-3.65m-1.818 15.512h3.65m-1.832 1.83v-3.65M200.947 13.059h3.65m-1.832 1.82v-3.65m-1.818 15.516h3.65m-1.832 1.827v-3.65m11.865-11.863h3.656m-1.821 1.82v-3.65m-1.835 15.516h3.656m-1.821 1.827v-3.65m-15.519 15.516h3.65m-1.831 1.822v-3.65m-1.819 15.52h3.65m-1.831 1.822v-3.65m11.865-11.864h3.656m-1.821 1.822v-3.65m-1.835 15.52h3.656m-1.821 1.822v-3.65m-15.518 15.515h3.65m-1.832 1.829v-3.65m-1.818 15.514h3.65m-1.832 1.82v-3.65m11.865-11.864h3.656m-1.821 1.83v-3.65m-1.835 15.512h3.656m-1.821 1.822v-3.65m-15.518 15.515h3.65m-1.832 1.828v-3.65m-1.819 15.516h3.65m-1.831 1.828v-3.651m11.865-11.871h3.656m-1.821 1.828v-3.65m-1.835 15.516h3.656m-1.821 1.829v-3.651m-15.519 15.516h3.65m-1.831 1.821v-3.65m-1.818 15.515h3.65m-1.832 1.828v-3.65m11.865-11.865h3.656m-1.821 1.822v-3.65m-1.835 15.515h3.656m-1.821 1.828v-3.65m-15.518 15.516h3.65m-1.832 1.827v-3.65m-1.818 15.514h3.65m-1.832 1.823v-3.65m11.865-11.864h3.656m-1.821 1.827v-3.65m-1.835 15.513h3.656m-1.821 1.823v-3.65m-15.519 15.514h3.65m-1.831 1.829v-3.65m-1.818 15.515h3.65m-1.832 1.828v-3.65m11.865-11.874h3.656m-1.821 1.832v-3.65m-1.835 15.513h3.656m-1.821 1.829v-3.65M173.563 13.059h3.651m-1.822 1.82v-3.65m-1.829 15.516h3.651m-1.822 1.827v-3.65m11.865-11.863h3.65m-1.825 1.821v-3.65m-1.825 15.515h3.65m-1.825 1.827v-3.65m-15.519 15.516h3.651m-1.822 1.822v-3.65m-1.829 15.52h3.651m-1.822 1.822v-3.65m11.865-11.864h3.65m-1.825 1.821v-3.65m-1.825 15.521h3.65m-1.825 1.822v-3.65m-15.519 15.514h3.651m-1.822 1.83v-3.65m-1.829 15.512h3.651m-1.822 1.822v-3.65m11.865-11.864h3.65m-1.825 1.829v-3.65m-1.825 15.513h3.65m-1.825 1.822v-3.65m-15.519 15.515h3.651m-1.822 1.827v-3.65m-1.829 15.517h3.651m-1.822 1.828v-3.651m11.865-11.871h3.65m-1.825 1.83v-3.65m-1.825 15.514h3.65m-1.825 1.829v-3.651m-15.519 15.515h3.651m-1.822 1.822v-3.65m-1.829 15.515h3.651m-1.822 1.828v-3.65m11.865-11.865h3.65m-1.825 1.824v-3.65m-1.825 15.513h3.65m-1.825 1.828v-3.65m-15.519 15.516h3.651m-1.822 1.827v-3.65m-1.829 15.513h3.651m-1.822 1.824v-3.65m11.865-11.864h3.65m-1.825 1.827v-3.65m-1.825 15.513h3.65m-1.825 1.823v-3.65m-15.519 15.512h3.651m-1.822 1.831v-3.65m-1.829 15.514h3.651m-1.822 1.829v-3.65m11.865-11.871h3.65m-1.825 1.829v-3.65m-1.825 15.513h3.65m-1.825 1.83v-3.65M146.183 13.059h3.65m-1.826 1.821v-3.65m-1.824 15.515h3.65m-1.826 1.829v-3.65m11.866-11.865h3.65m-1.832 1.82v-3.65m-1.819 15.516h3.65m-1.831 1.827v-3.65m-15.508 15.516h3.65m-1.826 1.822v-3.65m-1.823 15.52h3.65m-1.826 1.822v-3.65m11.864-11.864h3.65m-1.831 1.822v-3.65m-1.819 15.52h3.65m-1.831 1.822v-3.65m-15.507 15.514h3.65m-1.826 1.829v-3.65m-1.824 15.514h3.65m-1.826 1.821v-3.65m11.864-11.863h3.65m-1.831 1.829v-3.65m-1.819 15.514h3.65m-1.831 1.82v-3.65m-15.507 15.515h3.65m-1.826 1.828v-3.65m-1.824 15.516h3.65m-1.826 1.829v-3.651m11.864-11.872h3.65m-1.831 1.827v-3.65m-1.818 15.517h3.65m-1.832 1.829v-3.651m-15.507 15.515h3.65m-1.826 1.823v-3.65m-1.824 15.514h3.65m-1.826 1.828v-3.65m11.864-11.865h3.65m-1.831 1.822v-3.65m-1.819 15.515h3.65m-1.831 1.828v-3.65m-15.507 15.516h3.65m-1.827 1.827v-3.65m-1.824 15.514h3.65m-1.826 1.823v-3.65m11.866-11.864h3.65m-1.832 1.827v-3.65m-1.819 15.514h3.65m-1.831 1.823v-3.65m-15.507 15.512h3.65m-1.827 1.831v-3.65m-1.824 15.513h3.65m-1.826 1.83v-3.65m11.865-11.874h3.65m-1.831 1.831v-3.65m-1.819 15.514h3.65m-1.831 1.828v-3.65M118.799 13.059h3.65m-1.82 1.82v-3.65m-1.83 15.516h3.65m-1.821 1.827v-3.65m11.864-11.863h3.65m-1.824 1.82v-3.65m-1.826 15.516h3.65m-1.824 1.827v-3.65M118.8 40.438h3.65m-1.821 1.822v-3.65M118.8 54.129h3.65m-1.822 1.821V52.3m11.864-11.862h3.65m-1.824 1.822v-3.65m-1.826 15.52h3.65m-1.824 1.82V52.3m-15.519 15.515h3.65m-1.821 1.831v-3.65m-1.829 15.513h3.65m-1.821 1.821v-3.65m11.864-11.864h3.65m-1.824 1.829v-3.65m-1.826 15.513h3.65m-1.824 1.822v-3.65M118.8 95.194h3.65m-1.822 1.829v-3.65m-1.829 15.516h3.65m-1.82 1.829v-3.651m11.863-11.872h3.65m-1.824 1.828v-3.65m-1.826 15.516h3.65m-1.824 1.828v-3.651m-15.519 15.516h3.65m-1.821 1.822v-3.65m-1.828 15.515h3.65m-1.821 1.828v-3.65m11.863-11.865h3.65m-1.824 1.822v-3.65m-1.826 15.515h3.65m-1.824 1.828v-3.65m-15.519 15.516h3.65m-1.821 1.827v-3.65m-1.829 15.514h3.65m-1.82 1.823v-3.65m11.863-11.864h3.65m-1.824 1.827v-3.65m-1.826 15.513h3.65m-1.824 1.824v-3.65M118.8 177.339h3.65m-1.822 1.831v-3.65m-1.828 15.513h3.65m-1.822 1.829v-3.65m11.864-11.874h3.65m-1.824 1.832v-3.65m-1.826 15.513h3.65m-1.824 1.83v-3.65M91.425 13.059h3.65m-1.83 1.821v-3.65m-1.82 15.515h3.65m-1.83 1.829v-3.65m11.864-11.865h3.651m-1.824 1.82v-3.65m-1.827 15.516h3.651m-1.825 1.827v-3.65m-15.51 15.516h3.65m-1.83 1.822v-3.65m-1.82 15.52h3.65m-1.83 1.82V52.3m11.864-11.862h3.651m-1.825 1.822v-3.65m-1.826 15.52h3.651m-1.824 1.82V52.3M91.425 67.815h3.65m-1.83 1.83v-3.65m-1.82 15.513h3.65m-1.83 1.822v-3.65m11.864-11.864h3.651m-1.824 1.829v-3.65m-1.827 15.514h3.651m-1.825 1.821v-3.65m-15.51 15.514h3.65m-1.83 1.829v-3.65m-1.82 15.516h3.65m-1.83 1.829v-3.651m11.864-11.873h3.651m-1.825 1.828v-3.65m-1.826 15.517h3.651m-1.824 1.829v-3.651m-15.511 15.515h3.65m-1.83 1.824v-3.65m-1.82 15.513h3.65m-1.83 1.829v-3.65m11.864-11.866h3.651m-1.825 1.822v-3.65m-1.826 15.515h3.651m-1.825 1.828v-3.65m-15.51 15.516h3.65m-1.83 1.827v-3.65m-1.82 15.513h3.65m-1.83 1.824v-3.65m11.864-11.864h3.651m-1.824 1.827v-3.65m-1.827 15.513h3.651m-1.825 1.824v-3.65m-15.51 15.513h3.65m-1.83 1.829v-3.65m-1.82 15.514h3.65m-1.83 1.83v-3.65m11.864-11.873h3.651m-1.825 1.831v-3.65m-1.826 15.513h3.651m-1.825 1.829v-3.65M64.037 13.059h3.65m-1.825 1.82v-3.65m-1.824 15.516h3.65m-1.826 1.827v-3.65m11.864-11.863h3.65m-1.82 1.82v-3.65m-1.83 15.516h3.65m-1.819 1.827v-3.65m-15.52 15.516h3.65m-1.825 1.822v-3.65m-1.824 15.52h3.65m-1.826 1.82V52.3m11.864-11.862h3.65m-1.82 1.822v-3.65m-1.83 15.52h3.65m-1.819 1.82V52.3M64.038 67.816h3.65m-1.826 1.83v-3.65M64.037 81.51h3.65m-1.825 1.82v-3.65m11.864-11.865h3.65m-1.819 1.831v-3.65m-1.831 15.512h3.65m-1.819 1.822v-3.65M64.038 95.194h3.65m-1.827 1.829v-3.65m-1.825 15.516h3.65m-1.825 1.828v-3.651m11.865-11.872h3.65m-1.82 1.828v-3.65m-1.83 15.517h3.65m-1.821 1.829v-3.651m-15.517 15.515h3.65m-1.827 1.822v-3.65m-1.823 15.515h3.65m-1.827 1.828v-3.65m11.865-11.865h3.65m-1.82 1.822v-3.65m-1.83 15.515h3.65m-1.82 1.828v-3.65m-15.52 15.516h3.65m-1.825 1.827v-3.65m-1.823 15.513h3.65m-1.827 1.824v-3.65m11.865-11.864h3.65m-1.82 1.827v-3.65m-1.83 15.513h3.65m-1.82 1.824v-3.65m-15.518 15.512h3.65m-1.827 1.829v-3.65m-1.825 15.516h3.65m-1.824 1.828v-3.65m11.864-11.874h3.65m-1.82 1.831v-3.65m-1.83 15.514h3.65m-1.819 1.829v-3.65M36.654 13.059h3.65m-1.814 1.82v-3.65m-1.836 15.516h3.65m-1.814 1.827v-3.65m11.863-11.863h3.65m-1.83 1.821v-3.65m-1.82 15.515h3.65m-1.83 1.829v-3.65M36.654 40.438h3.65M38.49 42.26v-3.65m-1.836 15.52h3.65m-1.814 1.82V52.3m11.863-11.862h3.65m-1.83 1.821v-3.65m-1.82 15.521h3.65m-1.83 1.82V52.3M36.654 67.815h3.65m-1.814 1.831v-3.65m-1.836 15.512h3.65M38.49 83.33v-3.65m11.863-11.865h3.65m-1.83 1.83v-3.65m-1.82 15.513h3.65m-1.83 1.822v-3.65M36.654 95.194h3.65m-1.816 1.828v-3.65m-1.835 15.517h3.65m-1.815 1.829v-3.651m11.865-11.873h3.65m-1.83 1.831v-3.65m-1.82 15.514h3.65m-1.83 1.829v-3.651m-15.52 15.515h3.65m-1.815 1.822v-3.65m-1.835 15.515h3.65m-1.813 1.828v-3.65m11.863-11.865h3.65m-1.83 1.824v-3.65m-1.82 15.513h3.65m-1.83 1.829v-3.65m-15.52 15.515h3.65m-1.815 1.827v-3.65m-1.835 15.513h3.65m-1.815 1.824v-3.65m11.865-11.864h3.65m-1.83 1.827v-3.65m-1.82 15.513h3.65m-1.83 1.824v-3.65m-15.52 15.513h3.65m-1.815 1.829v-3.65m-1.835 15.514h3.65m-1.813 1.829v-3.65m11.863-11.874h3.65m-1.83 1.831v-3.65m-1.82 15.514h3.65m-1.83 1.83v-3.65M9.28 13.059h3.65m-1.831 1.82v-3.65M9.28 26.745h3.65m-1.831 1.827v-3.65m11.865-11.863h3.65m-1.824 1.82v-3.65m-1.826 15.516h3.65m-1.824 1.827v-3.65M9.28 40.438h3.65m-1.831 1.822v-3.65M9.28 54.129h3.65m-1.831 1.823v-3.65m11.866-11.864h3.65M24.79 42.26v-3.65m-1.825 15.52h3.65m-1.825 1.82V52.3M9.28 67.815h3.65m-1.831 1.83v-3.65M9.28 81.509h3.65m-1.831 1.821v-3.65m11.865-11.865h3.65m-1.824 1.831v-3.65m-1.826 15.513h3.65M24.79 83.33v-3.65M9.28 95.194h3.65m-1.831 1.828v-3.65M9.28 108.889h3.65m-1.831 1.829v-3.651m11.866-11.873h3.65m-1.825 1.828v-3.65m-1.826 15.517h3.65m-1.824 1.828v-3.651M9.28 122.582h3.65m-1.831 1.822v-3.65M9.28 136.269h3.65m-1.831 1.828v-3.65m11.865-11.865h3.65m-1.824 1.822v-3.65m-1.825 15.515h3.65m-1.825 1.828v-3.65M9.28 149.963h3.65m-1.831 1.827v-3.65M9.28 163.654h3.65m-1.831 1.822v-3.65m11.865-11.863h3.65m-1.824 1.827v-3.65m-1.826 15.514h3.65m-1.824 1.823v-3.65M9.28 177.339h3.65m-1.831 1.832v-3.65M9.28 191.033h3.65m-1.831 1.83v-3.65m11.866-11.873h3.65m-1.825 1.828v-3.65m-1.825 15.515h3.65m-1.825 1.829v-3.65M337.85 13.059h3.65m-1.825 1.82v-3.65m-1.825 15.516h3.65m-1.825 1.827v-3.65m-1.825 15.516h3.65m-1.825 1.822v-3.65m-1.825 15.52h3.65m-1.825 1.82V52.3m-1.825 15.516h3.65m-1.825 1.829v-3.65m-1.825 15.514h3.65m-1.825 1.821v-3.65m-1.825 15.514h3.65m-1.825 1.829v-3.65m-1.825 15.516h3.65m-1.825 1.828v-3.651m-1.825 15.516h3.65m-1.825 1.822v-3.65m-1.825 15.515h3.65m-1.825 1.828v-3.65m-1.825 15.516h3.65m-1.825 1.827v-3.65m-1.825 15.514h3.65m-1.825 1.823v-3.65m-1.825 15.512h3.65m-1.825 1.831v-3.65m-1.825 15.514h3.65m-1.825 1.829v-3.65M310.467 13.059h3.65m-1.816 1.82v-3.65m-1.835 15.516h3.65m-1.815 1.827v-3.65m11.866-11.863h3.65m-1.832 1.821v-3.65m-1.818 15.515h3.65m-1.832 1.829v-3.65m-15.518 15.514h3.65m-1.816 1.822v-3.65m-1.835 15.52h3.65m-1.815 1.82V52.3m11.866-11.862h3.65m-1.832 1.822v-3.65m-1.818 15.52h3.65m-1.832 1.82V52.3m-15.518 15.515h3.65m-1.816 1.831v-3.65m-1.835 15.512h3.65m-1.815 1.822v-3.65m11.866-11.865h3.65m-1.832 1.83v-3.65m-1.818 15.513h3.65m-1.832 1.822v-3.65m-15.518 15.514h3.65m-1.816 1.829v-3.65m-1.835 15.516h3.65m-1.815 1.829v-3.651m11.866-11.873h3.65m-1.832 1.831v-3.65m-1.818 15.514h3.65m-1.831 1.829v-3.651m-15.52 15.515h3.65m-1.815 1.822v-3.65m-1.834 15.515h3.65m-1.816 1.828v-3.65m11.866-11.865h3.65m-1.832 1.823v-3.65m-1.818 15.514h3.65m-1.831 1.828v-3.65m-15.52 15.516h3.65m-1.815 1.827v-3.65m-1.834 15.513h3.65m-1.816 1.824v-3.65m11.866-11.864h3.65m-1.832 1.827v-3.65m-1.818 15.513h3.65m-1.831 1.823v-3.65m-15.52 15.514h3.65m-1.815 1.83v-3.65m-1.834 15.513h3.65m-1.816 1.829v-3.65m11.866-11.872h3.65m-1.832 1.83v-3.65m-1.818 15.513h3.65m-1.832 1.83v-3.65M296.777 13.059h3.651m-1.825 1.82v-3.65m-1.825 15.516h3.65m-1.825 1.827v-3.65m-1.826 15.516h3.651m-1.825 1.822v-3.65m-1.825 15.52h3.65m-1.825 1.82V52.3m-1.826 15.516h3.651m-1.825 1.83v-3.65m-1.825 15.513h3.65m-1.825 1.821v-3.65m-1.826 15.514h3.651m-1.825 1.831v-3.65m-1.825 15.514h3.65m-1.825 1.828v-3.651m-1.825 15.516h3.65m-1.825 1.822v-3.65m-1.826 15.515h3.651m-1.825 1.828v-3.65m-1.825 15.516h3.65m-1.825 1.827v-3.65m-1.826 15.514h3.651m-1.825 1.822v-3.65m-1.825 15.513h3.65m-1.825 1.83v-3.65m-1.826 15.515h3.651m-1.825 1.828v-3.65"/><path fill="#272B38" d="M175.391 136.269h-41.073v41.072h82.145v-41.072h-41.072Z"/><path fill="#fff" d="M152.569 156.026h-1.216v-2.433h1.216v2.433Zm0 3.65h-1.216v-1.216h1.216v1.216Zm3.65-6.083h-3.65v-1.217h3.65v1.217Zm0 3.65h-3.65v-1.217h3.65v1.217Zm0 3.65h-3.65v-1.217h3.65v1.217Zm1.217-6.084h-1.217v-1.216h1.217v1.216Zm0 4.867h-1.217v-2.433h1.217v2.433Zm2.444-3.65h-1.217v-3.65h1.217v3.65Zm2.433 1.217v3.65h-1.216v-3.65h-1.217v-1.217h3.65v1.217h-1.217Zm2.434-1.217h-1.217v-3.65h1.217v3.65Zm2.431 0h-1.217v-2.433h1.217v2.433Zm0 3.65h-1.217v-1.216h1.217v1.216Zm3.65-6.083h-3.65v-1.217h3.65v1.217Zm0 3.65h-3.65v-1.217h3.65v1.217Zm0 3.65h-3.65v-1.217h3.65v1.217Zm1.217-6.084h-1.217v-1.216h1.217v1.216Zm0 4.867h-1.217v-2.433h1.217v2.433Zm3.646-6.082h-2.433v-1.217h6.083v1.217h-2.433v7.3h-1.217v-7.3Zm6.086 6.082h4.867v1.217h-6.083v-8.517h6.083v1.217h-4.867v2.433h3.65v1.217h-3.65v2.433Zm7.3-4.867v6.084h-1.217v-8.517h1.217v1.217h1.217v1.216h-1.217Zm2.434 1.217h-1.217v-1.217h1.217v1.217Zm1.216 1.217h-1.216v-1.217h1.216v1.217Zm1.217-1.217h-1.217v-1.217h1.217v1.217Zm1.217-1.217h-1.217v-1.216h1.217v-1.217h1.216v8.517h-1.216v-6.084Z"/><path fill="#fff" stroke="#ABB0BF" stroke-miterlimit="10" stroke-width="1.22" d="M298.604 136.269h-41.073v41.072h82.145v-41.072h-41.072Z"/><path fill="#A1A5B2" d="M274.265 154.81v6.084h-1.217v-8.517h1.217v1.217h1.216v1.216h-1.216Zm2.433 1.217h-1.217v-1.217h1.217v1.217Zm1.217 1.217h-1.217v-1.217h1.217v1.217Zm1.216-1.217h-1.216v-1.217h1.216v1.217Zm1.217-1.217h-1.217v-1.216h1.217v-1.217h1.217v8.517h-1.217v-6.084Zm6.087-2.434v1.217h-1.216v6.083h1.216v1.217h-3.65v-1.217h1.217v-6.083h-1.217v-1.217h3.65Zm2.442 1.217v7.3h-1.217v-8.517h2.434v1.217h-1.217Zm2.433 2.433h-1.216v-2.433h1.216v2.433Zm1.217 2.434h-1.217v-2.434h1.217v2.434Zm1.217 0v-6.084h1.216v8.517h-1.216v-1.217h-1.217v-1.216h1.217Zm4.859-4.867h-2.433v-1.217h6.083v1.217h-2.433v7.3h-1.217v-7.3Zm6.088 6.083h4.867v1.217h-6.083v-8.517h6.083v1.217h-4.867v2.433h3.65v1.217h-3.65v2.433Zm10.951-7.3v1.217h-3.65v2.433h3.65v1.217h-1.216v1.217h-1.217v-1.217h-1.217v3.65h-1.217v-8.517h4.867Zm0 7.3h-1.216v-1.216h1.216v1.216Zm1.217-3.65h-1.217v-2.433h1.217v2.433Zm0 4.867h-1.217v-1.217h1.217v1.217Zm2.432-4.866h-1.217v-2.433h1.217v2.433Zm0 3.65h-1.217v-1.216h1.217v1.216Zm3.657-6.083h-3.651v-1.217h3.651v1.217Zm0 3.65h-3.651v-1.217h3.651v1.217Zm0 3.65h-3.651v-1.217h3.651v1.217Zm1.216-6.084h-1.216v-1.216h1.216v1.216Zm0 4.867h-1.216v-2.433h1.216v2.433Z"/><path fill="#272B38" d="M165.533 22.529h2.433v1.216h-6.083V22.53h2.433v-6.084h-2.433V15.23h3.65v7.3Zm4.865-.002h-1.216v-6.083h1.216v6.083Zm3.651-6.09h-3.651v-1.216h3.651v1.216Zm0 7.307h-3.651v-1.217h3.651v1.217Zm-1.217-3.65h-1.217v-1.217h1.217v1.217Zm2.44 2.433h-1.217v-6.083h1.217v6.083ZM298.604 54.13h-41.073v41.066h82.145V54.13h-41.072Z"/><path fill="#fff" stroke="#ABB0BF" stroke-miterlimit="10" stroke-width="1.22" d="M175.391 54.129h-41.073v41.066h82.145V54.129h-41.072Z"/><path fill="#fff" d="M276.697 72.683v6.084h-1.217V70.25h1.217v1.217h1.217v1.216h-1.217Zm2.434 1.217h-1.217v-1.217h1.217V73.9Zm1.216 1.217h-1.216V73.9h1.216v1.217Zm1.217-1.217h-1.217v-1.217h1.217V73.9Zm1.217-1.217h-1.217v-1.216h1.217V70.25h1.216v8.517h-1.216v-6.084Zm3.653 3.651v2.433h-1.216V73.9h1.216v1.217h3.651V73.9h1.216v4.867h-1.216v-2.433h-3.651Zm1.217-2.434h-1.217v-2.433h1.217V73.9Zm1.217-2.433h-1.217V70.25h1.217v1.217Zm1.217 2.433h-1.217v-2.433h1.217V73.9Zm7.308-3.65v1.217h-3.65V73.9h3.65v1.217h-1.216v1.217h-1.217v-1.217h-1.217v3.65h-1.217V70.25h4.867Zm0 7.3h-1.216v-1.216h1.216v1.216Zm1.217-3.65h-1.217v-2.433h1.217V73.9Zm0 4.867h-1.217V77.55h1.217v1.217Zm2.431-3.65v3.65h-1.217V70.25h1.217v3.65h1.217v1.217h-1.217Zm2.433-1.217h-1.216v-1.217h1.216V73.9Zm0 2.434h-1.216v-1.217h1.216v1.217Zm1.217-3.65h-1.217v-1.217h1.217v1.216Zm0 4.866h-1.217v-1.216h1.217v1.216Zm1.217-6.083h-1.217V70.25h1.217v1.217Zm0 7.3h-1.217V77.55h1.217v1.217Zm2.43-1.216h4.867v1.217h-6.084v-8.517h6.084v1.217h-4.867V73.9h3.65v1.217h-3.65v2.433Zm8.515-6.084h-2.433V70.25h6.084v1.217h-2.434v7.3h-1.217v-7.3Z"/><path fill="#A1A5B2" d="M154.696 73.901h-1.217v-2.433h1.217V73.9Zm0 3.65h-1.217v-1.216h1.217v1.216Zm3.65-6.083h-3.65V70.25h3.65v1.217Zm0 3.65h-3.65V73.9h3.65v1.217Zm0 3.656h-3.65v-1.216h3.65v1.216Zm1.224-6.09h-1.217v-1.216h1.217v1.216Zm0 4.867h-1.217v-2.433h1.217v2.433Zm2.433-1.217v2.433h-1.217V73.9h1.217v1.217h3.65V73.9h1.217v4.867h-1.217v-2.433h-3.65Zm1.217-2.434h-1.217v-2.433h1.217V73.9Zm1.216-2.433h-1.216V70.25h1.216v1.217Zm1.217 2.433h-1.217v-2.433h1.217V73.9Zm3.648 0h-1.217v-3.65h1.217v3.65Zm1.216 2.434h-1.216V73.9h1.216v2.434Zm1.217 2.44h-1.217V76.34h1.217v2.433Zm1.217-2.44h-1.217V73.9h1.217v2.434Zm1.217-2.434h-1.217v-3.65h1.217v3.65Zm2.44 3.65h4.867v1.217h-6.083V70.25h6.083v1.217h-4.867V73.9h3.65v1.217h-3.65v2.433Zm10.947-7.299v1.217h-3.65V73.9h3.65v1.217h-1.216v1.217h-1.217v-1.217h-1.217v3.65h-1.217V70.25h4.867Zm0 7.3h-1.216v-1.216h1.216v1.216Zm1.217-3.65h-1.217v-2.433h1.217V73.9Zm0 4.873h-1.217v-1.216h1.217v1.216Zm2.434-4.873h-1.217v-2.433h1.217V73.9Zm0 3.65h-1.217v-1.216h1.217v1.216Zm3.657-6.083h-3.651V70.25h3.651v1.217Zm0 3.65h-3.651V73.9h3.651v1.217Zm0 3.656h-3.651v-1.216h3.651v1.216Zm1.216-6.09h-1.216v-1.216h1.216v1.216Zm0 4.867h-1.216v-2.433h1.216v2.433Z"/><path fill="#272B38" d="M52.17 54.13H11.1v41.066h82.144V54.13H52.171Z"/><path fill="#fff" d="M24.188 70.251v1.217h-4.867V73.9h3.65v1.217h-3.65v3.65h-1.216V70.25h6.083Zm6.08 0v1.217h-3.65V73.9h3.65v1.217h-3.65v3.65h-1.217V70.25h4.867Zm1.217 3.65h-1.217v-2.433h1.217V73.9Zm2.433-.001H32.7v-2.433h1.217V73.9Zm0 3.65H32.7v-1.216h1.217v1.216Zm3.65-6.083h-3.65V70.25h3.65v1.217Zm0 3.65h-3.65V73.9h3.65v1.217Zm0 3.65h-3.65V77.55h3.65v1.217Zm1.217-6.084h-1.217v-1.216h1.217v1.216Zm0 4.867h-1.217v-2.433h1.217v2.433Zm6.085-2.433v3.65h-1.218V70.25h1.217v3.65h3.65v-3.65h1.217v8.517h-1.217v-3.65h-3.65Zm7.298 2.433H50.95v-6.083h1.217v6.083Zm3.65-6.083h-3.65V70.25h3.65v1.217Zm0 7.3h-3.65V77.55h3.65v1.217Zm1.217-1.217h-1.217v-6.083h1.217v6.083Zm1.224 1.217V70.25h1.216v7.3h4.867v1.217H58.26Zm10.956-8.516v1.217H66.78v6.083h2.434v1.217h-3.65v-8.517h3.65Zm1.216 2.433h-1.216v-1.216h1.216v1.216Zm0 4.867h-1.216v-1.216h1.216v1.216Zm1.217-1.216h-1.217v-3.65h1.217v3.65Zm2.43 1.215h4.867v1.217H72.86V70.25h6.084v1.217h-4.867V73.9h3.65v1.217h-3.65v2.433Zm10.947-7.3v1.217h-3.65V73.9h3.65v1.217h-1.217v1.217h-1.216v-1.217h-1.217v3.65h-1.217V70.25h4.867Zm0 7.3h-1.217v-1.216h1.217v1.216Zm1.217-3.65h-1.217v-2.433h1.217V73.9Zm0 4.867h-1.217V77.55h1.217v1.217Z"/><path fill="#272B38" d="M51.563 26.139v27.379h1.217v-1.223h-.006V27.349h245.223v26.774h1.21V26.14H51.564Z"/><path fill="#272B38" d="M51.57 51.08h-1.217v1.216h1.217v-1.217Zm-1.222-1.22H49.13v1.217h1.217V49.86Z"/><path fill="#272B38" d="M49.138 48.647H47.92v1.216h1.217v-1.216Zm4.864 2.433h-1.217v1.216h1.217v-1.217Zm1.213-1.22h-1.217v1.217h1.217V49.86Zm1.22-1.215H55.22v1.217h1.216v-1.217Z"/><path fill="#A1A5B2" d="M239.326 72.079h-4.866v-1.217h6.083v3.65h-1.217V72.08Zm-3.656 7.3h-1.217v-1.216h1.217v1.216Zm1.223-1.216h-1.217v-1.217h1.217v1.217Zm1.217-1.217h-1.217v-1.217h1.217v1.217Zm1.216-1.217h-1.216v-1.216h1.216v1.216Zm18.204-7.308v-1.21h-40.473v1.217h1.216v-.007h39.257Z"/><path fill="#A1A5B2" d="M219.494 65.995h-1.217v1.217h1.217v-1.217Zm1.213-1.217h-1.217v1.217h1.217v-1.217Zm1.22-1.218h-1.217v1.216h1.217V63.56Zm-2.433 4.869h-1.217v1.216h1.217V68.43Z"/><path fill="#A1A5B2" d="M220.706 69.643h-1.217v1.216h1.217v-1.216Zm1.221 1.22h-1.217v1.217h1.217v-1.217Zm85.876 47.954h-3.65v1.217h3.65v-1.217Zm1.22-2.433h-1.216v2.433h1.216v-2.433Zm-4.863 1.216h-1.217v1.216h1.217V117.6Zm0-4.873h-1.217v1.216h1.217v-1.216Zm3.649 2.431h-2.433v1.217h2.433v-1.217Z"/><path fill="#A1A5B2" d="M309.023 112.727h-1.216v2.433h1.216v-2.433Zm-1.22-1.219h-3.65v1.217h3.65v-1.217Zm-7.37-14.495h-1.217v1.216h1.217v-1.216Zm1.223 1.217h-1.217v1.216h1.217V98.23Zm1.21 1.221h-1.217v1.217h1.217v-1.217Z"/><path fill="#A1A5B2" d="M298.005 95.794v40.473h1.21V97.011h.007v-1.217h-1.217Zm-.011 1.219h-1.217v1.216h1.217v-1.216Z"/><path fill="#A1A5B2" d="M296.781 98.228h-1.217v1.217h1.217V98.23Zm-1.219 1.224h-1.216v1.217h1.216v-1.217Z"/><path fill="#ABB0BF" d="M380.751 82.117v-1.21H341.52V80.9h-1.223v1.217h40.454Zm-1.813-13.688h1.217v-1.217h-40.48v1.21h39.263v.007ZM342.732 79.68h-1.216v1.216h1.216V79.68Zm1.218-1.214h-1.217v1.217h1.217v-1.217Zm1.224-1.218h-1.217v1.217h1.217v-1.217Z"/><path fill="#ABB0BF" d="M342.732 82.114h-1.216v1.217h1.216v-1.217Zm1.218 1.216h-1.217v1.217h1.217V83.33Zm1.224 1.218h-1.217v1.217h1.217v-1.217ZM238.135 174.3h2.434v1.217h-6.084V174.3h2.434v-6.083h-2.434V167h3.65v7.3Zm-2.844-33.596h-1.217v-1.217h1.217v1.217Zm1.223 4.867h3.65v1.217h-6.083v-1.217h1.216v-1.217h1.217v1.217Zm2.434-6.084h-3.651v-1.216h3.651v1.216Zm-1.217 4.867h-1.217v-1.217h1.217v1.217Zm1.217-1.217h-1.217v-1.216h1.217v1.216Zm1.216-1.216h-1.216v-2.434h1.216v2.434Zm-21.82 7.434h-1.217v1.211h40.403v-1.211h-39.186Zm1.223-1.222h-1.216v1.217h1.216v-1.217Zm1.211-1.217h-1.216v1.217h1.216v-1.217ZM222 145.7h-1.217v1.217H222V145.7Zm-2.433 4.867h-1.216v1.217h1.216v-1.217Zm1.211 1.223h-1.216v1.217h1.216v-1.217Zm1.222 1.216h-1.217v1.217H222v-1.217Zm33.649 11.256h-1.216v1.216h1.216v-1.216Zm-1.219 1.214h-1.217v1.216h1.217v-1.216Zm-1.213 1.217H252v1.217h1.217v-1.217Zm2.434-3.652h-39.186v1.217h40.403v-1.217h-1.217Z"/><path fill="#ABB0BF" d="M255.649 161.827h-1.216v1.217h1.216v-1.217Zm-1.219-1.22h-1.217v1.217h1.217v-1.217Z"/><path fill="#ABB0BF" d="M253.217 159.395H252v1.216h1.217v-1.216Z"/><path fill="#A1A5B2" d="M195.581 115.158h-1.217v-2.433h1.217v2.433Zm0 3.657h-1.217v-2.434h1.217v2.434Zm3.65-6.09h-3.65v-1.217h3.65v1.217Zm0 3.656h-3.65v-1.217h3.65v1.217Zm0 3.65h-3.65v-1.216h3.65v1.216Zm1.217-4.873h-1.217v-2.433h1.217v2.433Zm0 3.657h-1.217v-2.434h1.217v2.434Zm-32.71-3.657h-1.217v-2.433h1.217v2.433Zm0 3.657h-1.217v-1.217h1.217v1.217Zm3.65-6.09h-3.65v-1.217h3.65v1.217Zm0 3.656h-3.65v-1.217h3.65v-2.433h1.217v6.084h-1.217v-2.434Zm0 3.65h-3.65v-1.216h3.65v1.216Zm-7.865-23.019h-1.216v1.216h1.216v-1.216Zm1.222 1.216h-1.217v1.217h1.217V98.23Z"/><path fill="#A1A5B2" d="M165.956 99.443h-1.217v1.217h1.217v-1.217Zm-4.862-3.649v40.473h1.216V95.794h-1.216Zm-.005 1.219h-1.217v1.216h1.217v-1.216Zm-1.209 1.217h-1.217v1.216h1.217V98.23Zm-1.224 1.214h-1.217v1.217h1.217v-1.217Zm31.041-3.65h-1.223v37.834h-1.217v1.217h1.217v1.216h1.216v-1.216h1.217v-1.217h-1.21V95.794Zm-2.444 36.618h-1.217v1.217h1.217v-1.217Z"/><path fill="#A1A5B2" d="M186.039 131.198h-1.217v1.217h1.217v-1.217Zm6.078 1.214H190.9v1.217h1.217v-1.217Zm1.223-1.214h-1.217v1.217h1.217v-1.217Z"/><path fill="#272B38" d="M83.372 145.829h2.433v1.216h-6.083v-1.216h2.433v-6.084h-2.433v-1.217h3.65v7.301Zm7.308 0h2.433v1.216h-6.084v-1.216h2.434v-6.084h-2.434v-1.217h3.65v7.301Zm-7.308 28.731h2.433v1.217h-6.083v-1.217h2.433v-6.084h-2.433v-1.216h3.65v7.3Zm4.874-4.873h-1.217v-1.216h1.217v1.216Zm1.217 4.874h3.65v1.216h-6.084v-1.216h1.217v-1.217h1.217v1.217Zm2.433-6.09h-3.65v-1.217h3.65v1.217Zm-1.216 4.873h-1.217v-1.217h1.217v1.217Zm1.216-1.223H90.68v-1.217h1.216v1.217Zm1.217-1.217h-1.217v-2.433h1.217v2.433Z"/><path fill="#272B38" d="M39.09 97.005v-1.217h-1.216v68.471h95.509v-1.21H39.091V97.005Zm93.339 53.57h-1.217v1.217h1.217v-1.217Z"/><path fill="#272B38" d="M131.219 151.79h-1.217v1.217h1.217v-1.217Zm-1.223 1.216h-1.217v1.217h1.217v-1.217Zm2.431-3.65H52.774v-54.18h-1.21v55.39h80.863v.007h1.217v-1.217h-1.217Z"/><path fill="#272B38" d="M132.429 148.14h-1.217v1.216h1.217v-1.216Z"/><path fill="#272B38" d="M131.219 146.923h-1.217v1.217h1.217v-1.217Zm-1.223-1.223h-1.217v1.217h1.217V145.7ZM40.309 97.006h-1.217v1.217h1.217v-1.217Zm1.216 1.216H40.31v1.216h1.216v-1.216Zm1.221 1.216h-1.217v1.216h1.217v-1.216Zm-4.875-2.432h-1.217v1.217h1.217v-1.217Z"/><path fill="#272B38" d="M36.657 98.222H35.44v1.216h1.217v-1.216Zm-1.22 1.216h-1.216v1.216h1.216v-1.216Z"/></g></g><defs><clipPath id="a"><path fill="#fff" d="M0 12C0 5.373 5.373 0 12 0h326c6.627 0 12 5.373 12 12v180c0 6.627-5.373 12-12 12H12c-6.627 0-12-5.373-12-12V12Z"/></clipPath><clipPath id="b"><path fill="#fff" d="M-4.411 11.229h482.824V192.86H-4.411z"/></clipPath></defs></svg>