<svg width="302" height="34" viewBox="0 0 302 34" fill="none" xmlns="http://www.w3.org/2000/svg">
<path d="M34 15.8505C34 13.7134 34 12.6449 33.3361 11.981C32.6722 11.3171 31.6037 11.3171 29.4667 11.3171H27.2162C25.0792 11.3171 24.0106 11.3171 23.3468 10.6533C22.6829 9.98936 22.6829 8.92084 22.6829 6.78381V4.53333C22.6829 2.3963 22.6829 1.32778 22.019 0.663891C21.3551 0 20.2866 0 18.1495 0H15.8505C13.7134 0 12.6449 0 11.981 0.663891C11.3171 1.32778 11.3171 2.3963 11.3171 4.53333V6.78381C11.3171 8.92084 11.3171 9.98936 10.6533 10.6533C9.98936 11.3171 8.92084 11.3171 6.78381 11.3171H4.53333C2.3963 11.3171 1.32778 11.3171 0.663891 11.981C0 12.6449 0 13.7134 0 15.8505V18.1495C0 20.2866 0 21.3551 0.663891 22.019C1.32778 22.6829 2.3963 22.6829 4.53333 22.6829H6.78381C8.92084 22.6829 9.98936 22.6829 10.6533 23.3467C11.3171 24.0106 11.3171 25.0792 11.3171 27.2162V29.4667C11.3171 31.6037 11.3171 32.6722 11.981 33.3361C12.6449 34 13.7134 34 15.8505 34H18.1495C20.2866 34 21.3551 34 22.019 33.3361C22.6829 32.6722 22.6829 31.6037 22.6829 29.4667V27.2162C22.6829 25.0792 22.6829 24.0106 23.3468 23.3467C24.0106 22.6829 25.0792 22.6829 27.2162 22.6829H29.4667C31.6037 22.6829 32.6722 22.6829 33.3361 22.019C34 21.3551 34 20.2866 34 18.1495V15.8505ZM18.101 11.3657C20.238 11.3657 21.3065 11.3657 21.9704 12.0296C22.6343 12.6935 22.6343 13.762 22.6343 15.899V18.101C22.6343 20.238 22.6343 21.3065 21.9704 21.9704C21.3065 22.6343 20.238 22.6343 18.101 22.6343H15.899C13.762 22.6343 12.6935 22.6343 12.0296 21.9704C11.3657 21.3065 11.3657 20.238 11.3657 18.101V15.899C11.3657 13.762 11.3657 12.6935 12.0296 12.0296C12.6935 11.3657 13.762 11.3657 15.899 11.3657H18.101Z" fill="#E95353"/>
<path d="M49.8392 11.5537V15.4168H57.5923V19.2575H49.8392V25.2807H44.8691V7.71306H58.6454V11.5537H49.8392Z" fill="white"/>
<path d="M66.9408 11.9168C67.7205 11.6075 68.6079 11.4507 69.6118 11.4507V15.744C69.1771 15.6947 68.8185 15.6678 68.5317 15.6678C67.5099 15.6678 66.7122 15.9457 66.1341 16.4969C65.556 17.0481 65.2691 17.8951 65.2691 19.0334V25.2807H60.5008V11.6792H65.0451V13.3105C65.5291 12.6921 66.161 12.226 66.9408 11.9168Z" fill="white"/>
<path d="M82.438 12.9968C83.6256 14.0276 84.2216 15.6051 84.2216 17.7293V25.2852H79.7804V23.5284C79.0947 24.8505 77.7547 25.5093 75.7649 25.5093C74.7118 25.5093 73.7975 25.3255 73.0312 24.9581C72.2604 24.5906 71.6822 24.0931 71.2879 23.4657C70.8935 22.8383 70.6963 22.1212 70.6963 21.319C70.6963 20.0328 71.1893 19.0334 72.1752 18.3209C73.1611 17.6083 74.6849 17.2543 76.7419 17.2543H79.4532C79.3681 15.8157 78.409 15.0942 76.5671 15.0942C75.9128 15.0942 75.254 15.1972 74.5863 15.4079C73.9185 15.6185 73.3494 15.9053 72.8788 16.2728L71.2744 13.0371C72.0273 12.5352 72.9416 12.1453 74.0216 11.8719C75.1017 11.5941 76.1862 11.4596 77.2707 11.4596C79.5294 11.4596 81.2503 11.975 82.4424 13.0013L82.438 12.9968ZM78.548 22.0943C78.9648 21.8255 79.265 21.4356 79.4532 20.9157V19.7371H77.3962C76.0069 19.7371 75.3123 20.1987 75.3123 21.1174C75.3123 21.5342 75.4691 21.8703 75.7873 22.1212C76.1055 22.3722 76.5402 22.4977 77.0915 22.4977C77.6427 22.4977 78.1267 22.3632 78.548 22.0943Z" fill="white"/>
<path d="M100.171 12.961C101.202 13.9648 101.713 15.4796 101.713 17.5052V25.2852H96.9447V18.285C96.9447 16.4297 96.2008 15.4975 94.7129 15.4975C93.8928 15.4975 93.2385 15.7664 92.741 16.2997C92.2481 16.8375 92.0016 17.6397 92.0016 18.7108V25.2852H87.2332V11.6792H91.7775V13.1581C92.3108 12.6069 92.9472 12.1856 93.6866 11.8899C94.4216 11.5986 95.2238 11.4507 96.0977 11.4507C97.7872 11.4507 99.1452 11.9526 100.176 12.9565L100.171 12.961Z" fill="white"/>
<path d="M110.873 20.5124L109.466 21.942V25.2807H104.698V6.6599H109.466V16.4207L114.333 11.6792H119.98L114.333 17.5008L120.455 25.2807H114.683L110.869 20.5124H110.873Z" fill="white"/>
<path d="M135.141 19.6878H125.255C125.456 20.3914 125.846 20.9291 126.42 21.3056C126.998 21.682 127.72 21.8703 128.589 21.8703C129.243 21.8703 129.808 21.7806 130.283 21.5924C130.758 21.4087 131.242 21.1084 131.726 20.6871L134.236 23.2954C132.914 24.7698 130.982 25.5048 128.437 25.5048C126.846 25.5048 125.452 25.2045 124.246 24.5995C123.041 23.9945 122.109 23.161 121.45 22.0899C120.791 21.0188 120.459 19.8043 120.459 18.4508C120.459 17.0974 120.782 15.9098 121.427 14.8477C122.073 13.7856 122.96 12.952 124.098 12.3515C125.237 11.7509 126.514 11.4462 127.939 11.4462C129.364 11.4462 130.525 11.7285 131.627 12.2887C132.73 12.8489 133.608 13.6601 134.249 14.7222C134.894 15.7843 135.217 17.0436 135.217 18.5001C135.217 18.536 135.19 18.9259 135.141 19.6788V19.6878ZM126.12 15.4706C125.627 15.8874 125.313 16.4566 125.178 17.1781H130.749C130.615 16.461 130.301 15.8919 129.808 15.4706C129.315 15.0538 128.701 14.8432 127.962 14.8432C127.222 14.8432 126.613 15.0538 126.115 15.4706H126.12Z" fill="white"/>
<path d="M150.365 12.961C151.396 13.9648 151.906 15.4796 151.906 17.5052V25.2852H147.138V18.285C147.138 16.4297 146.394 15.4975 144.906 15.4975C144.086 15.4975 143.432 15.7664 142.934 16.2997C142.441 16.8375 142.195 17.6397 142.195 18.7108V25.2852H137.427V11.6792H141.971V13.1581C142.504 12.6069 143.141 12.1856 143.88 11.8899C144.615 11.5986 145.417 11.4507 146.291 11.4507C147.981 11.4507 149.338 11.9526 150.369 12.9565L150.365 12.961Z" fill="white"/>
<path d="M158.006 24.604C156.818 24.0035 155.895 23.1654 155.232 22.0943C154.573 21.0233 154.241 19.8088 154.241 18.4553C154.241 17.1019 154.573 15.8919 155.232 14.8298C155.891 13.7676 156.818 12.9385 158.006 12.347C159.193 11.7554 160.542 11.4552 162.048 11.4552C163.554 11.4552 164.916 11.7868 166.037 12.4456C167.157 13.1088 167.95 14.0231 168.421 15.1928L164.733 17.075C164.114 15.856 163.209 15.2421 162.021 15.2421C161.17 15.2421 160.462 15.5289 159.901 16.0936C159.341 16.6627 159.059 17.447 159.059 18.4508C159.059 19.4547 159.337 20.2704 159.901 20.8485C160.462 21.4266 161.17 21.7134 162.021 21.7134C163.209 21.7134 164.114 21.1039 164.733 19.8805L168.421 21.7627C167.95 22.9324 167.157 23.8511 166.037 24.5099C164.916 25.1732 163.585 25.5003 162.048 25.5003C160.511 25.5003 159.193 25.2001 158.006 24.5951V24.604Z" fill="white"/>
<path d="M172.961 24.604C171.791 24.0035 170.872 23.1654 170.214 22.0943C169.555 21.0233 169.223 19.8088 169.223 18.4553C169.223 17.1019 169.555 15.9143 170.214 14.8432C170.872 13.7721 171.787 12.9385 172.947 12.347C174.108 11.7554 175.426 11.4552 176.9 11.4552C178.374 11.4552 179.692 11.7509 180.866 12.347C182.036 12.943 182.95 13.7676 183.6 14.8298C184.254 15.8919 184.577 17.1019 184.577 18.4553C184.577 19.8088 184.25 21.0233 183.6 22.0943C182.946 23.1654 182.036 24.0035 180.866 24.604C179.696 25.2045 178.374 25.5093 176.9 25.5093C175.426 25.5093 174.13 25.209 172.961 24.604ZM178.962 20.853C179.495 20.2748 179.764 19.4771 179.764 18.4553C179.764 17.4335 179.495 16.6672 178.962 16.098C178.424 15.5289 177.738 15.2465 176.904 15.2465C176.071 15.2465 175.381 15.5334 174.847 16.098C174.31 16.6672 174.045 17.4515 174.045 18.4553C174.045 19.4592 174.314 20.2748 174.847 20.853C175.381 21.4311 176.066 21.7179 176.904 21.7179C177.743 21.7179 178.428 21.4311 178.962 20.853Z" fill="white"/>
<path d="M187.064 9.44742C186.526 8.96341 186.262 8.3584 186.262 7.64136C186.262 6.92431 186.531 6.3193 187.064 5.83529C187.597 5.35129 188.301 5.10928 189.17 5.10928C190.04 5.10928 190.744 5.33784 191.277 5.79944C191.81 6.26104 192.079 6.84812 192.079 7.56965C192.079 8.29118 191.81 8.94549 191.277 9.43846C190.739 9.93143 190.04 10.1779 189.17 10.1779C188.301 10.1779 187.597 9.93591 187.064 9.4519V9.44742ZM186.791 11.6792H191.559V25.2807H186.791V11.6792Z" fill="white"/>
<path d="M207.581 12.961C208.611 13.9648 209.122 15.4796 209.122 17.5052V25.2852H204.354V18.285C204.354 16.4297 203.61 15.4975 202.122 15.4975C201.302 15.4975 200.648 15.7664 200.15 16.2997C199.657 16.8375 199.411 17.6397 199.411 18.7108V25.2852H194.642V11.6792H199.187V13.1581C199.72 12.6069 200.356 12.1856 201.096 11.8899C201.831 11.5986 202.633 11.4507 203.507 11.4507C205.196 11.4507 206.554 11.9526 207.585 12.9565L207.581 12.961Z" fill="white"/>
<path d="M244.298 7.71306L238.602 25.2807H233.282L229.921 14.5878L226.408 25.2807H221.088L215.392 7.71306H220.51L224.05 18.9304L227.766 7.71306H232.332L235.873 19.0334L239.561 7.71306H244.302H244.298Z" fill="white"/>
<path d="M255.816 12.9968C257.003 14.0276 257.599 15.6051 257.599 17.7293V25.2852H253.158V23.5284C252.472 24.8505 251.132 25.5093 249.143 25.5093C248.089 25.5093 247.175 25.3255 246.409 24.9581C245.638 24.5906 245.06 24.0931 244.665 23.4657C244.271 22.8383 244.074 22.1212 244.074 21.319C244.074 20.0328 244.567 19.0334 245.553 18.3209C246.539 17.6083 248.062 17.2543 250.12 17.2543H252.831C252.746 15.8157 251.787 15.0942 249.945 15.0942C249.29 15.0942 248.632 15.1972 247.964 15.4079C247.296 15.6185 246.727 15.9053 246.256 16.2728L244.652 13.0371C245.405 12.5352 246.319 12.1453 247.399 11.8719C248.479 11.5941 249.564 11.4596 250.648 11.4596C252.907 11.4596 254.628 11.975 255.82 13.0013L255.816 12.9968ZM251.926 22.0943C252.342 21.8255 252.643 21.4356 252.831 20.9157V19.7371H250.774C249.385 19.7371 248.69 20.1987 248.69 21.1174C248.69 21.5342 248.847 21.8703 249.165 22.1212C249.483 22.3722 249.918 22.4977 250.469 22.4977C251.02 22.4977 251.504 22.3632 251.926 22.0943Z" fill="white"/>
<path d="M260.611 6.6599H265.379V25.2807H260.611V6.6599Z" fill="white"/>
<path d="M268.462 6.6599H273.231V25.2807H268.462V6.6599Z" fill="white"/>
<path d="M290.149 19.6878H280.262C280.464 20.3914 280.854 20.9291 281.428 21.3056C282.006 21.682 282.727 21.8703 283.597 21.8703C284.251 21.8703 284.816 21.7806 285.291 21.5924C285.766 21.4087 286.25 21.1084 286.734 20.6871L289.243 23.2954C287.921 24.7698 285.99 25.5048 283.444 25.5048C281.853 25.5048 280.46 25.2045 279.254 24.5995C278.049 23.9945 277.116 23.161 276.458 22.0899C275.799 21.0188 275.467 19.8043 275.467 18.4508C275.467 17.0974 275.79 15.9098 276.435 14.8477C277.081 13.7856 277.968 12.952 279.106 12.3515C280.244 11.7509 281.522 11.4462 282.947 11.4462C284.372 11.4462 285.533 11.7285 286.635 12.2887C287.738 12.8489 288.616 13.6601 289.257 14.7222C289.902 15.7843 290.225 17.0436 290.225 18.5001C290.225 18.536 290.198 18.9259 290.149 19.6788V19.6878ZM281.123 15.4706C280.63 15.8874 280.316 16.4566 280.182 17.1781H285.752C285.618 16.461 285.304 15.8919 284.811 15.4706C284.318 15.0538 283.704 14.8432 282.965 14.8432C282.225 14.8432 281.616 15.0538 281.118 15.4706H281.123Z" fill="white"/>
<path d="M301.819 24.7295C301.415 24.9805 300.927 25.1732 300.349 25.3076C299.771 25.4421 299.157 25.5093 298.502 25.5093C296.728 25.5093 295.365 25.0746 294.411 24.2052C293.456 23.3357 292.981 22.0406 292.981 20.3152V15.7485H291V12.1856H292.981V8.64522H297.749V12.1856H300.86V15.7485H297.749V20.2659C297.749 20.7499 297.879 21.1308 298.139 21.4087C298.399 21.6865 298.744 21.821 299.179 21.821C299.73 21.821 300.214 21.6776 300.636 21.3952L301.814 24.734L301.819 24.7295Z" fill="white"/>
</svg>
