<svg width="100" height="100" viewBox="0 0 100 100" fill="none" xmlns="http://www.w3.org/2000/svg">
<circle cx="50" cy="50" r="43" fill="#1F2A3D"/>
<g clip-path="url(#clip0_6956_35600)">
<circle cx="50.0713" cy="49.9297" r="40" fill="#DCE573"/>
<path d="M48.2401 17.2799C47.1201 17.4879 46.9281 17.5519 45.8401 18.0319C44.8001 18.4959 43.8721 19.1679 42.8961 20.1919C41.6321 21.4719 40.4001 23.9519 40.4001 25.2319C40.4001 25.7599 40.2561 26.1599 40.0481 26.1599C39.9681 26.1599 39.6641 25.9839 39.3921 25.7759C38.6401 25.1999 37.8721 24.8159 36.7201 24.3839C35.8401 24.0639 35.3761 23.9999 33.7601 23.9999C31.6001 23.9999 30.8001 24.1759 29.1201 25.0079C27.6161 25.7439 25.8081 27.5679 25.0081 29.1199C24.1761 30.7839 24.0001 31.5839 24.0161 33.7599C24.0161 35.5039 24.0641 35.7919 24.5121 36.9119C24.7841 37.5839 25.2961 38.5759 25.6481 39.1039C26.0161 39.6319 26.2561 40.0959 26.1921 40.1439C26.1281 40.1759 25.7921 40.2559 25.4401 40.3199C19.1201 41.3759 15.5041 47.7599 17.8881 53.6319C19.1201 56.6399 21.9201 58.8959 25.1841 59.4719C25.7601 59.5679 26.2721 59.6799 26.2881 59.6959C26.3201 59.7119 26.0321 60.1919 25.6641 60.7519C25.2801 61.2959 24.7681 62.3039 24.4961 62.9599C24.0641 64.0639 24.0161 64.3199 24.0161 66.1599C24.0001 67.8239 24.0641 68.3359 24.3681 69.1999C25.5041 72.5119 28.0481 74.8479 31.5201 75.7439C32.3521 75.9679 34.8481 75.9679 35.6801 75.7439C36.8801 75.4399 38.0801 74.9119 38.9921 74.2879C39.5041 73.9519 39.9841 73.6799 40.0641 73.6799C40.2561 73.6799 40.4001 74.0799 40.4001 74.6079C40.4001 75.2799 40.8161 76.4639 41.4561 77.6799C42.5281 79.7119 44.7521 81.5519 47.1041 82.3039C48.4161 82.7359 51.1841 82.7679 52.5281 82.3839C55.8401 81.4399 58.5121 78.7199 59.3601 75.3919C59.4881 74.8799 59.6001 74.3039 59.6001 74.0959C59.6001 73.5039 59.7441 73.5039 60.5441 74.0959C62.2401 75.3119 64.1761 75.9199 66.2881 75.9199C70.7361 75.9199 74.5441 72.9919 75.6961 68.6879C75.8081 68.2239 75.9201 67.1359 75.9201 66.2879C75.9201 64.0319 75.4721 62.5279 74.2561 60.7519C73.5841 59.7919 73.5521 59.5999 74.0481 59.5999C74.6241 59.5999 76.6881 58.9919 77.5201 58.5599C78.5601 58.0319 80.1281 56.7039 80.8001 55.7919C82.1121 54.0159 82.7041 52.1759 82.7041 49.9199C82.7041 47.6319 82.2401 46.1439 80.9441 44.3199C80.1441 43.1839 79.5041 42.5599 78.3361 41.7919C77.3441 41.1359 75.5681 40.4639 74.4481 40.3199C74.0161 40.2719 73.6801 40.1599 73.6801 40.0799C73.6801 40.0159 73.9361 39.5679 74.2561 39.1039C75.4721 37.3279 75.9201 35.8079 75.9201 33.5519C75.9201 31.8079 75.6641 30.7039 74.9601 29.2639C73.9201 27.1359 72.0481 25.4399 69.7601 24.5279C68.5601 24.0479 68.3361 24.0159 66.4801 24.0159C63.7921 23.9999 62.7521 24.3039 60.7041 25.6959C59.7441 26.3359 59.6001 26.3359 59.6001 25.7439C59.6001 25.5359 59.4881 24.9599 59.3601 24.4479C58.4161 20.7519 55.3601 17.9359 51.6001 17.2799C50.0321 17.0079 49.6641 17.0079 48.2401 17.2799ZM52.4481 21.2479C55.5681 22.6719 56.9281 26.3199 55.4721 29.4079C55.0881 30.2559 54.5441 30.9119 52.6401 32.8639C51.3441 34.1919 50.1601 35.2799 50.0161 35.2799C49.5841 35.2799 44.9601 30.5119 44.4801 29.5679C43.3121 27.2959 43.8081 24.3039 45.6481 22.5119C46.4161 21.7599 47.5521 21.1039 48.4641 20.8639C49.4241 20.6079 51.5041 20.8159 52.4481 21.2479ZM35.2001 27.6799C37.1361 28.1919 38.8161 29.7919 39.4401 31.7439C39.7441 32.7039 39.7601 33.1039 39.7281 36.2399L39.6801 39.6799L36.4801 39.7279C32.0641 39.7919 30.9281 39.5039 29.2801 37.8719C25.4881 34.0639 28.1761 27.6159 33.6001 27.4559C33.9681 27.4559 34.6721 27.5519 35.2001 27.6799ZM67.6001 27.6159C71.7601 28.5759 73.7281 33.3279 71.4241 36.8959C70.8481 37.8079 70.0801 38.5119 69.1521 38.9759C67.8721 39.6479 67.0401 39.7599 63.5841 39.7599C60.7041 39.7599 60.2561 39.7279 60.1761 39.5039C60.0321 39.1199 60.0641 33.8719 60.2401 32.7359C60.7361 29.2319 64.1921 26.8319 67.6001 27.6159ZM49.9201 40.3999C50.0001 40.3999 51.5201 38.9759 53.2801 37.2319L56.4801 34.0799L56.5601 38.6399L56.6401 43.1999L61.1681 43.2479C63.6481 43.2639 65.6801 43.3439 65.6801 43.4079C65.6801 43.4719 64.2721 44.9279 62.5601 46.6399C60.8481 48.3519 59.4401 49.8239 59.4401 49.9039C59.4401 49.9999 60.8481 51.4719 62.5601 53.1999C64.2881 54.9279 65.6321 56.3839 65.5841 56.4479C65.5201 56.5119 63.5041 56.5599 61.0881 56.5599C58.6881 56.5599 56.7041 56.5759 56.6881 56.5919C56.6721 56.6239 56.6081 58.6879 56.5601 61.1999L56.4801 65.7599L53.2801 62.5919C51.5201 60.8639 50.0001 59.4399 49.9201 59.4399C49.8241 59.4399 48.3361 60.8639 46.6081 62.5919C44.4641 64.7199 43.4241 65.6639 43.3601 65.5039C43.3281 65.3919 43.2641 63.3279 43.2481 60.9599L43.2001 56.6399L38.7681 56.5919C35.3441 56.5599 34.3201 56.5119 34.3201 56.3519C34.3201 56.2399 35.6961 54.7839 37.3601 53.1199C39.0401 51.4559 40.4001 50.0159 40.4001 49.9199C40.4001 49.8239 39.0401 48.3839 37.3601 46.7199C35.6961 45.0559 34.3201 43.5999 34.3201 43.4879C34.3201 43.3279 35.2961 43.2799 38.8001 43.2799H43.2801V38.8319C43.2801 36.3839 43.3281 34.3199 43.3921 34.2559C43.4561 34.1919 44.9121 35.5519 46.6401 37.2799C48.3521 38.9919 49.8241 40.3999 49.9201 40.3999ZM29.4881 44.4319C30.2881 44.7999 31.0081 45.4079 32.8321 47.1679C34.0961 48.4159 35.2161 49.5679 35.3121 49.7439C35.4561 50.0159 35.1681 50.3519 33.0081 52.4959C31.6161 53.8559 30.2241 55.0879 29.8241 55.2959C28.1761 56.1279 26.6401 56.2719 25.0401 55.7439C23.2481 55.1519 22.1441 54.1919 21.2641 52.4319C20.8641 51.6159 20.8161 51.3599 20.8161 49.9199C20.8161 48.4639 20.8641 48.2239 21.2801 47.3759C22.8481 44.2399 26.4001 42.9599 29.4881 44.4319ZM75.3601 44.2559C76.5921 44.7199 77.8561 45.9199 78.5121 47.2479C79.0081 48.2399 79.0401 48.4319 79.0401 49.9199C79.0401 51.3439 78.9921 51.6319 78.5921 52.4799C77.5841 54.6399 75.3441 56.0799 72.9921 56.0799C72.1281 56.0799 70.4961 55.5839 69.7601 55.0879C69.0881 54.6239 64.5601 50.1279 64.5601 49.9039C64.5601 49.8239 65.6961 48.6239 67.0881 47.2479C69.6641 44.7039 70.3361 44.2239 71.8081 43.9199C72.7521 43.7279 74.3361 43.8719 75.3601 44.2559ZM39.7281 63.5999C39.7601 66.7199 39.7441 67.1359 39.4401 68.0799C38.8161 70.0319 37.4241 71.4399 35.4721 72.0639C32.5601 73.0239 29.4241 71.6479 28.0961 68.8319C27.5361 67.6319 27.3921 66.5599 27.6001 65.2959C28.0001 62.7999 29.9841 60.7359 32.4001 60.2559C32.8001 60.1759 34.5921 60.1279 36.4001 60.1279L39.6801 60.1599L39.7281 63.5999ZM68.7521 60.6719C70.9921 61.7119 72.4001 63.8559 72.4001 66.1919C72.4001 68.8639 70.6881 71.2319 68.1281 72.0639C65.8881 72.7999 63.6481 72.2399 61.9521 70.5439C61.0081 69.5839 60.4321 68.4319 60.2401 67.1039C60.0001 65.5039 60.0321 60.5119 60.2881 60.2559C60.4321 60.0959 61.2961 60.0639 64.0801 60.1119L67.6801 60.1759L68.7521 60.6719ZM52.5921 66.9279C54.9121 69.2799 55.4241 69.9999 55.8561 71.4239C56.9441 75.0239 54.1601 78.8799 50.3361 79.0879C47.7121 79.2319 45.4561 77.8719 44.3681 75.4719C43.9521 74.5439 43.8881 74.2239 43.8881 73.0399C43.8881 71.8559 43.9521 71.5359 44.3841 70.5599C44.8161 69.5999 45.2321 69.1199 47.3121 67.0079C48.6561 65.6639 49.8721 64.5599 50.0161 64.5599C50.1601 64.5599 51.3121 65.6319 52.5921 66.9279Z" fill="black"/>
</g>
<defs>
<clipPath id="clip0_6956_35600">
<rect width="80" height="80" fill="white" transform="translate(10 10)"/>
</clipPath>
</defs>
</svg>
