<svg width="100" height="101" viewBox="0 0 100 101" fill="none" xmlns="http://www.w3.org/2000/svg">
<circle cx="50" cy="50.5" r="43" fill="#283243"/>
<circle cx="50" cy="50.5" r="41" fill="#1F2A3D" stroke="#283243" stroke-width="2"/>
<g clip-path="url(#clip0_6956_35574)">
<circle cx="50" cy="50.5" r="40" fill="white"/>
<path d="M33.8025 26.2877C33.7359 26.4433 33.7137 37.1322 33.7359 50.0211L33.8025 73.4655H38.5803H43.3581L43.4248 71.4211C43.447 70.2877 43.5359 69.3544 43.6025 69.3544C43.6692 69.3544 44.4025 69.9544 45.2025 70.6877C46.0025 71.3989 47.2248 72.31 47.9137 72.6655C52.9359 75.3544 59.6914 74.5544 64.2914 70.7322C66.8025 68.6211 68.7803 65.3544 69.6914 61.6877C70.4248 58.7989 70.4248 53.6433 69.6914 50.7989C67.6914 42.9544 61.9803 38.2433 54.5137 38.2433C50.5803 38.2433 48.0025 39.2877 45.2914 41.9322C44.3803 42.8433 43.5803 43.5766 43.5581 43.5766C43.5136 43.5766 43.447 39.6433 43.4248 34.8433L43.3581 26.1322L38.6248 26.0655C34.9803 26.0211 33.8692 26.0655 33.8025 26.2877ZM53.6248 46.5544C57.2692 47.5322 59.7581 50.2877 60.3803 54.0211C60.647 55.6211 60.4914 58.7766 60.1137 59.7322C58.9581 62.5766 57.647 64.1544 55.5137 65.1766C54.1359 65.8433 53.8692 65.91 51.9137 65.8877C50.1581 65.8877 49.6025 65.7766 48.5581 65.31C46.4025 64.3322 44.6025 62.1322 43.7137 59.3766C43.3581 58.2655 43.4025 54.11 43.8025 52.8433C44.7803 49.5989 46.9803 47.4433 50.1359 46.5544C51.4692 46.1989 52.247 46.1989 53.6248 46.5544Z" fill="#054F9C"/>
</g>
<defs>
<clipPath id="clip0_6956_35574">
<rect width="80" height="80" fill="white" transform="translate(10 10.5)"/>
</clipPath>
</defs>
</svg>
