<svg width="100" height="100" viewBox="0 0 100 100" fill="none" xmlns="http://www.w3.org/2000/svg">
<circle cx="50" cy="50" r="43" fill="#283243"/>
<g clip-path="url(#clip0_6956_35584)">
<path d="M50 90C72.0914 90 90 72.0914 90 50C90 27.9086 72.0914 10 50 10C27.9086 10 10 27.9086 10 50C10 72.0914 27.9086 90 50 90Z" fill="#627EEA"/>
<path d="M51.2451 20V42.175L69.9876 50.55L51.2451 20Z" fill="white" fill-opacity="0.602"/>
<path d="M51.245 20L32.5 50.55L51.245 42.175V20Z" fill="white"/>
<path d="M51.2451 64.92V79.9875L70.0001 54.04L51.2451 64.92Z" fill="white" fill-opacity="0.602"/>
<path d="M51.245 79.9875V64.9175L32.5 54.04L51.245 79.9875Z" fill="white"/>
<path d="M51.2451 61.4324L69.9876 50.5499L51.2451 42.1799V61.4324Z" fill="white" fill-opacity="0.2"/>
<path d="M32.5 50.5499L51.245 61.4324V42.1799L32.5 50.5499Z" fill="white" fill-opacity="0.602"/>
</g>
<defs>
<clipPath id="clip0_6956_35584">
<rect width="80" height="80" fill="white" transform="translate(10 10)"/>
</clipPath>
</defs>
</svg>
