<svg width="100" height="101" viewBox="0 0 100 101" fill="none" xmlns="http://www.w3.org/2000/svg">
<circle cx="50" cy="50.5" r="43" fill="#283243"/>
<g clip-path="url(#clip0_6956_36519)">
<path d="M50 90.5C72.0914 90.5 90 72.5914 90 50.5C90 28.4086 72.0914 10.5 50 10.5C27.9086 10.5 10 28.4086 10 50.5C10 72.5914 27.9086 90.5 50 90.5Z" fill="white"/>
<path d="M40.2552 24.7483C39.5614 24.6412 39.5322 24.6266 39.8584 24.5779C40.484 24.4805 41.9642 24.6144 42.9842 24.8554C45.3626 25.4227 47.5269 26.8712 49.8396 29.4444L50.4531 30.126L51.3294 29.9872C55.0298 29.3908 58.7959 29.8655 61.9436 31.3189C62.8103 31.7181 64.176 32.5142 64.3464 32.7211C64.4024 32.7844 64.5022 33.2056 64.5679 33.6535C64.8016 35.2042 64.6848 36.3922 64.2125 37.2808C63.9544 37.7628 63.9398 37.9138 64.1127 38.3276C64.1947 38.4986 64.3231 38.643 64.4832 38.7446C64.6433 38.8462 64.8287 38.9008 65.0183 38.9021C65.8022 38.9021 66.6445 37.6362 67.034 35.8761L67.1898 35.1775L67.4965 35.5256C69.1812 37.4342 70.5031 40.0366 70.7295 41.8868L70.7903 42.3712L70.5055 41.933C70.0186 41.1783 69.5317 40.6622 68.9036 40.246C67.7741 39.4986 66.5788 39.2454 63.414 39.0774C60.556 38.9265 58.9371 38.683 57.3352 38.1596C54.6062 37.2711 53.2307 36.0855 49.9881 31.8325C48.5493 29.9434 47.6583 28.899 46.7746 28.0592C44.7613 26.1457 42.7846 25.1427 40.2552 24.7483Z" fill="#FF007A"/>
<path d="M64.9909 28.9673C65.0639 27.7014 65.2343 26.8664 65.58 26.1044C65.7163 25.8025 65.8454 25.5542 65.8649 25.5542C65.8432 25.7251 65.7981 25.8922 65.731 26.0508C65.4802 26.7909 65.4388 27.8036 65.6117 28.9795C65.8308 30.4742 65.9574 30.6884 67.5349 32.3025C68.2774 33.0596 69.1392 34.0139 69.4508 34.4253L70.018 35.1702L69.4508 34.6371C68.757 33.9871 67.16 32.7139 66.807 32.5337C66.5708 32.412 66.5343 32.4144 66.3883 32.5581C66.2544 32.6944 66.2251 32.894 66.2081 33.8459C66.1789 35.326 65.9768 36.2803 65.4875 37.2298C65.2246 37.741 65.1832 37.6339 65.4218 37.052C65.5995 36.6187 65.6165 36.4288 65.6165 34.9949C65.6165 32.1126 65.2733 31.4212 63.2649 30.2332C62.6605 29.8825 62.0399 29.5608 61.405 29.2691C61.0913 29.1433 60.787 28.9953 60.4945 28.8261C60.5505 28.7701 62.5078 29.3397 63.2941 29.6441C64.4675 30.0944 64.6598 30.1529 64.8034 30.0969C64.8984 30.0603 64.9446 29.7828 64.9909 28.9673ZM41.6032 33.897C40.1937 31.9568 39.3222 28.9795 39.5096 26.7544L39.5681 26.0654L39.8894 26.1239C40.4931 26.2334 41.5327 26.6205 42.0195 26.9175C43.3536 27.7282 43.933 28.7969 44.5197 31.538C44.6925 32.3414 44.919 33.2495 45.0236 33.5586C45.1892 34.0528 45.8221 35.2092 46.3382 35.9614C46.7083 36.5019 46.46 36.7575 45.642 36.6844C44.3907 36.57 42.6963 35.4015 41.6032 33.897ZM63.2819 48.3454C56.6919 45.6919 54.3719 43.3889 54.3719 39.5035C54.3719 38.9314 54.3913 38.464 54.4133 38.464C54.4376 38.464 54.6932 38.6515 54.9805 38.8827C56.317 39.9539 57.8142 40.4116 61.9551 41.0153C64.392 41.3732 65.765 41.6604 67.0309 42.0792C71.0526 43.4132 73.5406 46.1203 74.1346 49.8061C74.305 50.8772 74.2052 52.8856 73.9253 53.9446C73.7062 54.782 73.0318 56.289 72.8541 56.3474C72.8054 56.362 72.7567 56.1745 72.7421 55.9141C72.674 54.5313 71.9753 53.1826 70.7995 52.1723C69.4629 51.0257 67.6712 50.1104 63.2819 48.3454ZM58.6565 49.4458C58.5786 48.9755 58.4721 48.5105 58.3376 48.0533L58.1672 47.5518L58.4812 47.9023C58.9121 48.3892 59.2554 49.0076 59.5426 49.8353C59.7642 50.4658 59.7885 50.6532 59.7861 51.6781C59.7861 52.686 59.7593 52.8954 59.5548 53.465C59.2705 54.3003 58.7944 55.0574 58.1647 55.6755C56.9597 56.9024 55.4138 57.5792 53.179 57.8616C52.7895 57.9103 51.6599 57.9931 50.6642 58.0442C48.1568 58.1757 46.5086 58.4434 45.0261 58.9644C44.8924 59.0243 44.7488 59.059 44.6025 59.0667C44.544 59.0058 45.5519 58.4045 46.3869 58.0028C47.5628 57.4356 48.7313 57.1264 51.3532 56.6906C52.6483 56.474 53.9872 56.2135 54.3256 56.1088C57.5342 55.1253 59.1848 52.5886 58.6565 49.4458Z" fill="#FF007A"/>
<path d="M61.6761 54.8112C60.7997 52.9294 60.6001 51.1109 61.0796 49.4165C61.1308 49.2364 61.2135 49.0879 61.2622 49.0879C61.427 49.1475 61.5821 49.2312 61.7223 49.3362C62.1265 49.6089 62.9347 50.0665 65.0892 51.2399C67.7792 52.7079 69.3129 53.8448 70.3573 55.1399C71.2702 56.2768 71.835 57.5719 72.1076 59.1494C72.261 60.0429 72.1709 62.1925 71.9421 63.0932C71.2191 65.9318 69.5369 68.1617 67.1414 69.4617C66.9153 69.5925 66.6811 69.7088 66.4403 69.8098C66.4062 69.8098 66.5328 69.486 66.7251 69.0868C67.5285 67.4022 67.6234 65.7613 67.0124 63.9355C66.6399 62.8181 65.8779 61.4524 64.3418 59.1494C62.5549 56.4715 62.1167 55.7558 61.6761 54.8112ZM36.9252 64.9653C39.3718 62.9009 42.4124 61.4354 45.1852 60.985C46.3781 60.7902 48.3695 60.8681 49.4747 61.1505C51.247 61.6033 52.8342 62.6209 53.6595 63.8308C54.4628 65.014 54.811 66.0462 55.1688 68.3394C55.3149 69.245 55.4683 70.1531 55.5145 70.36C55.7823 71.548 56.3106 72.4999 56.963 72.977C57.9977 73.7341 59.7821 73.7804 61.5349 73.0987C61.718 73.0147 61.9111 72.9542 62.1094 72.9186C62.1727 72.9819 61.2914 73.5735 60.6682 73.8851C59.9328 74.2786 59.1092 74.478 58.2752 74.4645C56.6684 74.4645 55.3344 73.6489 54.2218 71.9813C54.0027 71.6527 53.511 70.6716 53.1263 69.7976C51.9529 67.1198 51.3735 66.3018 50.0103 65.4084C48.8198 64.6293 47.2886 64.4906 46.1371 65.0554C44.6229 65.7979 44.2017 67.7332 45.285 68.9578C45.7159 69.4447 46.5193 69.8658 47.1766 69.9461C47.4633 69.9841 47.7549 69.9601 48.0315 69.8757C48.3082 69.7914 48.5635 69.6486 48.7802 69.457C48.9969 69.2654 49.17 69.0296 49.2877 68.7654C49.4054 68.5012 49.465 68.2148 49.4625 67.9256C49.4625 67.1173 49.1509 66.6597 48.3719 66.3067C47.308 65.8271 46.1639 66.387 46.1687 67.3876C46.1712 67.8136 46.3562 68.0814 46.7846 68.2761C47.0597 68.3978 47.0646 68.41 46.8406 68.3638C45.8644 68.1593 45.6356 66.9834 46.4219 66.202C47.364 65.2623 49.314 65.6761 49.9835 66.9567C50.2659 67.4947 50.2975 68.5683 50.0516 69.2158C49.5039 70.6643 47.902 71.4238 46.2783 71.01C45.173 70.7276 44.7227 70.4233 43.391 69.0503C41.0759 66.6645 40.1776 66.202 36.8375 65.681L36.1973 65.5812L36.9276 64.9653H36.9252Z" fill="#FF007A"/>
<path fill-rule="evenodd" clip-rule="evenodd" d="M25.4902 18.8643L25.7239 19.1492C34.7508 30.2015 39.4152 35.937 39.7122 36.346C40.1991 37.0228 40.0165 37.629 39.1791 38.1061C38.7141 38.3715 37.7549 38.6393 37.2778 38.6393C36.7349 38.6393 36.1239 38.3788 35.6784 37.9576C35.3643 37.6582 34.096 35.7642 31.1673 31.2191C29.7959 29.0709 28.4066 26.9342 26.9996 24.8092C26.8803 24.6972 26.8827 24.6997 30.9385 31.9567C33.4849 36.514 34.3467 38.1232 34.3467 38.3398C34.3467 38.778 34.225 39.0069 33.6845 39.6106C32.7838 40.616 32.3821 41.7456 32.09 44.0827C31.7638 46.7046 30.8484 48.5547 28.3069 51.7219C26.8219 53.577 26.5784 53.9178 26.2011 54.6652C25.7288 55.6049 25.5998 56.1331 25.5462 57.3211C25.4902 58.5773 25.5998 59.3904 25.9844 60.5906C26.3204 61.6423 26.6709 62.3385 27.5668 63.7261C28.341 64.9263 28.7865 65.8173 28.7865 66.1654C28.7865 66.443 28.84 66.443 30.0402 66.1728C32.9104 65.5252 35.2402 64.3834 36.5523 62.9861C37.363 62.1218 37.5529 61.6447 37.5602 60.4591C37.5626 59.685 37.5358 59.5219 37.3265 59.0764C36.9856 58.3509 36.3649 57.7472 34.9967 56.8123C33.2025 55.5854 32.4381 54.597 32.2263 53.241C32.051 52.1285 32.2531 51.3422 33.2464 49.2632C34.2712 47.1111 34.5269 46.1958 34.6997 44.0267C34.8093 42.6244 34.9626 42.0718 35.3667 41.6288C35.7855 41.1662 36.1652 41.008 37.2047 40.8668C38.8991 40.6355 39.9776 40.1973 40.8637 39.3818C41.633 38.6709 41.9543 37.9868 42.003 36.9595L42.042 36.1805L41.6111 35.679C40.9927 34.9584 35.878 29.3154 26.2644 18.745L26.0063 18.4651L25.4902 18.8668V18.8643ZM29.6629 58.7453C29.8327 58.4446 29.8834 58.091 29.805 57.7547C29.7265 57.4184 29.5246 57.1237 29.2393 56.9292C28.6842 56.5592 27.82 56.7344 27.82 57.2165C27.82 57.3625 27.9003 57.4696 28.0829 57.5646C28.3921 57.7228 28.414 57.903 28.173 58.2657C27.9271 58.6357 27.9466 58.9619 28.229 59.1835C28.6818 59.5389 29.322 59.3417 29.6629 58.7453ZM43.1107 41.2758C42.3146 41.5192 41.5429 42.364 41.3019 43.2477C41.1558 43.7857 41.2386 44.7327 41.4577 45.0248C41.8107 45.4971 42.154 45.6212 43.079 45.6139C44.8903 45.6018 46.4629 44.8252 46.6479 43.8538C46.7989 43.0578 46.105 41.955 45.1532 41.4681C44.6614 41.2198 43.6171 41.12 43.1107 41.2758ZM45.2286 42.9312C45.5086 42.5344 45.3845 42.1035 44.9122 41.8162C44.0066 41.2636 42.6384 41.7188 42.6384 42.5758C42.6384 42.9993 43.3517 43.4643 44.0041 43.4643C44.4423 43.4643 45.0363 43.2038 45.2286 42.9312Z" fill="#FF007A"/>
</g>
<defs>
<clipPath id="clip0_6956_36519">
<rect width="80" height="80" fill="white" transform="translate(10 10.5)"/>
</clipPath>
</defs>
</svg>
