<svg width="100" height="100" viewBox="0 0 100 100" fill="none" xmlns="http://www.w3.org/2000/svg">
<g clip-path="url(#clip0_6956_36424)">
<circle cx="50" cy="50" r="38.5" stroke="#94A2B8" stroke-width="2" stroke-linecap="round" stroke-dasharray="8 8"/>
<path d="M47.0845 64.4086H52.434V70H47.0845V64.4086ZM38.0254 42.8763C38.0254 39.0054 39.1186 35.8961 41.305 33.5484C43.4913 31.1828 46.4931 30 50.3103 30C53.8408 30 56.6634 31.0125 58.7781 33.0376C60.9107 35.0448 61.977 37.6165 61.977 40.7527C61.977 42.6523 61.5827 44.1935 60.7942 45.3763C60.0236 46.5591 58.4555 48.2975 56.0899 50.5914C54.3695 52.2581 53.2494 53.6738 52.7297 54.8387C52.2279 55.9857 51.977 57.6882 51.977 59.9462H47.1921C47.1921 57.3835 47.4967 55.3226 48.106 53.7634C48.7154 52.1864 50.0505 50.3853 52.1114 48.3602L54.2619 46.2366C54.9071 45.6272 55.4268 44.991 55.8211 44.328C56.5379 43.1631 56.8964 41.9534 56.8964 40.6989C56.8964 38.9427 56.3677 37.4194 55.3103 36.129C54.2709 34.8387 52.5415 34.1935 50.1222 34.1935C47.1293 34.1935 45.0594 35.3047 43.9125 37.5269C43.2673 38.7634 42.8999 40.5466 42.8103 42.8763H38.0254Z" fill="#94A2B8"/>
</g>
<defs>
<clipPath id="clip0_6956_36424">
<rect width="80" height="80" fill="white" transform="translate(10 10)"/>
</clipPath>
</defs>
</svg>
