<svg width="91" height="90" viewBox="0 0 91 90" fill="none" xmlns="http://www.w3.org/2000/svg">
<g clip-path="url(#clip0_10007_40020)">
<path d="M45.3333 90C70.1861 90 90.3333 69.8528 90.3333 45C90.3333 20.1472 70.1861 0 45.3333 0C20.4804 0 0.333252 20.1472 0.333252 45C0.333252 69.8528 20.4804 90 45.3333 90Z" fill="#092F62"/>
<path d="M50.8966 26.8244L53.2965 24.4245M50.8966 26.8244L46.9711 30.7499C46.2866 31.4344 46.2866 32.5394 46.9711 33.2239L51.1605 37.4133C51.845 38.0978 52.9501 38.0978 53.6346 37.4133L63.8854 27.1625C64.5699 26.478 64.5699 25.3729 63.8854 24.6884L59.696 20.4991C59.0115 19.8146 57.9064 19.8146 57.2219 20.4991L53.2965 24.4245M50.8966 26.8244L50.1462 26.0739C49.4864 25.4142 49.4864 24.3421 50.1462 23.6741C50.8059 23.0061 51.878 23.0143 52.546 23.6741L53.2965 24.4245M57.5601 33.4961L67.0109 42.9469C67.6707 43.6067 68.7428 43.6067 69.4108 42.9469C70.0788 42.2872 70.0705 41.2151 69.4108 40.5471L59.9599 31.0962" stroke="white" stroke-width="1.5" stroke-miterlimit="10"/>
<path d="M42.068 25.7724V29.2517M34.1907 33.5911H37.67M38.9014 30.3854L37.67 29.154L36.4385 27.9225" stroke="white" stroke-width="1.5" stroke-miterlimit="10"/>
<path fill-rule="evenodd" clip-rule="evenodd" d="M22.2573 53.5715C22.2573 45.3189 28.9474 38.6288 37.2001 38.6288C45.4528 38.6288 52.1429 45.3189 52.1429 53.5715C52.1429 54.0974 52.1157 54.6169 52.0627 55.1288H51.2509H50.2134V54.0907H49.1632H48.1251V53.0526H47.0869H46.0488V52.0144H45.0107H43.9604V50.9642H42.9223V49.9261V48.888H41.8842V47.8498H40.846V46.8117H39.8079V45.7615H38.7577V44.7233H37.7196H36.6814V45.7615V46.8116H35.6436V47.8498V48.8879H36.6817V47.8498V46.8117H37.7196V47.8498H38.7577V48.888V49.9261H39.8079V50.9642V52.0144H40.846V53.0526V54.0907H41.8842V55.1289H40.846V56.1791H39.8079V57.2172H38.7577V58.2553V59.2935H39.8079V58.2553H40.846V57.2172H41.8838V58.2553H42.9219V57.2171H41.8842V56.1791H42.9223H43.9604V57.2172H45.0107H46.0488V58.2553H47.0869H48.1251V57.2172H47.0869V56.1791H46.0488V55.1289H47.0869H48.1251V56.1791H49.1632V55.1289H50.2128V56.179H51.2509H51.9161C50.6826 63.1885 44.5633 68.5143 37.2001 68.5143C30.5834 68.5143 24.9711 64.2137 23.0061 58.2553H23.1494V57.2171L24.1872 57.2171H25.2374V56.179H24.1872H23.1491V57.2171L22.7052 57.2171C22.4127 56.0503 22.2573 54.8291 22.2573 53.5715ZM43.9604 56.1791V55.1289H45.0107V56.1791H43.9604ZM37.2001 37.1288C28.119 37.1288 20.7573 44.4904 20.7573 53.5715C20.7573 62.6526 28.119 70.0143 37.2001 70.0143C46.2812 70.0143 53.6429 62.6526 53.6429 53.5715C53.6429 44.4904 46.2812 37.1288 37.2001 37.1288ZM40.8469 61.3818H41.885V62.42H40.8469V61.3818ZM36.6817 61.3818H35.6436V62.42H36.6817V61.3818ZM36.6814 60.3315L37.7193 60.3315V59.2934H38.7574V60.3315L37.7196 60.3315V61.3697H36.6814V60.3315ZM48.1258 58.2554H49.164V59.2935H48.1258V58.2554ZM44.9985 58.2554H43.9604V59.2935H44.9985V58.2554ZM34.5929 57.2171H33.5554V56.179H32.5173V55.1288H31.4792V54.0907H30.441V53.0526H29.3908V52.0144H28.3527V53.0526H27.3145V54.0907H28.3527V55.1288H29.3908V56.179H30.441H31.4792V57.2172H32.5173H33.5547V58.2553H34.5929V57.2171ZM26.2758 55.1288L25.2379 55.1288V56.1669H26.2761V55.1288L27.3139 55.1288V54.0906H26.2758V55.1288ZM32.5169 54.0906V55.1288H33.555V54.0906V53.0526H34.5929V52.0145V50.9642H33.5547V52.0145V53.0525H32.5169V54.0906ZM34.5926 49.926V50.9641H35.6428V49.926V48.8879H34.5926V49.926Z" fill="white"/>
</g>
<defs>
<clipPath id="clip0_10007_40020">
<rect width="90" height="90" fill="white" transform="translate(0.333252)"/>
</clipPath>
</defs>
</svg>
