<svg width="135" height="43" viewBox="0 0 135 43" fill="none" xmlns="http://www.w3.org/2000/svg">
<g clip-path="url(#clip0_6400_25592)">
<g clip-path="url(#clip1_6400_25592)">
<mask id="mask0_6400_25592" style="mask-type:luminance" maskUnits="userSpaceOnUse" x="0" y="0" width="121" height="39">
<path d="M120.96 0.610474H0V38.4105H120.96V0.610474Z" fill="white"/>
</mask>
<g mask="url(#mask0_6400_25592)">
<mask id="mask1_6400_25592" style="mask-type:luminance" maskUnits="userSpaceOnUse" x="0" y="0" width="121" height="39">
<path d="M120.331 0.610474H0V38.4105H120.331V0.610474Z" fill="white"/>
</mask>
<g mask="url(#mask1_6400_25592)">
<path fill-rule="evenodd" clip-rule="evenodd" d="M13.6758 0.610474H27.6267C37.9441 0.610474 46.3091 8.73586 46.3091 19.2968C46.3091 29.8578 37.7485 38.4144 27.1915 38.4144H13.6758V30.7402H25.3588C31.5357 30.7402 36.5866 25.6894 36.5866 19.5124C36.5866 13.3356 31.5357 8.28468 25.3588 8.28468H13.6758V0.610474ZM59.2019 7.62984V17.6199H75.2211V24.6392H59.2019V38.4105H50.4537V0.610474H79.0223V7.62984H59.2019ZM110.234 38.4105L101.107 25.286L92.1427 38.4105H82.0968L96.0836 19.1851L82.8035 0.610474H92.7377L101.434 12.8684L109.967 0.610474H119.418L106.241 18.8617L120.336 38.4105H110.238H110.234Z" fill="white"/>
<path d="M19.1578 28.688C24.4192 28.688 28.6846 24.4228 28.6846 19.1612C28.6846 13.8997 24.4192 9.63437 19.1578 9.63437C13.8962 9.63437 9.63086 13.8997 9.63086 19.1612C9.63086 24.4228 13.8962 28.688 19.1578 28.688Z" fill="url(#paint0_linear_6400_25592)"/>
<path d="M10.4811 29.9936C16.2697 29.9936 20.9622 25.3009 20.9622 19.5124C20.9622 13.7238 16.2697 9.03128 10.4811 9.03128C4.69257 9.03128 0 13.7238 0 19.5124C0 25.3009 4.69257 29.9936 10.4811 29.9936Z" fill="url(#paint1_linear_6400_25592)"/>
</g>
</g>
</g>
</g>
<defs>
<linearGradient id="paint0_linear_6400_25592" x1="27.1519" y1="14.9919" x2="10.2199" y2="23.724" gradientUnits="userSpaceOnUse">
<stop offset="0.04" stop-color="#F5516C"/>
<stop offset="0.14" stop-color="#C74863"/>
<stop offset="0.31" stop-color="#853B57"/>
<stop offset="0.44" stop-color="#55324E"/>
<stop offset="0.55" stop-color="#382D49"/>
<stop offset="0.61" stop-color="#2D2B47"/>
</linearGradient>
<linearGradient id="paint1_linear_6400_25592" x1="16.8736" y1="11.8941" x2="3.39789" y2="27.9492" gradientUnits="userSpaceOnUse">
<stop offset="0.2" stop-color="#F5516C"/>
<stop offset="1" stop-color="#6B3753"/>
</linearGradient>
<clipPath id="clip0_6400_25592">
<rect width="135" height="43" fill="white"/>
</clipPath>
<clipPath id="clip1_6400_25592">
<rect width="134.4" height="42" fill="white" transform="translate(0 0.610474)"/>
</clipPath>
</defs>
</svg>
