<svg width="90" height="90" viewBox="0 0 90 90" fill="none" xmlns="http://www.w3.org/2000/svg">
<g clip-path="url(#clip0_10007_40053)">
<path d="M45 90C69.8528 90 90 69.8528 90 45C90 20.1472 69.8528 0 45 0C20.1472 0 0 20.1472 0 45C0 69.8528 20.1472 90 45 90Z" fill="#092F62"/>
<path d="M58.9935 35.4216V24.3684C58.9935 23.3425 58.6109 22.3585 57.9298 21.633C57.2488 20.9076 56.3251 20.5 55.3619 20.5H34.6377C33.6745 20.5 32.7508 20.9076 32.0698 21.633C31.3887 22.3585 31.0061 23.3425 31.0061 24.3684V65.6316C31.0061 66.6575 31.3887 67.6415 32.0698 68.367C32.7508 69.0924 33.6745 69.5 34.6377 69.5H55.3619C56.3251 69.5 57.2488 69.0924 57.9298 68.367C58.6109 67.6415 58.9935 66.6575 58.9935 65.6316V54.6947" stroke="white" stroke-width="1.7"/>
<path fill-rule="evenodd" clip-rule="evenodd" d="M41.6382 24.7519C41.6382 24.5137 41.7328 24.2851 41.9013 24.1166C42.0698 23.9481 42.2984 23.8535 42.5366 23.8535H47.4618C47.7001 23.8535 47.9286 23.9481 48.0971 24.1166C48.2656 24.2851 48.3603 24.5137 48.3603 24.7519C48.3603 24.9902 48.2656 25.2188 48.0971 25.3872C47.9286 25.5557 47.7001 25.6504 47.4618 25.6504H42.5366C42.2984 25.6504 42.0698 25.5557 41.9013 25.3872C41.7328 25.2188 41.6382 24.9902 41.6382 24.7519Z" fill="white"/>
<path d="M62.9969 39.3586C64.4072 40.955 65.1814 43.0135 65.1814 45.144C65.1814 47.1485 64.4913 49.099 63.2309 50.6594M59.6541 41.7532C60.5843 42.6354 61.1124 43.8597 61.1124 45.144C61.1124 46.3083 60.6803 47.4246 59.8941 48.2888M66.3457 37C68.2302 39.2986 69.2565 42.1733 69.2625 45.144C69.2685 47.9887 68.3262 50.7554 66.5738 53" stroke="white" stroke-width="1.5" stroke-miterlimit="10" stroke-linecap="square"/>
<path fill-rule="evenodd" clip-rule="evenodd" d="M36.3875 45C36.3875 40.2432 40.2436 36.3871 45.0004 36.3871C49.7572 36.3871 53.6133 40.2432 53.6133 45C53.6133 45.3054 53.5974 45.6071 53.5664 45.9043H53.16H52.5575V45.3016H51.9476H51.3447V44.6988H50.7419H50.139V44.0959H49.5362H48.9263V43.486H48.3235V42.8832V42.2803H47.7206V41.6775H47.1177V41.0746H46.5149V40.4647H45.905V39.8619H45.3022H44.6993V40.4647V41.0746H45.3022V41.6775H45.905V42.2803V42.8832H46.5149V43.486V44.0959H47.1177V44.6988V45.3016H47.7206V45.9045H47.1177V46.5143H46.5149V47.1172H45.905V47.72V48.3228H45.3022V48.9256H45.9051V48.3229H46.5149V47.72H47.1177V47.1172H47.7198V47.7199H48.3226V47.117H47.7206V46.5143H48.3235H48.9263V47.1172H49.5362H50.139V47.72H50.7419H51.3443V48.3228H51.9472V47.72H51.3447V47.1172H50.7419V46.5143H50.139V45.9045H50.7419H51.3447V46.5143H51.9476V45.9045H52.5571V46.5142H53.16H53.4806C52.7651 50.5489 49.2406 53.6129 45.0004 53.6129C41.194 53.6129 37.9644 51.1438 36.8257 47.7199H36.8414V47.117H36.6496C36.4784 46.4397 36.3875 45.7305 36.3875 45ZM48.9263 46.5143V45.9045H49.5362V46.5143H48.9263ZM45.0004 35.3871C39.6913 35.3871 35.3875 39.6909 35.3875 45C35.3875 50.3091 39.6913 54.6129 45.0004 54.6129C50.3094 54.6129 54.6133 50.3091 54.6133 45C54.6133 39.6909 50.3094 35.3871 45.0004 35.3871ZM47.118 49.5355H47.7208V50.1384H47.118V49.5355ZM44.6992 49.5355H44.0964V50.1384H44.6992V49.5355ZM44.6993 48.9256H45.3022V49.5284H44.6993V48.9256ZM49.5296 47.72H48.9268V48.3228H49.5296V47.72ZM43.4864 47.117H42.8836V47.7199H43.4864V47.117ZM36.8404 46.5142V47.117H37.4432H38.0531V46.5142H37.4432H36.8404ZM38.6572 45.9043H38.0543V46.5072H38.6572V45.9043ZM41.6775 45.3015H41.0746V44.6987H40.4647V44.0958H39.8619V44.6987H39.259V45.3015H39.8619V45.9044H40.4647V46.5142H41.0746H41.6775V47.1171H42.2803H42.8832V46.5142H42.2803V45.9044H41.6775V45.3015ZM38.6561 45.3014H39.259V45.9043H38.6561V45.3014ZM42.2806 45.3014V45.9043H42.8835V45.3014V44.6986H42.2806V45.3014ZM42.8836 44.6987V44.0958V43.4859H43.4864V44.0958V44.6987H42.8836ZM43.4865 42.883V43.4858H44.0964V42.883V42.2801H43.4865V42.883ZM44.0964 42.2801V41.6773V41.0744H44.6992V41.6773V42.2801H44.0964Z" fill="white"/>
</g>
<defs>
<clipPath id="clip0_10007_40053">
<rect width="90" height="90" fill="white"/>
</clipPath>
</defs>
</svg>
