<svg width="51" height="59" viewBox="0 0 51 59" fill="none" xmlns="http://www.w3.org/2000/svg">
<path d="M50.198 23.0269C50.4893 22.8623 50.6667 22.5519 50.6667 22.2163V15.2559C50.6667 14.9203 50.4893 14.6099 50.198 14.4453L44.1687 10.9619C43.8773 10.7973 43.5227 10.7973 43.2313 10.9619L37.6707 14.1729L32.3 11.0759V4.6476C32.3 4.31194 32.1227 4.0016 31.8313 3.83694L25.802 0.353603C25.5107 0.188936 25.156 0.188936 24.8647 0.353603L18.8353 3.83694C18.544 4.0016 18.3667 4.31194 18.3667 4.6476V11.0696L12.996 14.1666L7.43533 10.9556C7.144 10.7909 6.78933 10.7909 6.498 10.9556L0.468667 14.4389C0.177333 14.6036 0 14.9139 0 15.2496V22.2099C0 22.5456 0.177333 22.8559 0.468667 23.0206L6.02933 26.2316V32.4319L0.468667 35.6429C0.177333 35.8076 0 36.1179 0 36.4536V43.4139C0 43.7496 0.177333 44.0599 0.468667 44.2246L6.498 47.7079C6.64367 47.7903 6.80833 47.8346 6.96667 47.8346C7.125 47.8346 7.28967 47.7903 7.43533 47.7079L12.996 44.4969L18.3667 47.5939V54.0159C18.3667 54.3516 18.544 54.6619 18.8353 54.8266L24.8647 58.3099C25.0103 58.3923 25.175 58.4366 25.3333 58.4366C25.4917 58.4366 25.6563 58.3923 25.802 58.3099L31.8313 54.8266C32.1227 54.6619 32.3 54.3516 32.3 54.0159V47.5939L37.6707 44.4969L43.2313 47.7079C43.377 47.7903 43.5417 47.8346 43.7 47.8346C43.8583 47.8346 44.023 47.7903 44.1687 47.7079L50.198 44.2246C50.4893 44.0599 50.6667 43.7496 50.6667 43.4139V36.4536C50.6667 36.1179 50.4893 35.8076 50.198 35.6429L44.6373 32.4319V26.2316L50.198 23.0206V23.0269ZM43.7 38.8539L39.5517 36.4599L43.7 34.0659L47.8483 36.4599L43.7 38.8539ZM31.3627 45.9789L26.2707 43.0403V36.8399L31.8313 33.6289C32.1227 33.4643 32.3 33.1539 32.3 32.8183V26.3963L37.6707 23.2993L42.7627 26.2379V32.4383L37.202 35.6493C36.9107 35.8139 36.7333 36.1243 36.7333 36.4599V42.8819L31.3627 45.9789ZM25.3333 49.4559L21.185 47.0619L25.3333 44.6679L29.4817 47.0619L25.3333 49.4559ZM13.9333 42.8756V36.4536C13.9333 36.1179 13.756 35.8076 13.4647 35.6429L7.904 32.4319V26.2316L12.996 23.2929L18.3667 26.3899V32.8119C18.3667 33.1476 18.544 33.4579 18.8353 33.6226L24.396 36.8336V43.0339L19.304 45.9726L13.9333 42.8756ZM6.96667 38.8539L2.81833 36.4599L6.96667 34.0659L11.115 36.4599L6.96667 38.8539ZM19.304 12.6909L24.8647 15.9019C25.0103 15.9843 25.175 16.0286 25.3333 16.0286C25.4917 16.0286 25.6563 15.9843 25.802 15.9019L31.3627 12.6909L36.7333 15.7879V21.6653L31.3627 24.7623L25.802 21.5513C25.5107 21.3866 25.156 21.3866 24.8647 21.5513L19.304 24.7623L13.9333 21.6653V15.7879L19.304 12.6909ZM24.396 8.66927V13.4636L20.2477 11.0696V6.27527L24.396 8.66927ZM26.2707 8.66927L30.419 6.27527V11.0696L26.2707 13.4636V8.66927ZM42.7627 19.2713V24.0656L38.6143 21.6716V16.8773L42.7627 19.2713ZM20.2413 27.4793L24.3897 29.8733V34.6676L20.2413 32.2736V27.4793ZM25.3333 28.2519L21.185 25.8579L25.3333 23.4639L29.4817 25.8579L25.3333 28.2519ZM26.2707 29.8733L30.419 27.4793V32.2736L26.2707 34.6676V29.8733ZM12.0587 16.8773V21.6716L7.91033 24.0656V19.2713L12.0587 16.8773ZM44.6373 24.0656V19.2713L48.7857 16.8773V21.6716L44.6373 24.0656ZM43.7 12.8556L47.8483 15.2496L43.7 17.6436L39.5517 15.2496L43.7 12.8556ZM25.3333 2.24727L29.4817 4.64127L25.3333 7.03527L21.185 4.64127L25.3333 2.24727ZM6.96667 12.8556L11.115 15.2496L6.96667 17.6436L2.81833 15.2496L6.96667 12.8556ZM1.881 16.8773L6.02933 19.2713V24.0656L1.881 21.6716V16.8773ZM1.881 38.0813L6.02933 40.4753V45.2696L1.881 42.8756V38.0813ZM7.904 45.2696V40.4753L12.0523 38.0813V42.8756L7.904 45.2696ZM20.2413 48.6896L24.3897 51.0836V55.8779L20.2413 53.4839V48.6896ZM30.4253 53.4776L26.277 55.8716V51.0773L30.4253 48.6833V53.4776ZM38.608 38.0813L42.7563 40.4753V45.2696L38.608 42.8756V38.0813ZM44.6373 45.2696V40.4753L48.7857 38.0813V42.8756L44.6373 45.2696Z" fill="#FB7185"/>
</svg>
