<svg width="20" height="20" viewBox="0 0 20 20" fill="none" xmlns="http://www.w3.org/2000/svg">
<g clip-path="url(#clip0_10043_27076)">
<rect width="20" height="20" fill="white"/>
<path d="M14.3897 9.07249C14.3985 8.38256 14.5818 7.70609 14.9224 7.10602C15.263 6.50594 15.7498 6.00177 16.3376 5.6404C15.9642 5.10711 15.4716 4.66824 14.8989 4.35863C14.3262 4.04903 13.6892 3.87722 13.0385 3.85686C11.6504 3.71117 10.3048 4.68746 9.59744 4.68746C8.87642 4.68746 7.78738 3.87133 6.61466 3.89546C5.85611 3.91997 5.11684 4.14055 4.46889 4.53571C3.82094 4.93087 3.2864 5.48714 2.91735 6.15031C1.3187 8.91811 2.51115 12.9859 4.04251 15.2231C4.80869 16.3187 5.70413 17.5424 6.87579 17.499C8.02233 17.4515 8.45054 16.7679 9.83452 16.7679C11.2056 16.7679 11.6074 17.499 12.8028 17.4714C14.0331 17.4514 14.8083 16.371 15.5476 15.2651C16.0981 14.4845 16.5217 13.6218 16.8027 12.7088C16.0879 12.4065 15.478 11.9005 15.0489 11.2539C14.6197 10.6072 14.3905 9.84856 14.3897 9.07249V9.07249Z" fill="#0F80F0"/>
<path d="M12.1328 2.38534C12.8036 1.58006 13.1341 0.545014 13.0541 -0.5C12.0292 -0.39236 11.0826 0.097449 10.4027 0.871832C10.0703 1.25014 9.8157 1.69025 9.65348 2.16701C9.49127 2.64376 9.4246 3.14782 9.45731 3.65036C9.96992 3.65563 10.477 3.54453 10.9405 3.32541C11.4039 3.10629 11.8116 2.78486 12.1328 2.38534Z" fill="#0F80F0"/>
</g>
<defs>
<clipPath id="clip0_10043_27076">
<rect width="20" height="20" fill="white"/>
</clipPath>
</defs>
</svg>
