<svg width="60" height="62" viewBox="0 0 60 62" fill="none" xmlns="http://www.w3.org/2000/svg">
<path fill-rule="evenodd" clip-rule="evenodd" d="M3.78014 1.04928C4.30084 0.528578 5.14506 0.528578 5.66576 1.04928L14.0904 9.47391C18.2612 6.36793 23.4864 4.52037 29.142 4.52037C42.7037 4.52037 53.7849 15.1323 53.6908 28.2832C53.6896 34.0266 51.5894 39.3337 48.0709 43.4545L59.3486 54.7321C59.8693 55.2528 59.8693 56.097 59.3486 56.6177C58.8279 57.1384 57.9837 57.1384 57.463 56.6177L46.2282 45.383C45.7512 45.8295 45.2552 46.257 44.7415 46.6643C45.4317 47.2308 45.8741 48.0896 45.8741 49.0463V50.784H47.006C48.0394 50.784 49.1485 51.348 49.6698 52.3653L52.1884 56.7088L52.1944 56.7192L52.1943 56.7192C53.407 58.8546 51.8573 61.3411 49.545 61.3411H8.80015C6.50021 61.3411 4.91478 58.7596 6.16396 56.6964L8.69574 52.3303C8.7082 52.3088 8.72126 52.2876 8.73491 52.2669C9.2703 51.4521 10.1815 50.784 11.3391 50.784H12.3751V49.0463C12.3751 48.0994 12.8085 47.2483 13.4867 46.6817C8.02713 42.3282 4.48678 35.6646 4.48678 28.2786C4.48678 21.5659 7.3859 15.5066 12.0327 11.1875L3.78014 2.9349C3.25944 2.4142 3.25944 1.56998 3.78014 1.04928ZM7.15345 28.2786C7.15345 22.3335 9.74463 16.9255 13.9195 13.0743L44.3417 43.4964C43.3521 44.4148 42.2713 45.2424 41.112 45.9645H17.0705C11.1206 42.2008 7.15345 35.6185 7.15345 28.2786ZM15.9972 11.3807L46.179 41.5625C49.2211 37.9268 51.0241 33.2846 51.0241 28.2786V28.2687H51.0241C51.1095 16.7015 41.3329 7.18704 29.142 7.18704C24.204 7.18704 19.6582 8.75113 15.9972 11.3807ZM41.4638 48.6312L41.4859 48.6314L41.5128 48.6312H42.7924C43.0138 48.6312 43.2074 48.8248 43.2074 49.0463V50.784H15.0418V49.0463C15.0418 48.8248 15.2354 48.6312 15.4568 48.6312H16.6651L16.6879 48.6314L16.7133 48.6312H41.4638ZM27.7929 10.1411C27.7929 9.40468 28.3898 8.80772 29.1262 8.80772C36.6555 8.80772 43.1376 12.9524 46.4342 19.1541C46.7799 19.8043 46.533 20.6116 45.8828 20.9573C45.2325 21.3029 44.4252 21.056 44.0796 20.4058C41.2342 15.053 35.6448 11.4744 29.1262 11.4744C28.3898 11.4744 27.7929 10.8774 27.7929 10.1411ZM10.9804 53.7062L8.46367 58.0465L8.45288 58.0648L8.44681 58.0747C8.38386 58.1774 8.37392 58.3088 8.45818 58.4551C8.54605 58.6078 8.67945 58.6745 8.80015 58.6745H49.545C49.7013 58.6745 49.8236 58.5968 49.8935 58.4781C49.9558 58.3723 49.9814 58.2251 49.8776 58.0398L49.8755 58.0361L47.3425 53.6679C47.3262 53.6397 47.3109 53.611 47.2966 53.5816L47.2971 53.5826L47.2966 53.582C47.2932 53.5771 47.2713 53.5459 47.2108 53.5107C47.1391 53.4689 47.0614 53.4506 47.006 53.4506H44.5486L44.5407 53.4507L44.5328 53.4506H13.7163L13.7084 53.4507L13.7006 53.4506H11.3391C11.2824 53.4506 11.1379 53.4797 10.9804 53.7062ZM48.118 23.6679C47.9394 22.9535 47.2155 22.5191 46.5011 22.6977C45.7867 22.8763 45.3523 23.6003 45.5309 24.3146C45.8553 25.612 46.0232 26.9022 46.0232 28.2786C46.0232 29.015 46.6202 29.6119 47.3566 29.6119C48.093 29.6119 48.6899 29.015 48.6899 28.2786C48.6899 26.6752 48.493 25.1679 48.118 23.6679ZM48.5118 6.20351H47.6756C47.2803 6.20351 46.9762 5.89944 46.9762 5.50416C46.9762 5.10887 47.2955 4.80481 47.6756 4.80481H48.5118V3.96863C48.5118 3.57334 48.8158 3.26927 49.2111 3.26927C49.6064 3.26927 49.9105 3.58854 49.9105 3.96863V4.80481H50.7466C51.1419 4.80481 51.446 5.10887 51.446 5.50416C51.446 5.89944 51.1267 6.20351 50.7466 6.20351H49.9105V7.03969C49.9105 7.43498 49.6064 7.73904 49.2111 7.73904C48.8158 7.73904 48.5118 7.41978 48.5118 7.03969V6.20351ZM56.8436 9.39612H56.0074V8.55994C56.0074 8.17986 55.7034 7.86059 55.3081 7.86059C54.9128 7.86059 54.6087 8.16466 54.6087 8.55994V9.39612H53.7725C53.3925 9.39612 53.0732 9.70019 53.0732 10.0955C53.0732 10.4908 53.3773 10.7948 53.7725 10.7948H54.6087V11.631C54.6087 12.0111 54.9128 12.3304 55.3081 12.3304C55.7034 12.3304 56.0074 12.0263 56.0074 11.631V10.7948H56.8436C57.2237 10.7948 57.543 10.4908 57.543 10.0955C57.543 9.70019 57.2389 9.39612 56.8436 9.39612ZM2.87063 12.3152C2.47534 12.3152 2.17128 11.9959 2.17128 11.6158V10.7796H1.33509C0.939808 10.7796 0.635742 10.4756 0.635742 10.0803C0.635742 9.685 0.955011 9.38093 1.33509 9.38093H2.17128V8.54475C2.17128 8.14947 2.47534 7.8454 2.87063 7.8454C3.26591 7.8454 3.56998 8.16467 3.56998 8.54475V9.38093H4.40616C4.80145 9.38093 5.10551 9.685 5.10551 10.0803C5.10551 10.4756 4.78624 10.7796 4.40616 10.7796H3.56998V11.6158C3.56998 12.0111 3.26591 12.3152 2.87063 12.3152Z" fill="#FB7185"/>
</svg>
