<svg width="24" height="24" viewBox="0 0 24 24" fill="none" xmlns="http://www.w3.org/2000/svg">
<path d="M16.6292 8.92179C16.3003 8.7338 15.8773 8.7338 15.5013 8.92179L12.8695 10.4727L11.0836 11.4596L8.49869 13.0106C8.16971 13.1985 7.74674 13.1985 7.37076 13.0106L5.34987 11.7886C5.02089 11.6006 4.7859 11.2247 4.7859 10.8017V8.45181C4.7859 8.07583 4.97389 7.69985 5.34987 7.46487L7.37076 6.28993C7.69974 6.10194 8.12272 6.10194 8.49869 6.28993L10.5196 7.51186C10.8486 7.69985 11.0836 8.07583 11.0836 8.49881V10.0497L12.8695 9.01578V7.41787C12.8695 7.04189 12.6815 6.66591 12.3055 6.43092L8.54569 4.22205C8.21671 4.03406 7.79373 4.03406 7.41775 4.22205L3.56397 6.47792C3.18799 6.66591 3 7.04189 3 7.41787V11.8356C3 12.2116 3.18799 12.5876 3.56397 12.8226L7.37076 15.0314C7.69974 15.2194 8.12272 15.2194 8.49869 15.0314L11.0836 13.5275L12.8695 12.4936L15.4543 10.9897C15.7833 10.8017 16.2063 10.8017 16.5822 10.9897L18.6031 12.1646C18.9321 12.3526 19.1671 12.7286 19.1671 13.1516V15.5014C19.1671 15.8774 18.9791 16.2534 18.6031 16.4884L16.6292 17.6633C16.3003 17.8513 15.8773 17.8513 15.5013 17.6633L13.4804 16.4884C13.1514 16.3004 12.9164 15.9244 12.9164 15.5014V13.9975L11.1305 15.0314V16.5824C11.1305 16.9583 11.3185 17.3343 11.6945 17.5693L15.5013 19.7782C15.8303 19.9662 16.2533 19.9662 16.6292 19.7782L20.436 17.5693C20.765 17.3813 21 17.0053 21 16.5824V12.1176C21 11.7416 20.812 11.3656 20.436 11.1307L16.6292 8.92179Z" fill="white"/>
</svg>
