<svg width="96" height="35" viewBox="0 0 96 35" fill="none" xmlns="http://www.w3.org/2000/svg">
<g clip-path="url(#clip0_441_89)">
<path d="M20.069 0.415039H17.467C17.467 4.34815 14.3098 7.54547 10.39 7.61236C10.3499 7.61236 10.3098 7.61236 10.2696 7.61236C10.2295 7.61236 10.1894 7.61236 10.1492 7.61236C6.22282 7.54547 3.06563 4.34815 3.06563 0.415039H0.463623C0.463623 4.04715 2.44356 7.2244 5.38001 8.91671C2.44356 10.609 0.463623 13.7796 0.463623 17.4184C0.463623 21.0572 2.44356 24.2277 5.38001 25.9201C2.44356 27.6124 0.463623 30.7829 0.463623 34.4217H3.06563C3.06563 30.4886 6.22282 27.2846 10.1426 27.2244C10.1827 27.2244 10.2228 27.2244 10.263 27.2244C10.3031 27.2244 10.3432 27.2244 10.3834 27.2244C14.3031 27.2913 17.4603 30.4886 17.4603 34.4217H20.0623C20.0623 30.7896 18.0824 27.6124 15.1459 25.9201C18.0824 24.2277 20.0623 21.0572 20.0623 17.4184C20.0623 13.7796 18.0824 10.609 15.1459 8.91671C18.089 7.2244 20.069 4.04715 20.069 0.415039ZM17.467 17.4184C17.467 21.3515 14.3098 24.5488 10.39 24.6157C10.3499 24.6157 10.3098 24.6157 10.2696 24.6157C10.2295 24.6157 10.1894 24.6157 10.1492 24.6157C6.22951 24.5488 3.07232 21.3515 3.07232 17.4184C3.07232 13.4853 6.22951 10.2879 10.1492 10.2211C10.1894 10.2211 10.2295 10.2211 10.2696 10.2211C10.3098 10.2211 10.3499 10.2211 10.39 10.2211C14.3098 10.2879 17.467 13.4853 17.467 17.4184Z" fill="#59C7F2"/>
<path d="M32.9319 17.4517C37.253 17.4517 38.9052 19.5386 38.9052 22.3948C38.9052 25.251 37.2597 27.3379 32.9319 27.3379H28.9921V34.1874H27.2664V17.4583H32.9319V17.4517ZM28.9921 19.0503V25.746H32.9319C36.0958 25.746 37.1794 24.4082 37.1794 22.4015C37.1794 20.3948 36.0958 19.057 32.9319 19.057H28.9921V19.0503Z" fill="#3E3E3E"/>
<path d="M50.8716 28.4151H42.4302V28.5154C42.4302 31.579 44.0021 32.8632 46.37 32.8632C47.9419 32.8632 49.2529 32.3214 50.1024 31.7061L50.7178 33.1241C49.5071 33.9469 48.0155 34.4084 46.37 34.4084C42.9987 34.4084 40.7579 32.5556 40.7579 28.1542V27.3315C40.7579 22.8766 42.7914 21.0505 45.8014 21.0505C48.8114 21.0505 50.8716 22.8766 50.8716 27.3315V28.4151ZM42.4302 27.0773H49.1994V26.9234C49.1994 23.7863 47.8081 22.6024 45.8014 22.6024C43.7947 22.6024 42.4302 23.7863 42.4302 26.9234V27.0773Z" fill="#3E3E3E"/>
<path d="M53.4203 16.1675H55.039V30.4283C55.039 32.2544 55.7079 32.8765 56.6845 32.8765C57.3534 32.8765 57.7413 32.6959 58.1494 32.415L58.7447 33.833C58.1494 34.221 57.4604 34.4283 56.5306 34.4283C54.7781 34.4283 53.4136 33.3715 53.4136 30.415V16.1809L53.4203 16.1675Z" fill="#3E3E3E"/>
<path d="M69.7078 28.4151H61.2664V28.5154C61.2664 31.579 62.8383 32.8632 65.2062 32.8632C66.7781 32.8632 68.0891 32.3214 68.9386 31.7061L69.554 33.1241C68.3433 33.9469 66.8516 34.4084 65.2062 34.4084C61.8349 34.4084 59.5941 32.5556 59.5941 28.1542V27.3315C59.5941 22.8766 61.6276 21.0505 64.6376 21.0505C67.6476 21.0505 69.7078 22.8766 69.7078 27.3315V28.4151ZM61.2664 27.0773H68.0356V26.9234C68.0356 23.7863 66.6443 22.6024 64.6376 22.6024C62.6309 22.6024 61.2664 23.7863 61.2664 26.9234V27.0773Z" fill="#3E3E3E"/>
<path d="M72.1293 22.0872C72.9052 21.6257 74.3433 21.0571 76.1159 21.0571C77.0925 21.0571 77.9687 21.2377 78.6644 21.5989L77.9687 23.0371C77.4804 22.7561 76.8851 22.6023 76.1159 22.6023C75.059 22.6023 74.2363 22.9367 73.748 23.1441V34.1876H72.1293V22.0872Z" fill="#3E3E3E"/>
<path d="M81.1125 16.0603C81.7279 16.0603 82.1961 16.5218 82.1961 17.164C82.1961 17.7593 81.7345 18.2476 81.1125 18.2476C80.4904 18.2476 80.0088 17.7593 80.0088 17.164C80.0088 16.5218 80.4971 16.0603 81.1125 16.0603ZM80.2897 21.3111H81.9085V34.1807H80.2897V21.3111Z" fill="#3E3E3E"/>
<path d="M85.1794 22.0872C86.0557 21.5989 87.5206 21.0571 89.6811 21.0571C92.9253 21.0571 95.2664 22.8565 95.2664 27.3916V34.1876H93.6477V27.318C93.6477 23.7929 92.0289 22.609 89.6075 22.609C88.2965 22.609 87.4938 22.8631 86.8049 23.1508V34.1943H85.1861V22.0939L85.1794 22.0872Z" fill="#3E3E3E"/>
<path d="M27.2663 0.415039H28.8182L32.0556 5.8933L35.2797 0.415039H36.8315V11.2712H35.3934V2.95685L32.0556 8.6826L28.6978 2.95685V11.2712H27.2596V0.415039H27.2663Z" fill="#3E3E3E"/>
<path d="M38.9386 0.415039H40.3098V2.9234H43.6476V4.22775H40.3098V8.42173C40.3098 9.50534 40.7246 9.96019 41.3801 10.0739C41.6276 10.1073 41.9152 10.1073 42.1827 10.0739C42.8316 10.0271 43.4001 9.79297 43.8015 9.40501C43.9486 9.80634 44.1025 10.1876 44.2697 10.589C43.6008 11.1374 42.7312 11.4251 41.7613 11.4251C40.1426 11.4251 38.9386 10.6425 38.9386 8.42173V0.415039Z" fill="#3E3E3E"/>
</g>
<defs>
<clipPath id="clip0_441_89">
<rect width="94.8027" height="34" fill="white" transform="translate(0.463623 0.415039)"/>
</clipPath>
</defs>
</svg>
