<svg width="24" height="24" viewBox="0 0 24 24" fill="none" xmlns="http://www.w3.org/2000/svg">
<path d="M6.55374 16.7348C5.50935 16.7348 4.65421 16.4894 3.98832 15.9988C3.32944 15.5011 3 14.7862 3 13.8679C3 13.6717 3.02103 13.4404 3.06308 13.16C3.17523 12.5292 3.33645 11.7721 3.54673 10.882C4.14252 8.47074 5.68458 7.26514 8.16589 7.26514C8.83879 7.26514 9.4486 7.37729 9.98131 7.60859C10.514 7.82588 10.9346 8.16233 11.243 8.61093C11.5514 9.05252 11.7056 9.57822 11.7056 10.188C11.7056 10.3703 11.6846 10.6016 11.6425 10.882C11.5093 11.66 11.3551 12.424 11.1659 13.16C10.8575 14.3586 10.3318 15.2628 9.57477 15.8586C8.82477 16.4474 7.81542 16.7348 6.55374 16.7348ZM6.74299 14.8422C7.23364 14.8422 7.6472 14.695 7.99065 14.4077C8.34112 14.1203 8.59346 13.6787 8.74065 13.0759C8.94392 12.2488 9.09813 11.5338 9.20327 10.917C9.23832 10.7348 9.25935 10.5455 9.25935 10.3492C9.25935 9.55018 8.84579 9.15065 8.01168 9.15065C7.52103 9.15065 7.10047 9.29785 6.75 9.58523C6.40654 9.87261 6.16121 10.3142 6.01402 10.917C5.8528 11.5058 5.6986 12.2207 5.53738 13.0759C5.50234 13.2511 5.48131 13.4334 5.48131 13.6296C5.4743 14.4427 5.90187 14.8422 6.74299 14.8422Z" fill="white"/>
<path d="M12.3154 16.6087C12.2173 16.6087 12.1472 16.5807 12.0911 16.5176C12.0491 16.4475 12.0351 16.3704 12.0491 16.2793L13.8645 7.72788C13.8785 7.62975 13.9276 7.55264 14.0117 7.48956C14.0888 7.42648 14.1729 7.39844 14.264 7.39844H17.7617C18.736 7.39844 19.514 7.60171 20.1028 8.00124C20.6986 8.40778 21 8.98956 21 9.75358C21 9.97087 20.972 10.2022 20.9229 10.4405C20.7056 11.4498 20.264 12.1928 19.5911 12.6765C18.9323 13.1601 18.0281 13.3984 16.8785 13.3984H15.1052L14.5024 16.2793C14.4813 16.3774 14.4393 16.4545 14.3552 16.5176C14.2781 16.5807 14.1939 16.6087 14.1028 16.6087H12.3154ZM16.9696 11.583C17.3411 11.583 17.6566 11.4849 17.9299 11.2816C18.2103 11.0783 18.3925 10.791 18.4837 10.4125C18.5117 10.2653 18.5257 10.1321 18.5257 10.0199C18.5257 9.7676 18.4486 9.57134 18.3014 9.43816C18.1542 9.29797 17.8949 9.22788 17.5374 9.22788H15.9603L15.4626 11.583H16.9696Z" fill="white"/>
</svg>
