<svg width="31" height="30" viewBox="0 0 31 30" fill="none" xmlns="http://www.w3.org/2000/svg">
<path d="M15.0942 0C13.125 0 11.175 0.387872 9.35566 1.14147C7.53631 1.89507 5.88321 2.99964 4.49074 4.39211C1.67852 7.20432 0.0986328 11.0185 0.0986328 14.9956C0.0986328 21.6236 4.40237 27.247 10.3556 29.2414C11.1054 29.3614 11.3453 28.8965 11.3453 28.4916V25.9574C7.19155 26.8571 6.30681 23.948 6.30681 23.948C5.61701 22.2085 4.6423 21.7436 4.6423 21.7436C3.2777 20.8139 4.74727 20.8439 4.74727 20.8439C6.24682 20.9488 7.04159 22.3884 7.04159 22.3884C8.34621 24.6677 10.5506 23.9929 11.4053 23.633C11.5403 22.6583 11.9302 21.9985 12.35 21.6236C9.02101 21.2487 5.52704 19.9591 5.52704 14.2458C5.52704 12.5813 6.09687 11.2467 7.07158 10.182C6.92163 9.80711 6.39678 8.24757 7.22154 6.22317C7.22154 6.22317 8.48117 5.81829 11.3453 7.75272C12.53 7.42282 13.8196 7.25786 15.0942 7.25786C16.3688 7.25786 17.6585 7.42282 18.8431 7.75272C21.7073 5.81829 22.9669 6.22317 22.9669 6.22317C23.7917 8.24757 23.2668 9.80711 23.1169 10.182C24.0916 11.2467 24.6614 12.5813 24.6614 14.2458C24.6614 19.9741 21.1524 21.2338 17.8084 21.6086C18.3483 22.0735 18.8431 22.9882 18.8431 24.3828V28.4916C18.8431 28.8965 19.083 29.3764 19.8478 29.2414C25.8011 27.232 30.0898 21.6236 30.0898 14.9956C30.0898 13.0263 29.7019 11.0764 28.9483 9.25702C28.1947 7.43768 27.0902 5.78457 25.6977 4.39211C24.3052 2.99964 22.6521 1.89507 20.8328 1.14147C19.0134 0.387872 17.0635 0 15.0942 0Z" fill="white"/>
</svg>
