<svg width="1562" height="659" viewBox="0 0 1562 659" fill="none" xmlns="http://www.w3.org/2000/svg">
<path d="M707.38 264.12C692.82 264.12 678.867 262.213 665.52 258.4C652.173 254.413 641.427 249.3 633.28 243.06L647.58 211.34C655.38 216.887 664.567 221.48 675.14 225.12C685.887 228.587 696.72 230.32 707.64 230.32C715.96 230.32 722.633 229.54 727.66 227.98C732.86 226.247 736.673 223.907 739.1 220.96C741.527 218.013 742.74 214.633 742.74 210.82C742.74 205.967 740.833 202.153 737.02 199.38C733.207 196.433 728.18 194.093 721.94 192.36C715.7 190.453 708.767 188.72 701.14 187.16C693.687 185.427 686.147 183.347 678.52 180.92C671.067 178.493 664.22 175.373 657.98 171.56C651.74 167.747 646.627 162.72 642.64 156.48C638.827 150.24 636.92 142.267 636.92 132.56C636.92 122.16 639.693 112.713 645.24 104.22C650.96 95.5533 659.453 88.7067 670.72 83.68C682.16 78.48 696.46 75.88 713.62 75.88C725.06 75.88 736.327 77.2667 747.42 80.04C758.513 82.64 768.307 86.6267 776.8 92L763.8 123.98C755.307 119.127 746.813 115.573 738.32 113.32C729.827 110.893 721.507 109.68 713.36 109.68C705.213 109.68 698.54 110.633 693.34 112.54C688.14 114.447 684.413 116.96 682.16 120.08C679.907 123.027 678.78 126.493 678.78 130.48C678.78 135.16 680.687 138.973 684.5 141.92C688.313 144.693 693.34 146.947 699.58 148.68C705.82 150.413 712.667 152.147 720.12 153.88C727.747 155.613 735.287 157.607 742.74 159.86C750.367 162.113 757.3 165.147 763.54 168.96C769.78 172.773 774.807 177.8 778.62 184.04C782.607 190.28 784.6 198.167 784.6 207.7C784.6 217.927 781.74 227.287 776.02 235.78C770.3 244.273 761.72 251.12 750.28 256.32C739.013 261.52 724.713 264.12 707.38 264.12ZM867.721 263.08C851.254 263.08 838.427 258.92 829.241 250.6C820.054 242.107 815.461 229.54 815.461 212.9V90.18H856.021V212.38C856.021 218.273 857.581 222.867 860.701 226.16C863.821 229.28 868.067 230.84 873.441 230.84C879.854 230.84 885.314 229.107 889.821 225.64L900.741 254.24C896.581 257.187 891.554 259.44 885.661 261C879.941 262.387 873.961 263.08 867.721 263.08ZM793.881 155.44V124.24H890.861V155.44H793.881ZM1009.31 261V233.7L1006.71 227.72V178.84C1006.71 170.173 1004.02 163.413 998.649 158.56C993.449 153.707 985.389 151.28 974.469 151.28C967.016 151.28 959.649 152.493 952.369 154.92C945.262 157.173 939.196 160.293 934.169 164.28L919.609 135.94C927.236 130.567 936.422 126.407 947.169 123.46C957.916 120.513 968.836 119.04 979.929 119.04C1001.25 119.04 1017.8 124.067 1029.59 134.12C1041.38 144.173 1047.27 159.86 1047.27 181.18V261H1009.31ZM966.669 263.08C955.749 263.08 946.389 261.26 938.589 257.62C930.789 253.807 924.809 248.693 920.649 242.28C916.489 235.867 914.409 228.673 914.409 220.7C914.409 212.38 916.402 205.1 920.389 198.86C924.549 192.62 931.049 187.767 939.889 184.3C948.729 180.66 960.256 178.84 974.469 178.84H1011.65V202.5H978.889C969.356 202.5 962.769 204.06 959.129 207.18C955.662 210.3 953.929 214.2 953.929 218.88C953.929 224.08 955.922 228.24 959.909 231.36C964.069 234.307 969.702 235.78 976.809 235.78C983.569 235.78 989.636 234.22 995.009 231.1C1000.38 227.807 1004.28 223.04 1006.71 216.8L1012.95 235.52C1010 244.533 1004.63 251.38 996.829 256.06C989.029 260.74 978.976 263.08 966.669 263.08ZM1099.12 313.52C1091.84 313.52 1084.65 312.393 1077.54 310.14C1070.43 307.887 1064.63 304.767 1060.12 300.78L1074.94 271.92C1078.06 274.693 1081.61 276.86 1085.6 278.42C1089.76 279.98 1093.83 280.76 1097.82 280.76C1103.54 280.76 1108.05 279.373 1111.34 276.6C1114.81 274 1117.93 269.58 1120.7 263.34L1127.98 246.18L1131.1 241.76L1181.28 121.12H1220.28L1157.1 269.58C1152.59 280.847 1147.39 289.687 1141.5 296.1C1135.78 302.513 1129.37 307.02 1122.26 309.62C1115.33 312.22 1107.61 313.52 1099.12 313.52ZM1123.04 266.46L1060.64 121.12H1102.5L1150.86 238.12L1123.04 266.46ZM647.58 578V396H689.7V543.68H780.96V578H647.58ZM801.634 578V438.12H842.194V578H801.634ZM821.914 418.62C814.461 418.62 808.394 416.453 803.714 412.12C799.034 407.787 796.694 402.413 796.694 396C796.694 389.587 799.034 384.213 803.714 379.88C808.394 375.547 814.461 373.38 821.914 373.38C829.367 373.38 835.434 375.46 840.114 379.62C844.794 383.607 847.134 388.807 847.134 395.22C847.134 401.98 844.794 407.613 840.114 412.12C835.607 416.453 829.541 418.62 821.914 418.62ZM939.377 580.08C926.204 580.08 914.331 577.133 903.757 571.24C893.184 565.347 884.777 557.027 878.537 546.28C872.471 535.533 869.437 522.793 869.437 508.06C869.437 493.5 872.471 480.847 878.537 470.1C884.777 459.353 893.184 451.033 903.757 445.14C914.331 439.073 926.204 436.04 939.377 436.04C951.684 436.04 962.171 438.64 970.837 443.84C979.677 449.04 986.437 456.927 991.117 467.5C995.797 478.073 998.137 491.593 998.137 508.06C998.137 524.353 995.711 537.873 990.857 548.62C986.004 559.193 979.157 567.08 970.317 572.28C961.477 577.48 951.164 580.08 939.377 580.08ZM946.397 546.8C952.984 546.8 958.964 545.24 964.337 542.12C969.711 539 973.957 534.58 977.077 528.86C980.371 522.967 982.017 516.033 982.017 508.06C982.017 499.913 980.371 492.98 977.077 487.26C973.957 481.54 969.711 477.12 964.337 474C958.964 470.88 952.984 469.32 946.397 469.32C939.637 469.32 933.571 470.88 928.197 474C922.824 477.12 918.491 481.54 915.197 487.26C912.077 492.98 910.517 499.913 910.517 508.06C910.517 516.033 912.077 522.967 915.197 528.86C918.491 534.58 922.824 539 928.197 542.12C933.571 545.24 939.637 546.8 946.397 546.8ZM981.237 628.44V549.66L983.837 508.32L983.057 466.72V438.12H1021.8V628.44H981.237ZM1118.37 580.08C1106.76 580.08 1096.36 577.827 1087.17 573.32C1078.16 568.813 1071.14 561.967 1066.11 552.78C1061.08 543.42 1058.57 531.547 1058.57 517.16V438.12H1099.13V511.18C1099.13 522.793 1101.56 531.373 1106.41 536.92C1111.44 542.293 1118.46 544.98 1127.47 544.98C1133.71 544.98 1139.26 543.68 1144.11 541.08C1148.96 538.307 1152.78 534.147 1155.55 528.6C1158.32 522.88 1159.71 515.773 1159.71 507.28V438.12H1200.27V578H1161.79V539.52L1168.81 550.7C1164.13 560.407 1157.2 567.773 1148.01 572.8C1139 577.653 1129.12 580.08 1118.37 580.08ZM1237.85 578V438.12H1278.41V578H1237.85ZM1258.13 418.62C1250.67 418.62 1244.61 416.453 1239.93 412.12C1235.25 407.787 1232.91 402.413 1232.91 396C1232.91 389.587 1235.25 384.213 1239.93 379.88C1244.61 375.547 1250.67 373.38 1258.13 373.38C1265.58 373.38 1271.65 375.46 1276.33 379.62C1281.01 383.607 1283.35 388.807 1283.35 395.22C1283.35 401.98 1281.01 407.613 1276.33 412.12C1271.82 416.453 1265.75 418.62 1258.13 418.62ZM1376.11 580.08C1362.93 580.08 1351.06 577.133 1340.49 571.24C1329.91 565.173 1321.51 556.767 1315.27 546.02C1309.2 535.273 1306.17 522.62 1306.17 508.06C1306.17 493.327 1309.2 480.587 1315.27 469.84C1321.51 459.093 1329.91 450.773 1340.49 444.88C1351.06 438.987 1362.93 436.04 1376.11 436.04C1387.89 436.04 1398.21 438.64 1407.05 443.84C1415.89 449.04 1422.73 456.927 1427.59 467.5C1432.44 478.073 1434.87 491.593 1434.87 508.06C1434.87 524.353 1432.53 537.873 1427.85 548.62C1423.17 559.193 1416.41 567.08 1407.57 572.28C1398.9 577.48 1388.41 580.08 1376.11 580.08ZM1383.13 546.8C1389.71 546.8 1395.69 545.24 1401.07 542.12C1406.44 539 1410.69 534.58 1413.81 528.86C1417.1 522.967 1418.75 516.033 1418.75 508.06C1418.75 499.913 1417.1 492.98 1413.81 487.26C1410.69 481.54 1406.44 477.12 1401.07 474C1395.69 470.88 1389.71 469.32 1383.13 469.32C1376.37 469.32 1370.3 470.88 1364.93 474C1359.55 477.12 1355.22 481.54 1351.93 487.26C1348.81 492.98 1347.25 499.913 1347.25 508.06C1347.25 516.033 1348.81 522.967 1351.93 528.86C1355.22 534.58 1359.55 539 1364.93 542.12C1370.3 545.24 1376.37 546.8 1383.13 546.8ZM1419.79 578V549.4L1420.57 507.8L1417.97 466.46V385.08H1458.53V578H1419.79Z" fill="#001958"/>
<mask id="mask0_621_57" style="mask-type:luminance" maskUnits="userSpaceOnUse" x="210" y="206" width="247" height="444">
<path d="M233.163 557.943C302.997 548.476 359.808 477.442 313.552 354.072C304.205 323.521 284.856 289.021 253.829 248.125C337.406 137.117 456.542 268.611 456.542 416.856C456.542 543.465 390.115 624.739 301.772 645.46L301.78 645.485C286.258 648.447 270.224 650 253.829 650L210.014 606.619L233.163 557.943Z" fill="white"/>
</mask>
<g mask="url(#mask0_621_57)">
<path d="M233.162 557.943C302.996 548.476 359.807 477.442 313.551 354.072C304.204 323.521 284.856 289.021 253.828 248.125C337.405 137.117 456.541 268.611 456.541 416.856C456.541 543.465 390.114 624.739 301.771 645.46L301.779 645.485C286.257 648.447 270.223 650 253.828 650L233.162 557.943Z" fill="url(#paint0_linear_621_57)"/>
</g>
<mask id="mask1_621_57" style="mask-type:luminance" maskUnits="userSpaceOnUse" x="-1" y="0" width="255" height="650">
<path d="M253.826 -8.19564e-07C219.047 35.1311 194.321 67.417 163.889 108.44C113.512 176.343 17.039 358.352 104.484 494.671C136.074 543.919 187.407 564.145 233.16 557.943L253.826 650C113.647 650 -0.00195312 536.332 -0.00195312 396.115C-0.00195312 235.712 107.102 94.8102 253.826 -8.19564e-07Z" fill="white"/>
</mask>
<g mask="url(#mask1_621_57)">
<path d="M253.826 -8.19564e-07C219.047 35.1311 194.321 67.417 163.889 108.44C113.512 176.343 17.039 358.352 104.484 494.671C136.074 543.919 187.407 564.145 233.16 557.943L253.826 650C113.647 650 -0.00195312 536.332 -0.00195312 396.115C-0.00195312 235.712 107.102 94.8102 253.826 -8.19564e-07Z" fill="url(#paint1_linear_621_57)"/>
</g>
<mask id="mask2_621_57" style="mask-type:luminance" maskUnits="userSpaceOnUse" x="69" y="108" width="262" height="452">
<path d="M163.892 108.44C113.516 176.343 17.0425 358.352 104.488 494.671C184.281 619.057 389.981 558.32 313.611 354.288C318.109 369.062 320.273 382.913 320.273 396.115C320.273 432.76 290.462 462.57 253.829 462.57C217.197 462.57 187.394 432.76 187.394 396.115C187.394 355.552 207.724 308.912 253.829 248.125L163.892 108.44Z" fill="white"/>
</mask>
<g mask="url(#mask2_621_57)">
<path d="M163.892 108.44C113.516 176.343 17.0425 358.352 104.488 494.671C184.281 619.057 389.981 558.32 313.611 354.288C318.109 369.062 320.273 382.913 320.273 396.115C320.273 432.76 290.462 462.57 253.829 462.57C217.197 462.57 187.394 432.76 187.394 396.115C187.394 355.552 207.724 308.912 253.829 248.125L163.892 108.44Z" fill="url(#paint2_linear_621_57)"/>
</g>
<mask id="mask3_621_57" style="mask-type:luminance" maskUnits="userSpaceOnUse" x="163" y="0" width="345" height="646">
<path d="M253.824 248.124C337.401 137.116 456.537 268.61 456.537 416.856C456.537 543.465 390.11 624.738 301.767 645.459L301.775 645.484C419.032 623.06 507.652 519.941 507.652 396.114C507.652 310.304 473.528 230.29 409.752 143.822C375.116 100.651 316.215 40.3424 253.824 -0.000413823C219.046 35.1306 194.319 67.4166 163.887 108.439L179.527 219.716L253.824 248.124Z" fill="white"/>
</mask>
<g mask="url(#mask3_621_57)">
<path d="M253.824 248.124C337.401 137.116 456.537 268.61 456.537 416.856C456.537 543.465 390.11 624.738 301.767 645.459L301.775 645.484C419.032 623.06 507.652 519.941 507.652 396.114C507.652 310.304 473.528 230.29 409.752 143.822C375.116 100.651 316.215 40.3424 253.824 -0.000413823C219.046 35.1306 194.319 67.4166 163.887 108.439L179.527 219.716L253.824 248.124Z" fill="url(#paint3_linear_621_57)"/>
</g>
<defs>
<linearGradient id="paint0_linear_621_57" x1="323.579" y1="206.943" x2="370.359" y2="583.99" gradientUnits="userSpaceOnUse">
<stop stop-color="#001F6B"/>
<stop offset="1" stop-color="#96B5FF"/>
</linearGradient>
<linearGradient id="paint1_linear_621_57" x1="164.152" y1="130.332" x2="164.152" y2="606.714" gradientUnits="userSpaceOnUse">
<stop stop-color="#001F6B"/>
<stop offset="1" stop-color="#96B5FF"/>
</linearGradient>
<linearGradient id="paint2_linear_621_57" x1="238.07" y1="271.881" x2="247.861" y2="590.614" gradientUnits="userSpaceOnUse">
<stop stop-color="#96B5FF"/>
<stop offset="1" stop-color="#001F6B"/>
</linearGradient>
<linearGradient id="paint3_linear_621_57" x1="386.205" y1="247.875" x2="386.205" y2="567.976" gradientUnits="userSpaceOnUse">
<stop stop-color="#96B5FF"/>
<stop offset="1" stop-color="#001F6B"/>
</linearGradient>
</defs>
</svg>
