<svg width="100" height="100" viewBox="0 0 100 100" fill="none" xmlns="http://www.w3.org/2000/svg">
<circle cx="50" cy="50" r="43" fill="#283243"/>
<circle cx="50" cy="50" r="40" fill="#50AF95"/>
<path fill-rule="evenodd" clip-rule="evenodd" d="M54.9635 54.1898C54.6862 54.2107 53.2538 54.2963 50.0585 54.2963C47.517 54.2963 45.7125 54.2199 45.0795 54.1898C35.2578 53.7573 27.9268 52.0454 27.9268 49.9959C27.9268 47.9463 35.2578 46.2368 45.0795 45.7973V52.485C45.7218 52.5312 47.5609 52.64 50.1023 52.64C53.1521 52.64 54.6793 52.5127 54.9543 52.4873V45.8019C64.7551 46.2391 72.0699 47.951 72.0699 49.9959C72.0699 52.0408 64.7574 53.7526 54.9543 54.1875L54.9635 54.1898ZM54.9635 45.1103V39.1258H68.6412V30H31.4017V39.1258H45.0772V45.108C33.9617 45.6192 25.6025 47.8237 25.6025 50.4655C25.6025 53.1072 33.9617 55.3095 45.0772 55.823V75H54.9612V55.8161C66.0513 55.3048 74.3965 53.1026 74.3965 50.4632C74.3965 47.8237 66.0582 45.6215 54.9612 45.108L54.9635 45.1103Z" fill="white"/>
</svg>
