<svg width="35" height="35" viewBox="0 0 35 35" fill="none" xmlns="http://www.w3.org/2000/svg">
<g clip-path="url(#clip0_8001_15865)">
<path d="M14.0344 0.833374H13.1573V1.88634H14.0344V0.833374ZM15.0873 0.833374H14.0344V1.88634H15.0873V0.833374Z" fill="#080808"/>
<path d="M16.1398 0.833374H15.0868V1.88634H16.1398V0.833374ZM17.1927 0.833374H16.1398V1.88634H17.1927V0.833374Z" fill="#080808"/>
<path d="M18.0695 0.833374H17.1924V1.88634H18.2454V0.833374H18.0695Z" fill="#080808"/>
<path d="M19.1227 0.833374H18.0697V1.88634H19.1227V0.833374ZM20.1756 0.833374H19.1227V1.88634H20.1756V0.833374Z" fill="#080808"/>
<path d="M21.227 0.833374H20.174V1.88634H21.227V0.833374Z" fill="#080808"/>
<path d="M22.1045 0.833374H21.0516V1.88634H22.1045V0.833374ZM11.0525 1.88634H9.99957V2.93931H11.0525V1.88634ZM12.1055 1.88634H11.0525V2.93931H12.1055V1.88634Z" fill="#080808"/>
<path d="M13.1582 1.88635H12.1052V2.93932H13.1582V1.88635Z" fill="#1C2525"/>
<path d="M14.0344 1.88635H13.1573V2.93932H14.0344V1.88635ZM15.0873 1.88635H14.0344V2.93932H15.0873V1.88635Z" fill="#565F62"/>
<path d="M16.1398 1.88635H15.0868V2.93932H16.1398V1.88635Z" fill="#6A7979"/>
<path d="M17.1919 1.88635H16.1389V2.93932H17.1919V1.88635Z" fill="#828990"/>
<path d="M18.0695 1.88635H17.1924V2.93932H18.2454V1.88635H18.0695Z" fill="#828990"/>
<path d="M19.1227 1.88635H18.0697V2.93932H19.1227V1.88635ZM20.1756 1.88635H19.1227V2.93932H20.1756V1.88635Z" fill="#828990"/>
<path d="M21.227 1.88635H20.174V2.93932H21.227V1.88635Z" fill="#828990"/>
<path d="M22.1042 1.88635H21.0513V2.93932H22.1042V1.88635Z" fill="#828990"/>
<path d="M23.1564 1.88635H22.1034V2.93932H23.1564V1.88635Z" fill="#080808"/>
<path d="M24.2099 1.88635H23.1569V2.93932H24.2099V1.88635Z" fill="#040404"/>
<path d="M9.12176 2.93787H8.06879V3.99084H9.12176V2.93787ZM9.99876 2.93787H9.12176V3.99084H10.1747V2.93787H9.99876Z" fill="#080808"/>
<path d="M11.0525 2.93787H9.99957V3.99084H11.0525V2.93787ZM12.1055 2.93787H11.0525V3.99084H12.1055V2.93787Z" fill="#565F62"/>
<path d="M13.1582 2.93787H12.1052V3.99084H13.1582V2.93787Z" fill="#434F52"/>
<path d="M14.0344 2.93787H13.1573V3.99084H14.0344V2.93787ZM15.0873 2.93787H14.0344V3.99084H15.0873V2.93787Z" fill="#B1B5B8"/>
<path d="M16.1398 2.93787H15.0868V3.99084H16.1398V2.93787ZM17.1927 2.93787H16.1398V3.99084H17.1927V2.93787Z" fill="#C8CACF"/>
<path d="M18.0695 2.93787H17.1924V3.99084H18.2454V2.93787H18.0695Z" fill="#C8CACF"/>
<path d="M19.1227 2.93787H18.0697V3.99084H19.1227V2.93787ZM20.1756 2.93787H19.1227V3.99084H20.1756V2.93787Z" fill="#C8CACF"/>
<path d="M21.227 2.93787H20.174V3.99084H21.227V2.93787Z" fill="#C8CACF"/>
<path d="M22.1042 2.93787H21.0513V3.99084H22.1042V2.93787Z" fill="#C8CACF"/>
<path d="M23.1564 2.93787H22.1034V3.99084H23.1564V2.93787ZM24.2093 2.93787H23.1564V3.99084H24.2093V2.93787Z" fill="#6A7979"/>
<path d="M25.2634 2.93787H24.2104V3.99084H25.2634V2.93787Z" fill="#040404"/>
<path d="M26.1393 2.93787H25.0863V3.99084H26.1393V2.93787Z" fill="#040404"/>
<path d="M9.12176 3.81628H8.06879V4.86925H9.12176V3.81628ZM9.99876 3.81628H9.12176V4.86925H10.1747V3.81628H9.99876Z" fill="#707980"/>
<path d="M11.0525 3.81628H9.99957V4.86925H11.0525V3.81628ZM12.1055 3.81628H11.0525V4.86925H12.1055V3.81628Z" fill="#445150"/>
<path d="M13.1582 3.81628H12.1052V4.86925H13.1582V3.81628ZM14.0352 3.81628H13.1582V4.86925H14.0352V3.81628ZM15.0882 3.81628H14.0352V4.86925H15.0882V3.81628Z" fill="#C8CACF"/>
<path d="M16.1398 3.81628H15.0868V4.86925H16.1398V3.81628Z" fill="#080808"/>
<path d="M17.1919 3.81628H16.1389V4.86925H17.1919V3.81628Z" fill="#040404"/>
<path d="M18.0695 3.81628H17.1924V4.86925H18.2454V3.81628H18.0695Z" fill="#040404"/>
<path d="M19.1227 3.81628H18.0697V4.86925H19.1227V3.81628ZM20.1756 3.81628H19.1227V4.86925H20.1756V3.81628Z" fill="#040404"/>
<path d="M21.227 3.81628H20.174V4.86925H21.227V3.81628Z" fill="#040404"/>
<path d="M22.1042 3.81628H21.0513V4.86925H22.1042V3.81628Z" fill="#040404"/>
<path d="M23.1564 3.81628H22.1034V4.86925H23.1564V3.81628ZM24.2093 3.81628H23.1564V4.86925H24.2093V3.81628ZM25.2623 3.81628H24.2093V4.86925H25.2623V3.81628Z" fill="#C8CACF"/>
<path d="M26.1393 3.81628H25.0863V4.86925H26.1393V3.81628Z" fill="#C8CACF"/>
<path d="M27.1929 3.81628H26.1399V4.86925H27.1929V3.81628Z" fill="#080808"/>
<path d="M28.2442 3.81628H27.1912V4.86925H28.2442V3.81628ZM5.96423 4.86786H5.08722V5.92083H6.14019V4.86786H5.96423Z" fill="#080808"/>
<path d="M7.01745 4.86792H5.96448V5.92089H7.01745V4.86792Z" fill="#1E292A"/>
<path d="M9.12176 4.86792H8.06879V5.92089H9.12176V4.86792ZM9.99876 4.86792H9.12176V5.92089H10.1747V4.86792H9.99876Z" fill="#4D5856"/>
<path d="M11.0525 4.86792H9.99957V5.92089H11.0525V4.86792ZM12.1055 4.86792H11.0525V5.92089H12.1055V4.86792Z" fill="#FBFBFC"/>
<path d="M13.1582 4.86792H12.1052V5.92089H13.1582V4.86792ZM14.0352 4.86792H13.1582V5.92089H14.0352V4.86792ZM15.0882 4.86792H14.0352V5.92089H15.0882V4.86792Z" fill="#0A0A0A"/>
<path d="M16.1398 4.86792H15.0868V5.92089H16.1398V4.86792ZM17.1927 4.86792H16.1398V5.92089H17.1927V4.86792Z" fill="#913648"/>
<path d="M18.0695 4.86792H17.1924V5.92089H18.2454V4.86792H18.0695Z" fill="#913648"/>
<path d="M19.1227 4.86792H18.0697V5.92089H19.1227V4.86792ZM20.1756 4.86792H19.1227V5.92089H20.1756V4.86792Z" fill="#913648"/>
<path d="M21.227 4.86792H20.174V5.92089H21.227V4.86792Z" fill="#913648"/>
<path d="M22.1042 4.86792H21.0513V5.92089H22.1042V4.86792Z" fill="#913648"/>
<path d="M23.1564 4.86792H22.1034V5.92089H23.1564V4.86792ZM24.2093 4.86792H23.1564V5.92089H24.2093V4.86792ZM25.2623 4.86792H24.2093V5.92089H25.2623V4.86792Z" fill="#040404"/>
<path d="M26.1393 4.86792H25.0863V5.92089H26.1393V4.86792ZM27.1922 4.86792H26.1393V5.92089H27.1922V4.86792Z" fill="#C8CACF"/>
<path d="M28.245 4.86792H27.192V5.92089H28.245V4.86792Z" fill="#C8CACF"/>
<path d="M29.298 4.86792H28.245V5.92089H29.298V4.86792ZM5.08807 5.92089H4.0351V6.97386H5.08807V5.92089Z" fill="#080808"/>
<path d="M5.96423 5.9209H5.08722V6.97387H6.14019V5.9209H5.96423Z" fill="#828990"/>
<path d="M7.01745 5.9209H5.96448V6.97387H7.01745V5.9209Z" fill="#C7C8CB"/>
<path d="M9.12176 5.9209H8.06879V6.97387H9.12176V5.9209Z" fill="#D3D3D6"/>
<path d="M9.99932 5.9209H9.12231V6.97387H10.1753V5.9209H9.99932Z" fill="#FBFBFC"/>
<path d="M11.0525 5.9209H9.99957V6.97387H11.0525V5.9209ZM12.1055 5.9209H11.0525V6.97387H12.1055V5.9209Z" fill="#0A0A0A"/>
<path d="M13.1582 5.9209H12.1052V6.97387H13.1582V5.9209ZM14.0352 5.9209H13.1582V6.97387H14.0352V5.9209ZM15.0882 5.9209H14.0352V6.97387H15.0882V5.9209Z" fill="#913648"/>
<path d="M16.1398 5.9209H15.0868V6.97387H16.1398V5.9209ZM17.1927 5.9209H16.1398V6.97387H17.1927V5.9209Z" fill="#B75868"/>
<path d="M18.0695 5.9209H17.1924V6.97387H18.2454V5.9209H18.0695Z" fill="#B75868"/>
<path d="M19.1227 5.9209H18.0697V6.97387H19.1227V5.9209ZM20.1756 5.9209H19.1227V6.97387H20.1756V5.9209Z" fill="#B75868"/>
<path d="M21.227 5.9209H20.174V6.97387H21.227V5.9209Z" fill="#B75868"/>
<path d="M22.1042 5.9209H21.0513V6.97387H22.1042V5.9209Z" fill="#B75868"/>
<path d="M23.1564 5.9209H22.1034V6.97387H23.1564V5.9209Z" fill="#913648"/>
<path d="M24.2099 5.9209H23.1569V6.97387H24.2099V5.9209ZM25.2629 5.9209H24.2099V6.97387H25.2629V5.9209Z" fill="#B75868"/>
<path d="M26.1393 5.9209H25.0863V6.97387H26.1393V5.9209Z" fill="#913648"/>
<path d="M27.1929 5.9209H26.1399V6.97387H27.1929V5.9209Z" fill="#040404"/>
<path d="M28.245 5.9209H27.192V6.97387H28.245V5.9209ZM29.298 5.9209H28.245V6.97387H29.298V5.9209Z" fill="#C8CACF"/>
<path d="M30.1744 5.9209H29.1214V6.97387H30.1744V5.9209ZM4.03448 6.97387H2.98151V7.85088H4.03448V6.97387Z" fill="#080808"/>
<path d="M5.08807 6.97388H4.0351V7.85089H5.08807V6.97388ZM5.96507 6.97388H5.08807V7.85089H6.14104V6.97388H5.96507Z" fill="#C7C8CB"/>
<path d="M7.01745 6.97388H5.96448V7.85089H7.01745V6.97388Z" fill="#445150"/>
<path d="M9.12176 6.97388H8.06879V7.85089H9.12176V6.97388Z" fill="#CDCED1"/>
<path d="M9.99932 6.97388H9.12231V7.85089H10.1753V6.97388H9.99932Z" fill="#0A0A0A"/>
<path d="M11.0525 6.97388H9.99957V7.85089H11.0525V6.97388Z" fill="#913648"/>
<path d="M12.1047 6.97388H11.0517V7.85089H12.1047V6.97388Z" fill="#B75868"/>
<path d="M13.1582 6.97388H12.1052V7.85089H13.1582V6.97388ZM14.0352 6.97388H13.1582V7.85089H14.0352V6.97388ZM15.0882 6.97388H14.0352V7.85089H15.0882V6.97388Z" fill="#B75868"/>
<path d="M16.1398 6.97388H15.0868V7.85089H16.1398V6.97388ZM17.1927 6.97388H16.1398V7.85089H17.1927V6.97388Z" fill="#B75868"/>
<path d="M18.0695 6.97388H17.1924V7.85089H18.2454V6.97388H18.0695Z" fill="#B75868"/>
<path d="M19.1227 6.97388H18.0697V7.85089H19.1227V6.97388ZM20.1756 6.97388H19.1227V7.85089H20.1756V6.97388Z" fill="#B75868"/>
<path d="M21.227 6.97388H20.174V7.85089H21.227V6.97388Z" fill="#B75868"/>
<path d="M22.1042 6.97388H21.0513V7.85089H22.1042V6.97388ZM23.1572 6.97388H22.1042V7.85089H23.1572V6.97388ZM24.2102 6.97388H23.1572V7.85089H24.2102V6.97388ZM25.2631 6.97388H24.2102V7.85089H25.2631V6.97388Z" fill="#B75868"/>
<path d="M26.1393 6.97388H25.0863V7.85089H26.1393V6.97388Z" fill="#B75868"/>
<path d="M27.1929 6.97388H26.1399V7.85089H27.1929V6.97388Z" fill="#913648"/>
<path d="M28.245 6.97388H27.192V7.85089H28.245V6.97388Z" fill="#040404"/>
<path d="M29.2971 6.97388H28.2441V7.85089H29.2971V6.97388Z" fill="#C8CACF"/>
<path d="M30.1744 6.97388H29.1214V7.85089H30.1744V6.97388Z" fill="#C8CACF"/>
<path d="M31.2274 6.97388H30.1744V7.85089H31.2274V6.97388ZM4.03448 7.85089H2.98151V8.90386H4.03448V7.85089Z" fill="#080808"/>
<path d="M5.08807 7.85083H4.0351V8.9038H5.08807V7.85083Z" fill="#C7C8CB"/>
<path d="M5.96423 7.85083H5.08722V8.9038H6.14019V7.85083H5.96423Z" fill="#384544"/>
<path d="M7.01745 7.85083H5.96448V8.9038H7.01745V7.85083Z" fill="#D3D3D6"/>
<path d="M9.12176 7.85083H8.06879V8.9038H9.12176V7.85083Z" fill="#080808"/>
<path d="M9.99932 7.85083H9.12231V8.9038H10.1753V7.85083H9.99932Z" fill="#913648"/>
<path d="M11.0525 7.85083H9.99957V8.9038H11.0525V7.85083ZM12.1055 7.85083H11.0525V8.9038H12.1055V7.85083Z" fill="#B75868"/>
<path d="M13.1582 7.85083H12.1052V8.9038H13.1582V7.85083ZM14.0352 7.85083H13.1582V8.9038H14.0352V7.85083ZM15.0882 7.85083H14.0352V8.9038H15.0882V7.85083Z" fill="#B75868"/>
<path d="M16.1398 7.85083H15.0868V8.9038H16.1398V7.85083ZM17.1927 7.85083H16.1398V8.9038H17.1927V7.85083Z" fill="#E5E6F0"/>
<path d="M18.0695 7.85083H17.1924V8.9038H18.2454V7.85083H18.0695Z" fill="#E5E6F0"/>
<path d="M19.1227 7.85083H18.0697V8.9038H19.1227V7.85083ZM20.1756 7.85083H19.1227V8.9038H20.1756V7.85083Z" fill="#E5E6F0"/>
<path d="M21.227 7.85083H20.174V8.9038H21.227V7.85083Z" fill="#E5E6F0"/>
<path d="M22.1042 7.85083H21.0513V8.9038H22.1042V7.85083Z" fill="#E5E6F0"/>
<path d="M23.1564 7.85083H22.1034V8.9038H23.1564V7.85083ZM24.2093 7.85083H23.1564V8.9038H24.2093V7.85083ZM25.2623 7.85083H24.2093V8.9038H25.2623V7.85083Z" fill="#B75868"/>
<path d="M26.1393 7.85083H25.0863V8.9038H26.1393V7.85083ZM27.1922 7.85083H26.1393V8.9038H27.1922V7.85083Z" fill="#B75868"/>
<path d="M28.245 7.85083H27.192V8.9038H28.245V7.85083Z" fill="#913648"/>
<path d="M29.2971 7.85083H28.2441V8.9038H29.2971V7.85083Z" fill="#040404"/>
<path d="M30.1744 7.85083H29.1214V8.9038H30.1744V7.85083Z" fill="#C8CACF"/>
<path d="M31.2279 7.85083H30.1749V8.9038H31.2279V7.85083Z" fill="#313B3C"/>
<path d="M2.98235 8.90381H1.92938V9.95678H2.98235V8.90381Z" fill="#080808"/>
<path d="M4.03448 8.90381H2.98151V9.95678H4.03448V8.90381Z" fill="#C7C8CB"/>
<path d="M5.08807 8.90381H4.0351V9.95678H5.08807V8.90381Z" fill="#4E6360"/>
<path d="M5.96423 8.90381H5.08722V9.95678H6.14019V8.90381H5.96423Z" fill="#DBDADF"/>
<path d="M7.01745 8.90381H5.96448V9.95678H7.01745V8.90381Z" fill="#DBDADF"/>
<path d="M9.12176 8.90381H8.06879V9.95678H9.12176V8.90381Z" fill="#913648"/>
<path d="M9.99932 8.90381H9.12231V9.95678H10.1753V8.90381H9.99932Z" fill="#B75868"/>
<path d="M11.0525 8.90381H9.99957V9.95678H11.0525V8.90381ZM12.1055 8.90381H11.0525V9.95678H12.1055V8.90381Z" fill="#B75868"/>
<path d="M13.1582 8.90381H12.1052V9.95678H13.1582V8.90381ZM14.0352 8.90381H13.1582V9.95678H14.0352V8.90381ZM15.0882 8.90381H14.0352V9.95678H15.0882V8.90381Z" fill="#B75868"/>
<path d="M16.1398 8.90381H15.0868V9.95678H16.1398V8.90381ZM17.1927 8.90381H16.1398V9.95678H17.1927V8.90381Z" fill="#E5E6F0"/>
<path d="M18.0695 8.90381H17.1924V9.95678H18.2454V8.90381H18.0695Z" fill="#E5E6F0"/>
<path d="M19.1227 8.90381H18.0697V9.95678H19.1227V8.90381ZM20.1756 8.90381H19.1227V9.95678H20.1756V8.90381Z" fill="#E5E6F0"/>
<path d="M21.227 8.90381H20.174V9.95678H21.227V8.90381Z" fill="#E5E6F0"/>
<path d="M22.1042 8.90381H21.0513V9.95678H22.1042V8.90381Z" fill="#E5E6F0"/>
<path d="M23.1564 8.90381H22.1034V9.95678H23.1564V8.90381ZM24.2093 8.90381H23.1564V9.95678H24.2093V8.90381ZM25.2623 8.90381H24.2093V9.95678H25.2623V8.90381Z" fill="#B75868"/>
<path d="M26.1393 8.90381H25.0863V9.95678H26.1393V8.90381ZM27.1922 8.90381H26.1393V9.95678H27.1922V8.90381Z" fill="#B75868"/>
<path d="M28.245 8.90381H27.192V9.95678H28.245V8.90381Z" fill="#B75868"/>
<path d="M29.2971 8.90381H28.2441V9.95678H29.2971V8.90381Z" fill="#913648"/>
<path d="M30.1744 8.90381H29.1214V9.95678H30.1744V8.90381Z" fill="#43524E"/>
<path d="M31.2279 8.90381H30.1749V9.95678H31.2279V8.90381Z" fill="#E3E2EA"/>
<path d="M32.2801 8.90381H31.2271V9.95678H32.2801V8.90381Z" fill="#080808"/>
<path d="M2.98235 9.95544H1.92938V11.0084H2.98235V9.95544Z" fill="#131919"/>
<path d="M4.03448 9.95544H2.98151V11.0084H4.03448V9.95544Z" fill="#C7C8CB"/>
<path d="M5.08807 9.95544H4.0351V11.0084H5.08807V9.95544Z" fill="#4E6360"/>
<path d="M5.96423 9.95544H5.08722V11.0084H6.14019V9.95544H5.96423Z" fill="#DBDADF"/>
<path d="M7.01745 9.95544H5.96448V11.0084H7.01745V9.95544Z" fill="#DBDADF"/>
<path d="M9.12176 9.95544H8.06879V11.0084H9.12176V9.95544ZM9.99876 9.95544H9.12176V11.0084H10.1747V9.95544H9.99876Z" fill="#B75868"/>
<path d="M11.0525 9.95544H9.99957V11.0084H11.0525V9.95544ZM12.1055 9.95544H11.0525V11.0084H12.1055V9.95544Z" fill="#B75868"/>
<path d="M13.1582 9.95544H12.1052V11.0084H13.1582V9.95544ZM14.0352 9.95544H13.1582V11.0084H14.0352V9.95544ZM15.0882 9.95544H14.0352V11.0084H15.0882V9.95544Z" fill="#B75868"/>
<path d="M16.1398 9.95544H15.0868V11.0084H16.1398V9.95544ZM17.1927 9.95544H16.1398V11.0084H17.1927V9.95544Z" fill="#E5E6F0"/>
<path d="M18.0695 9.95544H17.1924V11.0084H18.2454V9.95544H18.0695Z" fill="#E5E6F0"/>
<path d="M19.1227 9.95544H18.0697V11.0084H19.1227V9.95544ZM20.1756 9.95544H19.1227V11.0084H20.1756V9.95544Z" fill="#E5E6F0"/>
<path d="M21.227 9.95544H20.174V11.0084H21.227V9.95544Z" fill="#E5E6F0"/>
<path d="M22.1042 9.95544H21.0513V11.0084H22.1042V9.95544Z" fill="#E5E6F0"/>
<path d="M23.1564 9.95544H22.1034V11.0084H23.1564V9.95544ZM24.2093 9.95544H23.1564V11.0084H24.2093V9.95544ZM25.2623 9.95544H24.2093V11.0084H25.2623V9.95544Z" fill="#B75868"/>
<path d="M26.1393 9.95544H25.0863V11.0084H26.1393V9.95544ZM27.1922 9.95544H26.1393V11.0084H27.1922V9.95544Z" fill="#B75868"/>
<path d="M28.245 9.95544H27.192V11.0084H28.245V9.95544Z" fill="#B75868"/>
<path d="M29.2971 9.95544H28.2441V11.0084H29.2971V9.95544Z" fill="#913648"/>
<path d="M30.1744 9.95544H29.1214V11.0084H30.1744V9.95544Z" fill="#43524E"/>
<path d="M31.2279 9.95544H30.1749V11.0084H31.2279V9.95544Z" fill="#E3E2EA"/>
<path d="M32.2801 9.95544H31.2271V11.0084H32.2801V9.95544Z" fill="#090A0A"/>
<path d="M2.98235 11.0083H1.92938V12.0613H2.98235V11.0083Z" fill="#131919"/>
<path d="M4.03448 11.0083H2.98151V12.0613H4.03448V11.0083Z" fill="#C7C8CB"/>
<path d="M5.08807 11.0083H4.0351V12.0613H5.08807V11.0083Z" fill="#364B47"/>
<path d="M5.96423 11.0083H5.08722V12.0613H6.14019V11.0083H5.96423Z" fill="#DBDADF"/>
<path d="M7.01745 11.0083H5.96448V12.0613H7.01745V11.0083Z" fill="#0A0A0A"/>
<path d="M9.12176 11.0083H8.06879V12.0613H9.12176V11.0083ZM9.99876 11.0083H9.12176V12.0613H10.1747V11.0083H9.99876Z" fill="#B75868"/>
<path d="M11.0525 11.0083H9.99957V12.0613H11.0525V11.0083ZM12.1055 11.0083H11.0525V12.0613H12.1055V11.0083Z" fill="#B75868"/>
<path d="M13.1582 11.0083H12.1052V12.0613H13.1582V11.0083ZM14.0352 11.0083H13.1582V12.0613H14.0352V11.0083ZM15.0882 11.0083H14.0352V12.0613H15.0882V11.0083Z" fill="#B75868"/>
<path d="M16.1398 11.0083H15.0868V12.0613H16.1398V11.0083ZM17.1927 11.0083H16.1398V12.0613H17.1927V11.0083Z" fill="#E5E6F0"/>
<path d="M18.0695 11.0083H17.1924V12.0613H18.2454V11.0083H18.0695Z" fill="#E5E6F0"/>
<path d="M19.1227 11.0083H18.0697V12.0613H19.1227V11.0083ZM20.1756 11.0083H19.1227V12.0613H20.1756V11.0083Z" fill="#E5E6F0"/>
<path d="M21.227 11.0083H20.174V12.0613H21.227V11.0083Z" fill="#E5E6F0"/>
<path d="M22.1042 11.0083H21.0513V12.0613H22.1042V11.0083Z" fill="#E5E6F0"/>
<path d="M23.1564 11.0083H22.1034V12.0613H23.1564V11.0083ZM24.2093 11.0083H23.1564V12.0613H24.2093V11.0083ZM25.2623 11.0083H24.2093V12.0613H25.2623V11.0083Z" fill="#B75868"/>
<path d="M26.1393 11.0083H25.0863V12.0613H26.1393V11.0083ZM27.1922 11.0083H26.1393V12.0613H27.1922V11.0083Z" fill="#B75868"/>
<path d="M28.245 11.0083H27.192V12.0613H28.245V11.0083ZM29.298 11.0083H28.245V12.0613H29.298V11.0083Z" fill="#B75868"/>
<path d="M30.1744 11.0083H29.1214V12.0613H30.1744V11.0083Z" fill="#913648"/>
<path d="M31.2279 11.0083H30.1749V12.0613H31.2279V11.0083Z" fill="#434F52"/>
<path d="M32.2801 11.0083H31.2271V12.0613H32.2801V11.0083Z" fill="#CDCED1"/>
<path d="M33.3325 11.0083H32.2795V12.0613H33.3325V11.0083ZM1.93054 11.8853H1.05353V12.9383H2.1065V11.8853H1.93054Z" fill="#080808"/>
<path d="M2.98235 11.8854H1.92938V12.9383H2.98235V11.8854Z" fill="#C7C8CB"/>
<path d="M4.03448 11.8854H2.98151V12.9383H4.03448V11.8854Z" fill="#4E6360"/>
<path d="M5.08807 11.8854H4.0351V12.9383H5.08807V11.8854Z" fill="#F3F3F5"/>
<path d="M5.96423 11.8854H5.08722V12.9383H6.14019V11.8854H5.96423Z" fill="#DBDADF"/>
<path d="M7.01745 11.8854H5.96448V12.9383H7.01745V11.8854Z" fill="#040404"/>
<path d="M9.12176 11.8854H8.06879V12.9383H9.12176V11.8854ZM9.99876 11.8854H9.12176V12.9383H10.1747V11.8854H9.99876Z" fill="#B75868"/>
<path d="M11.0525 11.8854H9.99957V12.9383H11.0525V11.8854ZM12.1055 11.8854H11.0525V12.9383H12.1055V11.8854Z" fill="#B75868"/>
<path d="M13.1582 11.8854H12.1052V12.9383H13.1582V11.8854ZM14.0352 11.8854H13.1582V12.9383H14.0352V11.8854ZM15.0882 11.8854H14.0352V12.9383H15.0882V11.8854Z" fill="#B75868"/>
<path d="M16.1398 11.8854H15.0868V12.9383H16.1398V11.8854ZM17.1927 11.8854H16.1398V12.9383H17.1927V11.8854Z" fill="#E5E6F0"/>
<path d="M18.0695 11.8854H17.1924V12.9383H18.2454V11.8854H18.0695Z" fill="#E5E6F0"/>
<path d="M19.1227 11.8854H18.0697V12.9383H19.1227V11.8854ZM20.1756 11.8854H19.1227V12.9383H20.1756V11.8854Z" fill="#E5E6F0"/>
<path d="M21.227 11.8854H20.174V12.9383H21.227V11.8854Z" fill="#E5E6F0"/>
<path d="M22.1042 11.8854H21.0513V12.9383H22.1042V11.8854Z" fill="#E5E6F0"/>
<path d="M23.1564 11.8854H22.1034V12.9383H23.1564V11.8854ZM24.2093 11.8854H23.1564V12.9383H24.2093V11.8854ZM25.2623 11.8854H24.2093V12.9383H25.2623V11.8854Z" fill="#B75868"/>
<path d="M26.1393 11.8854H25.0863V12.9383H26.1393V11.8854ZM27.1922 11.8854H26.1393V12.9383H27.1922V11.8854Z" fill="#B75868"/>
<path d="M28.245 11.8854H27.192V12.9383H28.245V11.8854ZM29.298 11.8854H28.245V12.9383H29.298V11.8854Z" fill="#B75868"/>
<path d="M30.1744 11.8854H29.1214V12.9383H30.1744V11.8854Z" fill="#B75868"/>
<path d="M31.2279 11.8854H30.1749V12.9383H31.2279V11.8854Z" fill="#434F52"/>
<path d="M32.2801 11.8854H31.2271V12.9383H32.2801V11.8854Z" fill="#CDCED1"/>
<path d="M33.3322 11.8854H32.2792V12.9383H33.3322V11.8854Z" fill="#1E292A"/>
<path d="M1.93054 12.9384H1.05353V13.9913H2.1065V12.9384H1.93054Z" fill="#080808"/>
<path d="M2.98235 12.9384H1.92938V13.9913H2.98235V12.9384Z" fill="#B1B5B8"/>
<path d="M4.03448 12.9384H2.98151V13.9913H4.03448V12.9384Z" fill="#374C4A"/>
<path d="M5.08807 12.9384H4.0351V13.9913H5.08807V12.9384ZM5.96507 12.9384H5.08807V13.9913H6.14104V12.9384H5.96507Z" fill="#DBDADF"/>
<path d="M7.01745 12.9384H5.96448V13.9913H7.01745V12.9384Z" fill="#040404"/>
<path d="M9.12176 12.9384H8.06879V13.9913H9.12176V12.9384ZM9.99876 12.9384H9.12176V13.9913H10.1747V12.9384H9.99876Z" fill="#B75868"/>
<path d="M11.0525 12.9384H9.99957V13.9913H11.0525V12.9384ZM12.1055 12.9384H11.0525V13.9913H12.1055V12.9384Z" fill="#B75868"/>
<path d="M13.1582 12.9384H12.1052V13.9913H13.1582V12.9384ZM14.0352 12.9384H13.1582V13.9913H14.0352V12.9384ZM15.0882 12.9384H14.0352V13.9913H15.0882V12.9384Z" fill="#B75868"/>
<path d="M16.1398 12.9384H15.0868V13.9913H16.1398V12.9384Z" fill="white"/>
<path d="M17.1919 12.9384H16.1389V13.9913H17.1919V12.9384Z" fill="#E5E6F0"/>
<path d="M18.0695 12.9384H17.1924V13.9913H18.2454V12.9384H18.0695Z" fill="#E5E6F0"/>
<path d="M19.1227 12.9384H18.0697V13.9913H19.1227V12.9384ZM20.1756 12.9384H19.1227V13.9913H20.1756V12.9384Z" fill="#E5E6F0"/>
<path d="M21.227 12.9384H20.174V13.9913H21.227V12.9384Z" fill="#E5E6F0"/>
<path d="M22.1042 12.9384H21.0513V13.9913H22.1042V12.9384Z" fill="#E5E6F0"/>
<path d="M23.1564 12.9384H22.1034V13.9913H23.1564V12.9384ZM24.2093 12.9384H23.1564V13.9913H24.2093V12.9384ZM25.2623 12.9384H24.2093V13.9913H25.2623V12.9384Z" fill="#B75868"/>
<path d="M26.1393 12.9384H25.0863V13.9913H26.1393V12.9384ZM27.1922 12.9384H26.1393V13.9913H27.1922V12.9384Z" fill="#B75868"/>
<path d="M28.245 12.9384H27.192V13.9913H28.245V12.9384ZM29.298 12.9384H28.245V13.9913H29.298V12.9384Z" fill="#B75868"/>
<path d="M30.1744 12.9384H29.1214V13.9913H30.1744V12.9384Z" fill="#B75868"/>
<path d="M31.2279 12.9384H30.1749V13.9913H31.2279V12.9384Z" fill="#323E40"/>
<path d="M32.2801 12.9384H31.2271V13.9913H32.2801V12.9384Z" fill="#CDCED1"/>
<path d="M33.3322 12.9384H32.2792V13.9913H33.3322V12.9384Z" fill="#1E292A"/>
<path d="M1.05297 13.9913H0V15.0443H1.05297V13.9913Z" fill="#040404"/>
<path d="M1.93054 13.9913H1.05353V15.0443H2.1065V13.9913H1.93054Z" fill="#757B83"/>
<path d="M2.98235 13.9913H1.92938V15.0443H2.98235V13.9913Z" fill="#2E403B"/>
<path d="M4.03448 13.9913H2.98151V15.0443H4.03448V13.9913ZM5.08745 13.9913H4.03448V15.0443H5.08745V13.9913Z" fill="#F1F1F4"/>
<path d="M5.96423 13.9913H5.08722V15.0443H6.14019V13.9913H5.96423Z" fill="#040404"/>
<path d="M7.01745 13.9913H5.96448V15.0443H7.01745V13.9913ZM9.12199 13.9913H8.06902V15.0443H9.12199V13.9913Z" fill="#B75868"/>
<path d="M9.99932 13.9913H9.12231V15.0443H10.1753V13.9913H9.99932Z" fill="white"/>
<path d="M11.0525 13.9913H9.99957V15.0443H11.0525V13.9913ZM12.1055 13.9913H11.0525V15.0443H12.1055V13.9913Z" fill="white"/>
<path d="M13.1582 13.9913H12.1052V15.0443H13.1582V13.9913ZM14.0352 13.9913H13.1582V15.0443H14.0352V13.9913ZM15.0882 13.9913H14.0352V15.0443H15.0882V13.9913Z" fill="white"/>
<path d="M16.1398 13.9913H15.0868V15.0443H16.1398V13.9913Z" fill="white"/>
<path d="M17.1919 13.9913H16.1389V15.0443H17.1919V13.9913Z" fill="#E5E6F0"/>
<path d="M18.0695 13.9913H17.1924V15.0443H18.2454V13.9913H18.0695Z" fill="#E5E6F0"/>
<path d="M19.1227 13.9913H18.0697V15.0443H19.1227V13.9913ZM20.1756 13.9913H19.1227V15.0443H20.1756V13.9913Z" fill="#E5E6F0"/>
<path d="M21.227 13.9913H20.174V15.0443H21.227V13.9913Z" fill="#E5E6F0"/>
<path d="M22.1042 13.9913H21.0513V15.0443H22.1042V13.9913Z" fill="#E5E6F0"/>
<path d="M23.1564 13.9913H22.1034V15.0443H23.1564V13.9913ZM24.2093 13.9913H23.1564V15.0443H24.2093V13.9913ZM25.2623 13.9913H24.2093V15.0443H25.2623V13.9913Z" fill="white"/>
<path d="M26.1393 13.9913H25.0863V15.0443H26.1393V13.9913ZM27.1922 13.9913H26.1393V15.0443H27.1922V13.9913Z" fill="white"/>
<path d="M28.245 13.9913H27.192V15.0443H28.245V13.9913Z" fill="#E5E6F0"/>
<path d="M29.2971 13.9913H28.2441V15.0443H29.2971V13.9913Z" fill="#B75868"/>
<path d="M30.1744 13.9913H29.1214V15.0443H30.1744V13.9913Z" fill="#B75868"/>
<path d="M31.2279 13.9913H30.1749V15.0443H31.2279V13.9913Z" fill="#8D3748"/>
<path d="M32.2801 13.9913H31.2271V15.0443H32.2801V13.9913Z" fill="#1C252E"/>
<path d="M33.3322 13.9913H32.2792V15.0443H33.3322V13.9913Z" fill="#DCDBE0"/>
<path d="M34.2089 13.9913H33.3319V15.0443H34.3849V13.9913H34.2089ZM1.05297 15.0429H0V16.0959H1.05297V15.0429Z" fill="#040404"/>
<path d="M1.93054 15.0428H1.05353V16.0958H2.1065V15.0428H1.93054Z" fill="#C2C5C9"/>
<path d="M2.98235 15.0428H1.92938V16.0958H2.98235V15.0428Z" fill="#374543"/>
<path d="M4.03448 15.0428H2.98151V16.0958H4.03448V15.0428ZM5.08745 15.0428H4.03448V16.0958H5.08745V15.0428Z" fill="#F1F1F4"/>
<path d="M5.96423 15.0428H5.08722V16.0958H6.14019V15.0428H5.96423Z" fill="#040404"/>
<path d="M7.01745 15.0428H5.96448V16.0958H7.01745V15.0428ZM9.12199 15.0428H8.06902V16.0958H9.12199V15.0428Z" fill="#B75868"/>
<path d="M9.99932 15.0428H9.12231V16.0958H10.1753V15.0428H9.99932Z" fill="white"/>
<path d="M11.0525 15.0428H9.99957V16.0958H11.0525V15.0428ZM12.1055 15.0428H11.0525V16.0958H12.1055V15.0428Z" fill="#E5E6F0"/>
<path d="M13.1582 15.0428H12.1052V16.0958H13.1582V15.0428ZM14.0352 15.0428H13.1582V16.0958H14.0352V15.0428ZM15.0882 15.0428H14.0352V16.0958H15.0882V15.0428Z" fill="#E5E6F0"/>
<path d="M16.1398 15.0428H15.0868V16.0958H16.1398V15.0428ZM17.1927 15.0428H16.1398V16.0958H17.1927V15.0428Z" fill="#E5E6F0"/>
<path d="M18.0695 15.0428H17.1924V16.0958H18.2454V15.0428H18.0695Z" fill="#E5E6F0"/>
<path d="M19.1227 15.0428H18.0697V16.0958H19.1227V15.0428ZM20.1756 15.0428H19.1227V16.0958H20.1756V15.0428Z" fill="#E5E6F0"/>
<path d="M21.227 15.0428H20.174V16.0958H21.227V15.0428Z" fill="#E5E6F0"/>
<path d="M22.1042 15.0428H21.0513V16.0958H22.1042V15.0428ZM23.1572 15.0428H22.1042V16.0958H23.1572V15.0428ZM24.2102 15.0428H23.1572V16.0958H24.2102V15.0428ZM25.2631 15.0428H24.2102V16.0958H25.2631V15.0428Z" fill="#E5E6F0"/>
<path d="M26.1393 15.0428H25.0863V16.0958H26.1393V15.0428ZM27.1922 15.0428H26.1393V16.0958H27.1922V15.0428Z" fill="#E5E6F0"/>
<path d="M28.245 15.0428H27.192V16.0958H28.245V15.0428Z" fill="#E5E6F0"/>
<path d="M29.2971 15.0428H28.2441V16.0958H29.2971V15.0428Z" fill="#B75868"/>
<path d="M30.1744 15.0428H29.1214V16.0958H30.1744V15.0428Z" fill="#B75868"/>
<path d="M31.2279 15.0428H30.1749V16.0958H31.2279V15.0428Z" fill="#8D3748"/>
<path d="M32.2801 15.0428H31.2271V16.0958H32.2801V15.0428Z" fill="#1C252E"/>
<path d="M33.3322 15.0428H32.2792V16.0958H33.3322V15.0428Z" fill="#DCDBE0"/>
<path d="M34.2089 15.0428H33.3319V16.0958H34.3849V15.0428H34.2089ZM1.05297 15.9213H0V16.9742H1.05297V15.9213Z" fill="#040404"/>
<path d="M1.93054 15.9213H1.05353V16.9742H2.1065V15.9213H1.93054Z" fill="#C2C5C9"/>
<path d="M2.98235 15.9213H1.92938V16.9742H2.98235V15.9213Z" fill="#374543"/>
<path d="M4.03448 15.9213H2.98151V16.9742H4.03448V15.9213ZM5.08745 15.9213H4.03448V16.9742H5.08745V15.9213Z" fill="#F1F1F4"/>
<path d="M5.96423 15.9213H5.08722V16.9742H6.14019V15.9213H5.96423Z" fill="#040404"/>
<path d="M7.01745 15.9213H5.96448V16.9742H7.01745V15.9213ZM9.12199 15.9213H8.06902V16.9742H9.12199V15.9213Z" fill="#B75868"/>
<path d="M9.99932 15.9213H9.12231V16.9742H10.1753V15.9213H9.99932Z" fill="white"/>
<path d="M11.0525 15.9213H9.99957V16.9742H11.0525V15.9213ZM12.1055 15.9213H11.0525V16.9742H12.1055V15.9213Z" fill="#E5E6F0"/>
<path d="M13.1582 15.9213H12.1052V16.9742H13.1582V15.9213ZM14.0352 15.9213H13.1582V16.9742H14.0352V15.9213ZM15.0882 15.9213H14.0352V16.9742H15.0882V15.9213Z" fill="#E5E6F0"/>
<path d="M16.1398 15.9213H15.0868V16.9742H16.1398V15.9213ZM17.1927 15.9213H16.1398V16.9742H17.1927V15.9213Z" fill="#E5E6F0"/>
<path d="M18.0695 15.9213H17.1924V16.9742H18.2454V15.9213H18.0695Z" fill="#E5E6F0"/>
<path d="M19.1227 15.9213H18.0697V16.9742H19.1227V15.9213ZM20.1756 15.9213H19.1227V16.9742H20.1756V15.9213Z" fill="#E5E6F0"/>
<path d="M21.227 15.9213H20.174V16.9742H21.227V15.9213Z" fill="#E5E6F0"/>
<path d="M22.1042 15.9213H21.0513V16.9742H22.1042V15.9213ZM23.1572 15.9213H22.1042V16.9742H23.1572V15.9213ZM24.2102 15.9213H23.1572V16.9742H24.2102V15.9213ZM25.2631 15.9213H24.2102V16.9742H25.2631V15.9213Z" fill="#E5E6F0"/>
<path d="M26.1393 15.9213H25.0863V16.9742H26.1393V15.9213ZM27.1922 15.9213H26.1393V16.9742H27.1922V15.9213Z" fill="#E5E6F0"/>
<path d="M28.245 15.9213H27.192V16.9742H28.245V15.9213Z" fill="#E5E6F0"/>
<path d="M29.2971 15.9213H28.2441V16.9742H29.2971V15.9213Z" fill="#B75868"/>
<path d="M30.1744 15.9213H29.1214V16.9742H30.1744V15.9213Z" fill="#B75868"/>
<path d="M31.2279 15.9213H30.1749V16.9742H31.2279V15.9213Z" fill="#8D3748"/>
<path d="M32.2801 15.9213H31.2271V16.9742H32.2801V15.9213Z" fill="#1C252E"/>
<path d="M33.3322 15.9213H32.2792V16.9742H33.3322V15.9213Z" fill="#DCDBE0"/>
<path d="M34.2089 15.9213H33.3319V16.9742H34.3849V15.9213H34.2089ZM1.05297 16.9728H0V18.0258H1.05297V16.9728Z" fill="#040404"/>
<path d="M1.93054 16.9729H1.05353V18.0259H2.1065V16.9729H1.93054Z" fill="#C2C5C9"/>
<path d="M2.98235 16.9729H1.92938V18.0259H2.98235V16.9729Z" fill="#374543"/>
<path d="M4.03448 16.9729H2.98151V18.0259H4.03448V16.9729ZM5.08745 16.9729H4.03448V18.0259H5.08745V16.9729Z" fill="#F1F1F4"/>
<path d="M5.96423 16.9729H5.08722V18.0259H6.14019V16.9729H5.96423Z" fill="#040404"/>
<path d="M7.01745 16.9729H5.96448V18.0259H7.01745V16.9729ZM9.12199 16.9729H8.06902V18.0259H9.12199V16.9729Z" fill="#B75868"/>
<path d="M9.99932 16.9729H9.12231V18.0259H10.1753V16.9729H9.99932Z" fill="white"/>
<path d="M11.0525 16.9729H9.99957V18.0259H11.0525V16.9729ZM12.1055 16.9729H11.0525V18.0259H12.1055V16.9729Z" fill="#E5E6F0"/>
<path d="M13.1582 16.9729H12.1052V18.0259H13.1582V16.9729ZM14.0352 16.9729H13.1582V18.0259H14.0352V16.9729ZM15.0882 16.9729H14.0352V18.0259H15.0882V16.9729Z" fill="#E5E6F0"/>
<path d="M16.1398 16.9729H15.0868V18.0259H16.1398V16.9729ZM17.1927 16.9729H16.1398V18.0259H17.1927V16.9729Z" fill="#E5E6F0"/>
<path d="M18.0695 16.9729H17.1924V18.0259H18.2454V16.9729H18.0695Z" fill="#E5E6F0"/>
<path d="M19.1227 16.9729H18.0697V18.0259H19.1227V16.9729ZM20.1756 16.9729H19.1227V18.0259H20.1756V16.9729Z" fill="#E5E6F0"/>
<path d="M21.227 16.9729H20.174V18.0259H21.227V16.9729Z" fill="#E5E6F0"/>
<path d="M22.1042 16.9729H21.0513V18.0259H22.1042V16.9729ZM23.1572 16.9729H22.1042V18.0259H23.1572V16.9729ZM24.2102 16.9729H23.1572V18.0259H24.2102V16.9729ZM25.2631 16.9729H24.2102V18.0259H25.2631V16.9729Z" fill="#E5E6F0"/>
<path d="M26.1393 16.9729H25.0863V18.0259H26.1393V16.9729ZM27.1922 16.9729H26.1393V18.0259H27.1922V16.9729Z" fill="#E5E6F0"/>
<path d="M28.245 16.9729H27.192V18.0259H28.245V16.9729Z" fill="#E5E6F0"/>
<path d="M29.2971 16.9729H28.2441V18.0259H29.2971V16.9729Z" fill="#B75868"/>
<path d="M30.1744 16.9729H29.1214V18.0259H30.1744V16.9729ZM31.2273 16.9729H30.1744V18.0259H31.2273V16.9729Z" fill="#B75868"/>
<path d="M32.2801 16.9729H31.2271V18.0259H32.2801V16.9729Z" fill="#1C252E"/>
<path d="M33.3322 16.9729H32.2792V18.0259H33.3322V16.9729Z" fill="#DCDBE0"/>
<path d="M34.2089 16.9729H33.3319V18.0259H34.3849V16.9729H34.2089ZM1.05297 18.0259H0V19.0788H1.05297V18.0259Z" fill="#040404"/>
<path d="M1.93054 18.0259H1.05353V19.0788H2.1065V18.0259H1.93054Z" fill="#C2C5C9"/>
<path d="M2.98235 18.0259H1.92938V19.0788H2.98235V18.0259Z" fill="#374543"/>
<path d="M4.03448 18.0259H2.98151V19.0788H4.03448V18.0259ZM5.08745 18.0259H4.03448V19.0788H5.08745V18.0259Z" fill="#F1F1F4"/>
<path d="M5.96423 18.0259H5.08722V19.0788H6.14019V18.0259H5.96423Z" fill="#040404"/>
<path d="M7.01745 18.0259H5.96448V19.0788H7.01745V18.0259ZM9.12199 18.0259H8.06902V19.0788H9.12199V18.0259Z" fill="#B75868"/>
<path d="M9.99932 18.0259H9.12231V19.0788H10.1753V18.0259H9.99932Z" fill="white"/>
<path d="M11.0525 18.0259H9.99957V19.0788H11.0525V18.0259ZM12.1055 18.0259H11.0525V19.0788H12.1055V18.0259Z" fill="#E5E6F0"/>
<path d="M13.1582 18.0259H12.1052V19.0788H13.1582V18.0259ZM14.0352 18.0259H13.1582V19.0788H14.0352V18.0259ZM15.0882 18.0259H14.0352V19.0788H15.0882V18.0259Z" fill="#E5E6F0"/>
<path d="M16.1398 18.0259H15.0868V19.0788H16.1398V18.0259ZM17.1927 18.0259H16.1398V19.0788H17.1927V18.0259Z" fill="#E5E6F0"/>
<path d="M18.0695 18.0259H17.1924V19.0788H18.2454V18.0259H18.0695Z" fill="#E5E6F0"/>
<path d="M19.1227 18.0259H18.0697V19.0788H19.1227V18.0259ZM20.1756 18.0259H19.1227V19.0788H20.1756V18.0259Z" fill="#E5E6F0"/>
<path d="M21.227 18.0259H20.174V19.0788H21.227V18.0259Z" fill="#E5E6F0"/>
<path d="M22.1042 18.0259H21.0513V19.0788H22.1042V18.0259ZM23.1572 18.0259H22.1042V19.0788H23.1572V18.0259ZM24.2102 18.0259H23.1572V19.0788H24.2102V18.0259ZM25.2631 18.0259H24.2102V19.0788H25.2631V18.0259Z" fill="#E5E6F0"/>
<path d="M26.1393 18.0259H25.0863V19.0788H26.1393V18.0259ZM27.1922 18.0259H26.1393V19.0788H27.1922V18.0259Z" fill="#E5E6F0"/>
<path d="M28.245 18.0259H27.192V19.0788H28.245V18.0259Z" fill="#E5E6F0"/>
<path d="M29.2971 18.0259H28.2441V19.0788H29.2971V18.0259Z" fill="#B75868"/>
<path d="M30.1744 18.0259H29.1214V19.0788H30.1744V18.0259ZM31.2273 18.0259H30.1744V19.0788H31.2273V18.0259Z" fill="#B75868"/>
<path d="M32.2801 18.0259H31.2271V19.0788H32.2801V18.0259Z" fill="#1C252E"/>
<path d="M33.3322 18.0259H32.2792V19.0788H33.3322V18.0259Z" fill="#DCDBE0"/>
<path d="M34.2089 18.0259H33.3319V19.0788H34.3849V18.0259H34.2089ZM1.05297 19.0788H0V20.1318H1.05297V19.0788Z" fill="#040404"/>
<path d="M1.93054 19.0789H1.05353V20.1318H2.1065V19.0789H1.93054Z" fill="#C2C5C9"/>
<path d="M2.98235 19.0789H1.92938V20.1318H2.98235V19.0789Z" fill="#2E403B"/>
<path d="M4.03448 19.0789H2.98151V20.1318H4.03448V19.0789ZM5.08745 19.0789H4.03448V20.1318H5.08745V19.0789Z" fill="#F1F1F4"/>
<path d="M5.96423 19.0789H5.08722V20.1318H6.14019V19.0789H5.96423Z" fill="#040404"/>
<path d="M7.01745 19.0789H5.96448V20.1318H7.01745V19.0789ZM9.12199 19.0789H8.06902V20.1318H9.12199V19.0789Z" fill="#B75868"/>
<path d="M9.99932 19.0789H9.12231V20.1318H10.1753V19.0789H9.99932Z" fill="white"/>
<path d="M11.0525 19.0789H9.99957V20.1318H11.0525V19.0789ZM12.1055 19.0789H11.0525V20.1318H12.1055V19.0789Z" fill="#E5E6F0"/>
<path d="M13.1582 19.0789H12.1052V20.1318H13.1582V19.0789ZM14.0352 19.0789H13.1582V20.1318H14.0352V19.0789ZM15.0882 19.0789H14.0352V20.1318H15.0882V19.0789Z" fill="#E5E6F0"/>
<path d="M16.1398 19.0789H15.0868V20.1318H16.1398V19.0789ZM17.1927 19.0789H16.1398V20.1318H17.1927V19.0789Z" fill="#E5E6F0"/>
<path d="M18.0695 19.0789H17.1924V20.1318H18.2454V19.0789H18.0695Z" fill="#E5E6F0"/>
<path d="M19.1227 19.0789H18.0697V20.1318H19.1227V19.0789ZM20.1756 19.0789H19.1227V20.1318H20.1756V19.0789Z" fill="#E5E6F0"/>
<path d="M21.227 19.0789H20.174V20.1318H21.227V19.0789Z" fill="#E5E6F0"/>
<path d="M22.1042 19.0789H21.0513V20.1318H22.1042V19.0789Z" fill="#E5E6F0"/>
<path d="M23.1564 19.0789H22.1034V20.1318H23.1564V19.0789ZM24.2093 19.0789H23.1564V20.1318H24.2093V19.0789ZM25.2623 19.0789H24.2093V20.1318H25.2623V19.0789Z" fill="#B8B8D2"/>
<path d="M26.1393 19.0789H25.0863V20.1318H26.1393V19.0789ZM27.1922 19.0789H26.1393V20.1318H27.1922V19.0789Z" fill="#B8B8D2"/>
<path d="M28.245 19.0789H27.192V20.1318H28.245V19.0789Z" fill="#B8B8D2"/>
<path d="M29.2971 19.0789H28.2441V20.1318H29.2971V19.0789Z" fill="#913648"/>
<path d="M30.1744 19.0789H29.1214V20.1318H30.1744V19.0789ZM31.2273 19.0789H30.1744V20.1318H31.2273V19.0789Z" fill="#B75868"/>
<path d="M32.2801 19.0789H31.2271V20.1318H32.2801V19.0789Z" fill="#1C252E"/>
<path d="M33.3322 19.0789H32.2792V20.1318H33.3322V19.0789Z" fill="#DCDBE0"/>
<path d="M34.2089 19.0789H33.3319V20.1318H34.3849V19.0789H34.2089ZM1.05297 19.9559H0V21.0088H1.05297V19.9559Z" fill="#040404"/>
<path d="M1.93054 19.9558H1.05353V21.0088H2.1065V19.9558H1.93054Z" fill="#757B83"/>
<path d="M2.98235 19.9558H1.92938V21.0088H2.98235V19.9558Z" fill="#2E403B"/>
<path d="M4.03448 19.9558H2.98151V21.0088H4.03448V19.9558Z" fill="#BDBAD5"/>
<path d="M5.08807 19.9558H4.0351V21.0088H5.08807V19.9558Z" fill="#F1F1F4"/>
<path d="M5.96423 19.9558H5.08722V21.0088H6.14019V19.9558H5.96423Z" fill="#040404"/>
<path d="M7.01745 19.9558H5.96448V21.0088H7.01745V19.9558ZM9.12199 19.9558H8.06902V21.0088H9.12199V19.9558Z" fill="#B75868"/>
<path d="M9.99932 19.9558H9.12231V21.0088H10.1753V19.9558H9.99932Z" fill="#BABAD4"/>
<path d="M11.0525 19.9558H9.99957V21.0088H11.0525V19.9558ZM12.1055 19.9558H11.0525V21.0088H12.1055V19.9558Z" fill="#BABAD4"/>
<path d="M13.1582 19.9558H12.1052V21.0088H13.1582V19.9558ZM14.0352 19.9558H13.1582V21.0088H14.0352V19.9558ZM15.0882 19.9558H14.0352V21.0088H15.0882V19.9558Z" fill="#BABAD4"/>
<path d="M16.1398 19.9558H15.0868V21.0088H16.1398V19.9558Z" fill="#BABAD4"/>
<path d="M17.1919 19.9558H16.1389V21.0088H17.1919V19.9558Z" fill="#E5E6F0"/>
<path d="M18.0695 19.9558H17.1924V21.0088H18.2454V19.9558H18.0695Z" fill="#E5E6F0"/>
<path d="M19.1227 19.9558H18.0697V21.0088H19.1227V19.9558ZM20.1756 19.9558H19.1227V21.0088H20.1756V19.9558Z" fill="#E5E6F0"/>
<path d="M21.227 19.9558H20.174V21.0088H21.227V19.9558Z" fill="#E5E6F0"/>
<path d="M22.1042 19.9558H21.0513V21.0088H22.1042V19.9558ZM23.1572 19.9558H22.1042V21.0088H23.1572V19.9558ZM24.2102 19.9558H23.1572V21.0088H24.2102V19.9558ZM25.2631 19.9558H24.2102V21.0088H25.2631V19.9558Z" fill="#B8B8D2"/>
<path d="M26.1393 19.9558H25.0863V21.0088H26.1393V19.9558ZM27.1922 19.9558H26.1393V21.0088H27.1922V19.9558Z" fill="#B8B8D2"/>
<path d="M28.245 19.9558H27.192V21.0088H28.245V19.9558Z" fill="#B8B8D2"/>
<path d="M29.2971 19.9558H28.2441V21.0088H29.2971V19.9558Z" fill="#B75868"/>
<path d="M30.1744 19.9558H29.1214V21.0088H30.1744V19.9558ZM31.2273 19.9558H30.1744V21.0088H31.2273V19.9558Z" fill="#B75868"/>
<path d="M32.2801 19.9558H31.2271V21.0088H32.2801V19.9558Z" fill="#1C252E"/>
<path d="M33.3322 19.9558H32.2792V21.0088H33.3322V19.9558Z" fill="#B8B8D4"/>
<path d="M34.2095 19.9558H33.3325V21.0088H34.3855V19.9558H34.2095ZM1.93054 21.0088H1.05353V22.0618H2.1065V21.0088H1.93054Z" fill="#040404"/>
<path d="M2.98235 21.0088H1.92938V22.0618H2.98235V21.0088Z" fill="#6C747C"/>
<path d="M4.03448 21.0088H2.98151V22.0618H4.03448V21.0088Z" fill="#090A0A"/>
<path d="M5.08807 21.0088H4.0351V22.0618H5.08807V21.0088Z" fill="#F1F1F4"/>
<path d="M5.96423 21.0088H5.08722V22.0618H6.14019V21.0088H5.96423Z" fill="white"/>
<path d="M7.01745 21.0088H5.96448V22.0618H7.01745V21.0088Z" fill="#040404"/>
<path d="M9.12176 21.0088H8.06879V22.0618H9.12176V21.0088Z" fill="#B75868"/>
<path d="M9.99932 21.0088H9.12231V22.0618H10.1753V21.0088H9.99932Z" fill="#913648"/>
<path d="M11.0525 21.0088H9.99957V22.0618H11.0525V21.0088ZM12.1055 21.0088H11.0525V22.0618H12.1055V21.0088Z" fill="#913648"/>
<path d="M13.1582 21.0088H12.1052V22.0618H13.1582V21.0088ZM14.0352 21.0088H13.1582V22.0618H14.0352V21.0088ZM15.0882 21.0088H14.0352V22.0618H15.0882V21.0088Z" fill="#913648"/>
<path d="M16.1398 21.0088H15.0868V22.0618H16.1398V21.0088Z" fill="#BABAD4"/>
<path d="M17.1919 21.0088H16.1389V22.0618H17.1919V21.0088Z" fill="#E5E6F0"/>
<path d="M18.0695 21.0088H17.1924V22.0618H18.2454V21.0088H18.0695Z" fill="#E5E6F0"/>
<path d="M19.1227 21.0088H18.0697V22.0618H19.1227V21.0088ZM20.1756 21.0088H19.1227V22.0618H20.1756V21.0088Z" fill="#E5E6F0"/>
<path d="M21.227 21.0088H20.174V22.0618H21.227V21.0088Z" fill="#E5E6F0"/>
<path d="M22.1042 21.0088H21.0513V22.0618H22.1042V21.0088Z" fill="#B8B8D2"/>
<path d="M23.1564 21.0088H22.1034V22.0618H23.1564V21.0088ZM24.2093 21.0088H23.1564V22.0618H24.2093V21.0088ZM25.2623 21.0088H24.2093V22.0618H25.2623V21.0088Z" fill="#913648"/>
<path d="M26.1393 21.0088H25.0863V22.0618H26.1393V21.0088ZM27.1922 21.0088H26.1393V22.0618H27.1922V21.0088Z" fill="#913648"/>
<path d="M28.245 21.0088H27.192V22.0618H28.245V21.0088Z" fill="#913648"/>
<path d="M29.2971 21.0088H28.2441V22.0618H29.2971V21.0088Z" fill="#B75868"/>
<path d="M30.1744 21.0088H29.1214V22.0618H30.1744V21.0088Z" fill="#B75868"/>
<path d="M31.2279 21.0088H30.1749V22.0618H31.2279V21.0088Z" fill="#913648"/>
<path d="M32.2801 21.0088H31.2271V22.0618H32.2801V21.0088Z" fill="white"/>
<path d="M33.3322 21.0088H32.2792V22.0618H33.3322V21.0088Z" fill="#303C3D"/>
<path d="M1.93054 22.0603H1.05353V23.1133H2.1065V22.0603H1.93054Z" fill="#040404"/>
<path d="M2.98235 22.0603H1.92938V23.1133H2.98235V22.0603Z" fill="#828990"/>
<path d="M4.03448 22.0603H2.98151V23.1133H4.03448V22.0603Z" fill="#313C3D"/>
<path d="M5.08807 22.0603H4.0351V23.1133H5.08807V22.0603Z" fill="#F1F1F4"/>
<path d="M5.96423 22.0603H5.08722V23.1133H6.14019V22.0603H5.96423Z" fill="white"/>
<path d="M7.01745 22.0603H5.96448V23.1133H7.01745V22.0603Z" fill="#040404"/>
<path d="M9.12176 22.0603H8.06879V23.1133H9.12176V22.0603ZM9.99876 22.0603H9.12176V23.1133H10.1747V22.0603H9.99876Z" fill="#B75868"/>
<path d="M11.0525 22.0603H9.99957V23.1133H11.0525V22.0603ZM12.1055 22.0603H11.0525V23.1133H12.1055V22.0603Z" fill="#B75868"/>
<path d="M13.1582 22.0603H12.1052V23.1133H13.1582V22.0603ZM14.0352 22.0603H13.1582V23.1133H14.0352V22.0603ZM15.0882 22.0603H14.0352V23.1133H15.0882V22.0603Z" fill="#B75868"/>
<path d="M16.1398 22.0603H15.0868V23.1133H16.1398V22.0603Z" fill="white"/>
<path d="M17.1919 22.0603H16.1389V23.1133H17.1919V22.0603Z" fill="#E5E6F0"/>
<path d="M18.0695 22.0603H17.1924V23.1133H18.2454V22.0603H18.0695Z" fill="#E5E6F0"/>
<path d="M19.1227 22.0603H18.0697V23.1133H19.1227V22.0603ZM20.1756 22.0603H19.1227V23.1133H20.1756V22.0603Z" fill="#E5E6F0"/>
<path d="M21.227 22.0603H20.174V23.1133H21.227V22.0603Z" fill="#E5E6F0"/>
<path d="M22.1042 22.0603H21.0513V23.1133H22.1042V22.0603Z" fill="#B8B8D2"/>
<path d="M23.1564 22.0603H22.1034V23.1133H23.1564V22.0603Z" fill="#913648"/>
<path d="M24.2099 22.0603H23.1569V23.1133H24.2099V22.0603ZM25.2629 22.0603H24.2099V23.1133H25.2629V22.0603Z" fill="#B75868"/>
<path d="M26.1393 22.0603H25.0863V23.1133H26.1393V22.0603ZM27.1922 22.0603H26.1393V23.1133H27.1922V22.0603Z" fill="#B75868"/>
<path d="M28.245 22.0603H27.192V23.1133H28.245V22.0603ZM29.298 22.0603H28.245V23.1133H29.298V22.0603Z" fill="#B75868"/>
<path d="M30.1744 22.0603H29.1214V23.1133H30.1744V22.0603Z" fill="#B75868"/>
<path d="M31.2279 22.0603H30.1749V23.1133H31.2279V22.0603Z" fill="#913648"/>
<path d="M32.2801 22.0603H31.2271V23.1133H32.2801V22.0603Z" fill="white"/>
<path d="M33.3322 22.0603H32.2792V23.1133H33.3322V22.0603Z" fill="#2B3739"/>
<path d="M1.93054 23.1133H1.05353V24.1663H2.1065V23.1133H1.93054Z" fill="#040404"/>
<path d="M2.98235 23.1133H1.92938V24.1663H2.98235V23.1133Z" fill="#B2B6BD"/>
<path d="M4.03448 23.1133H2.98151V24.1663H4.03448V23.1133Z" fill="#313C3D"/>
<path d="M5.08807 23.1133H4.0351V24.1663H5.08807V23.1133ZM5.96507 23.1133H5.08807V24.1663H6.14104V23.1133H5.96507Z" fill="white"/>
<path d="M7.01745 23.1133H5.96448V24.1663H7.01745V23.1133Z" fill="#040404"/>
<path d="M9.12176 23.1133H8.06879V24.1663H9.12176V23.1133ZM9.99876 23.1133H9.12176V24.1663H10.1747V23.1133H9.99876Z" fill="#B75868"/>
<path d="M11.0525 23.1133H9.99957V24.1663H11.0525V23.1133ZM12.1055 23.1133H11.0525V24.1663H12.1055V23.1133Z" fill="#B75868"/>
<path d="M13.1582 23.1133H12.1052V24.1663H13.1582V23.1133ZM14.0352 23.1133H13.1582V24.1663H14.0352V23.1133ZM15.0882 23.1133H14.0352V24.1663H15.0882V23.1133Z" fill="#B75868"/>
<path d="M16.1398 23.1133H15.0868V24.1663H16.1398V23.1133ZM17.1927 23.1133H16.1398V24.1663H17.1927V23.1133Z" fill="#E5E6F0"/>
<path d="M18.0695 23.1133H17.1924V24.1663H18.2454V23.1133H18.0695Z" fill="#E5E6F0"/>
<path d="M19.1227 23.1133H18.0697V24.1663H19.1227V23.1133ZM20.1756 23.1133H19.1227V24.1663H20.1756V23.1133Z" fill="#E5E6F0"/>
<path d="M21.227 23.1133H20.174V24.1663H21.227V23.1133Z" fill="#E5E6F0"/>
<path d="M22.1042 23.1133H21.0513V24.1663H22.1042V23.1133Z" fill="#B8B8D2"/>
<path d="M23.1564 23.1133H22.1034V24.1663H23.1564V23.1133Z" fill="#913648"/>
<path d="M24.2099 23.1133H23.1569V24.1663H24.2099V23.1133ZM25.2629 23.1133H24.2099V24.1663H25.2629V23.1133Z" fill="#B75868"/>
<path d="M26.1393 23.1133H25.0863V24.1663H26.1393V23.1133ZM27.1922 23.1133H26.1393V24.1663H27.1922V23.1133Z" fill="#B75868"/>
<path d="M28.245 23.1133H27.192V24.1663H28.245V23.1133ZM29.298 23.1133H28.245V24.1663H29.298V23.1133Z" fill="#B75868"/>
<path d="M30.1744 23.1133H29.1214V24.1663H30.1744V23.1133Z" fill="#B75868"/>
<path d="M31.2279 23.1133H30.1749V24.1663H31.2279V23.1133Z" fill="#913648"/>
<path d="M32.2801 23.1133H31.2271V24.1663H32.2801V23.1133Z" fill="white"/>
<path d="M33.3322 23.1133H32.2792V24.1663H33.3322V23.1133Z" fill="#1F2C2C"/>
<path d="M2.98235 23.9904H1.92938V25.0433H2.98235V23.9904Z" fill="#040404"/>
<path d="M4.03448 23.9904H2.98151V25.0433H4.03448V23.9904Z" fill="#8D8F92"/>
<path d="M5.08807 23.9904H4.0351V25.0433H5.08807V23.9904Z" fill="#313C3D"/>
<path d="M5.96423 23.9904H5.08722V25.0433H6.14019V23.9904H5.96423Z" fill="#D8D8DB"/>
<path d="M7.01745 23.9904H5.96448V25.0433H7.01745V23.9904Z" fill="#F1F1F4"/>
<path d="M9.12176 23.9904H8.06879V25.0433H9.12176V23.9904ZM9.99876 23.9904H9.12176V25.0433H10.1747V23.9904H9.99876Z" fill="#B75868"/>
<path d="M11.0525 23.9904H9.99957V25.0433H11.0525V23.9904ZM12.1055 23.9904H11.0525V25.0433H12.1055V23.9904Z" fill="#B75868"/>
<path d="M13.1582 23.9904H12.1052V25.0433H13.1582V23.9904ZM14.0352 23.9904H13.1582V25.0433H14.0352V23.9904ZM15.0882 23.9904H14.0352V25.0433H15.0882V23.9904Z" fill="#B75868"/>
<path d="M16.1398 23.9904H15.0868V25.0433H16.1398V23.9904ZM17.1927 23.9904H16.1398V25.0433H17.1927V23.9904Z" fill="#E5E6F0"/>
<path d="M18.0695 23.9904H17.1924V25.0433H18.2454V23.9904H18.0695Z" fill="#E5E6F0"/>
<path d="M19.1227 23.9904H18.0697V25.0433H19.1227V23.9904Z" fill="#E5E6F0"/>
<path d="M20.1748 23.9904H19.1218V25.0433H20.1748V23.9904Z" fill="#B8B8D2"/>
<path d="M21.227 23.9904H20.174V25.0433H21.227V23.9904Z" fill="#B8B8D2"/>
<path d="M22.1042 23.9904H21.0513V25.0433H22.1042V23.9904Z" fill="#B8B8D2"/>
<path d="M23.1564 23.9904H22.1034V25.0433H23.1564V23.9904Z" fill="#913648"/>
<path d="M24.2099 23.9904H23.1569V25.0433H24.2099V23.9904ZM25.2629 23.9904H24.2099V25.0433H25.2629V23.9904Z" fill="#B75868"/>
<path d="M26.1393 23.9904H25.0863V25.0433H26.1393V23.9904ZM27.1922 23.9904H26.1393V25.0433H27.1922V23.9904Z" fill="#B75868"/>
<path d="M28.245 23.9904H27.192V25.0433H28.245V23.9904ZM29.298 23.9904H28.245V25.0433H29.298V23.9904Z" fill="#B75868"/>
<path d="M30.1744 23.9904H29.1214V25.0433H30.1744V23.9904Z" fill="#591E29"/>
<path d="M31.2279 23.9904H30.1749V25.0433H31.2279V23.9904Z" fill="#E8E9EA"/>
<path d="M32.2801 23.9904H31.2271V25.0433H32.2801V23.9904Z" fill="#252E2F"/>
<path d="M2.98235 25.0433H1.92938V26.0963H2.98235V25.0433Z" fill="#040404"/>
<path d="M4.03448 25.0433H2.98151V26.0963H4.03448V25.0433Z" fill="#707980"/>
<path d="M5.08807 25.0433H4.0351V26.0963H5.08807V25.0433Z" fill="#313C3D"/>
<path d="M5.96423 25.0433H5.08722V26.0963H6.14019V25.0433H5.96423Z" fill="#D8D8DB"/>
<path d="M7.01745 25.0433H5.96448V26.0963H7.01745V25.0433Z" fill="white"/>
<path d="M9.12176 25.0433H8.06879V26.0963H9.12176V25.0433Z" fill="#913648"/>
<path d="M9.99932 25.0433H9.12231V26.0963H10.1753V25.0433H9.99932Z" fill="#B75868"/>
<path d="M11.0525 25.0433H9.99957V26.0963H11.0525V25.0433ZM12.1055 25.0433H11.0525V26.0963H12.1055V25.0433Z" fill="#B75868"/>
<path d="M13.1582 25.0433H12.1052V26.0963H13.1582V25.0433ZM14.0352 25.0433H13.1582V26.0963H14.0352V25.0433ZM15.0882 25.0433H14.0352V26.0963H15.0882V25.0433Z" fill="#B75868"/>
<path d="M16.1398 25.0433H15.0868V26.0963H16.1398V25.0433Z" fill="#E5E6F0"/>
<path d="M17.1919 25.0433H16.1389V26.0963H17.1919V25.0433Z" fill="#B8B8D2"/>
<path d="M18.0695 25.0433H17.1924V26.0963H18.2454V25.0433H18.0695Z" fill="#B8B8D2"/>
<path d="M19.1227 25.0433H18.0697V26.0963H19.1227V25.0433ZM20.1756 25.0433H19.1227V26.0963H20.1756V25.0433Z" fill="#B8B8D2"/>
<path d="M21.227 25.0433H20.174V26.0963H21.227V25.0433Z" fill="#B8B8D2"/>
<path d="M22.1042 25.0433H21.0513V26.0963H22.1042V25.0433Z" fill="#B8B8D2"/>
<path d="M23.1564 25.0433H22.1034V26.0963H23.1564V25.0433Z" fill="#913648"/>
<path d="M24.2099 25.0433H23.1569V26.0963H24.2099V25.0433ZM25.2629 25.0433H24.2099V26.0963H25.2629V25.0433Z" fill="#B75868"/>
<path d="M26.1393 25.0433H25.0863V26.0963H26.1393V25.0433ZM27.1922 25.0433H26.1393V26.0963H27.1922V25.0433Z" fill="#B75868"/>
<path d="M28.245 25.0433H27.192V26.0963H28.245V25.0433ZM29.298 25.0433H28.245V26.0963H29.298V25.0433Z" fill="#B75868"/>
<path d="M30.1744 25.0433H29.1214V26.0963H30.1744V25.0433Z" fill="#591E29"/>
<path d="M31.2279 25.0433H30.1749V26.0963H31.2279V25.0433Z" fill="#E8E9EA"/>
<path d="M32.2801 25.0433H31.2271V26.0963H32.2801V25.0433Z" fill="#080808"/>
<path d="M4.03448 26.0962H2.98151V27.1492H4.03448V26.0962Z" fill="#040404"/>
<path d="M5.08807 26.0962H4.0351V27.1492H5.08807V26.0962Z" fill="#8D8F92"/>
<path d="M5.96423 26.0962H5.08722V27.1492H6.14019V26.0962H5.96423Z" fill="#313C3D"/>
<path d="M7.01745 26.0962H5.96448V27.1492H7.01745V26.0962Z" fill="#D8D8DB"/>
<path d="M9.12176 26.0962H8.06879V27.1492H9.12176V26.0962Z" fill="#913648"/>
<path d="M9.99932 26.0962H9.12231V27.1492H10.1753V26.0962H9.99932Z" fill="#B75868"/>
<path d="M11.0525 26.0962H9.99957V27.1492H11.0525V26.0962ZM12.1055 26.0962H11.0525V27.1492H12.1055V26.0962Z" fill="#B75868"/>
<path d="M13.1582 26.0962H12.1052V27.1492H13.1582V26.0962ZM14.0352 26.0962H13.1582V27.1492H14.0352V26.0962ZM15.0882 26.0962H14.0352V27.1492H15.0882V26.0962Z" fill="#B75868"/>
<path d="M16.1398 26.0962H15.0868V27.1492H16.1398V26.0962ZM17.1927 26.0962H16.1398V27.1492H17.1927V26.0962Z" fill="#B8B8D2"/>
<path d="M18.0695 26.0962H17.1924V27.1492H18.2454V26.0962H18.0695Z" fill="#B8B8D2"/>
<path d="M19.1227 26.0962H18.0697V27.1492H19.1227V26.0962ZM20.1756 26.0962H19.1227V27.1492H20.1756V26.0962Z" fill="#B8B8D2"/>
<path d="M21.227 26.0962H20.174V27.1492H21.227V26.0962Z" fill="#B8B8D2"/>
<path d="M22.1042 26.0962H21.0513V27.1492H22.1042V26.0962Z" fill="#B8B8D2"/>
<path d="M23.1564 26.0962H22.1034V27.1492H23.1564V26.0962Z" fill="#913648"/>
<path d="M24.2099 26.0962H23.1569V27.1492H24.2099V26.0962ZM25.2629 26.0962H24.2099V27.1492H25.2629V26.0962Z" fill="#B75868"/>
<path d="M26.1393 26.0962H25.0863V27.1492H26.1393V26.0962ZM27.1922 26.0962H26.1393V27.1492H27.1922V26.0962Z" fill="#B75868"/>
<path d="M28.245 26.0962H27.192V27.1492H28.245V26.0962Z" fill="#B75868"/>
<path d="M29.2971 26.0962H28.2441V27.1492H29.2971V26.0962Z" fill="#993C4D"/>
<path d="M30.1744 26.0962H29.1214V27.1492H30.1744V26.0962Z" fill="#E8E9EA"/>
<path d="M31.2279 26.0962H30.1749V27.1492H31.2279V26.0962Z" fill="#263234"/>
<path d="M4.03448 27.1478H2.98151V28.2008H4.03448V27.1478Z" fill="#040404"/>
<path d="M5.08807 27.1478H4.0351V28.2008H5.08807V27.1478Z" fill="#707980"/>
<path d="M5.96423 27.1478H5.08722V28.2008H6.14019V27.1478H5.96423Z" fill="#8D8F92"/>
<path d="M7.01745 27.1478H5.96448V28.2008H7.01745V27.1478Z" fill="#313C3D"/>
<path d="M9.12176 27.1478H8.06879V28.2008H9.12176V27.1478Z" fill="#040404"/>
<path d="M9.99932 27.1478H9.12231V28.2008H10.1753V27.1478H9.99932Z" fill="#913648"/>
<path d="M11.0525 27.1478H9.99957V28.2008H11.0525V27.1478ZM12.1055 27.1478H11.0525V28.2008H12.1055V27.1478Z" fill="#B75868"/>
<path d="M13.1582 27.1478H12.1052V28.2008H13.1582V27.1478ZM14.0352 27.1478H13.1582V28.2008H14.0352V27.1478ZM15.0882 27.1478H14.0352V28.2008H15.0882V27.1478Z" fill="#B75868"/>
<path d="M16.1398 27.1478H15.0868V28.2008H16.1398V27.1478ZM17.1927 27.1478H16.1398V28.2008H17.1927V27.1478Z" fill="#913648"/>
<path d="M18.0695 27.1478H17.1924V28.2008H18.2454V27.1478H18.0695Z" fill="#913648"/>
<path d="M19.1227 27.1478H18.0697V28.2008H19.1227V27.1478ZM20.1756 27.1478H19.1227V28.2008H20.1756V27.1478Z" fill="#913648"/>
<path d="M21.227 27.1478H20.174V28.2008H21.227V27.1478Z" fill="#913648"/>
<path d="M22.1042 27.1478H21.0513V28.2008H22.1042V27.1478Z" fill="#913648"/>
<path d="M23.1564 27.1478H22.1034V28.2008H23.1564V27.1478ZM24.2093 27.1478H23.1564V28.2008H24.2093V27.1478ZM25.2623 27.1478H24.2093V28.2008H25.2623V27.1478Z" fill="#B75868"/>
<path d="M26.1393 27.1478H25.0863V28.2008H26.1393V27.1478ZM27.1922 27.1478H26.1393V28.2008H27.1922V27.1478Z" fill="#B75868"/>
<path d="M28.245 27.1478H27.192V28.2008H28.245V27.1478Z" fill="#993C4D"/>
<path d="M29.2971 27.1478H28.2441V28.2008H29.2971V27.1478Z" fill="#E8E9EA"/>
<path d="M30.1744 27.1478H29.1214V28.2008H30.1744V27.1478Z" fill="#D5D7D9"/>
<path d="M31.2279 27.1478H30.1749V28.2008H31.2279V27.1478Z" fill="#263234"/>
<path d="M5.08807 28.0262H4.0351V29.0792H5.08807V28.0262Z" fill="#040404"/>
<path d="M5.96423 28.0262H5.08722V29.0792H6.14019V28.0262H5.96423Z" fill="#707980"/>
<path d="M7.01745 28.0262H5.96448V29.0792H7.01745V28.0262Z" fill="#8D8F92"/>
<path d="M9.12176 28.0262H8.06879V29.0792H9.12176V28.0262ZM9.99876 28.0262H9.12176V29.0792H10.1747V28.0262H9.99876Z" fill="#D3D3D6"/>
<path d="M11.0525 28.0262H9.99957V29.0792H11.0525V28.0262Z" fill="#040404"/>
<path d="M12.1047 28.0262H11.0517V29.0792H12.1047V28.0262Z" fill="#913648"/>
<path d="M13.1582 28.0262H12.1052V29.0792H13.1582V28.0262ZM14.0352 28.0262H13.1582V29.0792H14.0352V28.0262ZM15.0882 28.0262H14.0352V29.0792H15.0882V28.0262Z" fill="#B75868"/>
<path d="M16.1398 28.0262H15.0868V29.0792H16.1398V28.0262ZM17.1927 28.0262H16.1398V29.0792H17.1927V28.0262Z" fill="#B75868"/>
<path d="M18.0695 28.0262H17.1924V29.0792H18.2454V28.0262H18.0695Z" fill="#B75868"/>
<path d="M19.1227 28.0262H18.0697V29.0792H19.1227V28.0262ZM20.1756 28.0262H19.1227V29.0792H20.1756V28.0262Z" fill="#B75868"/>
<path d="M21.227 28.0262H20.174V29.0792H21.227V28.0262Z" fill="#B75868"/>
<path d="M22.1042 28.0262H21.0513V29.0792H22.1042V28.0262ZM23.1572 28.0262H22.1042V29.0792H23.1572V28.0262ZM24.2102 28.0262H23.1572V29.0792H24.2102V28.0262ZM25.2631 28.0262H24.2102V29.0792H25.2631V28.0262Z" fill="#B75868"/>
<path d="M26.1393 28.0262H25.0863V29.0792H26.1393V28.0262Z" fill="#993C4D"/>
<path d="M27.1929 28.0262H26.1399V29.0792H27.1929V28.0262Z" fill="#AA495A"/>
<path d="M28.245 28.0262H27.192V29.0792H28.245V28.0262Z" fill="#E8E9EA"/>
<path d="M29.2971 28.0262H28.2441V29.0792H29.2971V28.0262Z" fill="#D5D7D9"/>
<path d="M30.1744 28.0262H29.1214V29.0792H30.1744V28.0262Z" fill="#263234"/>
<path d="M5.96423 29.0779H5.08722V30.1308H6.14019V29.0779H5.96423Z" fill="#172222"/>
<path d="M7.01745 29.0779H5.96448V30.1308H7.01745V29.0779Z" fill="#707980"/>
<path d="M9.12176 29.0779H8.06879V30.1308H9.12176V29.0779Z" fill="#313C3D"/>
<path d="M9.99932 29.0779H9.12231V30.1308H10.1753V29.0779H9.99932Z" fill="#D3D3D6"/>
<path d="M11.0525 29.0779H9.99957V30.1308H11.0525V29.0779ZM12.1055 29.0779H11.0525V30.1308H12.1055V29.0779Z" fill="#D3D3D6"/>
<path d="M13.1582 29.0779H12.1052V30.1308H13.1582V29.0779ZM14.0352 29.0779H13.1582V30.1308H14.0352V29.0779ZM15.0882 29.0779H14.0352V30.1308H15.0882V29.0779Z" fill="#913648"/>
<path d="M16.1398 29.0779H15.0868V30.1308H16.1398V29.0779ZM17.1927 29.0779H16.1398V30.1308H17.1927V29.0779Z" fill="#B75868"/>
<path d="M18.0695 29.0779H17.1924V30.1308H18.2454V29.0779H18.0695Z" fill="#B75868"/>
<path d="M19.1227 29.0779H18.0697V30.1308H19.1227V29.0779ZM20.1756 29.0779H19.1227V30.1308H20.1756V29.0779Z" fill="#B75868"/>
<path d="M21.227 29.0779H20.174V30.1308H21.227V29.0779Z" fill="#B75868"/>
<path d="M22.1042 29.0779H21.0513V30.1308H22.1042V29.0779Z" fill="#B75868"/>
<path d="M23.1564 29.0779H22.1034V30.1308H23.1564V29.0779ZM24.2093 29.0779H23.1564V30.1308H24.2093V29.0779ZM25.2623 29.0779H24.2093V30.1308H25.2623V29.0779Z" fill="#993C4D"/>
<path d="M26.1393 29.0779H25.0863V30.1308H26.1393V29.0779Z" fill="#F6F8F9"/>
<path d="M27.1929 29.0779H26.1399V30.1308H27.1929V29.0779Z" fill="#E8E9EA"/>
<path d="M28.245 29.0779H27.192V30.1308H28.245V29.0779Z" fill="#E8E9EA"/>
<path d="M29.2971 29.0779H28.2441V30.1308H29.2971V29.0779Z" fill="#263234"/>
<path d="M7.01745 30.1309H5.96448V31.1838H7.01745V30.1309ZM9.12199 31.1838H8.06902V32.2368H9.12199V31.1838Z" fill="#172222"/>
<path d="M8.07098 31.1838H7.01801V32.2368H8.07098V31.1838Z" fill="#172222"/>
<path d="M9.12176 31.1838V30.1309H8.06879V31.1838H9.12176Z" fill="#8D8F92"/>
<path d="M9.99932 30.1309H9.12231V31.1838H10.1753V30.1309H9.99932Z" fill="#313C3D"/>
<path d="M11.0525 30.1309H9.99957V31.1838H11.0525V30.1309Z" fill="#313C3D"/>
<path d="M12.1047 30.1309H11.0517V31.1838H12.1047V30.1309Z" fill="#D8D8DB"/>
<path d="M13.1582 30.1309H12.1052V31.1838H13.1582V30.1309ZM14.0352 30.1309H13.1582V31.1838H14.0352V30.1309ZM15.0882 30.1309H14.0352V31.1838H15.0882V30.1309Z" fill="#D3D3D6"/>
<path d="M16.1398 30.1309H15.0868V31.1838H16.1398V30.1309ZM17.1927 30.1309H16.1398V31.1838H17.1927V30.1309Z" fill="#913648"/>
<path d="M18.0695 30.1309H17.1924V31.1838H18.2454V30.1309H18.0695Z" fill="#913648"/>
<path d="M19.1227 30.1309H18.0697V31.1838H19.1227V30.1309ZM20.1756 30.1309H19.1227V31.1838H20.1756V30.1309Z" fill="#913648"/>
<path d="M21.227 30.1309H20.174V31.1838H21.227V30.1309Z" fill="#913648"/>
<path d="M22.1042 30.1309H21.0513V31.1838H22.1042V30.1309Z" fill="#913648"/>
<path d="M23.1564 30.1309H22.1034V31.1838H23.1564V30.1309ZM24.2093 30.1309H23.1564V31.1838H24.2093V30.1309ZM25.2623 30.1309H24.2093V31.1838H25.2623V30.1309Z" fill="#F6F8F9"/>
<path d="M26.1393 30.1309H25.0863V31.1838H26.1393V30.1309Z" fill="#D5D7D9"/>
<path d="M27.1929 30.1309H26.1399V31.1838H27.1929V30.1309Z" fill="#293334"/>
<path d="M28.245 30.1309H27.192V31.1838H28.245V30.1309Z" fill="#080808"/>
<path d="M9.99932 31.1838H9.12231V32.2368H10.1753V31.1838H9.99932Z" fill="#707980"/>
<path d="M11.0525 31.1838H9.99957V32.2368H11.0525V31.1838Z" fill="#707980"/>
<path d="M12.1047 31.1838H11.0517V32.2368H12.1047V31.1838Z" fill="#313C3D"/>
<path d="M13.1582 31.1838H12.1052V32.2368H13.1582V31.1838ZM14.0352 31.1838H13.1582V32.2368H14.0352V31.1838ZM15.0882 31.1838H14.0352V32.2368H15.0882V31.1838Z" fill="#D3D3D6"/>
<path d="M16.1398 31.1838H15.0868V32.2368H16.1398V31.1838ZM17.1927 31.1838H16.1398V32.2368H17.1927V31.1838Z" fill="#E8E9EA"/>
<path d="M18.0695 31.1838H17.1924V32.2368H18.2454V31.1838H18.0695Z" fill="#E8E9EA"/>
<path d="M19.1227 31.1838H18.0697V32.2368H19.1227V31.1838ZM20.1756 31.1838H19.1227V32.2368H20.1756V31.1838Z" fill="#E8E9EA"/>
<path d="M21.227 31.1838H20.174V32.2368H21.227V31.1838Z" fill="#E8E9EA"/>
<path d="M22.1042 31.1838H21.0513V32.2368H22.1042V31.1838Z" fill="#E8E9EA"/>
<path d="M23.1564 31.1838H22.1034V32.2368H23.1564V31.1838ZM24.2093 31.1838H23.1564V32.2368H24.2093V31.1838Z" fill="#D5D7D9"/>
<path d="M25.2634 31.1838H24.2104V32.2368H25.2634V31.1838Z" fill="#080808"/>
<path d="M26.1393 31.1838H25.0863V32.2368H26.1393V31.1838Z" fill="#080808"/>
<path d="M9.99932 32.0608H9.12231V33.1138H10.1753V32.0608H9.99932Z" fill="#172222"/>
<path d="M11.0525 32.0608H9.99957V33.1138H11.0525V32.0608Z" fill="#172222"/>
<path d="M12.1047 32.0608H11.0517V33.1138H12.1047V32.0608Z" fill="#565F62"/>
<path d="M13.1582 32.0608H12.1052V33.1138H13.1582V32.0608ZM14.0352 32.0608H13.1582V33.1138H14.0352V32.0608Z" fill="#565F62"/>
<path d="M15.0876 32.0608H14.0346V33.1138H15.0876V32.0608Z" fill="#828990"/>
<path d="M16.1398 32.0608H15.0868V33.1138H16.1398V32.0608ZM17.1927 32.0608H16.1398V33.1138H17.1927V32.0608Z" fill="#A4A5A9"/>
<path d="M18.0695 32.0608H17.1924V33.1138H18.2454V32.0608H18.0695Z" fill="#BBBBC2"/>
<path d="M19.1227 32.0608H18.0697V33.1138H19.1227V32.0608ZM20.1756 32.0608H19.1227V33.1138H20.1756V32.0608Z" fill="#BBBBC2"/>
<path d="M21.227 32.0608H20.174V33.1138H21.227V32.0608Z" fill="#BBBBC2"/>
<path d="M22.1042 32.0608H21.0513V33.1138H22.1042V32.0608Z" fill="#BBBBC2"/>
<path d="M23.1564 32.0608H22.1034V33.1138H23.1564V32.0608ZM24.2093 32.0608H23.1564V33.1138H24.2093V32.0608Z" fill="#293334"/>
<path d="M12.1047 33.1138H11.0517V34.1667H12.1047V33.1138Z" fill="#172222"/>
<path d="M13.1582 33.1138H12.1052V34.1667H13.1582V33.1138ZM14.0352 33.1138H13.1582V34.1667H14.0352V33.1138ZM15.0882 33.1138H14.0352V34.1667H15.0882V33.1138Z" fill="#172222"/>
<path d="M16.1398 33.1138H15.0868V34.1667H16.1398V33.1138ZM17.1927 33.1138H16.1398V34.1667H17.1927V33.1138Z" fill="#040404"/>
<path d="M18.0695 33.1138H17.1924V34.1667H18.2454V33.1138H18.0695Z" fill="#040404"/>
<path d="M19.1227 33.1138H18.0697V34.1667H19.1227V33.1138ZM20.1756 33.1138H19.1227V34.1667H20.1756V33.1138Z" fill="#040404"/>
<path d="M21.227 33.1138H20.174V34.1667H21.227V33.1138Z" fill="#040404"/>
<path d="M22.1042 33.1138H21.0513V34.1667H22.1042V33.1138Z" fill="#040404"/>
<path d="M8.07098 3.81628H7.01801V4.86925H8.07098V3.81628Z" fill="#080808"/>
<path d="M8.07098 4.86792H7.01801V5.92089H8.07098V4.86792Z" fill="#C7C8CB"/>
<path d="M8.07098 5.9209H7.01801V6.97387H8.07098V5.9209Z" fill="#4D5856"/>
<path d="M8.07098 6.97388H7.01801V7.85089H8.07098V6.97388Z" fill="#FBFBFC"/>
<path d="M8.07098 7.85083H7.01801V8.9038H8.07098V7.85083Z" fill="#CDCED1"/>
<path d="M8.07098 8.90381H7.01801V9.95678H8.07098V8.90381Z" fill="#0A0A0A"/>
<path d="M8.07098 9.95544H7.01801V11.0084H8.07098V9.95544Z" fill="#0A0A0A"/>
<path d="M8.07098 11.0083H7.01801V12.0613H8.07098V11.0083Z" fill="#B75868"/>
<path d="M8.07098 11.8854H7.01801V12.9383H8.07098V11.8854ZM8.07098 12.9383H7.01801V13.9913H8.07098V12.9383Z" fill="#B75868"/>
<path d="M8.07098 13.9913H7.01801V15.0443H8.07098V13.9913Z" fill="#B75868"/>
<path d="M8.07098 15.0428H7.01801V16.0958H8.07098V15.0428Z" fill="#B75868"/>
<path d="M8.07098 15.9213H7.01801V16.9742H8.07098V15.9213Z" fill="#B75868"/>
<path d="M8.07098 16.9729H7.01801V18.0259H8.07098V16.9729ZM8.07098 18.0259H7.01801V19.0788H8.07098V18.0259ZM8.07098 19.0788H7.01801V20.1318H8.07098V19.0788Z" fill="#B75868"/>
<path d="M8.07098 19.9558H7.01801V21.0088H8.07098V19.9558ZM8.07098 21.0088H7.01801V22.0618H8.07098V21.0088Z" fill="#B75868"/>
<path d="M8.07098 22.0603H7.01801V23.1133H8.07098V22.0603Z" fill="#B75868"/>
<path d="M8.07098 23.1133H7.01801V24.1663H8.07098V23.1133Z" fill="#913648"/>
<path d="M8.07098 23.9904H7.01801V25.0433H8.07098V23.9904Z" fill="#212A29"/>
<path d="M8.07098 25.0433H7.01801V26.0963H8.07098V25.0433Z" fill="#040404"/>
<path d="M8.07098 26.0962H7.01801V27.1492H8.07098V26.0962Z" fill="#F1F2F4"/>
<path d="M8.07098 27.1478H7.01801V28.2008H8.07098V27.1478Z" fill="#E6E7E9"/>
<path d="M8.07098 28.0262H7.01801V29.0792H8.07098V28.0262Z" fill="#313C3D"/>
<path d="M8.07098 29.0779H7.01801V30.1308H8.07098V29.0779Z" fill="#8D8F92"/>
<path d="M8.07098 30.1309H7.01801V31.1838H8.07098V30.1309Z" fill="#707980"/>
</g>
<defs>
<clipPath id="clip0_8001_15865">
<rect width="34.3855" height="33.3333" fill="white" transform="translate(0 0.833374)"/>
</clipPath>
</defs>
</svg>
