<svg width="23" height="37" viewBox="0 0 23 37" fill="none" xmlns="http://www.w3.org/2000/svg">
<g clip-path="url(#clip0_8007_12044)">
<path fill-rule="evenodd" clip-rule="evenodd" d="M-0.000152588 2.92926C-0.000152588 2.17549 0.299282 1.45259 0.83228 0.919592C1.36528 0.386593 2.08818 0.0871582 2.84195 0.0871582H19.8946C20.6484 0.0871582 21.3713 0.386593 21.9043 0.919592C22.4373 1.45259 22.7367 2.17549 22.7367 2.92926V33.2451C22.7367 33.9988 22.4373 34.7217 21.9043 35.2547C21.3713 35.7877 20.6484 36.0872 19.8946 36.0872H2.84195C2.08818 36.0872 1.36528 35.7877 0.83228 35.2547C0.299282 34.7217 -0.000152588 33.9988 -0.000152588 33.2451V2.92926ZM2.84195 1.9819C2.59069 1.9819 2.34973 2.08171 2.17206 2.25937C1.9944 2.43704 1.89458 2.67801 1.89458 2.92926V33.2451C1.89458 33.4963 1.9944 33.7373 2.17206 33.9149C2.34973 34.0926 2.59069 34.1924 2.84195 34.1924H19.8946C20.1458 34.1924 20.3868 34.0926 20.5645 33.9149C20.7421 33.7373 20.842 33.4963 20.842 33.2451V2.92926C20.842 2.67801 20.7421 2.43704 20.5645 2.25937C20.3868 2.08171 20.1458 1.9819 19.8946 1.9819H2.84195Z" fill="#FB7185"/>
<path fill-rule="evenodd" clip-rule="evenodd" d="M-0.000152588 2.92926C-0.000152588 2.17549 0.299282 1.45259 0.83228 0.919592C1.36528 0.386593 2.08818 0.0871582 2.84195 0.0871582H19.8946C20.6484 0.0871582 21.3713 0.386593 21.9043 0.919592C22.4373 1.45259 22.7367 2.17549 22.7367 2.92926V33.2451C22.7367 33.9988 22.4373 34.7217 21.9043 35.2547C21.3713 35.7877 20.6484 36.0872 19.8946 36.0872H2.84195C2.08818 36.0872 1.36528 35.7877 0.83228 35.2547C0.299282 34.7217 -0.000152588 33.9988 -0.000152588 33.2451V2.92926ZM2.84195 1.9819C2.59069 1.9819 2.34973 2.08171 2.17206 2.25937C1.9944 2.43704 1.89458 2.67801 1.89458 2.92926V33.2451C1.89458 33.4963 1.9944 33.7373 2.17206 33.9149C2.34973 34.0926 2.59069 34.1924 2.84195 34.1924H19.8946C20.1458 34.1924 20.3868 34.0926 20.5645 33.9149C20.7421 33.7373 20.842 33.4963 20.842 33.2451V2.92926C20.842 2.67801 20.7421 2.43704 20.5645 2.25937C20.3868 2.08171 20.1458 1.9819 19.8946 1.9819H2.84195Z" fill="#FB7185"/>
<path fill-rule="evenodd" clip-rule="evenodd" d="M7.69824 5.21542C7.69824 4.9213 7.81508 4.63923 8.02305 4.43126C8.23103 4.22328 8.5131 4.10645 8.80722 4.10645H13.9291C14.2232 4.10645 14.5053 4.22328 14.7133 4.43126C14.9212 4.63923 15.0381 4.9213 15.0381 5.21542C15.0381 5.50954 14.9212 5.79161 14.7133 5.99959C14.5053 6.20756 14.2232 6.3244 13.9291 6.3244H8.80722C8.5131 6.3244 8.23103 6.20756 8.02305 5.99959C7.81508 5.79161 7.69824 5.50954 7.69824 5.21542Z" fill="#FB7185"/>
</g>
<defs>
<clipPath id="clip0_8007_12044">
<rect width="22.7368" height="36" fill="white" transform="translate(0 0.0871582)"/>
</clipPath>
</defs>
</svg>
