<svg width="14" height="17" viewBox="0 0 14 17" fill="none" xmlns="http://www.w3.org/2000/svg">
<g clip-path="url(#clip0_8028_11753)">
<path d="M11.5394 9.00879C11.5473 8.39551 11.7102 7.79421 12.0129 7.26081C12.3157 6.72741 12.7484 6.27926 13.2709 5.95804C12.939 5.48401 12.5011 5.09389 11.992 4.81869C11.483 4.54349 10.9168 4.39077 10.3384 4.37267C9.10453 4.24317 7.90839 5.11098 7.27965 5.11098C6.63874 5.11098 5.6707 4.38553 4.62829 4.40698C3.95402 4.42876 3.2969 4.62484 2.72094 4.97609C2.14498 5.32735 1.66983 5.82181 1.34179 6.41129C-0.0792302 8.87156 0.980719 12.4873 2.34193 14.476C3.02298 15.4498 3.81892 16.5376 4.8604 16.499C5.87955 16.4568 6.26018 15.8491 7.49038 15.8491C8.70917 15.8491 9.06628 16.499 10.1289 16.4745C11.2225 16.4567 11.9115 15.4964 12.5687 14.5133C13.058 13.8195 13.4345 13.0526 13.6843 12.2411C13.049 11.9724 12.5068 11.5226 12.1253 10.9478C11.7439 10.373 11.5401 9.69863 11.5394 9.00879Z" fill="white"/>
<path d="M9.53246 3.06475C10.1287 2.34895 10.4225 1.4289 10.3514 0.5C9.44038 0.59568 8.5989 1.03107 7.99457 1.71941C7.6991 2.05568 7.47279 2.44689 7.3286 2.87067C7.18441 3.29446 7.12515 3.74251 7.15422 4.1892C7.60988 4.1939 8.06065 4.09514 8.4726 3.90036C8.88455 3.70559 9.24693 3.41988 9.53246 3.06475Z" fill="white"/>
</g>
<defs>
<clipPath id="clip0_8028_11753">
<rect width="13.0173" height="16" fill="white" transform="translate(0.666992 0.5)"/>
</clipPath>
</defs>
</svg>
