<svg width="41" height="36" viewBox="0 0 41 36" fill="none" xmlns="http://www.w3.org/2000/svg">
<path d="M40.5976 9.31017C40.5256 9.21767 33.8451 1.01601 33.8451 1.01601L33.7629 0.933787C33.7629 0.933787 33.6807 0.861842 33.6395 0.841287L33.5162 0.769343L33.0845 0.666565H8.24318L8.11985 0.68712L8.00679 0.717954L7.78068 0.820731C7.70874 0.861842 7.63679 0.923509 7.63679 0.933787L0.976801 8.8785C0.976801 8.8785 0.853467 9.01211 0.791801 9.08405C0.668468 9.23822 0.647912 9.40267 0.678745 9.57739C0.709579 9.75211 0.791801 9.85489 0.791801 9.85489L19.8262 34.9121C19.8262 34.9121 19.9496 35.0662 20.0215 35.1176C20.0934 35.169 20.2887 35.3335 20.6484 35.3335C20.9773 35.3335 21.2137 35.2101 21.3165 35.1176C21.3884 35.056 21.409 35.0251 21.409 35.0251C21.409 35.0251 39.9604 10.7285 40.4434 10.1016C40.649 9.84461 40.7518 9.53628 40.577 9.31017H40.5976ZM23.2487 2.79406H31.2037L28.2745 7.81989L23.2487 2.79406ZM37.4115 10.6052L23.5262 28.8071L29.2715 10.6052H37.4115ZM30.3404 8.47767L33.1976 3.57517L37.2881 8.47767H30.3404ZM27.0412 10.6052L20.6793 30.7496L14.3173 10.6052H27.0412ZM15.4376 8.47767L20.6793 3.23601L25.9209 8.47767H15.4273H15.4376ZM17.8426 28.7968L3.94708 10.6052H12.0871L17.8323 28.8071L17.8426 28.7968ZM10.1651 2.79406H18.1201L13.0943 7.81989L10.1651 2.79406ZM4.07041 8.47767L8.16096 3.57517L11.0182 8.47767H4.07041Z" fill="#FB7185"/>
</svg>
