<svg width="299" height="59" viewBox="0 0 299 59" fill="none" xmlns="http://www.w3.org/2000/svg">
<g clip-path="url(#clip0_8002_13830)">
<path d="M80.9614 22.5135C80.984 21.8189 81.2651 21.1578 81.7497 20.6597C81.9984 20.4286 82.2828 20.2391 82.5919 20.0987C82.9147 19.9709 83.2557 19.895 83.6022 19.874H93.4296C93.9472 19.8802 94.4516 20.0378 94.8808 20.3273C95.3099 20.6168 95.6448 21.0255 95.8444 21.5032C95.9722 21.8259 96.048 22.167 96.069 22.5135V24.8784H93.4861V22.5135H83.6587V35.4861H93.4861V33.1213H96.0703V35.4861C96.0642 36.0037 95.9066 36.5082 95.6171 36.9373C95.3276 37.3664 94.9189 37.7014 94.4412 37.9009C94.1184 38.0287 93.7774 38.1046 93.4309 38.1256H83.6035C83.0859 38.1194 82.5814 37.9619 82.1523 37.6724C81.7232 37.3829 81.3883 36.9741 81.1887 36.4965C81.0609 36.1737 80.9851 35.8327 80.9641 35.4861V22.5135" fill="white"/>
<path d="M115.779 19.9304V38.069H113.196V30.3175H102.806V38.069H100.167V19.9304H102.806V27.7358H113.196V19.9304H115.779Z" fill="white"/>
<path d="M128.47 19.9304L135.49 38.069H132.907L131.278 33.9134H123.079L121.449 38.069H118.868L125.887 19.9304H128.47ZM124.09 31.3304H130.265L127.176 23.3004L124.09 31.3304Z" fill="white"/>
<path d="M141.162 19.9304H138.579V38.069H141.162V19.9304Z" fill="white"/>
<path d="M148.463 38.069H145.88V19.9304H148.463L159.357 34.0264V19.9304H161.94V38.069H159.357L148.463 23.973V38.069Z" fill="white"/>
<path d="M169.241 30.3189C168.723 30.3127 168.219 30.1552 167.79 29.8657C167.361 29.5762 167.026 29.1674 166.826 28.6897C166.698 28.367 166.622 28.026 166.601 27.6794V22.5135C166.624 21.8189 166.905 21.1578 167.39 20.6597C167.638 20.4286 167.923 20.2391 168.232 20.0987C168.555 19.9709 168.896 19.895 169.242 19.874H178.059C178.577 19.8802 179.081 20.0378 179.51 20.3273C179.939 20.6168 180.274 21.0255 180.474 21.5032C180.602 21.8259 180.678 22.167 180.699 22.5135V24.8784H178.116V22.5135H169.297V27.6794H178.114C178.632 27.6856 179.136 27.8431 179.566 28.1326C179.995 28.4221 180.33 28.8309 180.529 29.3086C180.657 29.6313 180.733 29.9724 180.754 30.3189V35.4848C180.748 36.0024 180.59 36.5069 180.301 36.936C180.011 37.3651 179.602 37.7001 179.125 37.8996C178.802 38.0274 178.461 38.1033 178.114 38.1243H169.073C168.555 38.1181 168.051 37.9606 167.622 37.6711C167.192 37.3816 166.857 36.9728 166.658 36.4951C166.53 36.1724 166.454 35.8314 166.433 35.4848V33.1199H169.016V35.4848H178.058V30.3189H169.241Z" fill="white"/>
<path d="M185.302 19.9304H198.556V22.5134H187.887V27.7358H196.985V30.3188H187.887V35.486H198.556V38.069H185.302V19.9304Z" fill="white"/>
<path d="M202.431 22.5135C202.453 21.8189 202.734 21.1578 203.219 20.6597C203.468 20.4286 203.752 20.2391 204.061 20.0987C204.384 19.9709 204.725 19.895 205.071 19.874H214.899C215.416 19.8802 215.921 20.0378 216.35 20.3273C216.779 20.6168 217.114 21.0255 217.313 21.5032C217.441 21.8259 217.517 22.167 217.538 22.5135V24.8784H214.955V22.5135H205.128V35.4861H214.955V33.1213H217.539V35.4861C217.533 36.0037 217.376 36.5082 217.086 36.9373C216.797 37.3664 216.388 37.7014 215.91 37.9009C215.588 38.0287 215.247 38.1046 214.9 38.1256H205.073C204.555 38.1194 204.051 37.9619 203.621 37.6724C203.192 37.3829 202.857 36.9741 202.658 36.4965C202.53 36.1737 202.454 35.8327 202.433 35.4861V22.5135" fill="white"/>
<path d="M221.637 19.9304H224.22V35.486H234.61V19.9304H237.193V35.486C237.187 36.0036 237.029 36.5081 236.74 36.9372C236.45 37.3663 236.041 37.7013 235.564 37.9008C235.241 38.0286 234.9 38.1045 234.553 38.1255H224.164C223.646 38.1193 223.142 37.9618 222.713 37.6723C222.283 37.3828 221.948 36.974 221.749 36.4964C221.621 36.1736 221.545 35.8326 221.524 35.486V19.9304" fill="white"/>
<path d="M256.23 26.3892C256.23 28.9156 255.163 30.3766 252.973 30.7129L256.398 38.0703H253.534L250.164 30.8259H244.492V38.0703H241.909V19.9304H251.85C254.77 19.9304 256.23 21.3901 256.23 24.3672V26.3892ZM244.437 28.243H251.625C252.168 28.275 252.704 28.116 253.141 27.7936C253.481 27.3651 253.642 26.8219 253.591 26.2775V24.4789C253.623 23.9365 253.464 23.4 253.141 22.9627C252.713 22.6231 252.17 22.4621 251.625 22.5134H244.437V28.243Z" fill="white"/>
<path d="M263.137 19.9304H260.554V38.069H263.137V19.9304Z" fill="white"/>
<path d="M266.227 19.9304H280.772V22.5134H274.819V38.069H272.236V22.5134H266.227V19.9304Z" fill="white"/>
<path d="M285.095 19.9304L290.374 28.4098L295.653 19.9304H298.685L291.665 30.8811V38.069H289.082V30.8811L282.062 19.9304H285.095Z" fill="white"/>
<path d="M51.1943 44.1666L25.6904 0" stroke="white" stroke-width="0.28" stroke-miterlimit="10"/>
<path d="M0.186562 14.7068L51.1943 44.1665" stroke="white" stroke-width="0.28" stroke-miterlimit="10"/>
<path d="M51.1943 14.7068L0.186562 44.1665" stroke="white" stroke-width="0.28" stroke-miterlimit="10"/>
<path d="M25.6904 58.9195V0" stroke="white" stroke-width="0.28" stroke-miterlimit="10"/>
<path d="M51.1943 44.1667H0.186562" stroke="white" stroke-width="0.28" stroke-miterlimit="10"/>
<path d="M25.6904 0L0.186562 44.1666" stroke="white" stroke-width="0.28" stroke-miterlimit="10"/>
<path d="M51.1943 14.7068H0.186562" stroke="white" stroke-width="0.28" stroke-miterlimit="10"/>
<path d="M25.6904 58.9194L51.1943 14.7068" stroke="white" stroke-width="0.28" stroke-miterlimit="10"/>
<path d="M0.186562 14.7068L25.6904 58.9194" stroke="white" stroke-width="0.28" stroke-miterlimit="10"/>
<path d="M51.1943 44.1666V14.7069L25.6904 0L0.186562 14.7069V44.1666L25.6904 58.9195L51.1943 44.1666Z" stroke="white" stroke-width="0.28" stroke-miterlimit="10"/>
<path d="M0.186562 29.4597H51.1943" stroke="white" stroke-width="0.28" stroke-miterlimit="10"/>
<path d="M12.7059 51.4268L38.6289 7.49268" stroke="white" stroke-width="0.28" stroke-miterlimit="10"/>
<path d="M38.0232 51.7986L13.3103 7.12085" stroke="white" stroke-width="0.28" stroke-miterlimit="10"/>
<path d="M38.2558 22.1062L34.1133 14.892L17.3595 14.7068L12.7519 22.1062L38.2558 36.8131L33.6482 44.1705H16.9877L12.7519 36.8131" stroke="white" stroke-width="3" stroke-miterlimit="10" stroke-linecap="round" stroke-linejoin="round"/>
<path d="M38.4423 7.48877L25.5039 0L0 14.7069V44.1666L25.5039 58.9195L37.884 51.7986" stroke="white" stroke-width="2" stroke-miterlimit="10" stroke-linecap="round" stroke-linejoin="round"/>
</g>
<defs>
<clipPath id="clip0_8002_13830">
<rect width="298.685" height="58.9195" fill="white"/>
</clipPath>
</defs>
</svg>
