<svg width="80" height="80" viewBox="0 0 80 80" fill="none" xmlns="http://www.w3.org/2000/svg">
<g clip-path="url(#clip0_8003_10713)">
<g opacity="0.4" clip-path="url(#clip1_8003_10713)">
<circle cx="40.0713" cy="39.9297" r="40" fill="#DCE573"/>
<path d="M38.2401 7.27998C37.1201 7.48798 36.9281 7.55198 35.8401 8.03198C34.8001 8.49598 33.8721 9.16798 32.8961 10.192C31.6321 11.472 30.4001 13.952 30.4001 15.232C30.4001 15.76 30.2561 16.16 30.0481 16.16C29.9681 16.16 29.6641 15.984 29.3921 15.776C28.6401 15.2 27.8721 14.816 26.7201 14.384C25.8401 14.064 25.3761 14 23.7601 14C21.6001 14 20.8001 14.176 19.1201 15.008C17.6161 15.744 15.8081 17.568 15.0081 19.12C14.1761 20.784 14.0001 21.584 14.0161 23.76C14.0161 25.504 14.0641 25.792 14.5121 26.912C14.7841 27.584 15.2961 28.576 15.6481 29.104C16.0161 29.632 16.2561 30.096 16.1921 30.144C16.1281 30.176 15.7921 30.256 15.4401 30.32C9.12007 31.376 5.50407 37.76 7.88807 43.632C9.12007 46.64 11.9201 48.896 15.1841 49.472C15.7601 49.568 16.2721 49.68 16.2881 49.696C16.3201 49.712 16.0321 50.192 15.6641 50.752C15.2801 51.296 14.7681 52.304 14.4961 52.96C14.0641 54.064 14.0161 54.32 14.0161 56.16C14.0001 57.824 14.0641 58.336 14.3681 59.2C15.5041 62.512 18.0481 64.848 21.5201 65.744C22.3521 65.968 24.8481 65.968 25.6801 65.744C26.8801 65.44 28.0801 64.912 28.9921 64.288C29.5041 63.952 29.9841 63.68 30.0641 63.68C30.2561 63.68 30.4001 64.08 30.4001 64.608C30.4001 65.28 30.8161 66.464 31.4561 67.68C32.5281 69.712 34.7521 71.552 37.1041 72.304C38.4161 72.736 41.1841 72.768 42.5281 72.384C45.8401 71.44 48.5121 68.72 49.3601 65.392C49.4881 64.88 49.6001 64.304 49.6001 64.096C49.6001 63.504 49.7441 63.504 50.5441 64.096C52.2401 65.312 54.1761 65.92 56.2881 65.92C60.7361 65.92 64.5441 62.992 65.6961 58.688C65.8081 58.224 65.9201 57.136 65.9201 56.288C65.9201 54.032 65.4721 52.528 64.2561 50.752C63.5841 49.792 63.5521 49.6 64.0481 49.6C64.6241 49.6 66.6881 48.992 67.5201 48.56C68.5601 48.032 70.1281 46.704 70.8001 45.792C72.1121 44.016 72.7041 42.176 72.7041 39.92C72.7041 37.632 72.2401 36.144 70.9441 34.32C70.1441 33.184 69.5041 32.56 68.3361 31.792C67.3441 31.136 65.5681 30.464 64.4481 30.32C64.0161 30.272 63.6801 30.16 63.6801 30.08C63.6801 30.016 63.9361 29.568 64.2561 29.104C65.4721 27.328 65.9201 25.808 65.9201 23.552C65.9201 21.808 65.6641 20.704 64.9601 19.264C63.9201 17.136 62.0481 15.44 59.7601 14.528C58.5601 14.048 58.3361 14.016 56.4801 14.016C53.7921 14 52.7521 14.304 50.7041 15.696C49.7441 16.336 49.6001 16.336 49.6001 15.744C49.6001 15.536 49.4881 14.96 49.3601 14.448C48.4161 10.752 45.3601 7.93598 41.6001 7.27998C40.0321 7.00798 39.6641 7.00798 38.2401 7.27998ZM42.4481 11.248C45.5681 12.672 46.9281 16.32 45.4721 19.408C45.0881 20.256 44.5441 20.912 42.6401 22.864C41.3441 24.192 40.1601 25.28 40.0161 25.28C39.5841 25.28 34.9601 20.512 34.4801 19.568C33.3121 17.296 33.8081 14.304 35.6481 12.512C36.4161 11.76 37.5521 11.104 38.4641 10.864C39.4241 10.608 41.5041 10.816 42.4481 11.248ZM25.2001 17.68C27.1361 18.192 28.8161 19.792 29.4401 21.744C29.7441 22.704 29.7601 23.104 29.7281 26.24L29.6801 29.68L26.4801 29.728C22.0641 29.792 20.9281 29.504 19.2801 27.872C15.4881 24.064 18.1761 17.616 23.6001 17.456C23.9681 17.456 24.6721 17.552 25.2001 17.68ZM57.6001 17.616C61.7601 18.576 63.7281 23.328 61.4241 26.896C60.8481 27.808 60.0801 28.512 59.1521 28.976C57.8721 29.648 57.0401 29.76 53.5841 29.76C50.7041 29.76 50.2561 29.728 50.1761 29.504C50.0321 29.12 50.0641 23.872 50.2401 22.736C50.7361 19.232 54.1921 16.832 57.6001 17.616ZM39.9201 30.4C40.0001 30.4 41.5201 28.976 43.2801 27.232L46.4801 24.08L46.5601 28.64L46.6401 33.2L51.1681 33.248C53.6481 33.264 55.6801 33.344 55.6801 33.408C55.6801 33.472 54.2721 34.928 52.5601 36.64C50.8481 38.352 49.4401 39.824 49.4401 39.904C49.4401 40 50.8481 41.472 52.5601 43.2C54.2881 44.928 55.6321 46.384 55.5841 46.448C55.5201 46.512 53.5041 46.56 51.0881 46.56C48.6881 46.56 46.7041 46.576 46.6881 46.592C46.6721 46.624 46.6081 48.688 46.5601 51.2L46.4801 55.76L43.2801 52.592C41.5201 50.864 40.0001 49.44 39.9201 49.44C39.8241 49.44 38.3361 50.864 36.6081 52.592C34.4641 54.72 33.4241 55.664 33.3601 55.504C33.3281 55.392 33.2641 53.328 33.2481 50.96L33.2001 46.64L28.7681 46.592C25.3441 46.56 24.3201 46.512 24.3201 46.352C24.3201 46.24 25.6961 44.784 27.3601 43.12C29.0401 41.456 30.4001 40.016 30.4001 39.92C30.4001 39.824 29.0401 38.384 27.3601 36.72C25.6961 35.056 24.3201 33.6 24.3201 33.488C24.3201 33.328 25.2961 33.28 28.8001 33.28H33.2801V28.832C33.2801 26.384 33.3281 24.32 33.3921 24.256C33.4561 24.192 34.9121 25.552 36.6401 27.28C38.3521 28.992 39.8241 30.4 39.9201 30.4ZM19.4881 34.432C20.2881 34.8 21.0081 35.408 22.8321 37.168C24.0961 38.416 25.2161 39.568 25.3121 39.744C25.4561 40.016 25.1681 40.352 23.0081 42.496C21.6161 43.856 20.2241 45.088 19.8241 45.296C18.1761 46.128 16.6401 46.272 15.0401 45.744C13.2481 45.152 12.1441 44.192 11.2641 42.432C10.8641 41.616 10.8161 41.36 10.8161 39.92C10.8161 38.464 10.8641 38.224 11.2801 37.376C12.8481 34.24 16.4001 32.96 19.4881 34.432ZM65.3601 34.256C66.5921 34.72 67.8561 35.92 68.5121 37.248C69.0081 38.24 69.0401 38.432 69.0401 39.92C69.0401 41.344 68.9921 41.632 68.5921 42.48C67.5841 44.64 65.3441 46.08 62.9921 46.08C62.1281 46.08 60.4961 45.584 59.7601 45.088C59.0881 44.624 54.5601 40.128 54.5601 39.904C54.5601 39.824 55.6961 38.624 57.0881 37.248C59.6641 34.704 60.3361 34.224 61.8081 33.92C62.7521 33.728 64.3361 33.872 65.3601 34.256ZM29.7281 53.6C29.7601 56.72 29.7441 57.136 29.4401 58.08C28.8161 60.032 27.4241 61.44 25.4721 62.064C22.5601 63.024 19.4241 61.648 18.0961 58.832C17.5361 57.632 17.3921 56.56 17.6001 55.296C18.0001 52.8 19.9841 50.736 22.4001 50.256C22.8001 50.176 24.5921 50.128 26.4001 50.128L29.6801 50.16L29.7281 53.6ZM58.7521 50.672C60.9921 51.712 62.4001 53.856 62.4001 56.192C62.4001 58.864 60.6881 61.232 58.1281 62.064C55.8881 62.8 53.6481 62.24 51.9521 60.544C51.0081 59.584 50.4321 58.432 50.2401 57.104C50.0001 55.504 50.0321 50.512 50.2881 50.256C50.4321 50.096 51.2961 50.064 54.0801 50.112L57.6801 50.176L58.7521 50.672ZM42.5921 56.928C44.9121 59.28 45.4241 60 45.8561 61.424C46.9441 65.024 44.1601 68.88 40.3361 69.088C37.7121 69.232 35.4561 67.872 34.3681 65.472C33.9521 64.544 33.8881 64.224 33.8881 63.04C33.8881 61.856 33.9521 61.536 34.3841 60.56C34.8161 59.6 35.2321 59.12 37.3121 57.008C38.6561 55.664 39.8721 54.56 40.0161 54.56C40.1601 54.56 41.3121 55.632 42.5921 56.928Z" fill="black"/>
</g>
</g>
<defs>
<clipPath id="clip0_8003_10713">
<rect width="80" height="80" fill="white"/>
</clipPath>
<clipPath id="clip1_8003_10713">
<rect width="80" height="80" fill="white"/>
</clipPath>
</defs>
</svg>
