<svg width="122" height="39" viewBox="0 0 122 39" fill="none" xmlns="http://www.w3.org/2000/svg">
<g clip-path="url(#clip0_8015_12012)">
<mask id="mask0_8015_12012" style="mask-type:luminance" maskUnits="userSpaceOnUse" x="0" y="0" width="122" height="39">
<path d="M121.734 0.710449H0.774261V38.5105H121.734V0.710449Z" fill="white"/>
</mask>
<g mask="url(#mask0_8015_12012)">
<mask id="mask1_8015_12012" style="mask-type:luminance" maskUnits="userSpaceOnUse" x="0" y="0" width="122" height="39">
<path d="M121.106 0.710449H0.774261V38.5105H121.106V0.710449Z" fill="white"/>
</mask>
<g mask="url(#mask1_8015_12012)">
<path fill-rule="evenodd" clip-rule="evenodd" d="M14.4501 0.710449H28.401C38.7184 0.710449 47.0834 8.83583 47.0834 19.3968C47.0834 29.9578 38.5228 38.5144 27.9658 38.5144H14.4501V30.8402H26.1332C32.31 30.8402 37.361 25.7894 37.361 19.6124C37.361 13.4356 32.31 8.38465 26.1332 8.38465H14.4501V0.710449ZM59.9763 7.72982V17.7198H75.9955V24.7392H59.9763V38.5105H51.228V0.710449H79.7966V7.72982H59.9763ZM111.008 38.5105L101.881 25.386L92.917 38.5105H82.8711L96.8579 19.2851L83.5778 0.710449H93.512L102.208 12.9684L110.741 0.710449H120.192L107.016 18.9617L121.11 38.5105H111.012H111.008Z" fill="white"/>
<path d="M19.9313 28.7881C25.1928 28.7881 29.4581 24.5229 29.4581 19.2612C29.4581 13.9997 25.1928 9.73438 19.9313 9.73438C14.6697 9.73438 10.4044 13.9997 10.4044 19.2612C10.4044 24.5229 14.6697 28.7881 19.9313 28.7881Z" fill="url(#paint0_linear_8015_12012)"/>
<path d="M11.2554 30.0935C17.044 30.0935 21.7365 25.4009 21.7365 19.6123C21.7365 13.8238 17.044 9.13123 11.2554 9.13123C5.46683 9.13123 0.774261 13.8238 0.774261 19.6123C0.774261 25.4009 5.46683 30.0935 11.2554 30.0935Z" fill="url(#paint1_linear_8015_12012)"/>
</g>
</g>
</g>
<defs>
<linearGradient id="paint0_linear_8015_12012" x1="27.9254" y1="15.0919" x2="10.9935" y2="23.824" gradientUnits="userSpaceOnUse">
<stop offset="0.04" stop-color="#F5516C"/>
<stop offset="0.14" stop-color="#C74863"/>
<stop offset="0.31" stop-color="#853B57"/>
<stop offset="0.44" stop-color="#55324E"/>
<stop offset="0.55" stop-color="#382D49"/>
<stop offset="0.61" stop-color="#2D2B47"/>
</linearGradient>
<linearGradient id="paint1_linear_8015_12012" x1="17.6479" y1="11.9941" x2="4.17215" y2="28.0492" gradientUnits="userSpaceOnUse">
<stop offset="0.2" stop-color="#F5516C"/>
<stop offset="1" stop-color="#6B3753"/>
</linearGradient>
<clipPath id="clip0_8015_12012">
<rect width="120.96" height="37.8" fill="white" transform="translate(0.774261 0.710449)"/>
</clipPath>
</defs>
</svg>
