<svg width="20" height="21" viewBox="0 0 20 21" fill="none" xmlns="http://www.w3.org/2000/svg">
<g clip-path="url(#clip0_8001_15868)">
<path fill-rule="evenodd" clip-rule="evenodd" d="M12.7124 6.31416L5.71423 2.25567C5.44357 2.09356 5.12768 2 4.78965 2C4.16141 2 3.60141 2.34285 3.28148 2.84262L3.37236 2.93348L9.73312 9.29287L12.7124 6.31416ZM3 3.97527V16.0247L9.02594 9.99991L3 3.97527ZM3.2815 17.1573C3.60148 17.6571 4.16154 18 4.78965 18C5.1204 18 5.43094 17.9106 5.69725 17.7536L5.7184 17.7412L12.7244 13.6976L9.73312 10.7069L3.37236 17.0665L3.2815 17.1573ZM13.6211 13.1801L16.3735 11.5915C16.9348 11.2885 17.3158 10.6968 17.3158 10.0145C17.3158 9.33702 16.9399 8.74824 16.3842 8.44423L16.3778 8.43988L13.6075 6.83328L10.4403 9.9999L13.6211 13.1801Z" fill="#D9DBE9"/>
</g>
<defs>
<clipPath id="clip0_8001_15868">
<rect width="20" height="20" fill="white" transform="translate(0 0.5)"/>
</clipPath>
</defs>
</svg>
