<svg width="18" height="17" viewBox="0 0 18 17" fill="none" xmlns="http://www.w3.org/2000/svg">
<g clip-path="url(#clip0_8028_11755)">
<path d="M8.86561 0.5C7.78895 0.5 6.72284 0.712064 5.72813 1.12408C4.73343 1.5361 3.82962 2.14001 3.06831 2.90132C1.53077 4.43886 0.666992 6.52421 0.666992 8.69862C0.666992 12.3224 3.01999 15.3969 6.27485 16.4873C6.68478 16.5529 6.81595 16.2987 6.81595 16.0774V14.6918C4.54494 15.1837 4.06122 13.5932 4.06122 13.5932C3.68408 12.6421 3.15117 12.388 3.15117 12.388C2.4051 11.8797 3.20856 11.8961 3.20856 11.8961C4.02842 11.9535 4.46295 12.7405 4.46295 12.7405C5.17623 13.9867 6.38143 13.6178 6.84875 13.421C6.92254 12.8881 7.1357 12.5274 7.36526 12.3224C5.54517 12.1174 3.63489 11.4124 3.63489 8.28869C3.63489 7.37864 3.94644 6.64896 4.47935 6.06686C4.39736 5.86189 4.11041 5.00924 4.56133 3.90243C4.56133 3.90243 5.25002 3.68106 6.81595 4.73868C7.46364 4.55831 8.16873 4.46813 8.86561 4.46813C9.56249 4.46813 10.2676 4.55831 10.9153 4.73868C12.4812 3.68106 13.1699 3.90243 13.1699 3.90243C13.6208 5.00924 13.3339 5.86189 13.2519 6.06686C13.7848 6.64896 14.0963 7.37864 14.0963 8.28869C14.0963 11.4206 12.1778 12.1092 10.3496 12.3142C10.6447 12.5684 10.9153 13.0685 10.9153 13.8309V16.0774C10.9153 16.2987 11.0464 16.5611 11.4646 16.4873C14.7194 15.3887 17.0642 12.3224 17.0642 8.69862C17.0642 7.62196 16.8522 6.55584 16.4401 5.56114C16.0281 4.56644 15.4242 3.66263 14.6629 2.90132C13.9016 2.14001 12.9978 1.5361 12.0031 1.12408C11.0084 0.712064 9.94227 0.5 8.86561 0.5Z" fill="white"/>
</g>
<defs>
<clipPath id="clip0_8028_11755">
<rect width="16.3972" height="16" fill="white" transform="translate(0.666992 0.5)"/>
</clipPath>
</defs>
</svg>
