<svg width="800" height="392" viewBox="0 0 800 392" fill="none" xmlns="http://www.w3.org/2000/svg">
<g clip-path="url(#clip0_8015_12010)">
<g clip-path="url(#clip1_8015_12010)">
<g opacity="0.2">
<path d="M-170.041 0L-168.209 0C-281.412 211.092 -101.634 439.536 344.318 584.39C615.448 672.459 940.792 715.28 1264 715.279L1264 716C940.396 716.001 614.656 673.127 343.194 584.951C-103.195 439.955 -283.214 211.307 -170.041 0Z" fill="url(#paint0_linear_8015_12010)"/>
<path d="M1264 674.198C1005.46 664.362 743.759 627.173 508.644 561.146C23.3911 424.875 -214.64 203.392 -145.511 0L-143.697 0C-212.84 203.135 24.8213 424.397 509.668 560.555C744.495 626.501 1005.83 663.644 1264 673.476L1264 674.198Z" fill="url(#paint1_linear_8015_12010)"/>
<path d="M1264 629.807C1046.32 614.54 825.469 580.441 619.377 526.744C122 397.152 -151.933 189.226 -123.532 0H-121.725C-150.13 188.936 123.315 396.636 620.35 526.139C826.178 579.768 1046.69 613.821 1264 629.079L1264 629.807Z" fill="url(#paint2_linear_8015_12010)"/>
<path d="M1264 585.493C1080.04 568.127 893.081 538.003 713.795 494.733C366.583 410.933 113.833 293.676 -14.103 171.826C-74.217 114.571 -106.778 56.2956 -108.622 0L-106.832 0C-104.989 56.1881 -72.4885 114.366 -12.4541 171.545C115.318 293.24 367.794 410.385 714.716 494.115C893.719 537.317 1080.36 567.399 1264 584.752L1264 585.493Z" fill="url(#paint3_linear_8015_12010)"/>
<path d="M1264 542.485C1108.88 525.198 951.151 499.449 797.026 465.048C443.589 386.16 175.961 276.692 29.0033 163.462C-41.8698 108.855 -84.6874 53.3622 -95.5116 0L-93.7159 0C-82.8972 53.2308 -40.1726 108.606 30.5898 163.128C177.364 276.217 444.719 385.589 797.894 464.418C951.745 498.758 1109.18 524.467 1264 541.737L1264 542.485Z" fill="url(#paint4_linear_8015_12010)"/>
<path d="M1264 501.624C1133.05 485.681 999.905 464.181 868.173 437.032C509.434 363.098 229.002 261.25 65.6262 156.333C-15.9163 103.969 -68.3191 50.8248 -86.718 0L-84.9088 0C-66.5238 50.6695 -14.2561 103.678 67.1429 155.951C230.32 260.739 510.487 362.505 868.989 436.39C1000.46 463.486 1133.32 484.948 1264 500.871L1264 501.624Z" fill="url(#paint5_linear_8015_12010)"/>
<path d="M1264 464.475C1153.44 450.487 1041.12 432.876 929.092 411.597C565.818 342.594 274.451 248.068 97.0581 151.006C4.36523 100.288 -57.2439 48.8556 -81.6917 0H-79.8651C-55.4414 48.6759 5.98047 99.9562 98.4999 150.579C275.685 247.527 566.797 341.983 929.856 410.946C1041.63 432.177 1153.7 449.753 1264 463.719L1264 464.475Z" fill="url(#paint6_linear_8015_12010)"/>
<path fill-rule="evenodd" clip-rule="evenodd" d="M1264 430.241C1170.96 418.407 1076.53 404.233 981.906 387.697C615.289 323.629 315.039 236.219 125.981 146.671C21.6812 97.2696 -48.8341 47.187 -77.9196 0L-74.9366 0C-74.6951 0.354327 -74.4493 0.708966 -74.1991 1.06392C-74.3962 0.708906 -74.5879 0.354266 -74.7742 0L-72.9438 0C-70.094 5.37903 -65.9755 10.8488 -60.6299 16.3967C-65.1018 10.8337 -68.0261 5.36269 -69.3376 0L-67.537 0C-65.2716 9.16568 -58.2455 18.668 -46.7537 28.4261C-56.0146 18.6177 -59.6082 9.10682 -57.061 0L-55.2584 0C-58.7427 12.2853 -50.8931 25.3625 -32.7524 38.9708C-28.8997 41.5837 -24.7454 44.2122 -20.2943 46.855C-38.7695 33.491 -45.4388 20.6246 -38.7786 8.56195C-37.1517 5.61569 -34.7543 2.76162 -31.6108 0L-29.6361 0C-32.9017 2.81198 -35.3746 5.71835 -37.031 8.71833C-45.1792 23.4758 -33.0463 39.551 -3.09314 56.3794C-0.0187988 57.9756 3.15833 59.5762 6.43726 61.1806C-16.7227 47.7911 -26.3137 34.8563 -20.3507 22.7318C-16.2402 14.374 -4.93201 6.79412 12.8627 0L15.4823 0C-2.89417 6.84561 -14.4663 14.4776 -18.5947 22.8718C-27.5488 41.0779 -0.735229 61.3405 56.0469 82.4318C14.496 66.1836 -5.34277 50.3782 1.02246 35.7298C7.23901 21.4239 37.8944 9.49601 88.4922 0L92.7802 0C40.2849 9.56006 8.99402 21.5673 2.78601 35.854C-3.27649 49.805 14.9921 64.9807 54.3257 80.7403C49.2488 78.3445 44.7745 75.9617 40.9219 73.5948C27.1387 65.1269 21.2782 56.8399 24.3003 48.8765C27.3225 40.913 39.0616 33.7085 58.4963 27.2837C77.9254 20.8608 105.091 15.2008 139.088 10.3196C166.598 6.36972 198.611 2.92563 234.669 0L243.939 0C204.295 3.06718 169.354 6.73923 139.689 10.9984C105.801 15.8641 78.844 21.4896 59.6324 27.8407C40.426 34.1899 29.0062 41.248 26.0699 48.9853C23.1337 56.7226 28.7981 64.8314 42.4192 73.1998C50.8263 78.3649 62.2527 83.6209 76.5219 88.937C77.9719 89.4341 79.4417 89.9317 80.9315 90.4298C83.9347 91.4337 87.0178 92.4392 90.1798 93.4461C81.5015 90.104 74.1578 86.7798 68.2139 83.4816C54.2134 75.7132 47.9343 68.0647 50.354 60.6649C52.7737 53.2651 63.7555 46.5314 82.2728 40.4863C100.786 34.4427 126.888 29.0674 159.695 24.3787C225.312 15.0011 317.942 8.34404 430.859 4.61882C648.832 -2.57232 942.585 1.15643 1264 17.3879L1264 18.1142C942.584 1.87757 648.875 -1.85059 431.005 5.33709C318.154 9.06015 225.7 15.7105 160.294 25.0579C127.589 29.7318 101.696 35.0735 83.4001 41.0461C65.1091 47.0173 54.4701 53.5992 52.1289 60.759C49.7878 67.9187 55.8335 75.3849 69.6627 83.0584C79.5024 88.5181 93.2611 94.07 110.673 99.6718C114.13 100.676 117.663 101.681 121.27 102.688C111.638 99.3909 103.53 96.1047 97.0255 92.8381C82.9026 85.7452 76.2898 78.7153 78.1843 71.8635C80.0786 65.0116 90.3694 58.7393 108.021 53.0702C125.67 47.4019 150.748 42.3126 182.393 37.8228C245.687 28.8425 335.453 22.2334 445.153 18.2243C658.469 10.4287 947.344 12.4582 1264 26.055L1264 26.7797C947.352 13.1792 658.526 11.1503 445.315 18.9421C335.676 22.9489 246.079 29.5511 182.988 38.5025C151.44 42.9785 126.569 48.0351 109.137 53.6335C91.7083 59.2312 81.7872 65.3463 79.9633 71.9432C78.1395 78.54 84.4774 85.3838 98.4224 92.3874C108.919 97.6593 123.695 103.005 142.442 108.379C149.179 110.128 156.136 111.878 163.31 113.63C149.244 109.615 137.773 105.596 129.084 101.594C114.963 95.0889 108.124 88.5931 109.58 82.2077C111.035 75.8223 120.696 69.936 137.521 64.5744C154.345 59.213 178.416 54.3482 208.896 50.0034C269.861 41.3128 356.668 34.6742 462.985 30.3368C670.901 21.8541 953.608 22.1652 1264 33.1878L1264 33.9113C953.624 22.886 670.975 22.5755 463.165 31.0537C356.907 35.3889 270.262 42.0202 209.493 50.6827C179.106 55.0144 155.24 59.847 138.632 65.1395C122.024 70.4319 112.757 76.1561 111.362 82.2735C109.968 88.391 116.494 94.6985 130.432 101.119C144.37 107.54 165.654 114.04 193.576 120.526C201.374 122.337 209.686 124.147 218.496 125.952C194.395 120.588 175.631 115.165 162.809 109.739C148.766 103.796 141.767 97.8122 142.841 91.8753C143.915 85.9384 152.995 80.426 169.029 75.3655C185.065 70.3042 208.154 65.6626 237.483 61.4661C296.148 53.0722 379.986 46.431 482.867 41.8091C684.978 32.7292 960.758 31.4351 1264 39.9989L1264 40.7213C960.783 32.1557 685.068 33.4503 483.065 42.5253C380.239 47.1448 296.558 53.7784 238.082 62.1452C208.841 66.329 185.955 70.9392 170.133 75.9326C154.309 80.9269 145.65 86.2723 144.626 91.9277C143.603 97.583 150.247 103.377 164.106 109.242C177.963 115.106 198.948 121.003 226.375 126.848C228.853 127.376 231.382 127.904 233.964 128.431C218.532 124.827 206.007 121.183 196.626 117.517C182.731 112.088 175.635 106.571 176.384 101.042C177.133 95.5121 185.678 90.3385 200.957 85.5499C216.241 80.7595 238.375 76.3177 266.572 72.2524C322.973 64.1206 403.839 57.4659 503.247 52.5717C699.497 42.9097 968.183 40.101 1264 46.3728L1264 47.0945C968.218 40.8216 699.604 43.6304 503.465 53.287C404.108 58.1787 323.394 64.8254 267.176 72.9309C239.063 76.9841 217.128 81.3949 202.057 86.1185C186.979 90.8439 178.881 95.8458 178.171 101.081C177.462 106.316 184.161 111.643 197.873 117C211.579 122.356 232.192 127.701 259.043 132.961C260.731 133.292 262.443 133.622 264.18 133.952C250.746 130.94 239.695 127.883 231.206 124.792C217.514 119.807 210.375 114.69 210.849 109.505C211.322 104.321 219.375 99.4291 233.94 94.8616C248.513 90.2915 269.728 86.0055 296.824 82.034C351.023 74.0899 428.961 67.3745 524.919 62.189C715.085 51.9127 976.193 47.6363 1264 51.7475L1264 52.4686C976.237 48.3569 715.21 52.633 525.158 62.9033C429.249 68.086 351.458 74.7931 297.436 82.7112C270.421 86.6709 249.402 90.926 235.04 95.4302C220.668 99.937 213.083 104.653 212.637 109.532C212.192 114.411 218.897 119.338 232.407 124.258C245.91 129.174 266.096 134.039 292.316 138.787C293.829 139.061 295.362 139.334 296.915 139.608C302.013 140.407 307.226 141.205 312.551 141.999C293.188 138.444 277.775 134.781 266.718 131.035C253.291 126.486 246.158 121.767 246.393 116.929C246.628 112.091 254.213 107.487 268.072 103.153C281.943 98.8141 302.235 94.6997 328.213 90.8417C380.177 83.1244 455.101 76.4031 547.481 70.9929C731.374 60.2231 984.603 54.6393 1264 56.7664L1264 57.4872C984.656 55.3599 731.517 60.9431 547.739 71.7061C455.406 77.1135 380.624 83.8261 328.832 91.5179C302.932 95.3644 282.834 99.4483 269.17 103.722C255.495 107.999 248.402 112.422 248.182 116.943C247.963 121.464 254.621 125.995 267.871 130.484C281.109 134.969 300.795 139.366 326.302 143.617C334.12 144.92 342.479 146.208 351.361 147.481C352.492 147.632 353.627 147.784 354.766 147.935C332.459 144.365 314.925 140.631 302.729 136.763C289.604 132.601 282.515 128.234 282.546 123.7C282.577 119.167 289.725 114.815 302.907 110.682C316.104 106.543 335.497 102.574 360.378 98.8097C410.15 91.2788 482.091 84.5335 570.906 78.9025C748.383 67.6503 993.407 60.8376 1264 61.1228L1264 61.8435C993.47 61.5583 748.543 68.3698 571.185 79.6144C482.414 85.2425 410.612 91.9787 361.008 99.4843C336.201 103.238 316.999 107.176 304.007 111.25C290.999 115.329 284.365 119.496 284.336 123.702C284.308 127.909 290.885 132.09 303.837 136.197C316.773 140.3 335.922 144.281 360.677 148.089C369.501 149.446 379.031 150.781 389.237 152.091C368.769 149.003 352.569 145.747 341.126 142.342C328.345 138.538 321.337 134.499 321.191 130.25C321.045 126.001 327.774 121.885 340.289 117.941C352.823 113.991 371.321 110.16 395.102 106.486C442.672 99.1355 511.59 92.3775 596.777 86.5525C767.164 74.9014 1002.8 66.9723 1263.31 65.5234C1263.54 65.5221 1263.77 65.5209 1264 65.5196L1264 66.2403C1263.78 66.2416 1263.55 66.2428 1263.33 66.244C1002.89 67.6926 767.348 75.6199 597.076 87.263C511.933 93.085 443.151 99.8335 395.743 107.159C372.034 110.822 353.724 114.622 341.392 118.508C329.042 122.401 322.847 126.327 322.981 130.24C323.115 134.153 329.577 138.009 342.19 141.762C354.784 145.51 373.348 149.105 397.299 152.503C401.656 153.121 406.189 153.732 410.894 154.337C397.189 152.143 385.961 149.842 377.422 147.441C364.998 143.946 358.091 140.188 357.793 136.18C357.494 132.173 363.828 128.254 375.709 124.467C387.612 120.672 405.25 116.952 427.966 113.346C473.411 106.132 539.391 99.3386 621.039 93.3189C784.35 81.2784 1010.5 72.3209 1260.79 69.2973C1261.86 69.2843 1262.93 69.2715 1264 69.2589L1264 69.9799C1262.95 69.9924 1261.9 70.0049 1260.85 70.0176C1010.62 73.0406 784.559 81.9956 621.362 94.0278C539.756 100.044 473.908 106.827 428.623 114.016C405.975 117.612 388.524 121.3 376.821 125.031C365.096 128.77 359.309 132.494 359.582 136.159C359.855 139.823 366.186 143.401 378.447 146.85C390.684 150.292 408.654 153.552 431.797 156.594C437.05 157.285 442.566 157.964 448.34 158.631C451.469 158.953 454.651 159.273 457.884 159.591C464.304 160.195 470.88 160.792 477.608 161.382C473.82 160.965 470.152 160.541 466.607 160.112C444.251 157.402 426.727 154.44 414.67 151.241C402.641 148.048 395.865 144.567 395.436 140.802C395.008 137.037 400.964 133.321 412.218 129.699C423.497 126.069 440.274 122.474 461.921 118.952C505.226 111.908 568.228 105.127 646.274 98.9711C802.378 86.6576 1018.82 76.8307 1258.61 72.406C1260.41 72.3729 1262.2 72.34 1264 72.3075L1264 73.029C1262.23 73.061 1260.46 73.0933 1258.69 73.126C1018.96 77.5495 802.612 87.3735 646.618 99.6783C568.614 105.831 505.741 112.602 462.592 119.621C441.012 123.131 424.418 126.695 413.336 130.262C402.229 133.837 396.836 137.355 397.224 140.769C397.613 144.184 403.783 147.488 415.655 150.639C427.501 153.782 444.836 156.721 467.123 159.422C473.627 160.21 480.549 160.977 487.872 161.724C472.963 159.781 460.877 157.68 451.894 155.426C440.265 152.508 433.632 149.281 433.09 145.737C432.548 142.193 438.146 138.662 448.798 135.191C459.477 131.712 475.423 128.23 496.031 124.787C537.26 117.9 597.359 111.133 671.884 104.856C820.947 92.301 1027.88 81.6915 1257.35 76.0007C1259.57 75.9457 1261.78 75.8912 1264 75.8372L1264 76.5592C1261.82 76.6123 1259.64 76.6659 1257.46 76.72C1028.04 82.4094 821.206 93.0155 672.25 105.562C597.766 111.835 537.793 118.591 496.717 125.453C476.174 128.885 460.409 132.335 449.924 135.751C439.41 139.177 434.389 142.505 434.877 145.692C435.364 148.879 441.362 151.935 452.84 154.815C464.288 157.687 480.986 160.332 502.42 162.723C511.174 163.699 520.709 164.633 530.986 165.521C533.433 165.708 535.91 165.894 538.416 166.078C537.894 166.025 537.375 165.971 536.859 165.918C516.223 163.778 499.987 161.354 488.736 158.654C477.518 155.961 471.048 152.939 470.403 149.575C469.759 146.21 475.003 142.825 485.063 139.472C495.152 136.109 510.274 132.712 529.851 129.324C569.016 122.545 626.22 115.766 697.227 109.361C839.255 96.5518 1036.65 85.2296 1255.77 78.4283C1258.52 78.343 1261.26 78.2587 1264 78.1752L1264 78.898C1261.3 78.98 1258.61 79.063 1255.91 79.1469C1036.85 85.9463 839.539 97.2646 697.618 110.065C626.651 116.465 569.572 123.233 530.558 129.986C511.045 133.363 496.102 136.728 486.204 140.027C476.278 143.336 471.613 146.514 472.188 149.519C472.763 152.524 478.584 155.377 489.653 158.035C500.69 160.684 516.737 163.087 537.305 165.22C547.521 166.279 558.838 167.271 571.191 168.193C551.862 166.338 536.6 164.197 525.94 161.773C515.154 159.32 508.86 156.524 508.133 153.36C507.405 150.195 512.318 146.982 521.802 143.773C531.318 140.555 545.631 137.273 564.191 133.971C601.323 127.365 655.656 120.643 723.164 114.184C858.192 101.266 1046.07 89.3882 1254.81 81.6099C1257.88 81.4956 1260.94 81.3825 1264 81.2706L1264 81.9942C1261 82.1041 1257.99 82.2152 1254.98 82.3275C1046.3 90.1037 858.501 101.977 723.578 114.885C656.109 121.34 601.899 128.05 564.915 134.63C546.417 137.921 532.281 141.17 522.954 144.325C513.595 147.491 509.272 150.494 509.915 153.293C510.559 156.093 516.178 158.725 526.821 161.146C537.428 163.558 552.806 165.708 572.49 167.576C582.875 168.561 594.444 169.467 607.121 170.292C606.812 170.265 606.504 170.238 606.197 170.211C587.298 168.554 572.376 166.591 561.967 164.322C551.595 162.062 545.478 159.445 544.673 156.439C543.867 153.433 548.456 150.35 557.391 147.251C566.358 144.14 579.897 140.941 597.482 137.699C632.663 131.211 684.242 124.509 748.391 117.978C876.701 104.915 1055.45 92.5182 1254.22 83.8824C1257.48 83.7405 1260.74 83.6001 1264 83.4611L1264 84.1858C1260.81 84.3221 1257.61 84.4598 1254.41 84.5989C1055.69 93.2323 877.037 105.624 748.83 118.677C684.72 125.204 633.262 131.893 598.227 138.354C580.704 141.585 567.34 144.751 558.56 147.797C549.747 150.854 545.745 153.722 546.452 156.361C547.16 159.001 552.59 161.459 562.82 163.689C573.012 165.911 587.746 167.855 606.578 169.507C616.16 170.348 626.788 171.111 638.4 171.797C640.055 171.871 641.717 171.944 643.386 172.016C642.08 171.917 640.793 171.816 639.525 171.714C621.509 170.259 607.257 168.493 597.284 166.41C587.348 164.334 581.426 161.892 580.555 159.045C579.684 156.197 583.957 153.25 592.344 150.265C600.764 147.27 613.524 144.164 630.126 140.993C663.34 134.649 712.129 128.005 772.866 121.447C894.353 108.33 1063.79 95.5425 1252.38 86.1901C1256.26 85.9977 1260.13 85.8075 1264 85.6195L1264 86.3454C1260.21 86.53 1256.41 86.7166 1252.6 86.9054C1064.06 96.2551 894.714 109.037 773.329 122.143C712.631 128.697 663.962 135.328 630.893 141.644C614.352 144.804 601.765 147.875 593.529 150.805C585.261 153.747 581.573 156.476 582.331 158.956C583.09 161.437 588.314 163.724 598.108 165.77C607.864 167.808 621.927 169.558 639.877 171.007C650.345 171.852 662.117 172.593 675.101 173.23C674.653 173.198 674.207 173.166 673.763 173.134C673.316 173.101 672.872 173.068 672.43 173.036C655.26 171.757 641.653 170.16 632.098 168.236C622.582 166.32 616.852 164.03 615.919 161.32C614.987 158.61 618.956 155.779 626.82 152.894C634.717 149.997 646.733 146.971 662.393 143.862C693.725 137.642 739.841 131.047 797.309 124.466C912.259 111.303 1072.77 98.1765 1251.61 88.2048C1255.75 87.974 1259.88 87.7459 1264 87.5204L1264 88.2477C1259.96 88.4688 1255.91 88.6925 1251.85 88.9187C1073.07 98.8872 912.646 112.008 797.799 125.16C740.369 131.736 694.373 138.317 663.185 144.509C647.585 147.606 635.741 150.596 628.026 153.427C620.279 156.269 616.886 158.878 617.693 161.221C618.499 163.565 623.525 165.704 632.899 167.592C642.235 169.472 655.652 171.053 672.755 172.327C686.357 173.34 702.256 174.156 720.23 174.773C714.987 174.507 710.015 174.214 705.325 173.894C688.992 172.782 676.024 171.348 666.888 169.579C657.791 167.817 652.256 165.677 651.272 163.104C650.289 160.531 653.969 157.82 661.33 155.039C668.722 152.246 680.019 149.308 694.765 146.27C724.268 140.192 767.783 133.675 822.063 127.104C930.636 113.962 1082.43 100.59 1251.71 90.1016C1255.82 89.8472 1259.91 89.5957 1264 89.3471V90.076C1260 90.3192 1256 90.5652 1251.98 90.8139C1082.76 101.299 931.05 114.664 822.578 127.794C768.336 134.36 724.942 140.863 695.58 146.912C680.894 149.937 669.769 152.839 662.555 155.564C655.309 158.302 652.198 160.788 653.041 162.994C653.885 165.201 658.709 167.195 667.664 168.929C676.58 170.655 689.357 172.076 705.623 173.184C716.062 173.894 727.914 174.475 741.07 174.925C739.454 174.836 737.87 174.744 736.319 174.648C720.81 173.694 708.474 172.414 699.754 170.795C691.074 169.184 685.737 167.19 684.713 164.754C683.688 162.318 687.096 159.728 693.974 157.056C700.884 154.371 711.485 151.528 725.348 148.57C753.084 142.653 794.074 136.237 845.257 129.709C947.635 116.65 1090.94 103.121 1250.9 92.2132C1255.28 91.9148 1259.64 91.6199 1264 91.3285L1264 92.0591C1259.74 92.344 1255.48 92.6322 1251.2 92.9237C1091.29 103.828 948.075 117.35 845.797 130.396C794.652 136.92 753.781 143.32 726.186 149.207C712.383 152.152 701.951 154.958 695.217 157.574C688.452 160.203 685.607 162.564 686.478 164.634C687.348 166.704 691.966 168.556 700.504 170.141C709.002 171.718 721.147 172.985 736.589 173.936C752.819 174.935 772.629 175.582 795.561 175.88C785.244 175.617 775.849 175.25 767.448 174.777C752.763 173.951 741.058 172.798 732.754 171.303C724.489 169.815 719.357 167.944 718.291 165.625C717.226 163.306 720.356 160.819 726.753 158.239C733.18 155.647 743.087 152.886 756.066 149.999C782.036 144.224 820.502 137.906 868.587 131.427C964.771 118.468 1099.58 104.845 1250.23 93.6278C1254.83 93.2852 1259.42 92.9468 1264 92.6127L1264 93.3451C1259.53 93.6715 1255.05 94.0019 1250.56 94.3364C1099.96 105.549 965.237 119.165 869.155 132.111C821.108 138.585 782.761 144.886 756.931 150.63C744.011 153.504 734.273 156.227 728.02 158.748C721.737 161.282 719.153 163.537 720.052 165.494C720.95 167.45 725.367 169.184 733.485 170.645C741.565 172.1 753.078 173.241 767.696 174.063C780.096 174.761 794.69 175.229 811.251 175.468C806.624 175.31 802.24 175.124 798.108 174.909C784.203 174.186 773.095 173.136 765.182 171.741C757.306 170.352 752.368 168.58 751.259 166.357C750.151 164.135 753.007 161.732 758.941 159.227C764.903 156.711 774.144 154.016 786.277 151.188C810.555 145.529 846.609 139.292 891.737 132.856C982.003 119.982 1108.72 106.291 1250.49 94.8315C1255 94.4665 1259.51 94.1059 1264 93.7498L1264 94.4844C1259.63 94.8314 1255.24 95.1826 1250.84 95.5382C1109.13 106.993 982.499 120.676 892.334 133.535C847.245 139.966 811.311 146.186 787.174 151.812C775.101 154.626 766.028 157.28 760.237 159.724C754.419 162.18 752.084 164.349 753.015 166.215C753.945 168.081 758.179 169.72 765.9 171.081C773.586 172.436 784.501 173.475 798.337 174.194C806.088 174.598 814.739 174.9 824.227 175.102C812.383 174.477 802.816 173.569 795.831 172.364C788.337 171.07 783.593 169.394 782.448 167.268C781.303 165.142 783.896 162.825 789.386 160.399C794.9 157.961 803.497 155.339 814.813 152.576C837.454 147.048 871.17 140.912 913.427 134.544C997.954 121.806 1116.8 108.117 1249.94 96.4934C1254.64 96.0829 1259.33 95.6778 1264 95.2779L1264 96.0147C1259.45 96.404 1254.89 96.7983 1250.32 97.1977C1117.24 108.817 998.478 122.497 914.054 135.219C871.836 141.581 838.241 147.699 815.741 153.192C804.486 155.94 796.055 158.521 790.709 160.884C785.339 163.258 783.241 165.339 784.197 167.116C785.154 168.892 789.206 170.436 796.537 171.701C803.834 172.961 814.162 173.903 827.234 174.527C836.038 174.948 846.061 175.222 857.202 175.354C855.866 175.305 854.555 175.253 853.272 175.198C840.857 174.661 830.892 173.8 823.735 172.595C816.609 171.394 812.052 169.813 810.876 167.783C809.701 165.753 812.05 163.523 817.123 161.178C822.217 158.822 830.209 156.276 840.754 153.584C861.852 148.197 893.36 142.178 932.904 135.897C1012 123.334 1123.41 109.7 1248.36 97.9704C1253.59 97.4794 1258.81 96.9956 1264 96.5191L1264 97.2583C1258.94 97.7227 1253.86 98.1941 1248.77 98.6723C1123.87 110.396 1012.56 124.021 933.561 136.567C894.056 142.842 862.67 148.841 841.712 154.192C831.229 156.869 823.402 159.371 818.473 161.651C813.522 163.94 811.643 165.933 812.62 167.619C813.596 169.305 817.47 170.758 824.426 171.93C831.351 173.096 841.12 173.947 853.463 174.481C863.668 174.923 875.596 175.146 889.069 175.157C890.33 175.138 891.597 175.119 892.872 175.099C889.041 175.02 885.405 174.914 881.971 174.78C870.288 174.326 860.887 173.552 854.105 172.435C847.351 171.323 842.988 169.835 841.788 167.902C840.588 165.968 842.699 163.829 847.359 161.568C852.038 159.299 859.43 156.835 869.208 154.222C888.774 148.992 918.082 143.113 954.92 136.948C1028.61 124.615 1132.57 111.114 1249.34 99.3647C1254.25 98.8715 1259.13 98.3853 1264 97.9061L1264 99.1326C1258.92 99.6659 1253.81 100.208 1248.69 100.758C1139.7 112.471 1042.86 125.818 974.409 137.924C940.177 143.979 913.081 149.717 895.119 154.778C886.133 157.31 879.48 159.66 875.358 161.781C871.22 163.91 869.76 165.741 870.774 167.27C871.788 168.8 875.321 170.094 881.544 171.11C887.743 172.122 896.42 172.824 907.344 173.217C917.744 173.59 930.129 173.681 944.264 173.499C940.01 173.457 936.007 173.375 932.269 173.253C921.915 172.914 913.532 172.265 907.423 171.279C901.334 170.296 897.323 168.947 896.065 167.167C894.806 165.386 896.454 163.39 900.345 161.264C904.25 159.131 910.528 156.802 918.889 154.319C935.619 149.353 960.873 143.72 992.731 137.772C1056.46 125.874 1146.76 112.688 1248.54 101.03C1253.71 100.437 1258.87 99.8544 1264 99.2811V100.029C1259.03 100.585 1254.04 101.149 1249.03 101.723C1147.31 113.374 1057.1 126.548 993.484 138.426C961.668 144.366 936.539 149.975 919.951 154.899C911.653 157.363 905.537 159.642 901.786 161.691C898.023 163.747 896.753 165.507 897.786 166.97C898.82 168.432 902.201 169.659 908.089 170.61C913.958 171.557 922.137 172.199 932.414 172.535C942.712 172.871 955.06 172.899 969.201 172.63C964.757 172.61 960.595 172.543 956.731 172.428C947.023 172.139 939.137 171.545 933.358 170.619C927.596 169.696 923.76 168.415 922.479 166.711C921.198 165.008 922.626 163.085 926.151 161.031C929.685 158.971 935.429 156.716 943.11 154.308C958.48 149.49 981.783 144.005 1011.24 138.197C1070.17 126.579 1153.88 113.636 1248.42 102.119C1253.63 101.483 1258.83 100.859 1264 100.245L1264 100.996C1259 101.59 1253.98 102.194 1248.93 102.809C1154.47 114.318 1070.85 127.248 1012.03 138.845C982.613 144.644 959.437 150.103 944.21 154.876C936.593 157.264 931.01 159.467 927.624 161.44C924.228 163.42 923.143 165.107 924.193 166.503C925.242 167.898 928.469 169.06 934.02 169.949C939.556 170.836 947.236 171.423 956.863 171.71C966.132 171.986 977.155 171.982 989.719 171.711C985.764 171.704 982.047 171.654 978.583 171.562C969.483 171.319 962.065 170.778 956.599 169.912C951.145 169.048 947.476 167.833 946.177 166.206C944.878 164.578 946.104 162.731 949.287 160.75C952.477 158.764 957.723 156.584 964.77 154.253C978.87 149.589 1000.35 144.26 1027.57 138.6C1082.01 127.279 1159.55 114.604 1247.29 103.254C1252.89 102.531 1258.46 101.821 1264 101.126V101.88C1258.64 102.554 1253.25 103.241 1247.84 103.941C1160.16 115.281 1082.72 127.942 1028.39 139.24C1001.21 144.891 979.863 150.193 965.906 154.81C958.924 157.12 953.837 159.244 950.79 161.141C947.735 163.042 946.821 164.656 947.881 165.985C948.942 167.315 952.021 168.412 957.254 169.241C962.475 170.069 969.684 170.603 978.701 170.843C986.028 171.038 994.511 171.039 1004.03 170.852C1002.91 170.833 1001.8 170.81 1000.73 170.783C992.202 170.565 985.224 170.054 980.045 169.225C974.874 168.397 971.359 167.227 970.03 165.657C968.701 164.087 969.711 162.296 972.551 160.369C975.395 158.44 980.147 156.32 986.569 154.051C999.419 149.511 1019.12 144.316 1044.15 138.793C1094.22 127.742 1165.79 115.341 1246.98 104.205C1252.68 103.423 1258.36 102.657 1264 101.908V104.647C1258.13 105.607 1252.22 106.599 1246.27 107.622C1187.93 117.65 1137.24 128.707 1102.45 138.474C1085.05 143.359 1071.67 147.91 1063.29 151.836C1059.11 153.8 1056.2 155.592 1054.66 157.178C1053.12 158.763 1052.97 160.109 1054.15 161.217C1055.32 162.326 1057.84 163.212 1061.75 163.861C1065.66 164.509 1070.88 164.905 1077.3 165.045C1090.14 165.325 1107.56 164.581 1128.36 162.9C1165.35 159.91 1212.88 153.968 1264 145.632V149.063C1257.42 149.887 1250.87 150.691 1244.38 151.475C1250.88 150.734 1257.42 149.975 1264 149.197L1264 149.948C1261.06 150.295 1258.13 150.639 1255.2 150.978C1258.13 150.658 1261.06 150.334 1264 150.007L1264 150.754C1256.81 151.554 1249.66 152.335 1242.56 153.096C1249.66 152.378 1256.81 151.642 1264 150.89L1264 151.634C1230.86 155.101 1198.61 158.202 1167.75 160.914C1198.71 158.343 1230.94 155.428 1264 152.186L1264 152.927C1246.12 154.679 1228.49 156.336 1211.17 157.894C1228.51 156.43 1246.14 154.877 1264 153.239L1264 153.978C1238.45 156.321 1213.37 158.487 1188.93 160.472C1213.41 158.621 1238.48 156.605 1264 154.43L1264 155.166C1254.73 155.956 1245.51 156.725 1236.37 157.473C1245.52 156.779 1254.73 156.066 1264 155.334L1264 156.069C1228.96 158.835 1194.7 161.328 1161.58 163.54C1194.78 161.49 1229.02 159.188 1264 156.638L1264 157.37C1191.52 162.652 1122.19 166.871 1058.73 169.979C1122.61 167.119 1191.82 163.266 1264 158.446L1264 159.176C1199.21 163.501 1136.8 167.048 1078.49 169.796C1137.06 167.321 1199.4 164.12 1264 160.202V160.931C1185.22 165.707 1109.78 169.417 1040.44 172.047C1110.19 169.716 1185.52 166.407 1264 162.119L1264 162.846C1193.17 166.715 1124.9 169.787 1060.97 172.062C1125.16 170.089 1193.37 167.391 1264 163.958L1264 164.684C1166 169.445 1072.67 172.792 988.244 174.751C1073.23 173.172 1166.4 170.333 1264 166.186L1264 166.91C1168.17 170.981 1076.61 173.791 992.866 175.386C1077.08 174.184 1168.51 171.873 1264 168.391L1264 169.115C1143.72 173.5 1029.85 176.027 928.75 176.82C1030.64 176.513 1144.28 174.618 1264 170.984L1264 171.706C1133.58 175.664 1010.37 177.559 901.684 177.585C1011.22 178.067 1134.18 176.845 1264 173.7L1264 174.422C1134.44 177.56 1011.71 178.783 902.316 178.309C1012.45 179.36 1134.97 178.845 1264 176.521L1264 177.242C1070.64 180.724 891.872 180.145 747.453 176.317C744.247 176.244 741.062 176.17 737.895 176.094C731.059 175.962 724.374 175.816 717.845 175.655C869.685 180.931 1058.93 182.894 1264 180.485L1264 181.206C1110.54 183.008 965.927 182.363 839.2 179.712C966.833 183.079 1111.17 184.588 1264 183.772L1264 184.492C1066.89 185.545 883.884 182.73 732.588 177.051C885.652 183.601 1068.06 187.508 1263.91 187.724C1263.94 187.724 1263.97 187.724 1264 187.724L1264 188.445C1263.97 188.444 1263.94 188.444 1263.91 188.444C1024.79 188.18 805.675 182.418 635.49 173.054C807.751 183.423 1025.04 190.508 1261.43 192.368C1262.29 192.375 1263.14 192.382 1264 192.388L1264 193.109C1263.13 193.102 1262.26 193.096 1261.4 193.089C991.085 190.961 745.712 182.005 564.015 169.112C563.273 169.066 562.533 169.019 561.794 168.972C746.65 183.127 990.663 193.674 1258.71 197.641C1260.47 197.667 1262.24 197.693 1264 197.718L1264 198.439C1262.22 198.414 1260.43 198.388 1258.64 198.361C1023.21 194.877 806.293 186.317 631.668 174.692C807.239 187.482 1022.02 197.444 1254.57 202.551C1257.71 202.62 1260.86 202.688 1264 202.755L1264 203.477C1260.83 203.409 1257.65 203.34 1254.47 203.27C973.704 197.105 718.793 183.863 527.459 167.106C720.847 185.307 973.07 200.267 1250.14 208.392C1254.77 208.528 1259.39 208.661 1264 208.793L1264 209.515C1259.34 209.383 1254.68 209.248 1250.01 209.111C940.271 200.027 661.531 182.405 461.254 161.252C455.666 160.661 450.138 160.068 444.672 159.473C440.906 159.095 437.18 158.716 433.492 158.335L434.14 158.411C639.176 182.504 925.317 203.294 1243.96 215.064C1250.65 215.311 1257.33 215.554 1264 215.791L1264 216.514C1257.28 216.275 1250.54 216.031 1243.79 215.782C925.075 204.009 638.815 183.213 433.639 159.103C422.653 157.812 411.899 156.512 401.385 155.203C403.389 155.466 405.402 155.729 407.423 155.991C616.943 183.22 910.149 207.395 1237.37 222.059C1246.27 222.458 1255.15 222.848 1264 223.228L1264 223.953C1255.08 223.57 1246.14 223.177 1237.18 222.776C909.869 208.108 616.538 183.924 406.873 156.677C384.882 153.819 363.809 150.927 343.712 148.009C356.29 149.938 369.213 151.858 382.47 153.768C595.683 184.474 895.033 212.345 1229.98 230.096C1241.35 230.699 1252.69 231.286 1264 231.858V232.584C1252.62 232.009 1241.2 231.418 1229.75 230.811C894.713 213.055 595.232 185.174 381.867 154.446C358.571 151.091 336.299 147.702 315.118 144.288C329.004 146.646 343.317 148.996 358.041 151.334C574.459 185.696 879.435 217.478 1221.67 238.528C1235.83 239.399 1249.94 240.244 1264 241.065L1264 241.793C1249.85 240.968 1235.65 240.117 1221.4 239.24C879.073 218.185 573.959 186.392 357.384 152.004C340.562 149.333 324.272 146.647 308.54 143.948C317.03 145.495 325.67 147.039 334.457 148.579C553.314 186.947 863.089 222.964 1211.9 247.531C1229.34 248.759 1246.71 249.947 1264 251.095L1264 251.825C1246.6 250.671 1229.13 249.477 1211.6 248.241C862.684 223.667 552.763 187.636 333.742 149.24C295.964 142.617 260.886 135.923 228.774 129.205C217.559 126.959 206.75 124.711 196.361 122.461C192.888 121.719 189.47 120.978 186.109 120.236C223.328 129.178 265.025 138.121 310.736 146.972C531.252 189.673 845.008 230.226 1199.73 258.503C1221.26 260.218 1242.68 261.869 1264 263.455L1264 264.188C1242.57 262.594 1221.03 260.935 1199.39 259.21C844.557 230.925 530.647 190.356 309.96 147.622C253.016 136.595 202.266 125.421 158.615 114.275C196.806 124.509 239.936 134.767 287.488 144.937C508.66 192.239 825.296 237.594 1184.97 269.781C1211.46 272.151 1237.81 274.417 1264 276.579L1264 277.315C1237.68 275.143 1211.2 272.867 1184.58 270.485C824.797 238.287 507.999 192.913 286.648 145.573C217.06 130.691 156.887 115.61 107.771 100.678C152.171 114.834 204.767 129.108 264.529 143.254C485.365 195.528 803.877 246.015 1167.72 282.316C1200.01 285.538 1232.12 288.594 1264 291.484L1264 292.223C1231.98 289.321 1199.73 286.252 1167.29 283.015C803.327 246.703 484.644 196.193 263.622 143.875C205.562 130.132 154.228 116.261 110.578 102.486C149.294 115.476 193.698 128.542 243.196 141.527C462.495 199.055 781.611 254.936 1148.56 295.525C1187.31 299.81 1225.81 303.84 1264 307.614V308.356C1225.66 304.568 1186.99 300.523 1148.09 296.22C781.009 255.617 461.711 199.709 242.219 142.131C170.005 123.187 108.576 104.058 59.7981 85.2277C54.0588 83.1119 48.5137 81.0007 43.1663 78.8949C90.4276 99.4767 150.539 120.425 221.693 141.207C438.09 204.411 756.449 266.022 1125.48 311.047C1172 316.723 1218.22 321.999 1264 326.879L1264 327.625C1218.05 322.729 1171.66 317.434 1124.96 311.736C755.792 266.695 437.239 205.052 220.641 141.791C134.539 116.643 64.5214 91.2309 13.84 66.4954C13.1567 66.1831 12.4781 65.871 11.8041 65.559L11.4769 65.4074C58.6609 90.2261 122.104 115.638 199.394 140.847C411.478 210.022 727.666 277.625 1097.69 327.243C1153.57 334.737 1209.08 341.605 1264 347.853L1264 348.602C1208.9 342.336 1153.2 335.446 1097.13 327.927C726.951 278.288 410.557 210.649 198.267 141.407C107.191 111.701 35.2476 81.6908 -13.5576 52.6697C-17.0125 50.7182 -20.2743 48.7746 -23.3401 46.8393C22.0907 77.9101 90.0602 110.039 176.941 141.883C383.072 217.436 695.517 291.336 1065.42 345.658C1132.16 355.458 1198.48 364.285 1264 372.147L1264 372.899C1198.28 365.018 1131.75 356.165 1064.81 346.335C694.74 291.989 382.077 218.047 175.735 142.416C72.5662 104.602 -4.05811 66.3525 -47.973 29.9062C-49.8186 28.3744 -51.6066 26.8457 -53.3363 25.3204C-13.5087 63.7112 56.9623 103.89 152.817 143.654C351.223 225.96 658.263 306.44 1026.92 365.569C1106.56 378.342 1185.81 389.595 1264 399.341L1264 400.096C1185.59 390.329 1106.12 379.047 1026.26 366.238C657.422 307.081 350.151 226.55 151.532 144.156C52.2239 102.959 -19.9521 61.284 -59.062 21.5692C-61.99 18.5959 -64.7328 15.6335 -67.2877 12.683C-34.1735 55.9123 32.5602 101.31 127.345 146.205C316.19 235.651 616.198 323.002 982.619 387.036C1077.01 403.531 1171.2 417.673 1264 429.485L1264 430.241ZM882.143 174.063C893.162 174.491 906.299 174.635 921.305 174.504C923.782 174.442 926.277 174.376 928.789 174.308C920.873 174.29 913.653 174.167 907.185 173.934C896.186 173.54 887.308 172.829 880.871 171.778C874.458 170.731 870.275 169.313 869.044 167.456C867.813 165.599 869.684 163.531 873.948 161.337C878.228 159.134 885.045 156.737 894.093 154.188C912.197 149.087 939.417 143.326 973.689 137.265C1037.35 126.006 1125.46 113.685 1225.03 102.599C1118.42 113.724 1023.95 126.175 955.607 137.613C918.809 143.772 889.623 149.63 870.198 154.822C860.481 157.419 853.254 159.837 848.736 162.029C844.199 164.23 842.534 166.131 843.525 167.727C844.515 169.323 848.207 170.686 854.783 171.768C861.33 172.846 870.533 173.611 882.143 174.063ZM1000.84 170.064C1011.01 170.324 1023.53 170.166 1038.04 169.611C1038.87 169.57 1039.7 169.527 1040.54 169.484C1033.66 169.616 1027.43 169.617 1021.91 169.481C1013.91 169.286 1007.34 168.805 1002.43 168.012C997.529 167.22 994.157 166.095 992.802 164.582C991.446 163.07 992.256 161.337 994.774 159.466C997.295 157.594 1001.59 155.535 1007.43 153.33C1019.11 148.919 1037.15 143.862 1060.15 138.48C1100.29 129.083 1155.66 118.662 1219 108.912C1149.71 118.945 1089.02 129.713 1045.01 139.425C1020.02 144.939 1000.46 150.104 987.75 154.593C981.394 156.838 976.797 158.9 974.09 160.737C971.379 162.577 970.636 164.139 971.724 165.424C972.812 166.71 975.768 167.764 980.706 168.555C985.636 169.344 992.403 169.848 1000.84 170.064ZM1022.01 168.762C1028.9 168.93 1036.91 168.885 1045.93 168.635C1044.01 168.624 1042.15 168.598 1040.37 168.556C1032.9 168.38 1026.72 167.926 1022.07 167.168C1017.42 166.41 1014.19 165.328 1012.81 163.873C1011.43 162.418 1012.05 160.744 1014.26 158.931C1016.47 157.118 1020.32 155.123 1025.61 152.985C1036.18 148.708 1052.63 143.801 1073.67 138.572C1115.57 128.16 1175.84 116.434 1244.65 105.832C1170.96 116.609 1106.28 128.514 1061.05 139.103C1038.1 144.475 1020.19 149.499 1008.65 153.856C1002.88 156.035 998.74 158.033 996.348 159.81C993.954 161.588 993.372 163.096 994.486 164.338C995.598 165.579 998.439 166.591 1003.1 167.344C1007.76 168.096 1014.11 168.569 1022.01 168.762ZM1101.43 137.883C1133.23 128.956 1178.2 118.969 1230.1 109.673C1173.48 119.256 1124.26 129.569 1089.36 138.787C1070.24 143.838 1055.45 148.55 1046.1 152.622C1041.42 154.659 1038.13 156.521 1036.33 158.171C1034.52 159.82 1034.24 161.221 1035.39 162.374C1036.55 163.527 1039.17 164.455 1043.31 165.138C1047.46 165.821 1053.03 166.241 1059.92 166.398C1068.99 166.606 1080.25 166.352 1093.32 165.664C1087.38 165.833 1081.99 165.869 1077.21 165.764C1070.68 165.622 1065.23 165.218 1061.07 164.527C1056.89 163.835 1053.92 162.84 1052.5 161.5C1051.08 160.161 1051.35 158.608 1052.99 156.916C1054.64 155.225 1057.68 153.363 1061.94 151.367C1070.46 147.373 1083.98 142.782 1101.43 137.883ZM1040.48 167.836C1050.85 168.08 1063.93 167.785 1079.22 166.981C1072 167.2 1065.49 167.248 1059.81 167.118C1052.83 166.959 1047.04 166.53 1042.64 165.805C1038.23 165.079 1035.14 164.041 1033.73 162.644C1032.33 161.247 1032.77 159.633 1034.69 157.881C1036.6 156.128 1040.03 154.2 1044.78 152.133C1054.28 147.998 1069.21 143.249 1088.38 138.185C1123.66 128.868 1173.45 118.449 1230.69 108.793C1168.05 118.763 1113.4 129.545 1074.61 139.185C1053.61 144.402 1037.3 149.275 1026.87 153.493C1021.66 155.604 1017.96 157.535 1015.87 159.249C1013.77 160.963 1013.34 162.418 1014.48 163.616C1015.62 164.814 1018.35 165.783 1022.74 166.5C1027.14 167.217 1033.1 167.663 1040.48 167.836Z" fill="url(#paint7_linear_8015_12010)"/>
<path d="M1264 9.19296C1203.47 5.66672 1143.9 2.60544 1085.58 0L1101.59 0C1154.79 2.44242 1209 5.26175 1264 8.46478V9.19296Z" fill="url(#paint8_linear_8015_12010)"/>
</g>
</g>
</g>
<defs>
<linearGradient id="paint0_linear_8015_12010" x1="865.699" y1="129.723" x2="557.627" y2="638.726" gradientUnits="userSpaceOnUse">
<stop stop-color="white" stop-opacity="0.5"/>
<stop offset="1" stop-color="white" stop-opacity="0.2"/>
</linearGradient>
<linearGradient id="paint1_linear_8015_12010" x1="865.699" y1="129.723" x2="557.627" y2="638.726" gradientUnits="userSpaceOnUse">
<stop stop-color="white" stop-opacity="0.5"/>
<stop offset="1" stop-color="white" stop-opacity="0.2"/>
</linearGradient>
<linearGradient id="paint2_linear_8015_12010" x1="865.699" y1="129.723" x2="557.627" y2="638.726" gradientUnits="userSpaceOnUse">
<stop stop-color="white" stop-opacity="0.5"/>
<stop offset="1" stop-color="white" stop-opacity="0.2"/>
</linearGradient>
<linearGradient id="paint3_linear_8015_12010" x1="865.699" y1="129.723" x2="557.627" y2="638.726" gradientUnits="userSpaceOnUse">
<stop stop-color="white" stop-opacity="0.5"/>
<stop offset="1" stop-color="white" stop-opacity="0.2"/>
</linearGradient>
<linearGradient id="paint4_linear_8015_12010" x1="865.699" y1="129.723" x2="557.627" y2="638.726" gradientUnits="userSpaceOnUse">
<stop stop-color="white" stop-opacity="0.5"/>
<stop offset="1" stop-color="white" stop-opacity="0.2"/>
</linearGradient>
<linearGradient id="paint5_linear_8015_12010" x1="865.699" y1="129.723" x2="557.627" y2="638.726" gradientUnits="userSpaceOnUse">
<stop stop-color="white" stop-opacity="0.5"/>
<stop offset="1" stop-color="white" stop-opacity="0.2"/>
</linearGradient>
<linearGradient id="paint6_linear_8015_12010" x1="865.699" y1="129.723" x2="557.627" y2="638.726" gradientUnits="userSpaceOnUse">
<stop stop-color="white" stop-opacity="0.5"/>
<stop offset="1" stop-color="white" stop-opacity="0.2"/>
</linearGradient>
<linearGradient id="paint7_linear_8015_12010" x1="865.699" y1="129.723" x2="557.627" y2="638.726" gradientUnits="userSpaceOnUse">
<stop stop-color="white" stop-opacity="0.5"/>
<stop offset="1" stop-color="white" stop-opacity="0.2"/>
</linearGradient>
<linearGradient id="paint8_linear_8015_12010" x1="865.699" y1="129.723" x2="557.627" y2="638.726" gradientUnits="userSpaceOnUse">
<stop stop-color="white" stop-opacity="0.5"/>
<stop offset="1" stop-color="white" stop-opacity="0.2"/>
</linearGradient>
<clipPath id="clip0_8015_12010">
<rect width="800" height="392" fill="white"/>
</clipPath>
<clipPath id="clip1_8015_12010">
<rect width="800" height="392" fill="white"/>
</clipPath>
</defs>
</svg>
