<svg width="71" height="70" viewBox="0 0 71 70" fill="none" xmlns="http://www.w3.org/2000/svg">
<g clip-path="url(#clip0_8002_13234)">
<path d="M35.6667 70C54.9967 70 70.6667 54.33 70.6667 35C70.6667 15.67 54.9967 0 35.6667 0C16.3367 0 0.666687 15.67 0.666687 35C0.666687 54.33 16.3367 70 35.6667 70Z" fill="#1F2A3D"/>
<path d="M36.0042 35.0457L51.9196 25.7964L51.8677 44.2036L35.9523 53.453L36.0042 35.0457Z" fill="#101827"/>
<path d="M36.0052 35.0457L35.9532 53.453L19.9329 44.2036L19.9848 25.7964L36.0052 35.0457Z" fill="#18202F"/>
<path d="M19.9839 25.7964L35.8992 16.5471L51.9196 25.7964L36.0042 35.0457L19.9839 25.7964Z" fill="#232B3A"/>
<path fill-rule="evenodd" clip-rule="evenodd" d="M36.1484 16.114C35.9933 16.0245 35.8021 16.0247 35.6472 16.1148L19.7318 25.3641C19.5776 25.4537 19.4828 25.6187 19.4831 25.7971C19.4831 25.8112 19.4837 25.8251 19.4849 25.839L19.4331 44.2022C19.4326 44.3813 19.5279 44.5471 19.6831 44.6366L35.6843 53.8749C35.6903 53.8787 35.6964 53.8824 35.7025 53.886C35.7795 53.9304 35.8653 53.9527 35.9511 53.9529C36.038 53.9533 36.1249 53.9311 36.2028 53.8863C36.2096 53.8824 36.2163 53.8783 36.2229 53.8741L52.1191 44.6359C52.2727 44.5467 52.3674 44.3826 52.3679 44.205L52.4198 25.7978C52.4203 25.6187 52.325 25.4529 52.1698 25.3634C52.1632 25.3596 52.1566 25.3559 52.1498 25.3524L36.1484 16.114ZM20.4826 26.6621L35.5036 35.3345L35.455 52.5878L20.4339 43.9154L20.4826 26.6621ZM36.0036 34.4673L50.9213 25.7978L35.8993 17.1249L20.9816 25.7944L36.0036 34.4673ZM36.5046 35.3334L36.4559 52.5821L51.3687 43.9154L51.4174 26.6667L36.5046 35.3334Z" fill="#667788"/>
<mask id="mask0_8002_13234" style="mask-type:luminance" maskUnits="userSpaceOnUse" x="39" y="31" width="11" height="17">
<path d="M39.7117 47.5275L39.6823 37.4043L49.2365 31.8876L49.2647 42.012L39.7117 47.5275Z" fill="white"/>
</mask>
<g mask="url(#mask0_8002_13234)">
<path d="M44.485 40.1061C43.9871 40.3929 43.6348 40.5803 43.5107 40.6447C41.5867 41.6574 40.1505 42.1012 40.1494 41.6405C40.1483 41.1798 41.5822 39.9661 43.505 38.7569L43.5095 40.2619C43.6348 40.1998 43.995 40.0158 44.4929 39.729C45.0902 39.3835 45.3894 39.1825 45.4425 39.1453L45.438 37.6413C47.3574 36.6308 48.7902 36.1894 48.7924 36.65C48.7947 37.1107 47.363 38.321 45.4436 39.528H45.4459C45.3906 39.5641 45.1105 39.7448 44.485 40.1061ZM48.1071 32.5391L40.8167 36.7482L40.8223 38.8009L43.4994 37.2552L43.5027 38.6011C41.327 39.9729 39.6921 41.4136 39.6933 42.0075C39.6944 42.6013 41.3327 42.1531 43.5095 41.0116L43.5219 45.3269L45.4572 44.2091L45.4447 39.8938C47.6159 38.5254 49.2486 37.0858 49.2463 36.4919C49.2441 35.8981 47.6103 36.3452 45.438 37.4833L45.4346 36.1374L48.1116 34.5917L48.106 32.5391" fill="#50AF95"/>
</g>
<mask id="mask1_8002_13234" style="mask-type:luminance" maskUnits="userSpaceOnUse" x="26" y="20" width="20" height="11">
<path d="M26.6445 24.8581L34.6022 20.2334L45.203 26.3541L37.2454 30.9788L26.6445 24.8581Z" fill="white"/>
</mask>
<g mask="url(#mask1_8002_13234)">
<path d="M37.2618 27.4628L35.741 26.0041C36.4624 25.7523 38.5004 24.8897 39.5008 25.4666C39.5742 25.5084 39.6419 25.5592 39.7029 25.6168C40.561 26.4399 38.0364 27.193 37.2618 27.4628ZM35.0455 25.3357L33.6669 24.0135C34.2641 23.8046 35.9374 23.082 36.8283 23.5958C36.8994 23.6364 36.966 23.6861 37.0259 23.7437C37.806 24.4922 35.6902 25.111 35.0455 25.3357ZM38.5941 22.5367C37.6514 21.9925 36.3247 22.1472 34.9043 22.5491L33.7685 21.4607L32.627 21.8593L33.7324 22.9183C33.432 23.0233 33.1294 23.134 32.828 23.2435L31.7158 22.1765L30.5743 22.5751L31.7091 23.6635C31.4652 23.7527 31.2258 23.8396 30.9887 23.9232L30.9853 23.9198L29.4114 24.4685L30.1487 25.1753C30.1487 25.1753 30.965 24.8784 30.9774 24.8863C31.4087 24.735 31.7113 24.8152 31.8987 24.9235C31.9123 24.9315 31.9247 24.9394 31.9371 24.9473L33.2299 26.187C33.2627 26.1757 33.3044 26.1621 33.3564 26.1497L33.2356 26.1915L35.0466 27.9291C35.1143 28.0206 35.1697 28.1854 34.8456 28.2983C34.8569 28.3051 34.0158 28.5874 34.0158 28.5874L34.6142 29.4579L36.1 28.9396C36.3766 28.8437 36.651 28.7511 36.9197 28.6596L38.068 29.7605L39.2095 29.363L38.0736 28.2735C38.3898 28.1685 38.6957 28.0646 38.9904 27.9607L40.1206 29.0447L41.2621 28.6472L40.1161 27.5486C41.9689 26.8147 43.019 26.0662 42.0942 24.9619C41.9 24.7293 41.6833 24.5487 41.4462 24.4121C40.7777 24.0259 39.9501 23.9955 39.0288 24.1637C39.4861 23.7369 39.5414 23.248 38.8448 22.7083C38.7646 22.6462 38.6811 22.5898 38.5941 22.539" fill="#F7931A"/>
</g>
<mask id="mask2_8002_13234" style="mask-type:luminance" maskUnits="userSpaceOnUse" x="24" y="31" width="7" height="17">
<path d="M24.3481 43.3682L24.3831 31.4034L30.8921 35.1621L30.8583 47.1257L24.3481 43.3682Z" fill="white"/>
</mask>
<g mask="url(#mask2_8002_13234)">
<path d="M27.6376 33.2823L27.624 37.7048L30.8735 41.2535L27.6376 33.2823Z" fill="#C1CCF7"/>
<path d="M27.6385 33.2823L24.3664 37.4971L27.6249 37.7048L27.6385 33.2823Z" fill="white"/>
<path d="M30.8734 41.9513L27.6115 42.2414L27.6036 45.247L30.8734 41.9513Z" fill="#C1CCF7"/>
<path d="M24.3636 38.1926L27.604 45.2471L27.6119 42.2415V42.2403L24.3636 38.1926Z" fill="white"/>
<path d="M27.624 37.706L27.6138 41.5459L30.8735 41.2535L27.624 37.706Z" fill="#8198EE"/>
<path d="M27.6251 37.706L24.3666 37.4971L27.615 41.5459L27.6251 37.706Z" fill="#C1CCF7"/>
</g>
</g>
<defs>
<clipPath id="clip0_8002_13234">
<rect width="70" height="70" fill="white" transform="translate(0.666687)"/>
</clipPath>
</defs>
</svg>
