<svg width="42" height="42" viewBox="0 0 42 42" fill="none" xmlns="http://www.w3.org/2000/svg">
<g clip-path="url(#clip0_8014_11770)">
<path d="M17.6837 3.49998H16.7629V4.6056H17.6837V3.49998ZM18.7893 3.49998H17.6837V4.6056H18.7893V3.49998Z" fill="#080808"/>
<path d="M19.8943 3.49998H18.7887V4.6056H19.8943V3.49998ZM21 3.49998H19.8943V4.6056H21V3.49998Z" fill="#080808"/>
<path d="M21.9206 3.49998H20.9997V4.6056H22.1053V3.49998H21.9206Z" fill="#080808"/>
<path d="M23.0264 3.49998H21.9208V4.6056H23.0264V3.49998ZM24.1321 3.49998H23.0264V4.6056H24.1321V3.49998Z" fill="#080808"/>
<path d="M25.2359 3.49998H24.1303V4.6056H25.2359V3.49998Z" fill="#080808"/>
<path d="M26.1574 3.49998H25.0517V4.6056H26.1574V3.49998ZM14.5528 4.6056H13.4471V5.71122H14.5528V4.6056ZM15.6584 4.6056H14.5528V5.71122H15.6584V4.6056Z" fill="#080808"/>
<path d="M16.7637 4.60561H15.6581V5.71122H16.7637V4.60561Z" fill="#1C2525"/>
<path d="M17.6837 4.60561H16.7629V5.71122H17.6837V4.60561ZM18.7893 4.60561H17.6837V5.71122H18.7893V4.60561Z" fill="#565F62"/>
<path d="M19.8943 4.60561H18.7887V5.71122H19.8943V4.60561Z" fill="#6A7979"/>
<path d="M20.9991 4.60561H19.8935V5.71122H20.9991V4.60561Z" fill="#828990"/>
<path d="M21.9206 4.60561H20.9997V5.71122H22.1053V4.60561H21.9206Z" fill="#828990"/>
<path d="M23.0264 4.60561H21.9208V5.71122H23.0264V4.60561ZM24.1321 4.60561H23.0264V5.71122H24.1321V4.60561Z" fill="#828990"/>
<path d="M25.2359 4.60561H24.1303V5.71122H25.2359V4.60561Z" fill="#828990"/>
<path d="M26.157 4.60561H25.0514V5.71122H26.157V4.60561Z" fill="#828990"/>
<path d="M27.2618 4.60561H26.1562V5.71122H27.2618V4.60561Z" fill="#080808"/>
<path d="M28.368 4.60561H27.2624V5.71122H28.368V4.60561Z" fill="#040404"/>
<path d="M12.5254 5.70976H11.4198V6.81538H12.5254V5.70976ZM13.4463 5.70976H12.5254V6.81538H13.6311V5.70976H13.4463Z" fill="#080808"/>
<path d="M14.5528 5.70976H13.4471V6.81538H14.5528V5.70976ZM15.6584 5.70976H14.5528V6.81538H15.6584V5.70976Z" fill="#565F62"/>
<path d="M16.7637 5.70976H15.6581V6.81538H16.7637V5.70976Z" fill="#434F52"/>
<path d="M17.6837 5.70976H16.7629V6.81538H17.6837V5.70976ZM18.7893 5.70976H17.6837V6.81538H18.7893V5.70976Z" fill="#B1B5B8"/>
<path d="M19.8943 5.70976H18.7887V6.81538H19.8943V5.70976ZM21 5.70976H19.8943V6.81538H21V5.70976Z" fill="#C8CACF"/>
<path d="M21.9206 5.70976H20.9997V6.81538H22.1053V5.70976H21.9206Z" fill="#C8CACF"/>
<path d="M23.0264 5.70976H21.9208V6.81538H23.0264V5.70976ZM24.1321 5.70976H23.0264V6.81538H24.1321V5.70976Z" fill="#C8CACF"/>
<path d="M25.2359 5.70976H24.1303V6.81538H25.2359V5.70976Z" fill="#C8CACF"/>
<path d="M26.157 5.70976H25.0514V6.81538H26.157V5.70976Z" fill="#C8CACF"/>
<path d="M27.2618 5.70976H26.1562V6.81538H27.2618V5.70976ZM28.3674 5.70976H27.2618V6.81538H28.3674V5.70976Z" fill="#6A7979"/>
<path d="M29.4742 5.70976H28.3686V6.81538H29.4742V5.70976Z" fill="#040404"/>
<path d="M30.3939 5.70976H29.2883V6.81538H30.3939V5.70976Z" fill="#040404"/>
<path d="M12.5254 6.63206H11.4198V7.73768H12.5254V6.63206ZM13.4463 6.63206H12.5254V7.73768H13.6311V6.63206H13.4463Z" fill="#707980"/>
<path d="M14.5528 6.63206H13.4471V7.73768H14.5528V6.63206ZM15.6584 6.63206H14.5528V7.73768H15.6584V6.63206Z" fill="#445150"/>
<path d="M16.7637 6.63206H15.6581V7.73768H16.7637V6.63206ZM17.6846 6.63206H16.7637V7.73768H17.6846V6.63206ZM18.7902 6.63206H17.6846V7.73768H18.7902V6.63206Z" fill="#C8CACF"/>
<path d="M19.8943 6.63206H18.7887V7.73768H19.8943V6.63206Z" fill="#080808"/>
<path d="M20.9991 6.63206H19.8935V7.73768H20.9991V6.63206Z" fill="#040404"/>
<path d="M21.9206 6.63206H20.9997V7.73768H22.1053V6.63206H21.9206Z" fill="#040404"/>
<path d="M23.0264 6.63206H21.9208V7.73768H23.0264V6.63206ZM24.1321 6.63206H23.0264V7.73768H24.1321V6.63206Z" fill="#040404"/>
<path d="M25.2359 6.63206H24.1303V7.73768H25.2359V6.63206Z" fill="#040404"/>
<path d="M26.157 6.63206H25.0514V7.73768H26.157V6.63206Z" fill="#040404"/>
<path d="M27.2618 6.63206H26.1562V7.73768H27.2618V6.63206ZM28.3674 6.63206H27.2618V7.73768H28.3674V6.63206ZM29.473 6.63206H28.3674V7.73768H29.473V6.63206Z" fill="#C8CACF"/>
<path d="M30.3939 6.63206H29.2883V7.73768H30.3939V6.63206Z" fill="#C8CACF"/>
<path d="M31.5001 6.63206H30.3945V7.73768H31.5001V6.63206Z" fill="#080808"/>
<path d="M32.604 6.63206H31.4984V7.73768H32.604V6.63206ZM9.21006 7.73622H8.2892V8.84183H9.39482V7.73622H9.21006Z" fill="#080808"/>
<path d="M10.3159 7.73622H9.21032V8.84184H10.3159V7.73622Z" fill="#1E292A"/>
<path d="M12.5254 7.73622H11.4198V8.84184H12.5254V7.73622ZM13.4463 7.73622H12.5254V8.84184H13.6311V7.73622H13.4463Z" fill="#4D5856"/>
<path d="M14.5528 7.73622H13.4471V8.84184H14.5528V7.73622ZM15.6584 7.73622H14.5528V8.84184H15.6584V7.73622Z" fill="#FBFBFC"/>
<path d="M16.7637 7.73622H15.6581V8.84184H16.7637V7.73622ZM17.6846 7.73622H16.7637V8.84184H17.6846V7.73622ZM18.7902 7.73622H17.6846V8.84184H18.7902V7.73622Z" fill="#0A0A0A"/>
<path d="M19.8943 7.73622H18.7887V8.84184H19.8943V7.73622ZM21 7.73622H19.8943V8.84184H21V7.73622Z" fill="#913648"/>
<path d="M21.9206 7.73622H20.9997V8.84184H22.1053V7.73622H21.9206Z" fill="#913648"/>
<path d="M23.0264 7.73622H21.9208V8.84184H23.0264V7.73622ZM24.1321 7.73622H23.0264V8.84184H24.1321V7.73622Z" fill="#913648"/>
<path d="M25.2359 7.73622H24.1303V8.84184H25.2359V7.73622Z" fill="#913648"/>
<path d="M26.157 7.73622H25.0514V8.84184H26.157V7.73622Z" fill="#913648"/>
<path d="M27.2618 7.73622H26.1562V8.84184H27.2618V7.73622ZM28.3674 7.73622H27.2618V8.84184H28.3674V7.73622ZM29.473 7.73622H28.3674V8.84184H29.473V7.73622Z" fill="#040404"/>
<path d="M30.3939 7.73622H29.2883V8.84184H30.3939V7.73622ZM31.4995 7.73622H30.3939V8.84184H31.4995V7.73622Z" fill="#C8CACF"/>
<path d="M32.6048 7.73622H31.4992V8.84184H32.6048V7.73622Z" fill="#C8CACF"/>
<path d="M33.7105 7.73622H32.6049V8.84184H33.7105V7.73622ZM8.29007 8.84184H7.18445V9.94746H8.29007V8.84184Z" fill="#080808"/>
<path d="M9.21006 8.84184H8.2892V9.94746H9.39482V8.84184H9.21006Z" fill="#828990"/>
<path d="M10.3159 8.84184H9.21032V9.94746H10.3159V8.84184Z" fill="#C7C8CB"/>
<path d="M12.5254 8.84184H11.4198V9.94746H12.5254V8.84184Z" fill="#D3D3D6"/>
<path d="M13.4469 8.84184H12.526V9.94746H13.6316V8.84184H13.4469Z" fill="#FBFBFC"/>
<path d="M14.5528 8.84184H13.4471V9.94746H14.5528V8.84184ZM15.6584 8.84184H14.5528V9.94746H15.6584V8.84184Z" fill="#0A0A0A"/>
<path d="M16.7637 8.84184H15.6581V9.94746H16.7637V8.84184ZM17.6846 8.84184H16.7637V9.94746H17.6846V8.84184ZM18.7902 8.84184H17.6846V9.94746H18.7902V8.84184Z" fill="#913648"/>
<path d="M19.8943 8.84184H18.7887V9.94746H19.8943V8.84184ZM21 8.84184H19.8943V9.94746H21V8.84184Z" fill="#B75868"/>
<path d="M21.9206 8.84184H20.9997V9.94746H22.1053V8.84184H21.9206Z" fill="#B75868"/>
<path d="M23.0264 8.84184H21.9208V9.94746H23.0264V8.84184ZM24.1321 8.84184H23.0264V9.94746H24.1321V8.84184Z" fill="#B75868"/>
<path d="M25.2359 8.84184H24.1303V9.94746H25.2359V8.84184Z" fill="#B75868"/>
<path d="M26.157 8.84184H25.0514V9.94746H26.157V8.84184Z" fill="#B75868"/>
<path d="M27.2618 8.84184H26.1562V9.94746H27.2618V8.84184Z" fill="#913648"/>
<path d="M28.368 8.84184H27.2624V9.94746H28.368V8.84184ZM29.4736 8.84184H28.368V9.94746H29.4736V8.84184Z" fill="#B75868"/>
<path d="M30.3939 8.84184H29.2883V9.94746H30.3939V8.84184Z" fill="#913648"/>
<path d="M31.5001 8.84184H30.3945V9.94746H31.5001V8.84184Z" fill="#040404"/>
<path d="M32.6048 8.84184H31.4992V9.94746H32.6048V8.84184ZM33.7105 8.84184H32.6048V9.94746H33.7105V8.84184Z" fill="#C8CACF"/>
<path d="M34.6307 8.84184H33.5251V9.94746H34.6307V8.84184ZM7.18385 9.94746H6.07823V10.8683H7.18385V9.94746Z" fill="#080808"/>
<path d="M8.29007 9.94746H7.18445V10.8683H8.29007V9.94746ZM9.21093 9.94746H8.29007V10.8683H9.39569V9.94746H9.21093Z" fill="#C7C8CB"/>
<path d="M10.3159 9.94746H9.21032V10.8683H10.3159V9.94746Z" fill="#445150"/>
<path d="M12.5254 9.94746H11.4198V10.8683H12.5254V9.94746Z" fill="#CDCED1"/>
<path d="M13.4469 9.94746H12.526V10.8683H13.6316V9.94746H13.4469Z" fill="#0A0A0A"/>
<path d="M14.5528 9.94746H13.4471V10.8683H14.5528V9.94746Z" fill="#913648"/>
<path d="M15.6575 9.94746H14.5519V10.8683H15.6575V9.94746Z" fill="#B75868"/>
<path d="M16.7637 9.94746H15.6581V10.8683H16.7637V9.94746ZM17.6846 9.94746H16.7637V10.8683H17.6846V9.94746ZM18.7902 9.94746H17.6846V10.8683H18.7902V9.94746Z" fill="#B75868"/>
<path d="M19.8943 9.94746H18.7887V10.8683H19.8943V9.94746ZM21 9.94746H19.8943V10.8683H21V9.94746Z" fill="#B75868"/>
<path d="M21.9206 9.94746H20.9997V10.8683H22.1053V9.94746H21.9206Z" fill="#B75868"/>
<path d="M23.0264 9.94746H21.9208V10.8683H23.0264V9.94746ZM24.1321 9.94746H23.0264V10.8683H24.1321V9.94746Z" fill="#B75868"/>
<path d="M25.2359 9.94746H24.1303V10.8683H25.2359V9.94746Z" fill="#B75868"/>
<path d="M26.157 9.94746H25.0514V10.8683H26.157V9.94746ZM27.2627 9.94746H26.157V10.8683H27.2627V9.94746ZM28.3683 9.94746H27.2627V10.8683H28.3683V9.94746ZM29.4739 9.94746H28.3683V10.8683H29.4739V9.94746Z" fill="#B75868"/>
<path d="M30.3939 9.94746H29.2883V10.8683H30.3939V9.94746Z" fill="#B75868"/>
<path d="M31.5001 9.94746H30.3945V10.8683H31.5001V9.94746Z" fill="#913648"/>
<path d="M32.6048 9.94746H31.4992V10.8683H32.6048V9.94746Z" fill="#040404"/>
<path d="M33.7096 9.94746H32.604V10.8683H33.7096V9.94746Z" fill="#C8CACF"/>
<path d="M34.6307 9.94746H33.5251V10.8683H34.6307V9.94746Z" fill="#C8CACF"/>
<path d="M35.7364 9.94746H34.6308V10.8683H35.7364V9.94746ZM7.18385 10.8683H6.07823V11.9739H7.18385V10.8683Z" fill="#080808"/>
<path d="M8.29007 10.8683H7.18445V11.974H8.29007V10.8683Z" fill="#C7C8CB"/>
<path d="M9.21006 10.8683H8.2892V11.974H9.39482V10.8683H9.21006Z" fill="#384544"/>
<path d="M10.3159 10.8683H9.21032V11.974H10.3159V10.8683Z" fill="#D3D3D6"/>
<path d="M12.5254 10.8683H11.4198V11.974H12.5254V10.8683Z" fill="#080808"/>
<path d="M13.4469 10.8683H12.526V11.974H13.6316V10.8683H13.4469Z" fill="#913648"/>
<path d="M14.5528 10.8683H13.4471V11.974H14.5528V10.8683ZM15.6584 10.8683H14.5528V11.974H15.6584V10.8683Z" fill="#B75868"/>
<path d="M16.7637 10.8683H15.6581V11.974H16.7637V10.8683ZM17.6846 10.8683H16.7637V11.974H17.6846V10.8683ZM18.7902 10.8683H17.6846V11.974H18.7902V10.8683Z" fill="#B75868"/>
<path d="M19.8943 10.8683H18.7887V11.974H19.8943V10.8683ZM21 10.8683H19.8943V11.974H21V10.8683Z" fill="#E5E6F0"/>
<path d="M21.9206 10.8683H20.9997V11.974H22.1053V10.8683H21.9206Z" fill="#E5E6F0"/>
<path d="M23.0264 10.8683H21.9208V11.974H23.0264V10.8683ZM24.1321 10.8683H23.0264V11.974H24.1321V10.8683Z" fill="#E5E6F0"/>
<path d="M25.2359 10.8683H24.1303V11.974H25.2359V10.8683Z" fill="#E5E6F0"/>
<path d="M26.157 10.8683H25.0514V11.974H26.157V10.8683Z" fill="#E5E6F0"/>
<path d="M27.2618 10.8683H26.1562V11.974H27.2618V10.8683ZM28.3674 10.8683H27.2618V11.974H28.3674V10.8683ZM29.473 10.8683H28.3674V11.974H29.473V10.8683Z" fill="#B75868"/>
<path d="M30.3939 10.8683H29.2883V11.974H30.3939V10.8683ZM31.4995 10.8683H30.3939V11.974H31.4995V10.8683Z" fill="#B75868"/>
<path d="M32.6048 10.8683H31.4992V11.974H32.6048V10.8683Z" fill="#913648"/>
<path d="M33.7096 10.8683H32.604V11.974H33.7096V10.8683Z" fill="#040404"/>
<path d="M34.6307 10.8683H33.5251V11.974H34.6307V10.8683Z" fill="#C8CACF"/>
<path d="M35.7369 10.8683H34.6313V11.974H35.7369V10.8683Z" fill="#313B3C"/>
<path d="M6.0791 11.974H4.97348V13.0796H6.0791V11.974Z" fill="#080808"/>
<path d="M7.18385 11.974H6.07823V13.0796H7.18385V11.974Z" fill="#C7C8CB"/>
<path d="M8.29007 11.974H7.18445V13.0796H8.29007V11.974Z" fill="#4E6360"/>
<path d="M9.21006 11.974H8.2892V13.0796H9.39482V11.974H9.21006Z" fill="#DBDADF"/>
<path d="M10.3159 11.974H9.21032V13.0796H10.3159V11.974Z" fill="#DBDADF"/>
<path d="M12.5254 11.974H11.4198V13.0796H12.5254V11.974Z" fill="#913648"/>
<path d="M13.4469 11.974H12.526V13.0796H13.6316V11.974H13.4469Z" fill="#B75868"/>
<path d="M14.5528 11.974H13.4471V13.0796H14.5528V11.974ZM15.6584 11.974H14.5528V13.0796H15.6584V11.974Z" fill="#B75868"/>
<path d="M16.7637 11.974H15.6581V13.0796H16.7637V11.974ZM17.6846 11.974H16.7637V13.0796H17.6846V11.974ZM18.7902 11.974H17.6846V13.0796H18.7902V11.974Z" fill="#B75868"/>
<path d="M19.8943 11.974H18.7887V13.0796H19.8943V11.974ZM21 11.974H19.8943V13.0796H21V11.974Z" fill="#E5E6F0"/>
<path d="M21.9206 11.974H20.9997V13.0796H22.1053V11.974H21.9206Z" fill="#E5E6F0"/>
<path d="M23.0264 11.974H21.9208V13.0796H23.0264V11.974ZM24.1321 11.974H23.0264V13.0796H24.1321V11.974Z" fill="#E5E6F0"/>
<path d="M25.2359 11.974H24.1303V13.0796H25.2359V11.974Z" fill="#E5E6F0"/>
<path d="M26.157 11.974H25.0514V13.0796H26.157V11.974Z" fill="#E5E6F0"/>
<path d="M27.2618 11.974H26.1562V13.0796H27.2618V11.974ZM28.3674 11.974H27.2618V13.0796H28.3674V11.974ZM29.473 11.974H28.3674V13.0796H29.473V11.974Z" fill="#B75868"/>
<path d="M30.3939 11.974H29.2883V13.0796H30.3939V11.974ZM31.4995 11.974H30.3939V13.0796H31.4995V11.974Z" fill="#B75868"/>
<path d="M32.6048 11.974H31.4992V13.0796H32.6048V11.974Z" fill="#B75868"/>
<path d="M33.7096 11.974H32.604V13.0796H33.7096V11.974Z" fill="#913648"/>
<path d="M34.6307 11.974H33.5251V13.0796H34.6307V11.974Z" fill="#43524E"/>
<path d="M35.7369 11.974H34.6313V13.0796H35.7369V11.974Z" fill="#E3E2EA"/>
<path d="M36.8417 11.974H35.7361V13.0796H36.8417V11.974Z" fill="#080808"/>
<path d="M6.0791 13.0781H4.97348V14.1837H6.0791V13.0781Z" fill="#131919"/>
<path d="M7.18385 13.0781H6.07823V14.1837H7.18385V13.0781Z" fill="#C7C8CB"/>
<path d="M8.29007 13.0781H7.18445V14.1837H8.29007V13.0781Z" fill="#4E6360"/>
<path d="M9.21006 13.0781H8.2892V14.1837H9.39482V13.0781H9.21006Z" fill="#DBDADF"/>
<path d="M10.3159 13.0781H9.21032V14.1837H10.3159V13.0781Z" fill="#DBDADF"/>
<path d="M12.5254 13.0781H11.4198V14.1837H12.5254V13.0781ZM13.4463 13.0781H12.5254V14.1837H13.6311V13.0781H13.4463Z" fill="#B75868"/>
<path d="M14.5528 13.0781H13.4471V14.1837H14.5528V13.0781ZM15.6584 13.0781H14.5528V14.1837H15.6584V13.0781Z" fill="#B75868"/>
<path d="M16.7637 13.0781H15.6581V14.1837H16.7637V13.0781ZM17.6846 13.0781H16.7637V14.1837H17.6846V13.0781ZM18.7902 13.0781H17.6846V14.1837H18.7902V13.0781Z" fill="#B75868"/>
<path d="M19.8943 13.0781H18.7887V14.1837H19.8943V13.0781ZM21 13.0781H19.8943V14.1837H21V13.0781Z" fill="#E5E6F0"/>
<path d="M21.9206 13.0781H20.9997V14.1837H22.1053V13.0781H21.9206Z" fill="#E5E6F0"/>
<path d="M23.0264 13.0781H21.9208V14.1837H23.0264V13.0781ZM24.1321 13.0781H23.0264V14.1837H24.1321V13.0781Z" fill="#E5E6F0"/>
<path d="M25.2359 13.0781H24.1303V14.1837H25.2359V13.0781Z" fill="#E5E6F0"/>
<path d="M26.157 13.0781H25.0514V14.1837H26.157V13.0781Z" fill="#E5E6F0"/>
<path d="M27.2618 13.0781H26.1562V14.1837H27.2618V13.0781ZM28.3674 13.0781H27.2618V14.1837H28.3674V13.0781ZM29.473 13.0781H28.3674V14.1837H29.473V13.0781Z" fill="#B75868"/>
<path d="M30.3939 13.0781H29.2883V14.1837H30.3939V13.0781ZM31.4995 13.0781H30.3939V14.1837H31.4995V13.0781Z" fill="#B75868"/>
<path d="M32.6048 13.0781H31.4992V14.1837H32.6048V13.0781Z" fill="#B75868"/>
<path d="M33.7096 13.0781H32.604V14.1837H33.7096V13.0781Z" fill="#913648"/>
<path d="M34.6307 13.0781H33.5251V14.1837H34.6307V13.0781Z" fill="#43524E"/>
<path d="M35.7369 13.0781H34.6313V14.1837H35.7369V13.0781Z" fill="#E3E2EA"/>
<path d="M36.8417 13.0781H35.7361V14.1837H36.8417V13.0781Z" fill="#090A0A"/>
<path d="M6.0791 14.1837H4.97348V15.2893H6.0791V14.1837Z" fill="#131919"/>
<path d="M7.18385 14.1837H6.07823V15.2893H7.18385V14.1837Z" fill="#C7C8CB"/>
<path d="M8.29007 14.1837H7.18445V15.2893H8.29007V14.1837Z" fill="#364B47"/>
<path d="M9.21006 14.1837H8.2892V15.2893H9.39482V14.1837H9.21006Z" fill="#DBDADF"/>
<path d="M10.3159 14.1837H9.21032V15.2893H10.3159V14.1837Z" fill="#0A0A0A"/>
<path d="M12.5254 14.1837H11.4198V15.2893H12.5254V14.1837ZM13.4463 14.1837H12.5254V15.2893H13.6311V14.1837H13.4463Z" fill="#B75868"/>
<path d="M14.5528 14.1837H13.4471V15.2893H14.5528V14.1837ZM15.6584 14.1837H14.5528V15.2893H15.6584V14.1837Z" fill="#B75868"/>
<path d="M16.7637 14.1837H15.6581V15.2893H16.7637V14.1837ZM17.6846 14.1837H16.7637V15.2893H17.6846V14.1837ZM18.7902 14.1837H17.6846V15.2893H18.7902V14.1837Z" fill="#B75868"/>
<path d="M19.8943 14.1837H18.7887V15.2893H19.8943V14.1837ZM21 14.1837H19.8943V15.2893H21V14.1837Z" fill="#E5E6F0"/>
<path d="M21.9206 14.1837H20.9997V15.2893H22.1053V14.1837H21.9206Z" fill="#E5E6F0"/>
<path d="M23.0264 14.1837H21.9208V15.2893H23.0264V14.1837ZM24.1321 14.1837H23.0264V15.2893H24.1321V14.1837Z" fill="#E5E6F0"/>
<path d="M25.2359 14.1837H24.1303V15.2893H25.2359V14.1837Z" fill="#E5E6F0"/>
<path d="M26.157 14.1837H25.0514V15.2893H26.157V14.1837Z" fill="#E5E6F0"/>
<path d="M27.2618 14.1837H26.1562V15.2893H27.2618V14.1837ZM28.3674 14.1837H27.2618V15.2893H28.3674V14.1837ZM29.473 14.1837H28.3674V15.2893H29.473V14.1837Z" fill="#B75868"/>
<path d="M30.3939 14.1837H29.2883V15.2893H30.3939V14.1837ZM31.4995 14.1837H30.3939V15.2893H31.4995V14.1837Z" fill="#B75868"/>
<path d="M32.6048 14.1837H31.4992V15.2893H32.6048V14.1837ZM33.7105 14.1837H32.6048V15.2893H33.7105V14.1837Z" fill="#B75868"/>
<path d="M34.6307 14.1837H33.5251V15.2893H34.6307V14.1837Z" fill="#913648"/>
<path d="M35.7369 14.1837H34.6313V15.2893H35.7369V14.1837Z" fill="#434F52"/>
<path d="M36.8417 14.1837H35.7361V15.2893H36.8417V14.1837Z" fill="#CDCED1"/>
<path d="M37.9468 14.1837H36.8411V15.2893H37.9468V14.1837ZM4.9747 15.1046H4.05384V16.2102H5.15946V15.1046H4.9747Z" fill="#080808"/>
<path d="M6.0791 15.1046H4.97348V16.2102H6.0791V15.1046Z" fill="#C7C8CB"/>
<path d="M7.18385 15.1046H6.07823V16.2102H7.18385V15.1046Z" fill="#4E6360"/>
<path d="M8.29007 15.1046H7.18445V16.2102H8.29007V15.1046Z" fill="#F3F3F5"/>
<path d="M9.21006 15.1046H8.2892V16.2102H9.39482V15.1046H9.21006Z" fill="#DBDADF"/>
<path d="M10.3159 15.1046H9.21032V16.2102H10.3159V15.1046Z" fill="#040404"/>
<path d="M12.5254 15.1046H11.4198V16.2102H12.5254V15.1046ZM13.4463 15.1046H12.5254V16.2102H13.6311V15.1046H13.4463Z" fill="#B75868"/>
<path d="M14.5528 15.1046H13.4471V16.2102H14.5528V15.1046ZM15.6584 15.1046H14.5528V16.2102H15.6584V15.1046Z" fill="#B75868"/>
<path d="M16.7637 15.1046H15.6581V16.2102H16.7637V15.1046ZM17.6846 15.1046H16.7637V16.2102H17.6846V15.1046ZM18.7902 15.1046H17.6846V16.2102H18.7902V15.1046Z" fill="#B75868"/>
<path d="M19.8943 15.1046H18.7887V16.2102H19.8943V15.1046ZM21 15.1046H19.8943V16.2102H21V15.1046Z" fill="#E5E6F0"/>
<path d="M21.9206 15.1046H20.9997V16.2102H22.1053V15.1046H21.9206Z" fill="#E5E6F0"/>
<path d="M23.0264 15.1046H21.9208V16.2102H23.0264V15.1046ZM24.1321 15.1046H23.0264V16.2102H24.1321V15.1046Z" fill="#E5E6F0"/>
<path d="M25.2359 15.1046H24.1303V16.2102H25.2359V15.1046Z" fill="#E5E6F0"/>
<path d="M26.157 15.1046H25.0514V16.2102H26.157V15.1046Z" fill="#E5E6F0"/>
<path d="M27.2618 15.1046H26.1562V16.2102H27.2618V15.1046ZM28.3674 15.1046H27.2618V16.2102H28.3674V15.1046ZM29.473 15.1046H28.3674V16.2102H29.473V15.1046Z" fill="#B75868"/>
<path d="M30.3939 15.1046H29.2883V16.2102H30.3939V15.1046ZM31.4995 15.1046H30.3939V16.2102H31.4995V15.1046Z" fill="#B75868"/>
<path d="M32.6048 15.1046H31.4992V16.2102H32.6048V15.1046ZM33.7105 15.1046H32.6048V16.2102H33.7105V15.1046Z" fill="#B75868"/>
<path d="M34.6307 15.1046H33.5251V16.2102H34.6307V15.1046Z" fill="#B75868"/>
<path d="M35.7369 15.1046H34.6313V16.2102H35.7369V15.1046Z" fill="#434F52"/>
<path d="M36.8417 15.1046H35.7361V16.2102H36.8417V15.1046Z" fill="#CDCED1"/>
<path d="M37.9464 15.1046H36.8408V16.2102H37.9464V15.1046Z" fill="#1E292A"/>
<path d="M4.9747 16.2102H4.05384V17.3158H5.15946V16.2102H4.9747Z" fill="#080808"/>
<path d="M6.0791 16.2102H4.97348V17.3158H6.0791V16.2102Z" fill="#B1B5B8"/>
<path d="M7.18385 16.2102H6.07823V17.3158H7.18385V16.2102Z" fill="#374C4A"/>
<path d="M8.29007 16.2102H7.18445V17.3158H8.29007V16.2102ZM9.21093 16.2102H8.29007V17.3158H9.39569V16.2102H9.21093Z" fill="#DBDADF"/>
<path d="M10.3159 16.2102H9.21032V17.3158H10.3159V16.2102Z" fill="#040404"/>
<path d="M12.5254 16.2102H11.4198V17.3158H12.5254V16.2102ZM13.4463 16.2102H12.5254V17.3158H13.6311V16.2102H13.4463Z" fill="#B75868"/>
<path d="M14.5528 16.2102H13.4471V17.3158H14.5528V16.2102ZM15.6584 16.2102H14.5528V17.3158H15.6584V16.2102Z" fill="#B75868"/>
<path d="M16.7637 16.2102H15.6581V17.3158H16.7637V16.2102ZM17.6846 16.2102H16.7637V17.3158H17.6846V16.2102ZM18.7902 16.2102H17.6846V17.3158H18.7902V16.2102Z" fill="#B75868"/>
<path d="M19.8943 16.2102H18.7887V17.3158H19.8943V16.2102Z" fill="white"/>
<path d="M20.9991 16.2102H19.8935V17.3158H20.9991V16.2102Z" fill="#E5E6F0"/>
<path d="M21.9206 16.2102H20.9997V17.3158H22.1053V16.2102H21.9206Z" fill="#E5E6F0"/>
<path d="M23.0264 16.2102H21.9208V17.3158H23.0264V16.2102ZM24.1321 16.2102H23.0264V17.3158H24.1321V16.2102Z" fill="#E5E6F0"/>
<path d="M25.2359 16.2102H24.1303V17.3158H25.2359V16.2102Z" fill="#E5E6F0"/>
<path d="M26.157 16.2102H25.0514V17.3158H26.157V16.2102Z" fill="#E5E6F0"/>
<path d="M27.2618 16.2102H26.1562V17.3158H27.2618V16.2102ZM28.3674 16.2102H27.2618V17.3158H28.3674V16.2102ZM29.473 16.2102H28.3674V17.3158H29.473V16.2102Z" fill="#B75868"/>
<path d="M30.3939 16.2102H29.2883V17.3158H30.3939V16.2102ZM31.4995 16.2102H30.3939V17.3158H31.4995V16.2102Z" fill="#B75868"/>
<path d="M32.6048 16.2102H31.4992V17.3158H32.6048V16.2102ZM33.7105 16.2102H32.6048V17.3158H33.7105V16.2102Z" fill="#B75868"/>
<path d="M34.6307 16.2102H33.5251V17.3158H34.6307V16.2102Z" fill="#B75868"/>
<path d="M35.7369 16.2102H34.6313V17.3158H35.7369V16.2102Z" fill="#323E40"/>
<path d="M36.8417 16.2102H35.7361V17.3158H36.8417V16.2102Z" fill="#CDCED1"/>
<path d="M37.9464 16.2102H36.8408V17.3158H37.9464V16.2102Z" fill="#1E292A"/>
<path d="M4.05324 17.3158H2.94762V18.4214H4.05324V17.3158Z" fill="#040404"/>
<path d="M4.9747 17.3158H4.05384V18.4214H5.15946V17.3158H4.9747Z" fill="#757B83"/>
<path d="M6.0791 17.3158H4.97348V18.4214H6.0791V17.3158Z" fill="#2E403B"/>
<path d="M7.18385 17.3158H6.07823V18.4214H7.18385V17.3158ZM8.28947 17.3158H7.18385V18.4214H8.28947V17.3158Z" fill="#F1F1F4"/>
<path d="M9.21006 17.3158H8.2892V18.4214H9.39482V17.3158H9.21006Z" fill="#040404"/>
<path d="M10.3159 17.3158H9.21032V18.4214H10.3159V17.3158ZM12.5257 17.3158H11.4201V18.4214H12.5257V17.3158Z" fill="#B75868"/>
<path d="M13.4469 17.3158H12.526V18.4214H13.6316V17.3158H13.4469Z" fill="white"/>
<path d="M14.5528 17.3158H13.4471V18.4214H14.5528V17.3158ZM15.6584 17.3158H14.5528V18.4214H15.6584V17.3158Z" fill="white"/>
<path d="M16.7637 17.3158H15.6581V18.4214H16.7637V17.3158ZM17.6846 17.3158H16.7637V18.4214H17.6846V17.3158ZM18.7902 17.3158H17.6846V18.4214H18.7902V17.3158Z" fill="white"/>
<path d="M19.8943 17.3158H18.7887V18.4214H19.8943V17.3158Z" fill="white"/>
<path d="M20.9991 17.3158H19.8935V18.4214H20.9991V17.3158Z" fill="#E5E6F0"/>
<path d="M21.9206 17.3158H20.9997V18.4214H22.1053V17.3158H21.9206Z" fill="#E5E6F0"/>
<path d="M23.0264 17.3158H21.9208V18.4214H23.0264V17.3158ZM24.1321 17.3158H23.0264V18.4214H24.1321V17.3158Z" fill="#E5E6F0"/>
<path d="M25.2359 17.3158H24.1303V18.4214H25.2359V17.3158Z" fill="#E5E6F0"/>
<path d="M26.157 17.3158H25.0514V18.4214H26.157V17.3158Z" fill="#E5E6F0"/>
<path d="M27.2618 17.3158H26.1562V18.4214H27.2618V17.3158ZM28.3674 17.3158H27.2618V18.4214H28.3674V17.3158ZM29.473 17.3158H28.3674V18.4214H29.473V17.3158Z" fill="white"/>
<path d="M30.3939 17.3158H29.2883V18.4214H30.3939V17.3158ZM31.4995 17.3158H30.3939V18.4214H31.4995V17.3158Z" fill="white"/>
<path d="M32.6048 17.3158H31.4992V18.4214H32.6048V17.3158Z" fill="#E5E6F0"/>
<path d="M33.7096 17.3158H32.604V18.4214H33.7096V17.3158Z" fill="#B75868"/>
<path d="M34.6307 17.3158H33.5251V18.4214H34.6307V17.3158Z" fill="#B75868"/>
<path d="M35.7369 17.3158H34.6313V18.4214H35.7369V17.3158Z" fill="#8D3748"/>
<path d="M36.8417 17.3158H35.7361V18.4214H36.8417V17.3158Z" fill="#1C252E"/>
<path d="M37.9464 17.3158H36.8408V18.4214H37.9464V17.3158Z" fill="#DCDBE0"/>
<path d="M38.867 17.3158H37.9462V18.4214H39.0518V17.3158H38.867ZM4.05324 18.42H2.94762V19.5256H4.05324V18.42Z" fill="#040404"/>
<path d="M4.9747 18.42H4.05384V19.5256H5.15946V18.42H4.9747Z" fill="#C2C5C9"/>
<path d="M6.0791 18.42H4.97348V19.5256H6.0791V18.42Z" fill="#374543"/>
<path d="M7.18385 18.42H6.07823V19.5256H7.18385V18.42ZM8.28947 18.42H7.18385V19.5256H8.28947V18.42Z" fill="#F1F1F4"/>
<path d="M9.21006 18.42H8.2892V19.5256H9.39482V18.42H9.21006Z" fill="#040404"/>
<path d="M10.3159 18.42H9.21032V19.5256H10.3159V18.42ZM12.5257 18.42H11.4201V19.5256H12.5257V18.42Z" fill="#B75868"/>
<path d="M13.4469 18.42H12.526V19.5256H13.6316V18.42H13.4469Z" fill="white"/>
<path d="M14.5528 18.42H13.4471V19.5256H14.5528V18.42ZM15.6584 18.42H14.5528V19.5256H15.6584V18.42Z" fill="#E5E6F0"/>
<path d="M16.7637 18.42H15.6581V19.5256H16.7637V18.42ZM17.6846 18.42H16.7637V19.5256H17.6846V18.42ZM18.7902 18.42H17.6846V19.5256H18.7902V18.42Z" fill="#E5E6F0"/>
<path d="M19.8943 18.42H18.7887V19.5256H19.8943V18.42ZM21 18.42H19.8943V19.5256H21V18.42Z" fill="#E5E6F0"/>
<path d="M21.9206 18.42H20.9997V19.5256H22.1053V18.42H21.9206Z" fill="#E5E6F0"/>
<path d="M23.0264 18.42H21.9208V19.5256H23.0264V18.42ZM24.1321 18.42H23.0264V19.5256H24.1321V18.42Z" fill="#E5E6F0"/>
<path d="M25.2359 18.42H24.1303V19.5256H25.2359V18.42Z" fill="#E5E6F0"/>
<path d="M26.157 18.42H25.0514V19.5256H26.157V18.42ZM27.2627 18.42H26.157V19.5256H27.2627V18.42ZM28.3683 18.42H27.2627V19.5256H28.3683V18.42ZM29.4739 18.42H28.3683V19.5256H29.4739V18.42Z" fill="#E5E6F0"/>
<path d="M30.3939 18.42H29.2883V19.5256H30.3939V18.42ZM31.4995 18.42H30.3939V19.5256H31.4995V18.42Z" fill="#E5E6F0"/>
<path d="M32.6048 18.42H31.4992V19.5256H32.6048V18.42Z" fill="#E5E6F0"/>
<path d="M33.7096 18.42H32.604V19.5256H33.7096V18.42Z" fill="#B75868"/>
<path d="M34.6307 18.42H33.5251V19.5256H34.6307V18.42Z" fill="#B75868"/>
<path d="M35.7369 18.42H34.6313V19.5256H35.7369V18.42Z" fill="#8D3748"/>
<path d="M36.8417 18.42H35.7361V19.5256H36.8417V18.42Z" fill="#1C252E"/>
<path d="M37.9464 18.42H36.8408V19.5256H37.9464V18.42Z" fill="#DCDBE0"/>
<path d="M38.867 18.42H37.9462V19.5256H39.0518V18.42H38.867ZM4.05324 19.3423H2.94762V20.4479H4.05324V19.3423Z" fill="#040404"/>
<path d="M4.9747 19.3423H4.05384V20.4479H5.15946V19.3423H4.9747Z" fill="#C2C5C9"/>
<path d="M6.0791 19.3423H4.97348V20.4479H6.0791V19.3423Z" fill="#374543"/>
<path d="M7.18385 19.3423H6.07823V20.4479H7.18385V19.3423ZM8.28947 19.3423H7.18385V20.4479H8.28947V19.3423Z" fill="#F1F1F4"/>
<path d="M9.21006 19.3423H8.2892V20.4479H9.39482V19.3423H9.21006Z" fill="#040404"/>
<path d="M10.3159 19.3423H9.21032V20.4479H10.3159V19.3423ZM12.5257 19.3423H11.4201V20.4479H12.5257V19.3423Z" fill="#B75868"/>
<path d="M13.4469 19.3423H12.526V20.4479H13.6316V19.3423H13.4469Z" fill="white"/>
<path d="M14.5528 19.3423H13.4471V20.4479H14.5528V19.3423ZM15.6584 19.3423H14.5528V20.4479H15.6584V19.3423Z" fill="#E5E6F0"/>
<path d="M16.7637 19.3423H15.6581V20.4479H16.7637V19.3423ZM17.6846 19.3423H16.7637V20.4479H17.6846V19.3423ZM18.7902 19.3423H17.6846V20.4479H18.7902V19.3423Z" fill="#E5E6F0"/>
<path d="M19.8943 19.3423H18.7887V20.4479H19.8943V19.3423ZM21 19.3423H19.8943V20.4479H21V19.3423Z" fill="#E5E6F0"/>
<path d="M21.9206 19.3423H20.9997V20.4479H22.1053V19.3423H21.9206Z" fill="#E5E6F0"/>
<path d="M23.0264 19.3423H21.9208V20.4479H23.0264V19.3423ZM24.1321 19.3423H23.0264V20.4479H24.1321V19.3423Z" fill="#E5E6F0"/>
<path d="M25.2359 19.3423H24.1303V20.4479H25.2359V19.3423Z" fill="#E5E6F0"/>
<path d="M26.157 19.3423H25.0514V20.4479H26.157V19.3423ZM27.2627 19.3423H26.157V20.4479H27.2627V19.3423ZM28.3683 19.3423H27.2627V20.4479H28.3683V19.3423ZM29.4739 19.3423H28.3683V20.4479H29.4739V19.3423Z" fill="#E5E6F0"/>
<path d="M30.3939 19.3423H29.2883V20.4479H30.3939V19.3423ZM31.4995 19.3423H30.3939V20.4479H31.4995V19.3423Z" fill="#E5E6F0"/>
<path d="M32.6048 19.3423H31.4992V20.4479H32.6048V19.3423Z" fill="#E5E6F0"/>
<path d="M33.7096 19.3423H32.604V20.4479H33.7096V19.3423Z" fill="#B75868"/>
<path d="M34.6307 19.3423H33.5251V20.4479H34.6307V19.3423Z" fill="#B75868"/>
<path d="M35.7369 19.3423H34.6313V20.4479H35.7369V19.3423Z" fill="#8D3748"/>
<path d="M36.8417 19.3423H35.7361V20.4479H36.8417V19.3423Z" fill="#1C252E"/>
<path d="M37.9464 19.3423H36.8408V20.4479H37.9464V19.3423Z" fill="#DCDBE0"/>
<path d="M38.867 19.3423H37.9462V20.4479H39.0518V19.3423H38.867ZM4.05324 20.4464H2.94762V21.5521H4.05324V20.4464Z" fill="#040404"/>
<path d="M4.9747 20.4464H4.05384V21.5521H5.15946V20.4464H4.9747Z" fill="#C2C5C9"/>
<path d="M6.0791 20.4464H4.97348V21.5521H6.0791V20.4464Z" fill="#374543"/>
<path d="M7.18385 20.4464H6.07823V21.5521H7.18385V20.4464ZM8.28947 20.4464H7.18385V21.5521H8.28947V20.4464Z" fill="#F1F1F4"/>
<path d="M9.21006 20.4464H8.2892V21.5521H9.39482V20.4464H9.21006Z" fill="#040404"/>
<path d="M10.3159 20.4464H9.21032V21.5521H10.3159V20.4464ZM12.5257 20.4464H11.4201V21.5521H12.5257V20.4464Z" fill="#B75868"/>
<path d="M13.4469 20.4464H12.526V21.5521H13.6316V20.4464H13.4469Z" fill="white"/>
<path d="M14.5528 20.4464H13.4471V21.5521H14.5528V20.4464ZM15.6584 20.4464H14.5528V21.5521H15.6584V20.4464Z" fill="#E5E6F0"/>
<path d="M16.7637 20.4464H15.6581V21.5521H16.7637V20.4464ZM17.6846 20.4464H16.7637V21.5521H17.6846V20.4464ZM18.7902 20.4464H17.6846V21.5521H18.7902V20.4464Z" fill="#E5E6F0"/>
<path d="M19.8943 20.4464H18.7887V21.5521H19.8943V20.4464ZM21 20.4464H19.8943V21.5521H21V20.4464Z" fill="#E5E6F0"/>
<path d="M21.9206 20.4464H20.9997V21.5521H22.1053V20.4464H21.9206Z" fill="#E5E6F0"/>
<path d="M23.0264 20.4464H21.9208V21.5521H23.0264V20.4464ZM24.1321 20.4464H23.0264V21.5521H24.1321V20.4464Z" fill="#E5E6F0"/>
<path d="M25.2359 20.4464H24.1303V21.5521H25.2359V20.4464Z" fill="#E5E6F0"/>
<path d="M26.157 20.4464H25.0514V21.5521H26.157V20.4464ZM27.2627 20.4464H26.157V21.5521H27.2627V20.4464ZM28.3683 20.4464H27.2627V21.5521H28.3683V20.4464ZM29.4739 20.4464H28.3683V21.5521H29.4739V20.4464Z" fill="#E5E6F0"/>
<path d="M30.3939 20.4464H29.2883V21.5521H30.3939V20.4464ZM31.4995 20.4464H30.3939V21.5521H31.4995V20.4464Z" fill="#E5E6F0"/>
<path d="M32.6048 20.4464H31.4992V21.5521H32.6048V20.4464Z" fill="#E5E6F0"/>
<path d="M33.7096 20.4464H32.604V21.5521H33.7096V20.4464Z" fill="#B75868"/>
<path d="M34.6307 20.4464H33.5251V21.5521H34.6307V20.4464ZM35.7363 20.4464H34.6307V21.5521H35.7363V20.4464Z" fill="#B75868"/>
<path d="M36.8417 20.4464H35.7361V21.5521H36.8417V20.4464Z" fill="#1C252E"/>
<path d="M37.9464 20.4464H36.8408V21.5521H37.9464V20.4464Z" fill="#DCDBE0"/>
<path d="M38.867 20.4464H37.9462V21.5521H39.0518V20.4464H38.867ZM4.05324 21.5521H2.94762V22.6577H4.05324V21.5521Z" fill="#040404"/>
<path d="M4.9747 21.5521H4.05384V22.6577H5.15946V21.5521H4.9747Z" fill="#C2C5C9"/>
<path d="M6.0791 21.5521H4.97348V22.6577H6.0791V21.5521Z" fill="#374543"/>
<path d="M7.18385 21.5521H6.07823V22.6577H7.18385V21.5521ZM8.28947 21.5521H7.18385V22.6577H8.28947V21.5521Z" fill="#F1F1F4"/>
<path d="M9.21006 21.5521H8.2892V22.6577H9.39482V21.5521H9.21006Z" fill="#040404"/>
<path d="M10.3159 21.5521H9.21032V22.6577H10.3159V21.5521ZM12.5257 21.5521H11.4201V22.6577H12.5257V21.5521Z" fill="#B75868"/>
<path d="M13.4469 21.5521H12.526V22.6577H13.6316V21.5521H13.4469Z" fill="white"/>
<path d="M14.5528 21.5521H13.4471V22.6577H14.5528V21.5521ZM15.6584 21.5521H14.5528V22.6577H15.6584V21.5521Z" fill="#E5E6F0"/>
<path d="M16.7637 21.5521H15.6581V22.6577H16.7637V21.5521ZM17.6846 21.5521H16.7637V22.6577H17.6846V21.5521ZM18.7902 21.5521H17.6846V22.6577H18.7902V21.5521Z" fill="#E5E6F0"/>
<path d="M19.8943 21.5521H18.7887V22.6577H19.8943V21.5521ZM21 21.5521H19.8943V22.6577H21V21.5521Z" fill="#E5E6F0"/>
<path d="M21.9206 21.5521H20.9997V22.6577H22.1053V21.5521H21.9206Z" fill="#E5E6F0"/>
<path d="M23.0264 21.5521H21.9208V22.6577H23.0264V21.5521ZM24.1321 21.5521H23.0264V22.6577H24.1321V21.5521Z" fill="#E5E6F0"/>
<path d="M25.2359 21.5521H24.1303V22.6577H25.2359V21.5521Z" fill="#E5E6F0"/>
<path d="M26.157 21.5521H25.0514V22.6577H26.157V21.5521ZM27.2627 21.5521H26.157V22.6577H27.2627V21.5521ZM28.3683 21.5521H27.2627V22.6577H28.3683V21.5521ZM29.4739 21.5521H28.3683V22.6577H29.4739V21.5521Z" fill="#E5E6F0"/>
<path d="M30.3939 21.5521H29.2883V22.6577H30.3939V21.5521ZM31.4995 21.5521H30.3939V22.6577H31.4995V21.5521Z" fill="#E5E6F0"/>
<path d="M32.6048 21.5521H31.4992V22.6577H32.6048V21.5521Z" fill="#E5E6F0"/>
<path d="M33.7096 21.5521H32.604V22.6577H33.7096V21.5521Z" fill="#B75868"/>
<path d="M34.6307 21.5521H33.5251V22.6577H34.6307V21.5521ZM35.7363 21.5521H34.6307V22.6577H35.7363V21.5521Z" fill="#B75868"/>
<path d="M36.8417 21.5521H35.7361V22.6577H36.8417V21.5521Z" fill="#1C252E"/>
<path d="M37.9464 21.5521H36.8408V22.6577H37.9464V21.5521Z" fill="#DCDBE0"/>
<path d="M38.867 21.5521H37.9462V22.6577H39.0518V21.5521H38.867ZM4.05324 22.6577H2.94762V23.7633H4.05324V22.6577Z" fill="#040404"/>
<path d="M4.9747 22.6577H4.05384V23.7633H5.15946V22.6577H4.9747Z" fill="#C2C5C9"/>
<path d="M6.0791 22.6577H4.97348V23.7633H6.0791V22.6577Z" fill="#2E403B"/>
<path d="M7.18385 22.6577H6.07823V23.7633H7.18385V22.6577ZM8.28947 22.6577H7.18385V23.7633H8.28947V22.6577Z" fill="#F1F1F4"/>
<path d="M9.21006 22.6577H8.2892V23.7633H9.39482V22.6577H9.21006Z" fill="#040404"/>
<path d="M10.3159 22.6577H9.21032V23.7633H10.3159V22.6577ZM12.5257 22.6577H11.4201V23.7633H12.5257V22.6577Z" fill="#B75868"/>
<path d="M13.4469 22.6577H12.526V23.7633H13.6316V22.6577H13.4469Z" fill="white"/>
<path d="M14.5528 22.6577H13.4471V23.7633H14.5528V22.6577ZM15.6584 22.6577H14.5528V23.7633H15.6584V22.6577Z" fill="#E5E6F0"/>
<path d="M16.7637 22.6577H15.6581V23.7633H16.7637V22.6577ZM17.6846 22.6577H16.7637V23.7633H17.6846V22.6577ZM18.7902 22.6577H17.6846V23.7633H18.7902V22.6577Z" fill="#E5E6F0"/>
<path d="M19.8943 22.6577H18.7887V23.7633H19.8943V22.6577ZM21 22.6577H19.8943V23.7633H21V22.6577Z" fill="#E5E6F0"/>
<path d="M21.9206 22.6577H20.9997V23.7633H22.1053V22.6577H21.9206Z" fill="#E5E6F0"/>
<path d="M23.0264 22.6577H21.9208V23.7633H23.0264V22.6577ZM24.1321 22.6577H23.0264V23.7633H24.1321V22.6577Z" fill="#E5E6F0"/>
<path d="M25.2359 22.6577H24.1303V23.7633H25.2359V22.6577Z" fill="#E5E6F0"/>
<path d="M26.157 22.6577H25.0514V23.7633H26.157V22.6577Z" fill="#E5E6F0"/>
<path d="M27.2618 22.6577H26.1562V23.7633H27.2618V22.6577ZM28.3674 22.6577H27.2618V23.7633H28.3674V22.6577ZM29.473 22.6577H28.3674V23.7633H29.473V22.6577Z" fill="#B8B8D2"/>
<path d="M30.3939 22.6577H29.2883V23.7633H30.3939V22.6577ZM31.4995 22.6577H30.3939V23.7633H31.4995V22.6577Z" fill="#B8B8D2"/>
<path d="M32.6048 22.6577H31.4992V23.7633H32.6048V22.6577Z" fill="#B8B8D2"/>
<path d="M33.7096 22.6577H32.604V23.7633H33.7096V22.6577Z" fill="#913648"/>
<path d="M34.6307 22.6577H33.5251V23.7633H34.6307V22.6577ZM35.7363 22.6577H34.6307V23.7633H35.7363V22.6577Z" fill="#B75868"/>
<path d="M36.8417 22.6577H35.7361V23.7633H36.8417V22.6577Z" fill="#1C252E"/>
<path d="M37.9464 22.6577H36.8408V23.7633H37.9464V22.6577Z" fill="#DCDBE0"/>
<path d="M38.867 22.6577H37.9462V23.7633H39.0518V22.6577H38.867ZM4.05324 23.5785H2.94762V24.6842H4.05324V23.5785Z" fill="#040404"/>
<path d="M4.9747 23.5785H4.05384V24.6841H5.15946V23.5785H4.9747Z" fill="#757B83"/>
<path d="M6.0791 23.5785H4.97348V24.6841H6.0791V23.5785Z" fill="#2E403B"/>
<path d="M7.18385 23.5785H6.07823V24.6841H7.18385V23.5785Z" fill="#BDBAD5"/>
<path d="M8.29007 23.5785H7.18445V24.6841H8.29007V23.5785Z" fill="#F1F1F4"/>
<path d="M9.21006 23.5785H8.2892V24.6841H9.39482V23.5785H9.21006Z" fill="#040404"/>
<path d="M10.3159 23.5785H9.21032V24.6841H10.3159V23.5785ZM12.5257 23.5785H11.4201V24.6841H12.5257V23.5785Z" fill="#B75868"/>
<path d="M13.4469 23.5785H12.526V24.6841H13.6316V23.5785H13.4469Z" fill="#BABAD4"/>
<path d="M14.5528 23.5785H13.4471V24.6841H14.5528V23.5785ZM15.6584 23.5785H14.5528V24.6841H15.6584V23.5785Z" fill="#BABAD4"/>
<path d="M16.7637 23.5785H15.6581V24.6841H16.7637V23.5785ZM17.6846 23.5785H16.7637V24.6841H17.6846V23.5785ZM18.7902 23.5785H17.6846V24.6841H18.7902V23.5785Z" fill="#BABAD4"/>
<path d="M19.8943 23.5785H18.7887V24.6841H19.8943V23.5785Z" fill="#BABAD4"/>
<path d="M20.9991 23.5785H19.8935V24.6841H20.9991V23.5785Z" fill="#E5E6F0"/>
<path d="M21.9206 23.5785H20.9997V24.6841H22.1053V23.5785H21.9206Z" fill="#E5E6F0"/>
<path d="M23.0264 23.5785H21.9208V24.6841H23.0264V23.5785ZM24.1321 23.5785H23.0264V24.6841H24.1321V23.5785Z" fill="#E5E6F0"/>
<path d="M25.2359 23.5785H24.1303V24.6841H25.2359V23.5785Z" fill="#E5E6F0"/>
<path d="M26.157 23.5785H25.0514V24.6841H26.157V23.5785ZM27.2627 23.5785H26.157V24.6841H27.2627V23.5785ZM28.3683 23.5785H27.2627V24.6841H28.3683V23.5785ZM29.4739 23.5785H28.3683V24.6841H29.4739V23.5785Z" fill="#B8B8D2"/>
<path d="M30.3939 23.5785H29.2883V24.6841H30.3939V23.5785ZM31.4995 23.5785H30.3939V24.6841H31.4995V23.5785Z" fill="#B8B8D2"/>
<path d="M32.6048 23.5785H31.4992V24.6841H32.6048V23.5785Z" fill="#B8B8D2"/>
<path d="M33.7096 23.5785H32.604V24.6841H33.7096V23.5785Z" fill="#B75868"/>
<path d="M34.6307 23.5785H33.5251V24.6841H34.6307V23.5785ZM35.7363 23.5785H34.6307V24.6841H35.7363V23.5785Z" fill="#B75868"/>
<path d="M36.8417 23.5785H35.7361V24.6841H36.8417V23.5785Z" fill="#1C252E"/>
<path d="M37.9464 23.5785H36.8408V24.6841H37.9464V23.5785Z" fill="#B8B8D4"/>
<path d="M38.8676 23.5785H37.9468V24.6841H39.0524V23.5785H38.8676ZM4.9747 24.6841H4.05384V25.7898H5.15946V24.6841H4.9747Z" fill="#040404"/>
<path d="M6.0791 24.6841H4.97348V25.7898H6.0791V24.6841Z" fill="#6C747C"/>
<path d="M7.18385 24.6841H6.07823V25.7898H7.18385V24.6841Z" fill="#090A0A"/>
<path d="M8.29007 24.6841H7.18445V25.7898H8.29007V24.6841Z" fill="#F1F1F4"/>
<path d="M9.21006 24.6841H8.2892V25.7898H9.39482V24.6841H9.21006Z" fill="white"/>
<path d="M10.3159 24.6841H9.21032V25.7898H10.3159V24.6841Z" fill="#040404"/>
<path d="M12.5254 24.6841H11.4198V25.7898H12.5254V24.6841Z" fill="#B75868"/>
<path d="M13.4469 24.6841H12.526V25.7898H13.6316V24.6841H13.4469Z" fill="#913648"/>
<path d="M14.5528 24.6841H13.4471V25.7898H14.5528V24.6841ZM15.6584 24.6841H14.5528V25.7898H15.6584V24.6841Z" fill="#913648"/>
<path d="M16.7637 24.6841H15.6581V25.7898H16.7637V24.6841ZM17.6846 24.6841H16.7637V25.7898H17.6846V24.6841ZM18.7902 24.6841H17.6846V25.7898H18.7902V24.6841Z" fill="#913648"/>
<path d="M19.8943 24.6841H18.7887V25.7898H19.8943V24.6841Z" fill="#BABAD4"/>
<path d="M20.9991 24.6841H19.8935V25.7898H20.9991V24.6841Z" fill="#E5E6F0"/>
<path d="M21.9206 24.6841H20.9997V25.7898H22.1053V24.6841H21.9206Z" fill="#E5E6F0"/>
<path d="M23.0264 24.6841H21.9208V25.7898H23.0264V24.6841ZM24.1321 24.6841H23.0264V25.7898H24.1321V24.6841Z" fill="#E5E6F0"/>
<path d="M25.2359 24.6841H24.1303V25.7898H25.2359V24.6841Z" fill="#E5E6F0"/>
<path d="M26.157 24.6841H25.0514V25.7898H26.157V24.6841Z" fill="#B8B8D2"/>
<path d="M27.2618 24.6841H26.1562V25.7898H27.2618V24.6841ZM28.3674 24.6841H27.2618V25.7898H28.3674V24.6841ZM29.473 24.6841H28.3674V25.7898H29.473V24.6841Z" fill="#913648"/>
<path d="M30.3939 24.6841H29.2883V25.7898H30.3939V24.6841ZM31.4995 24.6841H30.3939V25.7898H31.4995V24.6841Z" fill="#913648"/>
<path d="M32.6048 24.6841H31.4992V25.7898H32.6048V24.6841Z" fill="#913648"/>
<path d="M33.7096 24.6841H32.604V25.7898H33.7096V24.6841Z" fill="#B75868"/>
<path d="M34.6307 24.6841H33.5251V25.7898H34.6307V24.6841Z" fill="#B75868"/>
<path d="M35.7369 24.6841H34.6313V25.7898H35.7369V24.6841Z" fill="#913648"/>
<path d="M36.8417 24.6841H35.7361V25.7898H36.8417V24.6841Z" fill="white"/>
<path d="M37.9464 24.6841H36.8408V25.7898H37.9464V24.6841Z" fill="#303C3D"/>
<path d="M4.9747 25.7883H4.05384V26.8939H5.15946V25.7883H4.9747Z" fill="#040404"/>
<path d="M6.0791 25.7883H4.97348V26.8939H6.0791V25.7883Z" fill="#828990"/>
<path d="M7.18385 25.7883H6.07823V26.8939H7.18385V25.7883Z" fill="#313C3D"/>
<path d="M8.29007 25.7883H7.18445V26.8939H8.29007V25.7883Z" fill="#F1F1F4"/>
<path d="M9.21006 25.7883H8.2892V26.8939H9.39482V25.7883H9.21006Z" fill="white"/>
<path d="M10.3159 25.7883H9.21032V26.8939H10.3159V25.7883Z" fill="#040404"/>
<path d="M12.5254 25.7883H11.4198V26.8939H12.5254V25.7883ZM13.4463 25.7883H12.5254V26.8939H13.6311V25.7883H13.4463Z" fill="#B75868"/>
<path d="M14.5528 25.7883H13.4471V26.8939H14.5528V25.7883ZM15.6584 25.7883H14.5528V26.8939H15.6584V25.7883Z" fill="#B75868"/>
<path d="M16.7637 25.7883H15.6581V26.8939H16.7637V25.7883ZM17.6846 25.7883H16.7637V26.8939H17.6846V25.7883ZM18.7902 25.7883H17.6846V26.8939H18.7902V25.7883Z" fill="#B75868"/>
<path d="M19.8943 25.7883H18.7887V26.8939H19.8943V25.7883Z" fill="white"/>
<path d="M20.9991 25.7883H19.8935V26.8939H20.9991V25.7883Z" fill="#E5E6F0"/>
<path d="M21.9206 25.7883H20.9997V26.8939H22.1053V25.7883H21.9206Z" fill="#E5E6F0"/>
<path d="M23.0264 25.7883H21.9208V26.8939H23.0264V25.7883ZM24.1321 25.7883H23.0264V26.8939H24.1321V25.7883Z" fill="#E5E6F0"/>
<path d="M25.2359 25.7883H24.1303V26.8939H25.2359V25.7883Z" fill="#E5E6F0"/>
<path d="M26.157 25.7883H25.0514V26.8939H26.157V25.7883Z" fill="#B8B8D2"/>
<path d="M27.2618 25.7883H26.1562V26.8939H27.2618V25.7883Z" fill="#913648"/>
<path d="M28.368 25.7883H27.2624V26.8939H28.368V25.7883ZM29.4736 25.7883H28.368V26.8939H29.4736V25.7883Z" fill="#B75868"/>
<path d="M30.3939 25.7883H29.2883V26.8939H30.3939V25.7883ZM31.4995 25.7883H30.3939V26.8939H31.4995V25.7883Z" fill="#B75868"/>
<path d="M32.6048 25.7883H31.4992V26.8939H32.6048V25.7883ZM33.7105 25.7883H32.6048V26.8939H33.7105V25.7883Z" fill="#B75868"/>
<path d="M34.6307 25.7883H33.5251V26.8939H34.6307V25.7883Z" fill="#B75868"/>
<path d="M35.7369 25.7883H34.6313V26.8939H35.7369V25.7883Z" fill="#913648"/>
<path d="M36.8417 25.7883H35.7361V26.8939H36.8417V25.7883Z" fill="white"/>
<path d="M37.9464 25.7883H36.8408V26.8939H37.9464V25.7883Z" fill="#2B3739"/>
<path d="M4.9747 26.8939H4.05384V27.9995H5.15946V26.8939H4.9747Z" fill="#040404"/>
<path d="M6.0791 26.8939H4.97348V27.9995H6.0791V26.8939Z" fill="#B2B6BD"/>
<path d="M7.18385 26.8939H6.07823V27.9995H7.18385V26.8939Z" fill="#313C3D"/>
<path d="M8.29007 26.8939H7.18445V27.9995H8.29007V26.8939ZM9.21093 26.8939H8.29007V27.9995H9.39569V26.8939H9.21093Z" fill="white"/>
<path d="M10.3159 26.8939H9.21032V27.9995H10.3159V26.8939Z" fill="#040404"/>
<path d="M12.5254 26.8939H11.4198V27.9995H12.5254V26.8939ZM13.4463 26.8939H12.5254V27.9995H13.6311V26.8939H13.4463Z" fill="#B75868"/>
<path d="M14.5528 26.8939H13.4471V27.9995H14.5528V26.8939ZM15.6584 26.8939H14.5528V27.9995H15.6584V26.8939Z" fill="#B75868"/>
<path d="M16.7637 26.8939H15.6581V27.9995H16.7637V26.8939ZM17.6846 26.8939H16.7637V27.9995H17.6846V26.8939ZM18.7902 26.8939H17.6846V27.9995H18.7902V26.8939Z" fill="#B75868"/>
<path d="M19.8943 26.8939H18.7887V27.9995H19.8943V26.8939ZM21 26.8939H19.8943V27.9995H21V26.8939Z" fill="#E5E6F0"/>
<path d="M21.9206 26.8939H20.9997V27.9995H22.1053V26.8939H21.9206Z" fill="#E5E6F0"/>
<path d="M23.0264 26.8939H21.9208V27.9995H23.0264V26.8939ZM24.1321 26.8939H23.0264V27.9995H24.1321V26.8939Z" fill="#E5E6F0"/>
<path d="M25.2359 26.8939H24.1303V27.9995H25.2359V26.8939Z" fill="#E5E6F0"/>
<path d="M26.157 26.8939H25.0514V27.9995H26.157V26.8939Z" fill="#B8B8D2"/>
<path d="M27.2618 26.8939H26.1562V27.9995H27.2618V26.8939Z" fill="#913648"/>
<path d="M28.368 26.8939H27.2624V27.9995H28.368V26.8939ZM29.4736 26.8939H28.368V27.9995H29.4736V26.8939Z" fill="#B75868"/>
<path d="M30.3939 26.8939H29.2883V27.9995H30.3939V26.8939ZM31.4995 26.8939H30.3939V27.9995H31.4995V26.8939Z" fill="#B75868"/>
<path d="M32.6048 26.8939H31.4992V27.9995H32.6048V26.8939ZM33.7105 26.8939H32.6048V27.9995H33.7105V26.8939Z" fill="#B75868"/>
<path d="M34.6307 26.8939H33.5251V27.9995H34.6307V26.8939Z" fill="#B75868"/>
<path d="M35.7369 26.8939H34.6313V27.9995H35.7369V26.8939Z" fill="#913648"/>
<path d="M36.8417 26.8939H35.7361V27.9995H36.8417V26.8939Z" fill="white"/>
<path d="M37.9464 26.8939H36.8408V27.9995H37.9464V26.8939Z" fill="#1F2C2C"/>
<path d="M6.0791 27.8148H4.97348V28.9204H6.0791V27.8148Z" fill="#040404"/>
<path d="M7.18385 27.8148H6.07823V28.9204H7.18385V27.8148Z" fill="#8D8F92"/>
<path d="M8.29007 27.8148H7.18445V28.9204H8.29007V27.8148Z" fill="#313C3D"/>
<path d="M9.21006 27.8148H8.2892V28.9204H9.39482V27.8148H9.21006Z" fill="#D8D8DB"/>
<path d="M10.3159 27.8148H9.21032V28.9204H10.3159V27.8148Z" fill="#F1F1F4"/>
<path d="M12.5254 27.8148H11.4198V28.9204H12.5254V27.8148ZM13.4463 27.8148H12.5254V28.9204H13.6311V27.8148H13.4463Z" fill="#B75868"/>
<path d="M14.5528 27.8148H13.4471V28.9204H14.5528V27.8148ZM15.6584 27.8148H14.5528V28.9204H15.6584V27.8148Z" fill="#B75868"/>
<path d="M16.7637 27.8148H15.6581V28.9204H16.7637V27.8148ZM17.6846 27.8148H16.7637V28.9204H17.6846V27.8148ZM18.7902 27.8148H17.6846V28.9204H18.7902V27.8148Z" fill="#B75868"/>
<path d="M19.8943 27.8148H18.7887V28.9204H19.8943V27.8148ZM21 27.8148H19.8943V28.9204H21V27.8148Z" fill="#E5E6F0"/>
<path d="M21.9206 27.8148H20.9997V28.9204H22.1053V27.8148H21.9206Z" fill="#E5E6F0"/>
<path d="M23.0264 27.8148H21.9208V28.9204H23.0264V27.8148Z" fill="#E5E6F0"/>
<path d="M24.1312 27.8148H23.0256V28.9204H24.1312V27.8148Z" fill="#B8B8D2"/>
<path d="M25.2359 27.8148H24.1303V28.9204H25.2359V27.8148Z" fill="#B8B8D2"/>
<path d="M26.157 27.8148H25.0514V28.9204H26.157V27.8148Z" fill="#B8B8D2"/>
<path d="M27.2618 27.8148H26.1562V28.9204H27.2618V27.8148Z" fill="#913648"/>
<path d="M28.368 27.8148H27.2624V28.9204H28.368V27.8148ZM29.4736 27.8148H28.368V28.9204H29.4736V27.8148Z" fill="#B75868"/>
<path d="M30.3939 27.8148H29.2883V28.9204H30.3939V27.8148ZM31.4995 27.8148H30.3939V28.9204H31.4995V27.8148Z" fill="#B75868"/>
<path d="M32.6048 27.8148H31.4992V28.9204H32.6048V27.8148ZM33.7105 27.8148H32.6048V28.9204H33.7105V27.8148Z" fill="#B75868"/>
<path d="M34.6307 27.8148H33.5251V28.9204H34.6307V27.8148Z" fill="#591E29"/>
<path d="M35.7369 27.8148H34.6313V28.9204H35.7369V27.8148Z" fill="#E8E9EA"/>
<path d="M36.8417 27.8148H35.7361V28.9204H36.8417V27.8148Z" fill="#252E2F"/>
<path d="M6.0791 28.9204H4.97348V30.026H6.0791V28.9204Z" fill="#040404"/>
<path d="M7.18385 28.9204H6.07823V30.026H7.18385V28.9204Z" fill="#707980"/>
<path d="M8.29007 28.9204H7.18445V30.026H8.29007V28.9204Z" fill="#313C3D"/>
<path d="M9.21006 28.9204H8.2892V30.026H9.39482V28.9204H9.21006Z" fill="#D8D8DB"/>
<path d="M10.3159 28.9204H9.21032V30.026H10.3159V28.9204Z" fill="white"/>
<path d="M12.5254 28.9204H11.4198V30.026H12.5254V28.9204Z" fill="#913648"/>
<path d="M13.4469 28.9204H12.526V30.026H13.6316V28.9204H13.4469Z" fill="#B75868"/>
<path d="M14.5528 28.9204H13.4471V30.026H14.5528V28.9204ZM15.6584 28.9204H14.5528V30.026H15.6584V28.9204Z" fill="#B75868"/>
<path d="M16.7637 28.9204H15.6581V30.026H16.7637V28.9204ZM17.6846 28.9204H16.7637V30.026H17.6846V28.9204ZM18.7902 28.9204H17.6846V30.026H18.7902V28.9204Z" fill="#B75868"/>
<path d="M19.8943 28.9204H18.7887V30.026H19.8943V28.9204Z" fill="#E5E6F0"/>
<path d="M20.9991 28.9204H19.8935V30.026H20.9991V28.9204Z" fill="#B8B8D2"/>
<path d="M21.9206 28.9204H20.9997V30.026H22.1053V28.9204H21.9206Z" fill="#B8B8D2"/>
<path d="M23.0264 28.9204H21.9208V30.026H23.0264V28.9204ZM24.1321 28.9204H23.0264V30.026H24.1321V28.9204Z" fill="#B8B8D2"/>
<path d="M25.2359 28.9204H24.1303V30.026H25.2359V28.9204Z" fill="#B8B8D2"/>
<path d="M26.157 28.9204H25.0514V30.026H26.157V28.9204Z" fill="#B8B8D2"/>
<path d="M27.2618 28.9204H26.1562V30.026H27.2618V28.9204Z" fill="#913648"/>
<path d="M28.368 28.9204H27.2624V30.026H28.368V28.9204ZM29.4736 28.9204H28.368V30.026H29.4736V28.9204Z" fill="#B75868"/>
<path d="M30.3939 28.9204H29.2883V30.026H30.3939V28.9204ZM31.4995 28.9204H30.3939V30.026H31.4995V28.9204Z" fill="#B75868"/>
<path d="M32.6048 28.9204H31.4992V30.026H32.6048V28.9204ZM33.7105 28.9204H32.6048V30.026H33.7105V28.9204Z" fill="#B75868"/>
<path d="M34.6307 28.9204H33.5251V30.026H34.6307V28.9204Z" fill="#591E29"/>
<path d="M35.7369 28.9204H34.6313V30.026H35.7369V28.9204Z" fill="#E8E9EA"/>
<path d="M36.8417 28.9204H35.7361V30.026H36.8417V28.9204Z" fill="#080808"/>
<path d="M7.18385 30.026H6.07823V31.1316H7.18385V30.026Z" fill="#040404"/>
<path d="M8.29007 30.026H7.18445V31.1316H8.29007V30.026Z" fill="#8D8F92"/>
<path d="M9.21006 30.026H8.2892V31.1316H9.39482V30.026H9.21006Z" fill="#313C3D"/>
<path d="M10.3159 30.026H9.21032V31.1316H10.3159V30.026Z" fill="#D8D8DB"/>
<path d="M12.5254 30.026H11.4198V31.1316H12.5254V30.026Z" fill="#913648"/>
<path d="M13.4469 30.026H12.526V31.1316H13.6316V30.026H13.4469Z" fill="#B75868"/>
<path d="M14.5528 30.026H13.4471V31.1316H14.5528V30.026ZM15.6584 30.026H14.5528V31.1316H15.6584V30.026Z" fill="#B75868"/>
<path d="M16.7637 30.026H15.6581V31.1316H16.7637V30.026ZM17.6846 30.026H16.7637V31.1316H17.6846V30.026ZM18.7902 30.026H17.6846V31.1316H18.7902V30.026Z" fill="#B75868"/>
<path d="M19.8943 30.026H18.7887V31.1316H19.8943V30.026ZM21 30.026H19.8943V31.1316H21V30.026Z" fill="#B8B8D2"/>
<path d="M21.9206 30.026H20.9997V31.1316H22.1053V30.026H21.9206Z" fill="#B8B8D2"/>
<path d="M23.0264 30.026H21.9208V31.1316H23.0264V30.026ZM24.1321 30.026H23.0264V31.1316H24.1321V30.026Z" fill="#B8B8D2"/>
<path d="M25.2359 30.026H24.1303V31.1316H25.2359V30.026Z" fill="#B8B8D2"/>
<path d="M26.157 30.026H25.0514V31.1316H26.157V30.026Z" fill="#B8B8D2"/>
<path d="M27.2618 30.026H26.1562V31.1316H27.2618V30.026Z" fill="#913648"/>
<path d="M28.368 30.026H27.2624V31.1316H28.368V30.026ZM29.4736 30.026H28.368V31.1316H29.4736V30.026Z" fill="#B75868"/>
<path d="M30.3939 30.026H29.2883V31.1316H30.3939V30.026ZM31.4995 30.026H30.3939V31.1316H31.4995V30.026Z" fill="#B75868"/>
<path d="M32.6048 30.026H31.4992V31.1316H32.6048V30.026Z" fill="#B75868"/>
<path d="M33.7096 30.026H32.604V31.1316H33.7096V30.026Z" fill="#993C4D"/>
<path d="M34.6307 30.026H33.5251V31.1316H34.6307V30.026Z" fill="#E8E9EA"/>
<path d="M35.7369 30.026H34.6313V31.1316H35.7369V30.026Z" fill="#263234"/>
<path d="M7.18385 31.1302H6.07823V32.2358H7.18385V31.1302Z" fill="#040404"/>
<path d="M8.29007 31.1302H7.18445V32.2358H8.29007V31.1302Z" fill="#707980"/>
<path d="M9.21006 31.1302H8.2892V32.2358H9.39482V31.1302H9.21006Z" fill="#8D8F92"/>
<path d="M10.3159 31.1302H9.21032V32.2358H10.3159V31.1302Z" fill="#313C3D"/>
<path d="M12.5254 31.1302H11.4198V32.2358H12.5254V31.1302Z" fill="#040404"/>
<path d="M13.4469 31.1302H12.526V32.2358H13.6316V31.1302H13.4469Z" fill="#913648"/>
<path d="M14.5528 31.1302H13.4471V32.2358H14.5528V31.1302ZM15.6584 31.1302H14.5528V32.2358H15.6584V31.1302Z" fill="#B75868"/>
<path d="M16.7637 31.1302H15.6581V32.2358H16.7637V31.1302ZM17.6846 31.1302H16.7637V32.2358H17.6846V31.1302ZM18.7902 31.1302H17.6846V32.2358H18.7902V31.1302Z" fill="#B75868"/>
<path d="M19.8943 31.1302H18.7887V32.2358H19.8943V31.1302ZM21 31.1302H19.8943V32.2358H21V31.1302Z" fill="#913648"/>
<path d="M21.9206 31.1302H20.9997V32.2358H22.1053V31.1302H21.9206Z" fill="#913648"/>
<path d="M23.0264 31.1302H21.9208V32.2358H23.0264V31.1302ZM24.1321 31.1302H23.0264V32.2358H24.1321V31.1302Z" fill="#913648"/>
<path d="M25.2359 31.1302H24.1303V32.2358H25.2359V31.1302Z" fill="#913648"/>
<path d="M26.157 31.1302H25.0514V32.2358H26.157V31.1302Z" fill="#913648"/>
<path d="M27.2618 31.1302H26.1562V32.2358H27.2618V31.1302ZM28.3674 31.1302H27.2618V32.2358H28.3674V31.1302ZM29.473 31.1302H28.3674V32.2358H29.473V31.1302Z" fill="#B75868"/>
<path d="M30.3939 31.1302H29.2883V32.2358H30.3939V31.1302ZM31.4995 31.1302H30.3939V32.2358H31.4995V31.1302Z" fill="#B75868"/>
<path d="M32.6048 31.1302H31.4992V32.2358H32.6048V31.1302Z" fill="#993C4D"/>
<path d="M33.7096 31.1302H32.604V32.2358H33.7096V31.1302Z" fill="#E8E9EA"/>
<path d="M34.6307 31.1302H33.5251V32.2358H34.6307V31.1302Z" fill="#D5D7D9"/>
<path d="M35.7369 31.1302H34.6313V32.2358H35.7369V31.1302Z" fill="#263234"/>
<path d="M8.29007 32.0525H7.18445V33.1581H8.29007V32.0525Z" fill="#040404"/>
<path d="M9.21006 32.0525H8.2892V33.1581H9.39482V32.0525H9.21006Z" fill="#707980"/>
<path d="M10.3159 32.0525H9.21032V33.1581H10.3159V32.0525Z" fill="#8D8F92"/>
<path d="M12.5254 32.0525H11.4198V33.1581H12.5254V32.0525ZM13.4463 32.0525H12.5254V33.1581H13.6311V32.0525H13.4463Z" fill="#D3D3D6"/>
<path d="M14.5528 32.0525H13.4471V33.1581H14.5528V32.0525Z" fill="#040404"/>
<path d="M15.6575 32.0525H14.5519V33.1581H15.6575V32.0525Z" fill="#913648"/>
<path d="M16.7637 32.0525H15.6581V33.1581H16.7637V32.0525ZM17.6846 32.0525H16.7637V33.1581H17.6846V32.0525ZM18.7902 32.0525H17.6846V33.1581H18.7902V32.0525Z" fill="#B75868"/>
<path d="M19.8943 32.0525H18.7887V33.1581H19.8943V32.0525ZM21 32.0525H19.8943V33.1581H21V32.0525Z" fill="#B75868"/>
<path d="M21.9206 32.0525H20.9997V33.1581H22.1053V32.0525H21.9206Z" fill="#B75868"/>
<path d="M23.0264 32.0525H21.9208V33.1581H23.0264V32.0525ZM24.1321 32.0525H23.0264V33.1581H24.1321V32.0525Z" fill="#B75868"/>
<path d="M25.2359 32.0525H24.1303V33.1581H25.2359V32.0525Z" fill="#B75868"/>
<path d="M26.157 32.0525H25.0514V33.1581H26.157V32.0525ZM27.2627 32.0525H26.157V33.1581H27.2627V32.0525ZM28.3683 32.0525H27.2627V33.1581H28.3683V32.0525ZM29.4739 32.0525H28.3683V33.1581H29.4739V32.0525Z" fill="#B75868"/>
<path d="M30.3939 32.0525H29.2883V33.1581H30.3939V32.0525Z" fill="#993C4D"/>
<path d="M31.5001 32.0525H30.3945V33.1581H31.5001V32.0525Z" fill="#AA495A"/>
<path d="M32.6048 32.0525H31.4992V33.1581H32.6048V32.0525Z" fill="#E8E9EA"/>
<path d="M33.7096 32.0525H32.604V33.1581H33.7096V32.0525Z" fill="#D5D7D9"/>
<path d="M34.6307 32.0525H33.5251V33.1581H34.6307V32.0525Z" fill="#263234"/>
<path d="M9.21006 33.1567H8.2892V34.2623H9.39482V33.1567H9.21006Z" fill="#172222"/>
<path d="M10.3159 33.1567H9.21032V34.2623H10.3159V33.1567Z" fill="#707980"/>
<path d="M12.5254 33.1567H11.4198V34.2623H12.5254V33.1567Z" fill="#313C3D"/>
<path d="M13.4469 33.1567H12.526V34.2623H13.6316V33.1567H13.4469Z" fill="#D3D3D6"/>
<path d="M14.5528 33.1567H13.4471V34.2623H14.5528V33.1567ZM15.6584 33.1567H14.5528V34.2623H15.6584V33.1567Z" fill="#D3D3D6"/>
<path d="M16.7637 33.1567H15.6581V34.2623H16.7637V33.1567ZM17.6846 33.1567H16.7637V34.2623H17.6846V33.1567ZM18.7902 33.1567H17.6846V34.2623H18.7902V33.1567Z" fill="#913648"/>
<path d="M19.8943 33.1567H18.7887V34.2623H19.8943V33.1567ZM21 33.1567H19.8943V34.2623H21V33.1567Z" fill="#B75868"/>
<path d="M21.9206 33.1567H20.9997V34.2623H22.1053V33.1567H21.9206Z" fill="#B75868"/>
<path d="M23.0264 33.1567H21.9208V34.2623H23.0264V33.1567ZM24.1321 33.1567H23.0264V34.2623H24.1321V33.1567Z" fill="#B75868"/>
<path d="M25.2359 33.1567H24.1303V34.2623H25.2359V33.1567Z" fill="#B75868"/>
<path d="M26.157 33.1567H25.0514V34.2623H26.157V33.1567Z" fill="#B75868"/>
<path d="M27.2618 33.1567H26.1562V34.2623H27.2618V33.1567ZM28.3674 33.1567H27.2618V34.2623H28.3674V33.1567ZM29.473 33.1567H28.3674V34.2623H29.473V33.1567Z" fill="#993C4D"/>
<path d="M30.3939 33.1567H29.2883V34.2623H30.3939V33.1567Z" fill="#F6F8F9"/>
<path d="M31.5001 33.1567H30.3945V34.2623H31.5001V33.1567Z" fill="#E8E9EA"/>
<path d="M32.6048 33.1567H31.4992V34.2623H32.6048V33.1567Z" fill="#E8E9EA"/>
<path d="M33.7096 33.1567H32.604V34.2623H33.7096V33.1567Z" fill="#263234"/>
<path d="M10.3159 34.2623H9.21032V35.3679H10.3159V34.2623ZM12.5257 35.3679H11.4201V36.4735H12.5257V35.3679Z" fill="#172222"/>
<path d="M11.4222 35.3679H10.3165V36.4735H11.4222V35.3679Z" fill="#172222"/>
<path d="M12.5254 35.3679V34.2623H11.4198V35.3679H12.5254Z" fill="#8D8F92"/>
<path d="M13.4469 34.2623H12.526V35.3679H13.6316V34.2623H13.4469Z" fill="#313C3D"/>
<path d="M14.5528 34.2623H13.4471V35.3679H14.5528V34.2623Z" fill="#313C3D"/>
<path d="M15.6575 34.2623H14.5519V35.3679H15.6575V34.2623Z" fill="#D8D8DB"/>
<path d="M16.7637 34.2623H15.6581V35.3679H16.7637V34.2623ZM17.6846 34.2623H16.7637V35.3679H17.6846V34.2623ZM18.7902 34.2623H17.6846V35.3679H18.7902V34.2623Z" fill="#D3D3D6"/>
<path d="M19.8943 34.2623H18.7887V35.3679H19.8943V34.2623ZM21 34.2623H19.8943V35.3679H21V34.2623Z" fill="#913648"/>
<path d="M21.9206 34.2623H20.9997V35.3679H22.1053V34.2623H21.9206Z" fill="#913648"/>
<path d="M23.0264 34.2623H21.9208V35.3679H23.0264V34.2623ZM24.1321 34.2623H23.0264V35.3679H24.1321V34.2623Z" fill="#913648"/>
<path d="M25.2359 34.2623H24.1303V35.3679H25.2359V34.2623Z" fill="#913648"/>
<path d="M26.157 34.2623H25.0514V35.3679H26.157V34.2623Z" fill="#913648"/>
<path d="M27.2618 34.2623H26.1562V35.3679H27.2618V34.2623ZM28.3674 34.2623H27.2618V35.3679H28.3674V34.2623ZM29.473 34.2623H28.3674V35.3679H29.473V34.2623Z" fill="#F6F8F9"/>
<path d="M30.3939 34.2623H29.2883V35.3679H30.3939V34.2623Z" fill="#D5D7D9"/>
<path d="M31.5001 34.2623H30.3945V35.3679H31.5001V34.2623Z" fill="#293334"/>
<path d="M32.6048 34.2623H31.4992V35.3679H32.6048V34.2623Z" fill="#080808"/>
<path d="M13.4469 35.3679H12.526V36.4735H13.6316V35.3679H13.4469Z" fill="#707980"/>
<path d="M14.5528 35.3679H13.4471V36.4735H14.5528V35.3679Z" fill="#707980"/>
<path d="M15.6575 35.3679H14.5519V36.4735H15.6575V35.3679Z" fill="#313C3D"/>
<path d="M16.7637 35.3679H15.6581V36.4735H16.7637V35.3679ZM17.6846 35.3679H16.7637V36.4735H17.6846V35.3679ZM18.7902 35.3679H17.6846V36.4735H18.7902V35.3679Z" fill="#D3D3D6"/>
<path d="M19.8943 35.3679H18.7887V36.4735H19.8943V35.3679ZM21 35.3679H19.8943V36.4735H21V35.3679Z" fill="#E8E9EA"/>
<path d="M21.9206 35.3679H20.9997V36.4735H22.1053V35.3679H21.9206Z" fill="#E8E9EA"/>
<path d="M23.0264 35.3679H21.9208V36.4735H23.0264V35.3679ZM24.1321 35.3679H23.0264V36.4735H24.1321V35.3679Z" fill="#E8E9EA"/>
<path d="M25.2359 35.3679H24.1303V36.4735H25.2359V35.3679Z" fill="#E8E9EA"/>
<path d="M26.157 35.3679H25.0514V36.4735H26.157V35.3679Z" fill="#E8E9EA"/>
<path d="M27.2618 35.3679H26.1562V36.4735H27.2618V35.3679ZM28.3674 35.3679H27.2618V36.4735H28.3674V35.3679Z" fill="#D5D7D9"/>
<path d="M29.4742 35.3679H28.3686V36.4735H29.4742V35.3679Z" fill="#080808"/>
<path d="M30.3939 35.3679H29.2883V36.4735H30.3939V35.3679Z" fill="#080808"/>
<path d="M13.4469 36.2887H12.526V37.3944H13.6316V36.2887H13.4469Z" fill="#172222"/>
<path d="M14.5528 36.2887H13.4471V37.3944H14.5528V36.2887Z" fill="#172222"/>
<path d="M15.6575 36.2887H14.5519V37.3944H15.6575V36.2887Z" fill="#565F62"/>
<path d="M16.7637 36.2887H15.6581V37.3944H16.7637V36.2887ZM17.6846 36.2887H16.7637V37.3944H17.6846V36.2887Z" fill="#565F62"/>
<path d="M18.7896 36.2887H17.684V37.3944H18.7896V36.2887Z" fill="#828990"/>
<path d="M19.8943 36.2887H18.7887V37.3944H19.8943V36.2887ZM21 36.2887H19.8943V37.3944H21V36.2887Z" fill="#A4A5A9"/>
<path d="M21.9206 36.2887H20.9997V37.3944H22.1053V36.2887H21.9206Z" fill="#BBBBC2"/>
<path d="M23.0264 36.2887H21.9208V37.3944H23.0264V36.2887ZM24.1321 36.2887H23.0264V37.3944H24.1321V36.2887Z" fill="#BBBBC2"/>
<path d="M25.2359 36.2887H24.1303V37.3944H25.2359V36.2887Z" fill="#BBBBC2"/>
<path d="M26.157 36.2887H25.0514V37.3944H26.157V36.2887Z" fill="#BBBBC2"/>
<path d="M27.2618 36.2887H26.1562V37.3944H27.2618V36.2887ZM28.3674 36.2887H27.2618V37.3944H28.3674V36.2887Z" fill="#293334"/>
<path d="M15.6575 37.3944H14.5519V38.5H15.6575V37.3944Z" fill="#172222"/>
<path d="M16.7637 37.3944H15.6581V38.5H16.7637V37.3944ZM17.6846 37.3944H16.7637V38.5H17.6846V37.3944ZM18.7902 37.3944H17.6846V38.5H18.7902V37.3944Z" fill="#172222"/>
<path d="M19.8943 37.3944H18.7887V38.5H19.8943V37.3944ZM21 37.3944H19.8943V38.5H21V37.3944Z" fill="#040404"/>
<path d="M21.9206 37.3944H20.9997V38.5H22.1053V37.3944H21.9206Z" fill="#040404"/>
<path d="M23.0264 37.3944H21.9208V38.5H23.0264V37.3944ZM24.1321 37.3944H23.0264V38.5H24.1321V37.3944Z" fill="#040404"/>
<path d="M25.2359 37.3944H24.1303V38.5H25.2359V37.3944Z" fill="#040404"/>
<path d="M26.157 37.3944H25.0514V38.5H26.157V37.3944Z" fill="#040404"/>
<path d="M11.4222 6.63206H10.3165V7.73768H11.4222V6.63206Z" fill="#080808"/>
<path d="M11.4222 7.73622H10.3165V8.84184H11.4222V7.73622Z" fill="#C7C8CB"/>
<path d="M11.4222 8.84184H10.3165V9.94746H11.4222V8.84184Z" fill="#4D5856"/>
<path d="M11.4222 9.94746H10.3165V10.8683H11.4222V9.94746Z" fill="#FBFBFC"/>
<path d="M11.4222 10.8683H10.3165V11.974H11.4222V10.8683Z" fill="#CDCED1"/>
<path d="M11.4222 11.974H10.3165V13.0796H11.4222V11.974Z" fill="#0A0A0A"/>
<path d="M11.4222 13.0781H10.3165V14.1837H11.4222V13.0781Z" fill="#0A0A0A"/>
<path d="M11.4222 14.1837H10.3165V15.2893H11.4222V14.1837Z" fill="#B75868"/>
<path d="M11.4222 15.1046H10.3165V16.2102H11.4222V15.1046ZM11.4222 16.2102H10.3165V17.3158H11.4222V16.2102Z" fill="#B75868"/>
<path d="M11.4222 17.3158H10.3165V18.4214H11.4222V17.3158Z" fill="#B75868"/>
<path d="M11.4222 18.42H10.3165V19.5256H11.4222V18.42Z" fill="#B75868"/>
<path d="M11.4222 19.3423H10.3165V20.4479H11.4222V19.3423Z" fill="#B75868"/>
<path d="M11.4222 20.4464H10.3165V21.5521H11.4222V20.4464ZM11.4222 21.5521H10.3165V22.6577H11.4222V21.5521ZM11.4222 22.6577H10.3165V23.7633H11.4222V22.6577Z" fill="#B75868"/>
<path d="M11.4222 23.5785H10.3165V24.6841H11.4222V23.5785ZM11.4222 24.6841H10.3165V25.7898H11.4222V24.6841Z" fill="#B75868"/>
<path d="M11.4222 25.7883H10.3165V26.8939H11.4222V25.7883Z" fill="#B75868"/>
<path d="M11.4222 26.8939H10.3165V27.9995H11.4222V26.8939Z" fill="#913648"/>
<path d="M11.4222 27.8148H10.3165V28.9204H11.4222V27.8148Z" fill="#212A29"/>
<path d="M11.4222 28.9204H10.3165V30.026H11.4222V28.9204Z" fill="#040404"/>
<path d="M11.4222 30.026H10.3165V31.1316H11.4222V30.026Z" fill="#F1F2F4"/>
<path d="M11.4222 31.1302H10.3165V32.2358H11.4222V31.1302Z" fill="#E6E7E9"/>
<path d="M11.4222 32.0525H10.3165V33.1581H11.4222V32.0525Z" fill="#313C3D"/>
<path d="M11.4222 33.1567H10.3165V34.2623H11.4222V33.1567Z" fill="#8D8F92"/>
<path d="M11.4222 34.2623H10.3165V35.3679H11.4222V34.2623Z" fill="#707980"/>
</g>
<defs>
<clipPath id="clip0_8014_11770">
<rect width="42" height="42" fill="white"/>
</clipPath>
</defs>
</svg>
