<svg width="15" height="17" viewBox="0 0 15 17" fill="none" xmlns="http://www.w3.org/2000/svg">
<g clip-path="url(#clip0_8022_11810)">
<path fill-rule="evenodd" clip-rule="evenodd" d="M9.72974 4.72419L2.73156 0.665703C2.4609 0.503592 2.14502 0.410034 1.80699 0.410034C1.17875 0.410034 0.618745 0.752887 0.29881 1.25266L0.389691 1.34352L6.75045 7.70291L9.72974 4.72419ZM0.017334 2.3853V14.4347L6.04328 8.40995L0.017334 2.3853ZM0.298832 15.5674C0.618812 16.0672 1.17888 16.41 1.80698 16.41C2.13774 16.41 2.44827 16.3206 2.71458 16.1636L2.73573 16.1512L9.74177 12.1076L6.75046 9.11698L0.389695 15.4765L0.298832 15.5674ZM10.6385 11.5901L13.3908 10.0016C13.9521 9.69855 14.3331 9.10684 14.3331 8.42449C14.3331 7.74706 13.9572 7.15827 13.4015 6.85427L13.3952 6.84991L10.6249 5.24331L7.45763 8.40994L10.6385 11.5901Z" fill="white"/>
</g>
<defs>
<clipPath id="clip0_8022_11810">
<rect width="14.3158" height="16" fill="white" transform="translate(0.017334 0.410034)"/>
</clipPath>
</defs>
</svg>
