<svg width="31" height="30" viewBox="0 0 31 30" fill="none" xmlns="http://www.w3.org/2000/svg">
<g clip-path="url(#clip0_8002_13209)">
<path d="M16.011 29.9912H15.9449C7.69466 29.9912 0.982361 23.2789 0.982361 15.0286V14.9626C0.982361 6.7123 7.69466 0 15.9449 0H16.011C24.2612 0 30.9735 6.7123 30.9735 14.9626V15.0286C30.9735 23.2789 24.2612 29.9912 16.011 29.9912ZM15.9449 1.01517C8.25402 1.01517 1.99753 7.27166 1.99753 14.9626V15.0286C1.99753 22.7195 8.25402 28.976 15.9449 28.976H16.011C23.7019 28.976 29.9584 22.7195 29.9584 15.0286V14.9626C29.9584 7.27166 23.7019 1.01517 16.011 1.01517H15.9449Z" fill="white"/>
<path d="M6.97789 14.5007C7.01849 14.4804 7.05912 14.4612 7.09871 14.4429C7.787 14.1241 8.48442 13.8257 9.18083 13.5272C9.21839 13.5272 9.28131 13.4835 9.31684 13.4693C9.37065 13.446 9.42446 13.4236 9.47826 13.4003C9.58181 13.3556 9.68536 13.312 9.7879 13.2673C9.99499 13.179 10.2011 13.0907 10.4082 13.0024C10.8213 12.8257 11.2345 12.6491 11.6477 12.4714C12.474 12.1181 13.3014 11.7638 14.1278 11.4106C14.9541 11.0573 15.7815 10.703 16.6078 10.3497C17.4342 9.99642 18.2615 9.64213 19.0879 9.28885C19.9142 8.93557 20.7416 8.58128 21.5679 8.22801C21.7517 8.14882 21.9507 8.03106 22.1476 7.99654C22.3131 7.9671 22.4745 7.91026 22.641 7.87879C22.9567 7.8189 23.3049 7.79453 23.6074 7.92549C23.712 7.97117 23.8084 8.03511 23.8886 8.11531C24.2723 8.49498 24.2185 9.11831 24.1373 9.65229C23.5719 13.3739 23.0064 17.0965 22.44 20.8182C22.3628 21.3288 22.2572 21.8892 21.8542 22.212C21.5131 22.4851 21.0278 22.5155 20.6066 22.3998C20.1853 22.283 19.8137 22.0384 19.4493 21.7978C17.9377 20.7968 16.4251 19.7959 14.9135 18.7949C14.5541 18.5574 14.1542 18.2467 14.1582 17.8153C14.1602 17.5554 14.3155 17.3239 14.4739 17.1178C15.7875 15.4042 17.6829 14.2266 19.0929 12.5922C19.2919 12.3618 19.4483 11.9456 19.1752 11.8126C19.0127 11.7334 18.8259 11.841 18.6777 11.9435C16.8139 13.2379 14.9511 14.5332 13.0872 15.8276C12.4791 16.2499 11.8416 16.6844 11.1086 16.7879C10.4528 16.8813 9.79298 16.6986 9.1585 16.5118C8.62655 16.3554 8.09559 16.195 7.56669 16.0296C7.28549 15.9423 6.99515 15.8479 6.7779 15.6499C6.56065 15.4519 6.43581 15.119 6.56676 14.855C6.64899 14.6896 6.80838 14.585 6.97588 14.4997L6.97789 14.5007Z" fill="white"/>
</g>
<defs>
<clipPath id="clip0_8002_13209">
<rect width="29.9912" height="29.9912" fill="white" transform="translate(0.982361)"/>
</clipPath>
</defs>
</svg>
