<svg width="46" height="40" viewBox="0 0 46 40" fill="none" xmlns="http://www.w3.org/2000/svg">
<g clip-path="url(#clip0_8014_11846)">
<path d="M45.2723 22.8112C47.0309 18.8662 38.2856 7.79199 29.9205 3.2292C24.6447 -0.335473 19.1789 0.139817 18.0382 1.70827C15.6142 5.13036 26.1181 8.07716 33.1524 11.4517C31.6315 12.1171 30.2056 13.3054 29.3976 14.7788C26.7836 11.927 21.0325 9.4555 14.2834 11.4517C9.72063 12.7825 5.96584 15.967 4.49244 20.7199C4.15973 20.5773 3.73197 20.4822 3.35174 20.4822C1.78328 20.4822 0.5 21.7655 0.5 23.334C0.5 24.9024 1.78328 26.1857 3.35174 26.1857C3.63692 26.1857 4.53997 25.9956 4.53997 25.9956L19.1789 26.0907C13.3328 35.4063 8.67499 36.7372 8.67499 38.3531C8.67499 39.9691 13.0952 39.5414 14.7587 38.9235C22.7436 36.0718 31.2988 27.0888 32.7722 24.5222C38.951 25.3302 44.1316 25.3777 45.2723 22.8112Z" fill="url(#paint0_linear_8014_11846)"/>
<path fill-rule="evenodd" clip-rule="evenodd" d="M33.2013 11.4521C33.534 11.3096 33.4865 10.8343 33.3914 10.454C33.2013 9.59851 29.6366 6.08137 26.3096 4.51291C21.7468 2.3741 18.4198 2.46916 17.9445 3.46727C18.8475 5.36843 23.1727 7.127 27.6404 9.02816C29.494 9.78863 31.4427 10.5966 33.2013 11.4521Z" fill="url(#paint1_linear_8014_11846)"/>
<path fill-rule="evenodd" clip-rule="evenodd" d="M27.3974 30.5586C26.4943 30.2259 25.4487 29.8932 24.2605 29.608C25.4962 27.3742 25.7814 23.9996 24.5932 21.9083C22.9296 18.9615 20.8384 17.3931 15.9429 17.3931C13.2812 17.3931 6.05683 18.2961 5.91425 24.3323C5.91425 24.9502 5.91424 25.5205 5.96177 26.0909H19.1749C17.4163 28.8951 15.7528 30.9864 14.2794 32.5548C16.0379 32.9826 17.4638 33.3628 18.7946 33.743C20.0304 34.0758 21.2186 34.3609 22.4068 34.6936C24.2129 33.3628 25.924 31.9369 27.3974 30.5586Z" fill="url(#paint2_linear_8014_11846)"/>
<path d="M4.30234 25.3781C4.82516 29.9409 7.43926 31.747 12.7625 32.2698C18.0858 32.7927 21.1276 32.46 25.1676 32.7927C28.5421 33.0778 31.584 34.8364 32.6772 34.2185C33.6753 33.6957 33.1049 31.747 31.7741 30.5113C30.0155 28.8953 27.5916 27.8021 23.3615 27.3743C24.217 25.0454 23.9794 21.7659 22.6485 20.0074C20.7474 17.4408 17.2302 16.3001 12.7625 16.7754C8.10466 17.3457 3.63694 19.6746 4.30234 25.3781Z" fill="url(#paint3_linear_8014_11846)"/>
</g>
<defs>
<linearGradient id="paint0_linear_8014_11846" x1="13.7999" y1="19.1305" x2="44.9534" y2="27.965" gradientUnits="userSpaceOnUse">
<stop stop-color="#8797FF"/>
<stop offset="1" stop-color="#AAA8FF"/>
</linearGradient>
<linearGradient id="paint1_linear_8014_11846" x1="38.5522" y1="19.8284" x2="16.0735" y2="-2.70529" gradientUnits="userSpaceOnUse">
<stop stop-color="#3B22A0"/>
<stop offset="1" stop-color="#5156D8" stop-opacity="0"/>
</linearGradient>
<linearGradient id="paint2_linear_8014_11846" x1="28.0176" y1="31.373" x2="6.42438" y2="18.9584" gradientUnits="userSpaceOnUse">
<stop stop-color="#3B1E8F"/>
<stop offset="1" stop-color="#6A6FFB" stop-opacity="0"/>
</linearGradient>
<linearGradient id="paint3_linear_8014_11846" x1="12.295" y1="21.693" x2="26.8905" y2="40.2381" gradientUnits="userSpaceOnUse">
<stop stop-color="#8898FF"/>
<stop offset="0.9839" stop-color="#5F47F1"/>
</linearGradient>
<clipPath id="clip0_8014_11846">
<rect width="45" height="38.9534" fill="white" transform="translate(0.5 0.523438)"/>
</clipPath>
</defs>
</svg>
