<svg width="30" height="30" viewBox="0 0 30 30" fill="none" xmlns="http://www.w3.org/2000/svg">
<g clip-path="url(#clip0_8002_13208)">
<path d="M15.0198 29.9912H14.9538C6.70349 29.9912 -0.00881958 23.2789 -0.00881958 15.0286V14.9626C-0.00881958 6.7123 6.70349 0 14.9538 0H15.0198C23.27 0 29.9824 6.7123 29.9824 14.9626V15.0286C29.9824 23.2789 23.27 29.9912 15.0198 29.9912ZM14.9538 1.01517C7.26285 1.01517 1.00635 7.27166 1.00635 14.9626V15.0286C1.00635 22.7195 7.26285 28.976 14.9538 28.976H15.0198C22.7107 28.976 28.9672 22.7195 28.9672 15.0286V14.9626C28.9672 7.27166 22.7107 1.01517 15.0198 1.01517H14.9538Z" fill="white"/>
<path d="M6.37561 7.06714L13.0575 16.0006L6.33398 23.2642H7.84761L13.7346 16.9052L18.4907 23.2642H23.6406L16.5831 13.8282L22.8417 7.06714H21.328L15.907 12.9237L11.5266 7.06714H6.37661H6.37561ZM8.60086 8.18182H10.9662L21.4133 22.1495H19.048L8.60086 8.18182Z" fill="white"/>
</g>
<defs>
<clipPath id="clip0_8002_13208">
<rect width="29.9912" height="29.9912" fill="white" transform="translate(-0.00881958)"/>
</clipPath>
</defs>
</svg>
