<svg width="40" height="35" viewBox="0 0 40 35" fill="none" xmlns="http://www.w3.org/2000/svg">
<g clip-path="url(#clip0_8022_11754)">
<path fill-rule="evenodd" clip-rule="evenodd" d="M38.2428 9.75485L25.7732 9.75485L25.7732 11.7549L37.2428 11.7548L37.2428 28.8323L33.9202 28.8323L35.9174 26.8351L34.5032 25.4208L30.7333 29.1907L30.0262 29.8978L30.7333 30.6049L34.5032 34.3748L35.9174 32.9605L33.7891 30.8323L38.2428 30.8323L39.2428 30.8323L39.2428 29.8323L39.2428 10.7548L39.2428 9.75485L38.2428 9.75485ZM32.9764 30.0196L32.9764 29.776L32.8546 29.8978L32.9764 30.0196Z" fill="#FB7185"/>
<path d="M18.9302 10.0494C19.6269 9.69952 20.0346 9.07673 19.9511 8.05265C19.7649 6.62087 18.5578 6.13933 17.0137 6.04945V4.13613L15.8355 4.1265V6.03981C15.5306 6.03018 15.2352 6.06229 14.8853 6.06229V4.14897L13.7071 4.13934L13.72 6.09439C13.4631 6.11365 13.1999 6.09439 12.9848 6.10402L11.3797 6.11686L11.3925 7.37529H12.2625C12.744 7.38492 12.8981 7.65137 12.9591 7.89535L12.9848 13.1955C12.9335 13.34 12.8628 13.5743 12.5129 13.5743H11.6429L11.3893 14.9868L12.9142 14.9965L13.7424 15.0061L13.7553 16.9611L14.9334 16.9708L14.9206 15.0157C15.2288 15.0254 15.5338 15.035 15.8837 15.035L15.9254 16.9387L17.1036 16.9483L17.0907 14.9932C19.0651 14.8905 20.4551 14.3672 20.6381 12.4925C20.7793 10.9772 20.0538 10.3352 18.9366 10.0494H18.9302ZM14.9495 7.35281C15.6044 7.36244 17.6814 7.14736 17.6814 8.5374C17.6718 9.88893 15.5851 9.71557 14.9302 9.70594L14.9495 7.35281ZM14.9334 13.5326V10.9226C15.72 10.9419 18.224 10.7043 18.2561 12.2196C18.2785 13.6931 15.7489 13.5005 14.9334 13.5326Z" fill="#FB7185"/>
<path fill-rule="evenodd" clip-rule="evenodd" d="M6.46856 0H5.46856V1V3.4522L6.83987 2.71309L7.46856 2.37424V2H24.5658V19.0973H7.46856V18.9362L7.31433 19.0193L5.46856 20.0141V20.0973V21.0973H6.46856H25.5658H26.5658V20.0973V1V0H25.5658H6.46856ZM5.46856 18.8781L6.5771 18.2807V3.99072L5.46856 4.58821V18.8781Z" fill="#FB7185"/>
<path d="M7.73893 17.8831L1.1256 21.2649V6.62916L7.73893 3.24728V17.8831Z" fill="#FB7185"/>
<path d="M6.0143 33.6439H0V32.2806L3.9903 27.2836H0.0996265V25.915H6.00381V27.2102L1.96107 32.2806H6.0143V33.6439Z" fill="#FB7185"/>
<path d="M12.5634 33.0671C11.9866 33.595 11.2491 33.8589 10.3507 33.8589C9.23905 33.8589 8.36513 33.5024 7.72892 32.7892C7.09271 32.0726 6.7746 31.0903 6.7746 29.8424C6.7746 28.4931 7.1364 27.4531 7.86001 26.7225C8.48923 26.0863 9.28973 25.7682 10.2615 25.7682C11.5619 25.7682 12.5127 26.1947 13.114 27.0476C13.4461 27.5265 13.6244 28.0072 13.6488 28.4896H12.0338C11.929 28.119 11.7944 27.8394 11.6301 27.6506C11.3364 27.315 10.9012 27.1472 10.3245 27.1472C9.73718 27.1472 9.274 27.3849 8.93492 27.8603C8.59584 28.3323 8.4263 29.0017 8.4263 29.8686C8.4263 30.7355 8.60458 31.3857 8.96114 31.8192C9.3212 32.2492 9.77738 32.4641 10.3297 32.4641C10.896 32.4641 11.3277 32.2789 11.6248 31.9083C11.7891 31.7091 11.9255 31.4102 12.0338 31.0117H13.6331C13.4933 31.8541 13.1367 32.5393 12.5634 33.0671Z" fill="#FB7185"/>
<path d="M19.4796 33.6439V30.1937H16.4593V33.6439H14.8601V25.915H16.4593V28.8619H19.4796V25.915H21.0841V33.6439H19.4796Z" fill="#FB7185"/>
<path d="M28.1104 27.2836H24.2355V29.0611H27.628V30.4034H24.2355V33.6439H22.6309V25.9255H28.1104V27.2836Z" fill="#FB7185"/>
</g>
<defs>
<clipPath id="clip0_8022_11754">
<rect width="39.2428" height="34.3747" fill="white"/>
</clipPath>
</defs>
</svg>
