<svg width="20" height="21" viewBox="0 0 20 21" fill="none" xmlns="http://www.w3.org/2000/svg">
<g clip-path="url(#clip0_8001_15867)">
<g clip-path="url(#clip1_8001_15867)">
<path d="M14.3893 9.57249C14.3982 8.88256 14.5815 8.20609 14.9221 7.60602C15.2627 7.00594 15.7495 6.50177 16.3373 6.1404C15.9639 5.60711 15.4713 5.16824 14.8986 4.85863C14.3259 4.54903 13.6889 4.37722 13.0382 4.35686C11.6501 4.21117 10.3045 5.18746 9.59714 5.18746C8.87612 5.18746 7.78707 4.37133 6.61435 4.39546C5.8558 4.41997 5.11654 4.64055 4.46859 5.03571C3.82063 5.43087 3.28609 5.98714 2.91704 6.65031C1.3184 9.41811 2.51084 13.4859 4.04221 15.7231C4.80838 16.8187 5.70382 18.0424 6.87548 17.999C8.02203 17.9515 8.45024 17.2679 9.83421 17.2679C11.2053 17.2679 11.6071 17.999 12.8025 17.9714C14.0328 17.9514 14.808 16.871 15.5473 15.7651C16.0978 14.9845 16.5214 14.1218 16.8024 13.2088C16.0876 12.9065 15.4777 12.4005 15.0486 11.7539C14.6194 11.1072 14.3902 10.3486 14.3893 9.57249Z" fill="#D9DBE9"/>
<path d="M12.1315 2.88534C12.8023 2.08006 13.1328 1.04501 13.0528 0C12.028 0.10764 11.0813 0.597449 10.4014 1.37183C10.069 1.75014 9.81442 2.19025 9.6522 2.66701C9.48998 3.14376 9.42332 3.64782 9.45603 4.15036C9.96863 4.15563 10.4758 4.04453 10.9392 3.82541C11.4026 3.60629 11.8103 3.28486 12.1315 2.88534Z" fill="#D9DBE9"/>
</g>
</g>
<defs>
<clipPath id="clip0_8001_15867">
<rect width="20" height="20" fill="white" transform="translate(0 0.5)"/>
</clipPath>
<clipPath id="clip1_8001_15867">
<rect width="20" height="20" fill="white" transform="translate(0 0.5)"/>
</clipPath>
</defs>
</svg>
