<svg width="80" height="80" viewBox="0 0 80 80" fill="none" xmlns="http://www.w3.org/2000/svg">
<g clip-path="url(#clip0_8003_10704)">
<g clip-path="url(#clip1_8003_10704)">
<circle cx="40" cy="40" r="38" stroke="#475569" stroke-width="4"/>
<path d="M37.0845 54.4086H42.434V60H37.0845V54.4086ZM28.0254 32.8763C28.0254 29.0054 29.1186 25.8961 31.305 23.5484C33.4913 21.1828 36.4931 20 40.3103 20C43.8408 20 46.6634 21.0125 48.7781 23.0376C50.9107 25.0448 51.977 27.6165 51.977 30.7527C51.977 32.6523 51.5827 34.1935 50.7942 35.3763C50.0236 36.5591 48.4555 38.2975 46.0899 40.5914C44.3695 42.2581 43.2494 43.6738 42.7297 44.8387C42.2279 45.9857 41.977 47.6882 41.977 49.9462H37.1921C37.1921 47.3835 37.4967 45.3226 38.106 43.7634C38.7154 42.1864 40.0505 40.3853 42.1114 38.3602L44.2619 36.2366C44.9071 35.6272 45.4268 34.991 45.8211 34.328C46.5379 33.1631 46.8964 31.9534 46.8964 30.6989C46.8964 28.9427 46.3677 27.4194 45.3103 26.129C44.2709 24.8387 42.5415 24.1935 40.1222 24.1935C37.1293 24.1935 35.0594 25.3047 33.9125 27.5269C33.2673 28.7634 32.8999 30.5466 32.8103 32.8763H28.0254Z" fill="#475569"/>
<path d="M57.2691 19.8483H58.5786V21.1578C58.5786 21.7531 59.0548 22.2531 59.6738 22.2531C60.2929 22.2531 60.7691 21.7769 60.7691 21.1578V19.8483H62.0786C62.6738 19.8483 63.1738 19.3721 63.1738 18.7531C63.1738 18.134 62.6976 17.6578 62.0786 17.6578H60.7691V16.3483C60.7691 15.7531 60.2929 15.2531 59.6738 15.2531C59.0548 15.2531 58.5786 15.7292 58.5786 16.3483V17.6578H57.2691C56.6738 17.6578 56.1738 18.134 56.1738 18.7531C56.1738 19.3721 56.65 19.8483 57.2691 19.8483Z" fill="#475569"/>
<path d="M18.0805 31.6578H16.771V30.3483C16.771 29.7531 16.2948 29.2531 15.6758 29.2531C15.0567 29.2531 14.5805 29.7292 14.5805 30.3483V31.6578H13.271C12.6758 31.6578 12.1758 32.134 12.1758 32.7531C12.1758 33.3721 12.652 33.8483 13.271 33.8483H14.5805V35.1578C14.5805 35.7531 15.0567 36.2531 15.6758 36.2531C16.2948 36.2531 16.771 35.7769 16.771 35.1578V33.8483H18.0805C18.6758 33.8483 19.1758 33.3721 19.1758 32.7531C19.1758 32.134 18.6996 31.6578 18.0805 31.6578Z" fill="#475569"/>
<path d="M66.729 31.6578H65.4194V30.3483C65.4194 29.7531 64.9433 29.2531 64.3242 29.2531C63.7052 29.2531 63.229 29.7292 63.229 30.3483V31.6578H61.9195C61.3242 31.6578 60.8242 32.134 60.8242 32.7531C60.8242 33.3721 61.3004 33.8483 61.9195 33.8483H63.229V35.1578C63.229 35.7531 63.7052 36.2531 64.3242 36.2531C64.9433 36.2531 65.4194 35.7769 65.4194 35.1578V33.8483H66.729C67.3242 33.8483 67.8242 33.3721 67.8242 32.7531C67.8242 32.134 67.348 31.6578 66.729 31.6578Z" fill="#475569"/>
</g>
</g>
<defs>
<clipPath id="clip0_8003_10704">
<rect width="80" height="80" fill="white"/>
</clipPath>
<clipPath id="clip1_8003_10704">
<rect width="80" height="80" fill="white"/>
</clipPath>
</defs>
</svg>
