<svg width="300" height="60" viewBox="0 0 300 60" fill="none" xmlns="http://www.w3.org/2000/svg">
<g clip-path="url(#clip0_8002_13834)">
<path d="M72.4868 32.2656C72.4868 39.508 76.9944 44.3056 83.8939 44.3056C89.8278 44.3056 94.2434 40.6614 94.9333 35.3564H89.2757C88.6778 37.8474 86.6997 39.2312 83.8939 39.2312C80.3064 39.2312 78.0984 36.5556 78.0984 32.2656C78.0984 27.9754 80.4902 25.2538 84.078 25.2538C86.7458 25.2538 88.6318 26.5915 89.2757 29.1749H94.8873C94.2894 23.6853 90.0577 20.2256 83.8482 20.2256C77.1325 20.2256 72.4868 25.2076 72.4868 32.2656Z" fill="white"/>
<path d="M97.7762 32.2657C97.7762 39.3696 102.882 44.2596 109.919 44.2596C116.957 44.2596 122.063 39.3696 122.063 32.2657C122.063 25.1615 116.957 20.2717 109.919 20.2717C102.882 20.2717 97.7762 25.1615 97.7762 32.2657ZM103.388 32.2657C103.388 28.1138 106.056 25.2999 109.919 25.2999C113.783 25.2999 116.451 28.1138 116.451 32.2657C116.451 36.4173 113.783 39.2313 109.919 39.2313C106.056 39.2313 103.388 36.4173 103.388 32.2657Z" fill="white"/>
<path d="M135.848 44.3056C139.298 44.3056 142.242 42.7834 143.621 40.1538L143.989 43.7059H149.141V9.38501H143.576V23.8238C142.15 21.5634 139.344 20.2256 136.17 20.2256C129.316 20.2256 125.177 25.3 125.177 32.4041C125.177 39.462 129.27 44.3056 135.848 44.3056ZM137.09 39.139C133.18 39.139 130.788 36.2789 130.788 32.2194C130.788 28.1601 133.18 25.2538 137.09 25.2538C141 25.2538 143.53 28.1138 143.53 32.2194C143.53 36.3252 141 39.139 137.09 39.139Z" fill="white"/>
<path d="M165.155 44.3056C171.088 44.3056 175.228 41.3072 176.194 36.3252H170.996C170.352 38.4932 168.328 39.6926 165.247 39.6926C161.521 39.6926 159.405 37.6627 158.991 33.6495L176.102 33.6035V31.8966C176.102 24.7925 171.778 20.2256 164.971 20.2256C158.301 20.2256 153.655 25.1615 153.655 32.3117C153.655 39.3696 158.393 44.3056 165.155 44.3056ZM165.017 24.8386C168.374 24.8386 170.536 26.9145 170.536 30.0514H159.129C159.681 26.6377 161.705 24.8386 165.017 24.8386Z" fill="white"/>
<path d="M205.707 37.2937V32.1273H201.614V9.98462H194.208L178.983 32.1273V37.2937H196.048V43.7058H201.614V37.2937H205.707ZM185.239 32.1273L196.048 16.3506V32.1273H185.239Z" fill="white"/>
<path d="M224.589 20.8254C223.669 20.5947 222.887 20.5024 222.105 20.5024C219.069 20.5024 216.907 22.0247 215.941 24.2851L215.619 20.9637H210.329V43.7059H215.941V32.6348C215.941 28.2062 218.471 26.0381 222.519 26.0381H224.589V20.8254Z" fill="white"/>
<path d="M237.789 44.3056C243.722 44.3056 247.862 41.3072 248.828 36.3252H243.63C242.986 38.4932 240.963 39.6926 237.881 39.6926C234.155 39.6926 232.039 37.6627 231.625 33.6495L248.736 33.6035V31.8966C248.736 24.7925 244.412 20.2256 237.605 20.2256C230.935 20.2256 226.29 25.1615 226.29 32.3117C226.29 39.3696 231.027 44.3056 237.789 44.3056ZM237.651 24.8386C241.009 24.8386 243.17 26.9145 243.17 30.0514H231.763C232.315 26.6377 234.339 24.8386 237.651 24.8386Z" fill="white"/>
<path d="M258.839 43.7059V31.4352C258.839 27.7447 260.954 25.346 264.404 25.346C267.302 25.346 269.188 27.1912 269.188 31.0201V43.7059H274.799V29.6823C274.799 23.7776 271.857 20.2256 266.153 20.2256C263.07 20.2256 260.311 21.5633 258.885 23.8699L258.425 20.9175H253.227V43.7059H258.839Z" fill="white"/>
<path d="M287.074 44.3056C290.616 44.3056 293.698 42.691 294.664 40.3384L295.079 43.7058H300V29.8667C300 23.547 296.227 20.2256 290.111 20.2256C283.947 20.2256 279.899 23.4547 279.899 28.3905H284.682C284.682 25.9919 286.524 24.6079 289.833 24.6079C292.685 24.6079 294.526 25.8535 294.526 28.9442V29.4516L287.719 29.959C282.336 30.3744 279.302 33.0037 279.302 37.2016C279.302 41.4916 282.246 44.3056 287.074 44.3056ZM288.915 40.0617C286.384 40.0617 285.005 39.0469 285.005 36.9709C285.005 35.1257 286.339 33.9725 289.833 33.6495L294.571 33.2805V34.4799C294.571 37.9857 292.365 40.0617 288.915 40.0617Z" fill="white"/>
<path d="M59.231 35.5897L55.8749 19.7562C55.8452 19.6156 55.8032 19.4778 55.7489 19.3445C55.2722 17.6977 54.6344 17.3411 53.7741 16.6481C52.9783 16.0508 52.636 15.8247 52.636 15.8247C52.636 15.8247 50.459 20.8058 49.8651 21.2784C44.0426 25.9173 34.2876 33.1455 31.9029 34.45L31.8593 34.4733C31.0754 34.9471 30.1884 35.2272 29.2728 35.291V59.1206C31.3087 59.068 33.2974 58.4989 35.0484 57.468C37.6817 56.0182 44.6862 50.4457 52.8963 43.841L56.1148 41.2547C58.2537 39.5471 59.2807 37.851 59.2571 36.0621C59.2638 35.9042 59.2548 35.746 59.231 35.5897Z" fill="#4D26BC"/>
<path d="M27.1709 34.7677L8.62447 21.1299C8.46976 21.0018 8.33201 20.8545 8.2145 20.6917C8.1981 20.2441 8.0627 19.809 7.8222 19.431C7.58169 19.0529 7.24479 18.7457 6.84603 18.5407L6.96442 15.8247C6.96442 15.8247 6.57754 16.0784 5.6941 16.6118C4.58259 17.2779 3.74823 17.7651 3.17661 20.386L2.74643 22.5312L0.0499267 36.0076C0.0123952 36.1973 -0.00406423 36.3907 0.000846925 36.5841C0.0643619 39.0206 2.15747 40.7275 2.63672 41.0849L23.7873 57.3352C25.3683 58.5185 27.2971 59.146 29.2728 59.1198V35.405C28.5183 35.451 27.7722 35.2248 27.1709 34.7677Z" fill="#2C0E83"/>
<path d="M54.5759 16.835C54.5392 16.8087 54.504 16.7805 54.4701 16.7503C53.8061 16.1928 40.6952 7.24959 32.9394 1.96946C31.913 1.26574 30.6902 0.898862 29.4431 0.920324C28.196 0.941787 26.987 1.35051 25.9857 2.08913L25.0364 2.80132C23.3906 4.03015 20.3341 6.3039 16.6486 8.91038C12.4224 11.9022 8.53413 14.5058 5.07495 16.5693C3.60548 17.445 2.24767 19.8122 5.95664 22.6988C6.34754 22.9907 25.8594 37.366 25.8594 37.366C28.0989 39.0033 30.7497 38.8575 33.3802 37.3424C35.94 35.9385 45.0037 29.1991 50.7201 24.7012L52.172 23.5541C52.3072 23.4461 52.4307 23.341 52.5482 23.2359C54.9905 21.2307 57.0389 18.525 54.5759 16.835Z" fill="#7547F5"/>
</g>
<defs>
<clipPath id="clip0_8002_13834">
<rect width="300" height="58.2012" fill="white" transform="translate(0 0.919434)"/>
</clipPath>
</defs>
</svg>
