<svg width="76" height="52" viewBox="0 0 76 52" fill="none" xmlns="http://www.w3.org/2000/svg">
<g clip-path="url(#clip0_8015_12014)">
<path d="M0.156387 27.0447L1.18729 20.0433C1.19778 19.9882 1.20032 19.9552 1.20684 19.9111C1.80846 15.8254 18.96 14.9672 39.5161 17.994C60.0723 21.0209 76.2484 26.7869 75.6474 30.8725C75.6408 30.9167 75.633 30.9703 75.6275 31.0046L74.5968 38.0021C75.1878 33.9166 59.0151 28.1535 38.4656 25.1276C17.9094 22.1006 0.758004 22.959 0.156387 27.0447Z" fill="url(#paint0_radial_8015_12014)"/>
<path d="M13.0641 51.1479H3.27632L32.1232 0.110474H41.9119L13.0641 51.1479Z" fill="white"/>
<path d="M61.0429 51.1479H70.8316L41.9836 0.110474H32.196L61.0429 51.1479Z" fill="white"/>
<g filter="url(#filter0_ddddd_8015_12014)">
<path d="M37.2554 33.3334C57.8116 36.3603 74.9763 35.4142 75.6414 30.8959L74.54 38.3758C74.5323 38.4342 74.5256 38.4731 74.519 38.5219C73.854 43.0402 56.6506 44.2492 36.0944 41.2224C15.538 38.1955 -0.586574 32.0788 0.0786734 27.5605C0.0858539 27.5117 0.0936981 27.4582 0.100216 27.4144L1.22103 19.803C0.555676 24.3213 16.6993 30.3064 37.2554 33.3334Z" fill="white"/>
</g>
</g>
<defs>
<filter id="filter0_ddddd_8015_12014" x="-334.353" y="-386.037" width="744.406" height="691.91" filterUnits="userSpaceOnUse" color-interpolation-filters="sRGB">
<feFlood flood-opacity="0" result="BackgroundImageFix"/>
<feColorMatrix in="SourceAlpha" type="matrix" values="0 0 0 0 0 0 0 0 0 0 0 0 0 0 0 0 0 0 127 0" result="hardAlpha"/>
<feOffset dy="-2.45347"/>
<feGaussianBlur stdDeviation="5.74334"/>
<feColorMatrix type="matrix" values="0 0 0 0 0 0 0 0 0 0 0 0 0 0 0 0 0 0 0.0930055 0"/>
<feBlend mode="normal" in2="BackgroundImageFix" result="effect1_dropShadow_8015_12014"/>
<feColorMatrix in="SourceAlpha" type="matrix" values="0 0 0 0 0 0 0 0 0 0 0 0 0 0 0 0 0 0 127 0" result="hardAlpha"/>
<feOffset dy="-6.20499"/>
<feGaussianBlur stdDeviation="14.5254"/>
<feColorMatrix type="matrix" values="0 0 0 0 0 0 0 0 0 0 0 0 0 0 0 0 0 0 0.133113 0"/>
<feBlend mode="normal" in2="effect1_dropShadow_8015_12014" result="effect2_dropShadow_8015_12014"/>
<feColorMatrix in="SourceAlpha" type="matrix" values="0 0 0 0 0 0 0 0 0 0 0 0 0 0 0 0 0 0 127 0" result="hardAlpha"/>
<feOffset dy="-12.6576"/>
<feGaussianBlur stdDeviation="29.6303"/>
<feColorMatrix type="matrix" values="0 0 0 0 0 0 0 0 0 0 0 0 0 0 0 0 0 0 0.166887 0"/>
<feBlend mode="normal" in2="effect2_dropShadow_8015_12014" result="effect3_dropShadow_8015_12014"/>
<feColorMatrix in="SourceAlpha" type="matrix" values="0 0 0 0 0 0 0 0 0 0 0 0 0 0 0 0 0 0 127 0" result="hardAlpha"/>
<feOffset dy="-26.0723"/>
<feGaussianBlur stdDeviation="61.0327"/>
<feColorMatrix type="matrix" values="0 0 0 0 0 0 0 0 0 0 0 0 0 0 0 0 0 0 0.206994 0"/>
<feBlend mode="normal" in2="effect3_dropShadow_8015_12014" result="effect4_dropShadow_8015_12014"/>
<feColorMatrix in="SourceAlpha" type="matrix" values="0 0 0 0 0 0 0 0 0 0 0 0 0 0 0 0 0 0 127 0" result="hardAlpha"/>
<feOffset dy="-71.4278"/>
<feGaussianBlur stdDeviation="167.206"/>
<feColorMatrix type="matrix" values="0 0 0 0 0 0 0 0 0 0 0 0 0 0 0 0 0 0 0.3 0"/>
<feBlend mode="normal" in2="effect4_dropShadow_8015_12014" result="effect5_dropShadow_8015_12014"/>
<feBlend mode="normal" in="SourceGraphic" in2="effect5_dropShadow_8015_12014" result="shape"/>
</filter>
<radialGradient id="paint0_radial_8015_12014" cx="0" cy="0" r="1" gradientUnits="userSpaceOnUse" gradientTransform="translate(37.9508 26.916) rotate(10.8674) scale(41.0284 150.227)">
<stop stop-color="#9B9B9B"/>
<stop offset="1" stop-color="#878686"/>
</radialGradient>
<clipPath id="clip0_8015_12014">
<rect width="75.6048" height="51.0375" fill="white" transform="translate(0.0588074 0.110474)"/>
</clipPath>
</defs>
</svg>
