<svg width="38" height="31" viewBox="0 0 38 31" fill="none" xmlns="http://www.w3.org/2000/svg">
<g clip-path="url(#clip0_8007_12033)">
<path fill-rule="evenodd" clip-rule="evenodd" d="M34.5 2.08716H3.5C2.94772 2.08716 2.5 2.53487 2.5 3.08716V7.49527H35.5V3.08716C35.5 2.53487 35.0523 2.08716 34.5 2.08716ZM2.5 27.0872V9.49527H35.5V27.0872C35.5 27.6394 35.0523 28.0872 34.5 28.0872H3.5C2.94772 28.0872 2.5 27.6394 2.5 27.0872ZM3.5 0.0871582C1.84315 0.0871582 0.5 1.4303 0.5 3.08716V27.0872C0.5 28.744 1.84315 30.0872 3.5 30.0872H34.5C36.1569 30.0872 37.5 28.744 37.5 27.0872V3.08716C37.5 1.4303 36.1569 0.0871582 34.5 0.0871582H3.5ZM6.41406 6.00598C7.10658 6.00598 7.66797 5.44459 7.66797 4.75208C7.66797 4.05956 7.10658 3.49817 6.41406 3.49817C5.72155 3.49817 5.16016 4.05956 5.16016 4.75208C5.16016 5.44459 5.72155 6.00598 6.41406 6.00598ZM12.2119 4.75208C12.2119 5.44459 11.6505 6.00598 10.958 6.00598C10.2655 6.00598 9.7041 5.44459 9.7041 4.75208C9.7041 4.05956 10.2655 3.49817 10.958 3.49817C11.6505 3.49817 12.2119 4.05956 12.2119 4.75208ZM15.501 6.00598C16.1935 6.00598 16.7549 5.44459 16.7549 4.75208C16.7549 4.05956 16.1935 3.49817 15.501 3.49817C14.8085 3.49817 14.2471 4.05956 14.2471 4.75208C14.2471 5.44459 14.8085 6.00598 15.501 6.00598Z" fill="#FB7185"/>
</g>
<defs>
<clipPath id="clip0_8007_12033">
<rect width="37" height="30" fill="white" transform="translate(0.5 0.0871582)"/>
</clipPath>
</defs>
</svg>
