<svg width="80" height="80" viewBox="0 0 80 80" fill="none" xmlns="http://www.w3.org/2000/svg">
<g clip-path="url(#clip0_8003_10710)">
<g opacity="0.4" clip-path="url(#clip1_8003_10710)">
<circle cx="40" cy="40" r="40" fill="white"/>
<path d="M65.2322 16.792L63.0322 18.992C73.8962 30.872 73.8962 49.08 63.0322 60.96L65.2322 63.16C77.3202 50.048 77.3202 29.856 65.2322 16.744V16.792Z" fill="#5A5564"/>
<path d="M19.04 16.976C30.92 6.11202 49.128 6.11202 61.008 16.976L63.208 14.776C50.096 2.68802 29.904 2.68802 16.792 14.776L19.04 16.976Z" fill="#5A5564"/>
<path d="M16.976 60.976C6.12796 49.096 6.12796 30.904 16.976 19.032L14.776 16.832C2.68796 29.944 2.68796 50.136 14.776 63.248L16.976 60.976Z" fill="#5A5564"/>
<path d="M60.9756 63.008C49.0956 73.872 30.8876 73.872 19.0076 63.008L16.8076 65.208C29.9196 77.296 50.1116 77.296 63.2236 65.208L60.9756 63.008Z" fill="#5A5564"/>
<path d="M53.8638 32.672C53.4238 28.088 49.4718 26.552 44.4718 26.08V19.768H40.6078V25.96H37.5198V19.768H33.6798V26.12H25.8398V30.256C25.8398 30.256 28.6958 30.208 28.6478 30.256C29.7198 30.136 30.6878 30.888 30.8478 31.952V49.352C30.8238 49.72 30.6558 50.056 30.3758 50.296C30.1038 50.536 29.7438 50.664 29.3838 50.632C29.4318 50.672 26.5758 50.632 26.5758 50.632L25.8398 55.256H33.6078V61.712H37.4718V55.352H40.5598V61.688H44.4318V55.304C50.9598 54.912 55.5198 53.296 56.0878 47.184C56.5518 42.264 54.2318 40.064 50.5358 39.184C52.7838 38.08 54.1758 36.032 53.8638 32.672ZM48.4478 46.424C48.4478 51.224 40.2158 50.68 37.5998 50.68V42.16C40.2238 42.16 48.4478 41.416 48.4478 46.432V46.424ZM46.6558 34.416C46.6558 38.808 39.7838 38.272 37.6078 38.272V30.528C39.7918 30.528 46.6558 29.84 46.6558 34.416Z" fill="#F09242"/>
<path d="M39.992 80C17.904 79.992 0 62.088 0 39.992C0 17.904 17.912 0 40.008 0C62.096 0 80 17.904 80 39.992C80 62.08 62.096 79.992 40.008 80H39.992ZM39.992 3.12C19.64 3.136 3.144 19.648 3.16 40.008C3.176 60.368 19.688 76.856 40.048 76.84C60.384 76.824 76.872 60.336 76.88 39.992C76.888 19.632 60.392 3.128 40.032 3.12C40.016 3.12 40 3.12 39.992 3.12Z" fill="#282138"/>
</g>
</g>
<defs>
<clipPath id="clip0_8003_10710">
<rect width="80" height="80" fill="white"/>
</clipPath>
<clipPath id="clip1_8003_10710">
<rect width="80" height="80" fill="white"/>
</clipPath>
</defs>
</svg>
