<svg width="42" height="42" viewBox="0 0 42 42" fill="none" xmlns="http://www.w3.org/2000/svg">
<g clip-path="url(#clip0_8007_12053)">
<path d="M42 19.58C42 16.9401 42 15.6202 41.1799 14.8001C40.3598 13.98 39.0399 13.98 36.4 13.98H33.62C30.9801 13.98 29.6602 13.98 28.8401 13.1599C28.02 12.3398 28.02 11.0199 28.02 8.38V5.6C28.02 2.96013 28.02 1.6402 27.1999 0.820101C26.3798 0 25.0599 0 22.42 0H19.58C16.9401 0 15.6202 0 14.8001 0.820101C13.98 1.6402 13.98 2.96013 13.98 5.6V8.38C13.98 11.0199 13.98 12.3398 13.1599 13.1599C12.3398 13.98 11.0199 13.98 8.38 13.98H5.6C2.96013 13.98 1.6402 13.98 0.820101 14.8001C0 15.6202 0 16.9401 0 19.58V22.42C0 25.0599 0 26.3798 0.820101 27.1999C1.6402 28.02 2.96013 28.02 5.6 28.02H8.38C11.0199 28.02 12.3398 28.02 13.1599 28.8401C13.98 29.6602 13.98 30.9801 13.98 33.62V36.4C13.98 39.0399 13.98 40.3598 14.8001 41.1799C15.6202 42 16.9401 42 19.58 42H22.42C25.0599 42 26.3798 42 27.1999 41.1799C28.02 40.3598 28.02 39.0399 28.02 36.4V33.62C28.02 30.9801 28.02 29.6602 28.8401 28.8401C29.6602 28.02 30.9801 28.02 33.62 28.02H36.4C39.0399 28.02 40.3598 28.02 41.1799 27.1999C42 26.3798 42 25.0599 42 22.42V19.58ZM22.36 14.04C24.9999 14.04 26.3198 14.04 27.1399 14.8601C27.96 15.6802 27.96 17.0001 27.96 19.64V22.36C27.96 24.9999 27.96 26.3198 27.1399 27.1399C26.3198 27.96 24.9999 27.96 22.36 27.96H19.64C17.0001 27.96 15.6802 27.96 14.8601 27.1399C14.04 26.3198 14.04 24.9999 14.04 22.36V19.64C14.04 17.0001 14.04 15.6802 14.8601 14.8601C15.6802 14.04 17.0001 14.04 19.64 14.04H22.36Z" fill="#E95353"/>
</g>
<defs>
<clipPath id="clip0_8007_12053">
<rect width="42" height="42" fill="white"/>
</clipPath>
</defs>
</svg>
