<svg width="150" height="150" viewBox="0 0 150 150" fill="none" xmlns="http://www.w3.org/2000/svg">
<g clip-path="url(#clip0_8003_10894)">
<path d="M74.4434 150C115.865 150 149.443 116.421 149.443 75C149.443 33.5786 115.865 0 74.4434 0C33.022 0 -0.556641 33.5786 -0.556641 75C-0.556641 116.421 33.022 150 74.4434 150Z" fill="#1F2A3D" fill-opacity="0.3"/>
<circle cx="75" cy="75" r="41" fill="#1F2A3D" stroke="#283243" stroke-width="2"/>
<g opacity="0.4" clip-path="url(#clip1_8003_10894)">
<circle cx="75" cy="75" r="40" fill="white"/>
<path d="M58.8025 50.7877C58.7359 50.9432 58.7137 61.6321 58.7359 74.521L58.8025 97.9655H63.5803H68.3581L68.4248 95.921C68.447 94.7877 68.5359 93.8543 68.6025 93.8543C68.6692 93.8543 69.4025 94.4543 70.2025 95.1877C71.0025 95.8988 72.2248 96.8099 72.9137 97.1655C77.9359 99.8543 84.6914 99.0543 89.2914 95.2321C91.8025 93.121 93.7803 89.8543 94.6914 86.1877C95.4248 83.2988 95.4248 78.1432 94.6914 75.2988C92.6914 67.4543 86.9803 62.7432 79.5137 62.7432C75.5803 62.7432 73.0025 63.7877 70.2914 66.4321C69.3803 67.3432 68.5803 68.0766 68.5581 68.0766C68.5137 68.0766 68.447 64.1432 68.4248 59.3432L68.3581 50.6321L63.6248 50.5655C59.9803 50.521 58.8692 50.5655 58.8025 50.7877ZM78.6248 71.0543C82.2692 72.0321 84.7581 74.7877 85.3803 78.521C85.647 80.121 85.4914 83.2766 85.1137 84.2321C83.9581 87.0766 82.647 88.6543 80.5137 89.6766C79.1359 90.3432 78.8692 90.4099 76.9137 90.3877C75.1581 90.3877 74.6025 90.2766 73.5581 89.8099C71.4025 88.8321 69.6025 86.6321 68.7137 83.8766C68.3581 82.7655 68.4025 78.6099 68.8025 77.3432C69.7803 74.0988 71.9803 71.9432 75.1359 71.0543C76.4692 70.6988 77.247 70.6988 78.6248 71.0543Z" fill="#054F9C"/>
</g>
</g>
<defs>
<clipPath id="clip0_8003_10894">
<rect width="150" height="150" fill="white"/>
</clipPath>
<clipPath id="clip1_8003_10894">
<rect width="80" height="80" fill="white" transform="translate(35 35)"/>
</clipPath>
</defs>
</svg>
